*
*
G04 PADS VX.2.4 Build Number: 11282995 generated Gerber (RS-274-X) file*
G04 PC Version=2.1*
*
%IN "v24.pcb"*%
*
%MOIN*%
*
%FSLAX35Y35*%
*
*
*
*
G04 PC Standard Apertures*
*
*
G04 Thermal Relief Aperture macro.*
%AMTER*
1,1,$1,0,0*
1,0,$1-$2,0,0*
21,0,$3,$4,0,0,45*
21,0,$3,$4,0,0,135*
%
*
*
G04 Annular Aperture macro.*
%AMANN*
1,1,$1,0,0*
1,0,$2,0,0*
%
*
*
G04 Odd Aperture macro.*
%AMODD*
1,1,$1,0,0*
1,0,$1-0.005,0,0*
%
*
*
G04 PC Custom Aperture Macros*
*
*
*
*
*
*
G04 PC Aperture Table*
*
%ADD011C,0.01*%
%ADD043C,0.001*%
%ADD192C,0.00039*%
*
*
*
*
G04 PC Circuitry*
G04 Layer Name v24.pcb - circuitry*
%LPD*%
*
*
G04 PC Custom Flashes*
G04 Layer Name v24.pcb - flashes*
%LPD*%
*
*
G04 PC Circuitry*
G04 Layer Name v24.pcb - circuitry*
%LPD*%
*
G54D11*
G01X1004243Y1253243D02*
G75*
G03X998243Y1247243I-0J-6000D01*
G01X1004243Y1253243D02*
X1106242D01*
X1112242Y1247243D02*
G03X1106242Y1253243I-6000J-0D01*
G01X1112242Y1247243D02*
X1112243Y1235514D01*
X1086353*
G03X1080353Y1229514I-0J-6000*
G01Y1187971*
G03X1086353Y1181971I6000J-0*
G01X1112243*
Y1004243*
X1106243Y998243D02*
G03X1112243Y1004243I-0J6000D01*
G01X1106243Y998243D02*
X1004243D01*
X998243Y1004243D02*
G03X1004243Y998243I6000J-0D01*
G01X998243Y1004243D02*
Y1247243D01*
G54D43*
X1106778Y1081642D02*
X1105978Y1081681D01*
X1106853*
X1106778Y1081642*
X1105978Y1081681D02*
X1105305Y1082078D01*
X1107614*
X1106853Y1081681*
X1105978*
X1105305Y1082078D02*
X1105255Y1082108D01*
X1107632*
X1107614Y1082078*
X1105305*
X1105255Y1082108D02*
X1105148Y1082502D01*
X1107865*
X1107632Y1082108*
X1105255*
X1105148Y1082502D02*
X1105294Y1082887D01*
X1108091*
X1107865Y1082502*
X1105148*
X1105294Y1082887D02*
X1105477Y1083366D01*
X1108123*
X1108091Y1082887*
X1105294*
X1105477Y1083366D02*
X1105892Y1083746D01*
X1108148*
X1108123Y1083366*
X1105477*
X1105892Y1083746D02*
X1106286Y1084107D01*
X1107886*
X1108148Y1083746*
X1105892*
X1106286Y1084107D02*
X1107016Y1084332D01*
X1107722*
X1107886Y1084107*
X1106286*
X1107016Y1084332D02*
X1107306Y1084422D01*
X1107722Y1084332*
X1107016*
X1100030Y1054898D02*
X1100003Y1054900D01*
X1100033*
X1100030Y1054898*
X1100003Y1054900D02*
X1099784Y1055244D01*
X1100515*
X1100033Y1054900*
X1100003*
X1106315Y1055019D02*
X1105941Y1055255D01*
X1106573*
X1106315Y1055019*
X1099784Y1055244D02*
X1099717Y1055348D01*
X1100530*
X1100515Y1055244*
X1099784*
X1099717Y1055348D02*
X1099715Y1055374D01*
X1100534*
X1100530Y1055348*
X1099717*
X1105941Y1055255D02*
X1105626Y1055495D01*
X1106834*
X1106573Y1055255*
X1105941*
X1105626Y1055495D02*
X1105254Y1055584D01*
X1106933*
X1106834Y1055495*
X1105626*
X1099715Y1055374D02*
X1099694Y1055674D01*
X1100951*
X1100534Y1055374*
X1099715*
X1105254Y1055584D02*
X1104645Y1055732D01*
X1107010*
X1106933Y1055584*
X1105254*
X1099694Y1055674D02*
X1099683Y1055828D01*
X1101988*
X1100951Y1055674*
X1099694*
X1099683Y1055828D02*
X1099682Y1055845D01*
X1103326*
X1101988Y1055828*
X1099683*
X1104645Y1055732D02*
X1103326Y1055845D01*
X1107070*
X1107010Y1055732*
X1104645*
X1099682Y1055845D02*
X1099647Y1056341D01*
X1107331*
X1107070Y1055845*
X1099682*
X1099647Y1056341D02*
X1099666Y1056540D01*
X1107435*
X1107331Y1056341*
X1099647*
X1099666Y1056540D02*
X1099738Y1057279D01*
X1107592*
X1107435Y1056540*
X1099666*
X1103644Y1057279D02*
X1104849Y1057316D01*
X1107600*
X1107592Y1057279*
X1103644*
X1099738D02*
X1099742Y1057318D01*
X1102129*
X1103644Y1057279*
X1099738*
X1099742Y1057318D02*
X1099759Y1057491D01*
X1101338*
X1102129Y1057318*
X1099742*
X1099759Y1057491D02*
X1099762Y1057526D01*
X1101312*
X1101338Y1057491*
X1099759*
X1104849Y1057316D02*
X1106040Y1057538D01*
X1107647*
X1107600Y1057316*
X1104849*
X1106040Y1057538D02*
X1106121Y1057610D01*
X1107662*
X1107647Y1057538*
X1106040*
X1099762Y1057526D02*
X1099855Y1057884D01*
X1101043*
X1101312Y1057526*
X1099762*
X1106121Y1057610D02*
X1106552Y1057993D01*
X1107624*
X1107662Y1057610*
X1106121*
X1099855Y1057884D02*
X1099956Y1058271D01*
X1101010*
X1101043Y1057884*
X1099855*
X1106552Y1057993D02*
X1106731Y1058329D01*
X1107590*
X1107624Y1057993*
X1106552*
X1106731Y1058329D02*
X1106891Y1058445D01*
X1107579*
X1107590Y1058329*
X1106731*
X1099956Y1058271D02*
X1100029Y1058552D01*
X1100922*
X1101010Y1058271*
X1099956*
X1106891Y1058445D02*
X1107252Y1058708D01*
X1107579Y1058445*
X1106891*
X1100029Y1058552D02*
X1100362Y1058997D01*
X1100782*
X1100922Y1058552*
X1100029*
X1100362Y1058997D02*
X1100415Y1059068D01*
X1100782Y1058997*
X1100362*
X1105029Y1048236D02*
X1103739Y1048303D01*
X1106134*
X1105029Y1048236*
X1103739Y1048303D02*
X1103707Y1048309D01*
X1106248*
X1106134Y1048303*
X1103739*
X1103707Y1048309D02*
X1102764Y1048510D01*
X1107055*
X1106248Y1048309*
X1103707*
X1102764Y1048510D02*
X1102716Y1048521D01*
X1107064*
X1107055Y1048510*
X1102764*
X1102716Y1048521D02*
X1102536Y1048679D01*
X1107201*
X1107064Y1048521*
X1102716*
X1102536Y1048679D02*
X1102159Y1049011D01*
X1106781*
X1107201Y1048679*
X1102536*
X1102159Y1049011D02*
X1102088Y1049074D01*
X1106510*
X1106781Y1049011*
X1102159*
X1102088Y1049074D02*
X1102086Y1049250D01*
X1105749*
X1106510Y1049074*
X1102088*
X1102086Y1049250D02*
Y1049274D01*
X1105524*
X1105749Y1049250*
X1102086*
Y1049274D02*
X1102083Y1049532D01*
X1104208*
X1105524Y1049274*
X1102086*
X1102083Y1049532D02*
X1102079Y1049958D01*
X1103817*
X1104208Y1049532*
X1102083*
X1102079Y1049958D02*
Y1049986D01*
X1103844*
X1103817Y1049958*
X1102079*
Y1049986D02*
X1102481Y1050504D01*
X1104345*
X1103844Y1049986*
X1102079*
X1102481Y1050504D02*
X1102796Y1050909D01*
X1105275*
X1104345Y1050504*
X1102481*
X1102796Y1050909D02*
X1102994Y1051074D01*
X1105653*
X1105275Y1050909*
X1102796*
X1102994Y1051074D02*
X1103202Y1051247D01*
X1106089*
X1105653Y1051074*
X1102994*
X1103202Y1051247D02*
X1103255Y1051556D01*
X1106866*
X1106089Y1051247*
X1103202*
X1103255Y1051556D02*
X1103260Y1051586D01*
X1106920*
X1106866Y1051556*
X1103255*
X1103260Y1051586D02*
X1102474Y1051873D01*
X1107429*
X1106920Y1051586*
X1103260*
X1102474Y1051873D02*
X1102176Y1051963D01*
X1107589*
X1107429Y1051873*
X1102474*
X1102176Y1051963D02*
X1101872Y1052055D01*
X1107656*
X1107589Y1051963*
X1102176*
X1101872Y1052055D02*
X1101842Y1052083D01*
X1107677*
X1107656Y1052055*
X1101872*
X1101842Y1052083D02*
X1101652Y1052266D01*
X1107338*
X1107677Y1052083*
X1101842*
X1101652Y1052266D02*
X1101754Y1052313D01*
X1107251*
X1107338Y1052266*
X1101652*
X1101754Y1052313D02*
X1102265Y1052546D01*
X1106170*
X1107251Y1052313*
X1101754*
X1102265Y1052546D02*
X1102266D01*
X1106169*
X1106170*
X1102265*
X1102266D02*
X1102605Y1052632D01*
X1105543*
X1106169Y1052546*
X1102266*
X1102605Y1052632D02*
X1102789Y1052645D01*
X1105445*
X1105543Y1052632*
X1102605*
X1102789Y1052645D02*
X1103891Y1052725D01*
X1105445Y1052645*
X1102789*
X1100609Y1042608D02*
X1100599Y1042733D01*
X1100895*
X1100609Y1042608*
X1100599Y1042733D02*
X1100565Y1043159D01*
X1101231*
X1100895Y1042733*
X1100599*
X1100565Y1043159D02*
X1100549Y1043351D01*
X1101450*
X1101231Y1043159*
X1100565*
X1100549Y1043351D02*
X1100524Y1043670D01*
X1101814*
X1101450Y1043351*
X1100549*
X1100524Y1043670D02*
X1100519Y1043728D01*
X1102051*
X1101814Y1043670*
X1100524*
X1104627Y1043873D02*
X1104457Y1043882D01*
X1106232*
X1104627Y1043873*
X1104457Y1043882D02*
X1104254Y1043894D01*
X1106289*
X1106232Y1043882*
X1104457*
X1100519Y1043728D02*
X1100404Y1043896D01*
X1102730*
X1102051Y1043728*
X1100519*
X1104254Y1043894D02*
X1102730Y1043896D01*
X1106299*
X1106289Y1043894*
X1104254*
X1100404Y1043896D02*
X1100274Y1044086D01*
X1107264*
X1106299Y1043896*
X1100404*
X1100274Y1044086D02*
X1100139Y1044283D01*
X1107484*
X1107264Y1044086*
X1100274*
X1100139Y1044283D02*
X1099195Y1044410D01*
X1107626*
X1107484Y1044283*
X1100139*
X1099195Y1044410D02*
X1099105Y1044422D01*
X1107613*
X1107626Y1044410*
X1099195*
X1099105Y1044422D02*
X1099088D01*
X1107613*
X1107613*
X1099105*
X1099088D02*
X1098091Y1044564D01*
X1107457*
X1107613Y1044422*
X1099088*
X1098091Y1044564D02*
X1097823Y1044780D01*
X1107220*
X1107457Y1044564*
X1098091*
X1097823Y1044780D02*
X1097677Y1044898D01*
X1106811*
X1107220Y1044780*
X1097823*
X1097677Y1044898D02*
Y1044908D01*
X1106777*
X1106811Y1044898*
X1097677*
Y1044908D02*
X1097894Y1045073D01*
X1106207*
X1106777Y1044908*
X1097677*
X1097894Y1045073D02*
X1098111Y1045238D01*
X1105050*
X1106207Y1045073*
X1097894*
X1098111Y1045238D02*
X1098545Y1045297D01*
X1104637*
X1105050Y1045238*
X1098111*
X1098545Y1045297D02*
X1099120Y1045374D01*
X1103332*
X1104637Y1045297*
X1098545*
X1099120Y1045374D02*
X1100181Y1045553D01*
X1102448*
X1103332Y1045374*
X1099120*
X1100181Y1045553D02*
X1100232Y1045595D01*
X1102241*
X1102448Y1045553*
X1100181*
X1100232Y1045595D02*
X1100838Y1046089D01*
X1101963*
X1102241Y1045595*
X1100232*
X1100838Y1046089D02*
X1100838D01*
X1101963*
X1101963*
X1100838*
X1101017Y1046424*
X1101841*
X1101963Y1046089*
X1100838*
X1101017Y1046424D02*
X1101427Y1046723D01*
X1101732*
X1101841Y1046424*
X1101017*
X1101427Y1046723D02*
X1101537Y1046803D01*
X1101732Y1046723*
X1101427*
X1102696Y1031274D02*
X1102618Y1031523D01*
X1103413*
X1102696Y1031274*
X1102618Y1031523D02*
X1102566Y1031690D01*
X1103641*
X1103413Y1031523*
X1102618*
X1102566Y1031690D02*
X1102835Y1032220D01*
X1104360*
X1103641Y1031690*
X1102566*
X1102835Y1032220D02*
X1103099Y1032740D01*
X1103099D02*
X1105118D01*
X1104360Y1032220*
X1102835*
X1103099Y1032740D02*
X1103271Y1033023D01*
X1105530*
X1105118Y1032740*
X1103099*
X1103271Y1033023D02*
X1103530Y1033449D01*
X1106571*
X1105530Y1033023*
X1103271*
X1103530Y1033449D02*
X1103543Y1033470D01*
X1106761*
X1106571Y1033449*
X1103530*
X1103543Y1033470D02*
X1103579Y1033529D01*
X1106906*
X1106761Y1033470*
X1103543*
X1103579Y1033529D02*
X1103565Y1033777D01*
X1107513*
X1106906Y1033529*
X1103579*
X1103565Y1033777D02*
X1103559Y1033884D01*
X1107556*
X1107513Y1033777*
X1103565*
X1103559Y1033884D02*
X1102926Y1033946D01*
X1107581*
X1107556Y1033884*
X1103559*
X1102926Y1033946D02*
X1102362Y1034037D01*
X1107617*
X1107581Y1033946*
X1102926*
X1102362Y1034037D02*
X1102209Y1034184D01*
X1107677*
X1107617Y1034037*
X1102362*
X1102209Y1034184D02*
X1101963Y1034422D01*
X1107551*
X1107677Y1034184*
X1102209*
X1101963Y1034422D02*
X1102212Y1034599D01*
X1107457*
X1107551Y1034422*
X1101963*
X1102212Y1034599D02*
X1102266Y1034637D01*
X1107323*
X1107457Y1034599*
X1102212*
X1102266Y1034637D02*
X1103273Y1034821D01*
X1106680*
X1107323Y1034637*
X1102266*
X1103273Y1034821D02*
X1103298Y1034826D01*
X1106588*
X1106680Y1034821*
X1103273*
X1103298Y1034826D02*
X1104790Y1034897D01*
X1105164*
X1106588Y1034826*
X1103298*
X1104790Y1034897D02*
X1104820Y1034898D01*
X1105164Y1034897*
X1104790*
X1106585Y1018323D02*
X1104943Y1018327D01*
X1106607*
X1106585Y1018323*
X1104943Y1018327D02*
X1103412Y1018501D01*
X1107518*
X1106607Y1018327*
X1104943*
X1103412Y1018501D02*
X1103191Y1018526D01*
X1107540*
X1107518Y1018501*
X1103412*
X1103191Y1018526D02*
X1102868Y1018684D01*
X1107677*
X1107540Y1018526*
X1103191*
X1102868Y1018684D02*
X1102227Y1018998D01*
X1107464*
X1107677Y1018684*
X1102868*
X1102227Y1018998D02*
X1102172Y1019166D01*
X1107350*
X1107464Y1018998*
X1102227*
X1102172Y1019166D02*
X1102166Y1019184D01*
X1107231*
X1107350Y1019166*
X1102172*
X1102166Y1019184D02*
X1102082Y1019438D01*
X1107091*
X1107231Y1019184*
X1102166*
X1102082Y1019438D02*
X1102060Y1019507D01*
X1103580*
X1103996Y1019438*
X1102082*
X1103996D02*
X1104013Y1019594D01*
X1107005*
X1107091Y1019438*
X1103996*
X1104013Y1019594D02*
X1104044Y1019885D01*
X1107009*
X1107005Y1019594*
X1104013*
X1102060Y1019507D02*
X1101932Y1019894D01*
X1103234*
X1103580Y1019507*
X1102060*
X1101932Y1019894D02*
X1101957Y1020046D01*
X1103097*
X1103234Y1019894*
X1101932*
X1104044Y1019885D02*
X1103979Y1020112D01*
X1107012*
X1107009Y1019885*
X1104044*
X1103979Y1020112D02*
X1104000Y1020245D01*
X1107014*
X1107012Y1020112*
X1103979*
X1105385Y1020245D02*
X1105426Y1020260D01*
X1107015*
X1107014Y1020245*
X1105385*
X1104000D02*
X1104023Y1020394D01*
X1105026*
X1105385Y1020245*
X1104000*
X1105426Y1020260D02*
X1105846Y1020605D01*
X1107020*
X1107015Y1020260*
X1105426*
X1105846Y1020605D02*
X1105980Y1020716D01*
X1107036*
X1107020Y1020605*
X1105846*
X1104023Y1020394D02*
X1104088Y1020811D01*
X1105108*
X1105026Y1020394*
X1104023*
X1105980Y1020716D02*
X1106026Y1020851D01*
X1107055*
X1107036Y1020716*
X1105980*
X1101957Y1020046D02*
X1102133Y1021149D01*
X1103166*
X1103097Y1020046*
X1101957*
X1104088Y1020811D02*
X1104153Y1021225D01*
X1105416*
X1105108Y1020811*
X1104088*
X1106026Y1020851D02*
X1106175Y1021285D01*
X1107100*
X1107055Y1020851*
X1106026*
X1102133Y1021149D02*
X1102168Y1021364D01*
X1103174*
X1103166Y1021149*
X1102133*
X1104153Y1021225D02*
X1104361Y1021466D01*
X1105595*
X1105416Y1021225*
X1104153*
X1104361Y1021466D02*
X1104447Y1021565D01*
X1105863*
X1105595Y1021466*
X1104361*
X1106175Y1021285D02*
X1105863Y1021565D01*
X1107130*
X1107100Y1021285*
X1106175*
X1104447Y1021565D02*
X1104790Y1021961D01*
X1107171*
X1107130Y1021565*
X1104447*
X1102168Y1021364D02*
X1102386Y1021991D01*
X1103197*
X1103174Y1021364*
X1102168*
X1104790Y1021961D02*
X1104943Y1022138D01*
X1107074*
X1107171Y1021961*
X1104790*
X1102386Y1021991D02*
X1102588Y1022213D01*
X1103205*
X1103197Y1021991*
X1102386*
X1104943Y1022138D02*
X1105806Y1022424D01*
X1106916*
X1107074Y1022138*
X1104943*
X1105806Y1022424D02*
X1105863Y1022442D01*
X1106758*
X1106916Y1022424*
X1105806*
X1102588Y1022213D02*
X1102861Y1022511D01*
X1103205Y1022213*
X1102588*
X1105863Y1022442D02*
X1106089Y1022517D01*
X1106128*
X1106758Y1022442*
X1105863*
X1106089Y1022517D02*
X1106089D01*
X1106128*
X1106089*
X1100500Y1085935D02*
X1100108Y1086076D01*
X1101367*
X1100500Y1085935*
X1100108Y1086076D02*
X1100036Y1086102D01*
X1101451*
X1101367Y1086076*
X1100108*
X1100036Y1086102D02*
X1100269Y1086568D01*
X1102946*
X1101451Y1086102*
X1100036*
X1100269Y1086568D02*
X1100337Y1086620D01*
X1103112*
X1102946Y1086568*
X1100269*
X1100337Y1086620D02*
X1101133Y1087225D01*
X1104566*
X1103112Y1086620*
X1100337*
X1101133Y1087225D02*
X1101317Y1087321D01*
X1104797*
X1104566Y1087225*
X1101133*
X1101317Y1087321D02*
X1102558Y1087967D01*
X1106007*
X1104797Y1087321*
X1101317*
X1102558Y1087967D02*
X1102771Y1088062D01*
X1106185*
X1106007Y1087967*
X1102558*
X1102771Y1088062D02*
X1104255Y1088721D01*
X1107041*
X1106185Y1088062*
X1102771*
X1104255Y1088721D02*
X1104953Y1089031D01*
X1107201*
X1107041Y1088721*
X1104255*
X1104953Y1089031D02*
X1105058Y1089077D01*
X1107166*
X1107201Y1089031*
X1104953*
X1105058Y1089077D02*
X1103943Y1089573D01*
X1106797*
X1107166Y1089077*
X1105058*
X1103943Y1089573D02*
X1102346Y1090283D01*
X1105750*
X1106797Y1089573*
X1103943*
X1102346Y1090283D02*
X1102320Y1090295D01*
X1105727*
X1105750Y1090283*
X1102346*
X1102320Y1090295D02*
X1101172Y1090864D01*
X1104598*
X1105727Y1090295*
X1102320*
X1101172Y1090864D02*
X1101033Y1090932D01*
X1104431*
X1104598Y1090864*
X1101172*
X1101033Y1090932D02*
X1099984Y1091599D01*
X1102817*
X1104431Y1090932*
X1101033*
X1099984Y1091599D02*
X1099773Y1091844D01*
X1102225*
X1102817Y1091599*
X1099984*
X1099773Y1091844D02*
X1099582Y1092067D01*
X1101504*
X1102225Y1091844*
X1099773*
X1099582Y1092067D02*
X1099756Y1092338D01*
X1100627*
X1101504Y1092067*
X1099582*
X1099756Y1092338D02*
X1099766Y1092354D01*
X1100627Y1092338*
X1099756*
X1106303Y1072556D02*
X1105930Y1072872D01*
X1106554*
X1106303Y1072556*
X1105930Y1072872D02*
X1105897Y1073104D01*
X1106739*
X1106554Y1072872*
X1105930*
X1105897Y1073104D02*
X1105829Y1073589D01*
X1106900*
X1106739Y1073104*
X1105897*
X1105829Y1073589D02*
X1105772Y1073997D01*
X1106972*
X1106900Y1073589*
X1105829*
X1105772Y1073997D02*
X1105747Y1074669D01*
X1107088*
X1106972Y1073997*
X1105772*
X1105747Y1074669D02*
X1105722Y1074728D01*
X1107099*
X1107088Y1074669*
X1105747*
X1102915Y1074706D02*
X1102285Y1074888D01*
X1104200*
X1102915Y1074706*
X1102285Y1074888D02*
X1102041Y1074959D01*
X1104430*
X1104200Y1074888*
X1102285*
X1102041Y1074959D02*
X1101953Y1075115D01*
X1104939*
X1104430Y1074959*
X1102041*
X1101953Y1075115D02*
X1101898Y1075211D01*
X1105520*
X1104939Y1075115*
X1101953*
X1105722Y1074728D02*
X1105520Y1075211D01*
X1107130*
X1107099Y1074728*
X1105722*
X1101898Y1075211D02*
X1101569Y1075794D01*
X1107168*
X1107130Y1075211*
X1101898*
X1101569Y1075794D02*
X1101579Y1075913D01*
X1107176*
X1107168Y1075794*
X1101569*
X1101579Y1075913D02*
Y1075923D01*
X1103214*
X1103284Y1075913*
X1101579*
X1103284D02*
X1103778Y1076025D01*
X1107184*
X1107176Y1075913*
X1103284*
X1103778Y1076025D02*
X1104215Y1076124D01*
X1107181*
X1107184Y1076025*
X1103778*
X1101579Y1075923D02*
X1101596Y1076128D01*
X1102734*
X1103214Y1075923*
X1101579*
X1101596Y1076128D02*
X1101638Y1076620D01*
X1102759*
X1102734Y1076128*
X1101596*
X1104215Y1076124D02*
X1105335Y1076757D01*
X1107162*
X1107181Y1076124*
X1104215*
X1105335Y1076757D02*
X1105492Y1076872D01*
X1107159*
X1107162Y1076757*
X1105335*
X1101638Y1076620D02*
X1101667Y1076979D01*
X1102930*
X1102759Y1076620*
X1101638*
X1105492Y1076872D02*
X1105889Y1077139D01*
X1107151*
X1107159Y1076872*
X1105492*
X1101667Y1076979D02*
X1101936Y1077469D01*
X1103164*
X1102930Y1076979*
X1101667*
X1105889Y1077139D02*
X1106425Y1077499D01*
X1107058*
X1107151Y1077139*
X1105889*
X1106425Y1077499D02*
X1106890Y1077729D01*
X1106998*
X1107058Y1077499*
X1106425*
X1106890Y1077729D02*
X1106943Y1077755D01*
X1106998Y1077729*
X1106890*
X1101936Y1077469D02*
X1102374Y1078269D01*
X1103477*
X1103164Y1077469*
X1101936*
X1102374Y1078269D02*
X1102714Y1078629D01*
X1103618*
X1103477Y1078269*
X1102374*
X1102714Y1078629D02*
X1102956Y1078885D01*
X1103568*
X1103618Y1078629*
X1102714*
X1102956Y1078885D02*
X1103519Y1079131D01*
X1103568Y1078885*
X1102956*
X1104328Y1066433D02*
X1104278Y1066568D01*
X1104627*
X1104627D02*
X1104328Y1066433D01*
X1104278Y1066568D02*
X1104146Y1066922D01*
X1104851*
X1104627Y1066568*
X1104627D02*
X1104278D01*
X1104146Y1066922D02*
X1104057Y1067160D01*
X1105135*
X1104851Y1066922*
X1104146*
X1104057Y1067160D02*
X1103806Y1067618D01*
X1105682*
X1105135Y1067160*
X1104057*
X1103806Y1067618D02*
X1103730Y1067755D01*
X1106272*
X1105682Y1067618*
X1103806*
X1103730Y1067755D02*
X1103668Y1067869D01*
X1106629*
X1106272Y1067755*
X1103730*
X1103668Y1067869D02*
X1103271Y1068007D01*
X1107059*
X1106629Y1067869*
X1103668*
X1103271Y1068007D02*
X1102621Y1068232D01*
X1107078*
X1107059Y1068007*
X1103271*
X1102621Y1068232D02*
X1102122Y1068262D01*
X1107081*
X1107078Y1068232*
X1102621*
X1102122Y1068262D02*
X1101629Y1068536D01*
X1107105*
X1107081Y1068262*
X1102122*
X1101629Y1068536D02*
X1101562Y1068573D01*
X1107049*
X1107105Y1068536*
X1101629*
X1101562Y1068573D02*
X1101737Y1069005D01*
X1106399*
X1107049Y1068573*
X1101562*
X1101737Y1069005D02*
X1101745Y1069027D01*
X1106321*
X1106399Y1069005*
X1101737*
X1101745Y1069027D02*
X1101809Y1069184D01*
X1106110*
X1106321Y1069027*
X1101745*
X1104105Y1069184D02*
X1104434Y1069236D01*
X1106040*
X1106110Y1069184*
X1104105*
X1101809D02*
X1101836Y1069252D01*
X1103684*
X1104105Y1069184*
X1101809*
X1101836Y1069252D02*
X1101872Y1069286D01*
X1103470*
X1103684Y1069252*
X1101836*
X1101872Y1069286D02*
X1101960Y1069371D01*
X1103391*
X1103470Y1069286*
X1101872*
X1104434Y1069236D02*
X1104688Y1069506D01*
X1105676*
X1106040Y1069236*
X1104434*
X1104688Y1069506D02*
X1104820Y1069645D01*
X1105674*
X1105676Y1069506*
X1104688*
X1101960Y1069371D02*
X1102277Y1069678D01*
X1103763*
X1103391Y1069371*
X1101960*
X1102277Y1069678D02*
X1102436Y1069832D01*
X1104105*
X1103763Y1069678*
X1102277*
X1102436Y1069832D02*
X1102446Y1069842D01*
X1104719*
X1104105Y1069832*
X1102436*
X1104820Y1069645D02*
X1104719Y1069842D01*
X1105671*
X1105674Y1069645*
X1104820*
X1102446Y1069842D02*
X1102951Y1070332D01*
X1105664*
X1105671Y1069842*
X1102446*
X1102951Y1070332D02*
X1103056Y1070411D01*
X1105662*
X1105664Y1070332*
X1102951*
X1103056Y1070411D02*
X1103889Y1071038D01*
X1105621*
X1105662Y1070411*
X1103056*
X1103889Y1071038D02*
X1104529Y1071329D01*
X1105602*
X1105621Y1071038*
X1103889*
X1104529Y1071329D02*
X1104719Y1071415D01*
X1105346*
X1105602Y1071329*
X1104529*
X1104719Y1071415D02*
X1104986Y1071537D01*
X1105346Y1071415*
X1104719*
X1103926Y1036441D02*
X1103048Y1036613D01*
X1104075*
X1103926Y1036441*
X1105118Y1036456D02*
X1104988Y1036713D01*
X1105834*
X1105118Y1036456*
X1104988Y1036713D02*
X1104932Y1036823D01*
X1105973*
X1105834Y1036713*
X1104988*
X1103048Y1036613D02*
X1102717Y1036882D01*
X1104307*
X1104075Y1036613*
X1103048*
X1104932Y1036823D02*
X1105066Y1037038D01*
X1106245*
X1105973Y1036823*
X1104932*
X1102717Y1036882D02*
X1102590Y1037133D01*
X1104524*
X1104307Y1036882*
X1102717*
X1102590Y1037133D02*
X1102403Y1037505D01*
X1104592*
X1104524Y1037133*
X1102590*
X1102403Y1037505D02*
X1102396Y1037517D01*
X1103391*
X1103414Y1037505*
X1102403*
X1105066Y1037038D02*
X1105458Y1037671D01*
X1106646*
X1106245Y1037038*
X1105066*
X1103414Y1037505D02*
X1103741Y1037740D01*
X1104635*
X1104592Y1037505*
X1103414*
X1102396Y1037517D02*
X1102134Y1038036D01*
X1103080*
X1103391Y1037517*
X1102396*
X1102134Y1038036D02*
X1102133Y1038191D01*
X1102987*
X1103080Y1038036*
X1102134*
X1105458Y1037671D02*
X1105863Y1038196D01*
X1106980*
X1106646Y1037671*
X1105458*
X1105863Y1038196D02*
X1105977Y1038345D01*
X1107000*
X1106980Y1038196*
X1105863*
X1103741Y1037740D02*
X1103857Y1038632D01*
X1104799*
X1104635Y1037740*
X1103741*
X1102133Y1038191D02*
X1102128Y1038708D01*
X1102915*
X1102987Y1038191*
X1102133*
X1103857Y1038632D02*
X1103867Y1038708D01*
X1104801*
X1104799Y1038632*
X1103857*
X1103867Y1038708D02*
Y1038778D01*
X1104803*
X1104801Y1038708*
X1103867*
Y1038778D02*
X1103815Y1039123D01*
X1104812*
X1104803Y1038778*
X1103867*
X1105977Y1038345D02*
X1106179Y1039281D01*
X1107132*
X1107000Y1038345*
X1105977*
X1102128Y1038708D02*
X1102122Y1039431D01*
X1103096*
X1102915Y1038708*
X1102128*
X1106179Y1039281D02*
X1105944Y1039593D01*
X1107176*
X1107132Y1039281*
X1106179*
X1102122Y1039431D02*
X1102208Y1039608D01*
X1103140*
X1103096Y1039431*
X1102122*
X1103815Y1039123D02*
X1103727Y1039710D01*
X1104849*
X1104812Y1039123*
X1103815*
X1102208Y1039608D02*
X1102349Y1039898D01*
X1103391*
X1103140Y1039608*
X1102208*
X1103727Y1039710D02*
X1103391Y1039898D01*
X1104860*
X1104849Y1039710*
X1103727*
X1105944Y1039593D02*
X1105534Y1040136D01*
X1107003*
X1107176Y1039593*
X1105944*
X1102349Y1039898D02*
X1102473Y1040155D01*
X1104876*
X1104860Y1039898*
X1102349*
X1102473Y1040155D02*
X1102590Y1040396D01*
X1105129*
X1104876Y1040155*
X1102473*
X1105534Y1040136D02*
X1105129Y1040396D01*
X1106921*
X1107003Y1040136*
X1105534*
X1102590Y1040396D02*
X1102715Y1040655D01*
X1106839*
X1106921Y1040396*
X1102590*
X1102715Y1040655D02*
X1102865Y1040799D01*
X1106793*
X1106839Y1040655*
X1102715*
X1102865Y1040799D02*
X1102912Y1040845D01*
X1106754*
X1106793Y1040799*
X1102865*
X1102912Y1040845D02*
X1103217Y1040993D01*
X1106629*
X1106754Y1040845*
X1102912*
X1103217Y1040993D02*
X1103391Y1041078D01*
X1106447*
X1106629Y1040993*
X1103217*
X1103391Y1041078D02*
X1104141Y1041442D01*
X1105662*
X1106447Y1041078*
X1103391*
X1104141Y1041442D02*
X1105528Y1041504D01*
X1105662Y1041442*
X1104141*
X1098719Y1024062D02*
X1098190Y1024304D01*
X1099196*
X1098719Y1024062*
X1098190Y1024304D02*
X1097894Y1024439D01*
X1099170*
X1099196Y1024304*
X1098190*
X1097894Y1024439D02*
X1097513Y1024821D01*
X1099097*
X1099170Y1024439*
X1097894*
X1097513Y1024821D02*
X1097464Y1024950D01*
X1099073*
X1099097Y1024821*
X1097513*
X1097464Y1024950D02*
X1097355Y1025236D01*
X1098836*
X1099073Y1024950*
X1097464*
X1102048Y1025425D02*
X1102021Y1025636D01*
X1102361*
X1102048Y1025425*
X1097355Y1025236D02*
X1097121Y1025852D01*
X1098515*
X1098836Y1025236*
X1097355*
X1102021Y1025636D02*
X1101978Y1025970D01*
X1102622*
X1102361Y1025636*
X1102021*
X1097121Y1025852D02*
X1097180Y1025994D01*
X1098441*
X1098515Y1025852*
X1097121*
X1101978Y1025970D02*
X1101947Y1026035D01*
X1102673*
X1102622Y1025970*
X1101978*
X1097180Y1025994D02*
X1097399Y1026528D01*
X1098920*
X1098441Y1025994*
X1097180*
X1101947Y1026035D02*
X1101681Y1026592D01*
X1103332*
X1102673Y1026035*
X1101947*
X1101681Y1026592D02*
X1101545Y1026619D01*
X1103364*
X1103332Y1026592*
X1101681*
X1106565Y1026588D02*
X1105277Y1026675D01*
X1106783*
X1106565Y1026588*
X1101545Y1026619D02*
X1100840Y1026759D01*
X1104408*
X1103364Y1026619*
X1101545*
X1105277Y1026675D02*
X1104408Y1026759D01*
X1106992*
X1106783Y1026675*
X1105277*
X1097399Y1026528D02*
X1097504Y1026782D01*
X1100208*
X1098920Y1026528*
X1097399*
X1097504Y1026782D02*
X1097510Y1026796D01*
X1100653*
X1100208Y1026782*
X1097504*
X1100840Y1026759D02*
X1100653Y1026796D01*
X1107085*
X1106992Y1026759*
X1100840*
X1097510Y1026796D02*
Y1026797D01*
X1107088*
X1107085Y1026796*
X1097510*
Y1026797D02*
X1097536Y1026814D01*
X1107130*
X1107088Y1026797*
X1097510*
X1097536Y1026814D02*
X1097952Y1027086D01*
X1107201*
X1107130Y1026814*
X1097536*
X1097952Y1027086D02*
X1098564Y1027488D01*
X1106881*
X1107201Y1027086*
X1097952*
X1098564Y1027488D02*
X1099027Y1027565D01*
X1106819*
X1106819D02*
X1106881Y1027488D01*
X1098564*
X1099027Y1027565D02*
X1100140Y1027751D01*
X1105620*
X1106819Y1027565*
X1106819D02*
X1099027D01*
X1100140Y1027751D02*
X1100168Y1027755D01*
X1105296*
X1105620Y1027751*
X1100140*
X1100168Y1027755D02*
X1101118Y1027873D01*
X1103971*
X1105296Y1027755*
X1100168*
X1101118Y1027873D02*
X1101563Y1027928D01*
X1103894*
X1103971Y1027873*
X1101118*
X1101563Y1027928D02*
X1101999Y1028264D01*
X1103426*
X1103894Y1027928*
X1101563*
X1101999Y1028264D02*
X1102267Y1028470D01*
X1103391*
X1103426Y1028264*
X1101999*
X1102267Y1028470D02*
X1102267D01*
X1103391*
X1103391*
X1102267*
X1102445Y1028805*
X1103269*
X1103391Y1028470*
X1102267*
X1102445Y1028805D02*
X1102856Y1029104D01*
X1103161*
X1103269Y1028805*
X1102445*
X1102856Y1029104D02*
X1102966Y1029184D01*
X1103161Y1029104*
X1102856*
X1103517Y1012623D02*
X1102697Y1012682D01*
X1103623*
X1103517Y1012623*
X1102697Y1012682D02*
X1102604Y1012762D01*
X1103769*
X1103623Y1012682*
X1102697*
X1105118Y1012646D02*
X1104988Y1012903D01*
X1105834*
X1105118Y1012646*
X1104988Y1012903D02*
X1104932Y1013014D01*
X1105973*
X1105834Y1012903*
X1104988*
X1102604Y1012762D02*
X1102266Y1013053D01*
X1103746*
X1103769Y1012762*
X1102604*
X1102266Y1013053D02*
X1102224Y1013209D01*
X1103734*
X1103746Y1013053*
X1102266*
X1104932Y1013014D02*
X1105066Y1013229D01*
X1106245*
X1105973Y1013014*
X1104932*
X1102224Y1013209D02*
X1102189Y1013336D01*
X1103510*
X1103734Y1013209*
X1102224*
X1105066Y1013229D02*
X1105458Y1013861D01*
X1106630*
X1106245Y1013229*
X1105066*
X1102189Y1013336D02*
X1102029Y1013926D01*
X1102973*
X1103510Y1013336*
X1102189*
X1105458Y1013861D02*
X1105524Y1013937D01*
X1106676*
X1106630Y1013861*
X1105458*
X1102029Y1013926D02*
X1101989Y1014071D01*
X1102982*
X1102973Y1013926*
X1102029*
X1105524Y1013937D02*
X1105856Y1014550D01*
X1107049*
X1106676Y1013937*
X1105524*
X1101989Y1014071D02*
X1102089Y1014832D01*
X1103027*
X1102982Y1014071*
X1101989*
X1105856Y1014550D02*
X1106140Y1015075D01*
X1107049*
Y1014550*
X1105856*
X1102089Y1014832D02*
X1102152Y1015312D01*
X1103361*
X1103027Y1014832*
X1102089*
X1102152Y1015312D02*
X1102350Y1015675D01*
X1103614*
X1103361Y1015312*
X1102152*
X1102350Y1015675D02*
X1102457Y1015870D01*
X1103905*
X1103614Y1015675*
X1102350*
X1106140Y1015075D02*
X1105974Y1015907D01*
X1107050*
X1107049Y1015075*
X1106140*
X1105974Y1015907D02*
X1105327Y1016176D01*
X1107050*
Y1015907*
X1105974*
X1102457Y1015870D02*
X1102658Y1016238D01*
X1105178*
X1103905Y1015870*
X1102457*
X1105327Y1016176D02*
X1105178Y1016238D01*
X1107030*
X1107050Y1016176*
X1105327*
X1102658Y1016238D02*
X1102751Y1016408D01*
X1106975*
X1107030Y1016238*
X1102658*
X1102751Y1016408D02*
X1102854Y1016512D01*
X1106941*
X1106975Y1016408*
X1102751*
X1102854Y1016512D02*
X1103178Y1016684D01*
X1106885*
X1106941Y1016512*
X1102854*
X1103178Y1016684D02*
X1103855Y1017044D01*
X1106397*
X1106885Y1016684*
X1103178*
X1103855Y1017044D02*
X1104482Y1017155D01*
X1106246*
X1106397Y1017044*
X1103855*
X1104482Y1017155D02*
X1105111Y1017266D01*
X1106246Y1017155*
X1104482*
X1103926Y1006441D02*
X1103048Y1006613D01*
X1104075*
X1103926Y1006441*
X1105118Y1006456D02*
X1104988Y1006713D01*
X1105834*
X1105118Y1006456*
X1104988Y1006713D02*
X1104932Y1006823D01*
X1105973*
X1105834Y1006713*
X1104988*
X1103048Y1006613D02*
X1102717Y1006882D01*
X1104307*
X1104075Y1006613*
X1103048*
X1104932Y1006823D02*
X1105066Y1007038D01*
X1106245*
X1105973Y1006823*
X1104932*
X1102717Y1006882D02*
X1102590Y1007133D01*
X1104524*
X1104307Y1006882*
X1102717*
X1102590Y1007133D02*
X1102403Y1007505D01*
X1104592*
X1104524Y1007133*
X1102590*
X1102403Y1007505D02*
X1102396Y1007517D01*
X1103391*
X1103414Y1007505*
X1102403*
X1105066Y1007038D02*
X1105458Y1007671D01*
X1106646*
X1106245Y1007038*
X1105066*
X1103414Y1007505D02*
X1103741Y1007740D01*
X1104635*
X1104592Y1007505*
X1103414*
X1102396Y1007517D02*
X1102134Y1008036D01*
X1103080*
X1103391Y1007517*
X1102396*
X1102134Y1008036D02*
X1102133Y1008191D01*
X1102987*
X1103080Y1008036*
X1102134*
X1105458Y1007671D02*
X1105863Y1008196D01*
X1106980*
X1106646Y1007671*
X1105458*
X1105863Y1008196D02*
X1105977Y1008345D01*
X1107000*
X1106980Y1008196*
X1105863*
X1103741Y1007740D02*
X1103857Y1008632D01*
X1104799*
X1104635Y1007740*
X1103741*
X1102133Y1008191D02*
X1102128Y1008708D01*
X1102915*
X1102987Y1008191*
X1102133*
X1103857Y1008632D02*
X1103867Y1008708D01*
X1104801*
X1104799Y1008632*
X1103857*
X1103867Y1008708D02*
Y1008778D01*
X1104803*
X1104801Y1008708*
X1103867*
Y1008778D02*
X1103815Y1009123D01*
X1104812*
X1104803Y1008778*
X1103867*
X1105977Y1008345D02*
X1106179Y1009281D01*
X1107132*
X1107000Y1008345*
X1105977*
X1102128Y1008708D02*
X1102122Y1009431D01*
X1103096*
X1102915Y1008708*
X1102128*
X1106179Y1009281D02*
X1105944Y1009593D01*
X1107176*
X1107132Y1009281*
X1106179*
X1102122Y1009431D02*
X1102208Y1009608D01*
X1103140*
X1103096Y1009431*
X1102122*
X1103815Y1009123D02*
X1103727Y1009710D01*
X1104849*
X1104812Y1009123*
X1103815*
X1102208Y1009608D02*
X1102349Y1009898D01*
X1103391*
X1103140Y1009608*
X1102208*
X1103727Y1009710D02*
X1103391Y1009898D01*
X1104860*
X1104849Y1009710*
X1103727*
X1105944Y1009593D02*
X1105534Y1010136D01*
X1107003*
X1107176Y1009593*
X1105944*
X1102349Y1009898D02*
X1102473Y1010155D01*
X1104876*
X1104860Y1009898*
X1102349*
X1102473Y1010155D02*
X1102590Y1010396D01*
X1105129*
X1104876Y1010155*
X1102473*
X1105534Y1010136D02*
X1105129Y1010396D01*
X1106921*
X1107003Y1010136*
X1105534*
X1102590Y1010396D02*
X1102715Y1010655D01*
X1106839*
X1106921Y1010396*
X1102590*
X1102715Y1010655D02*
X1102865Y1010799D01*
X1106793*
X1106839Y1010655*
X1102715*
X1102865Y1010799D02*
X1102912Y1010845D01*
X1106754*
X1106793Y1010799*
X1102865*
X1102912Y1010845D02*
X1103217Y1010993D01*
X1106629*
X1106754Y1010845*
X1102912*
X1103217Y1010993D02*
X1103391Y1011078D01*
X1106447*
X1106629Y1010993*
X1103217*
X1103391Y1011078D02*
X1104141Y1011442D01*
X1105662*
X1106447Y1011078*
X1103391*
X1104141Y1011442D02*
X1105528Y1011504D01*
X1105662Y1011442*
X1104141*
X1098252Y1065002D02*
X1097778Y1065016D01*
X1098990*
X1098252Y1065002*
X1097778Y1065016D02*
X1096995Y1065040D01*
X1099073*
X1098990Y1065016*
X1097778*
X1096995Y1065040D02*
X1096993D01*
X1099073*
X1099073*
X1096995*
X1096993D02*
X1096882Y1065046D01*
X1099067*
X1099073Y1065040*
X1096993*
X1096882Y1065046D02*
X1096027Y1065140D01*
X1098969*
X1099067Y1065046*
X1096882*
X1096027Y1065140D02*
X1095276Y1065373D01*
X1098725*
X1098969Y1065140*
X1096027*
X1095276Y1065373D02*
X1095227Y1065388D01*
X1098708*
X1098725Y1065373*
X1095276*
X1095227Y1065388D02*
X1094773Y1065643D01*
X1098425*
X1098708Y1065388*
X1095227*
X1094773Y1065643D02*
X1094753Y1065654D01*
X1095931*
X1096217Y1065643*
X1094773*
X1094753Y1065654D02*
X1094331Y1065890D01*
X1095599*
X1095931Y1065654*
X1094753*
X1096217Y1065643D02*
X1095987Y1065977D01*
X1098054*
X1098425Y1065643*
X1096217*
X1094331Y1065890D02*
X1093923Y1066195D01*
X1095170*
X1095599Y1065890*
X1094331*
X1095987Y1065977D02*
X1095781Y1066195D01*
X1097811*
X1098054Y1065977*
X1095987*
X1093923Y1066195D02*
X1093387Y1066595D01*
X1094708*
X1095170Y1066195*
X1093923*
X1093387Y1066595D02*
X1093188Y1066743D01*
X1094546*
X1094708Y1066595*
X1093387*
X1095781Y1066195D02*
X1095178Y1066833D01*
X1097091*
X1097811Y1066195*
X1095781*
X1095178Y1066833D02*
X1094628Y1067370D01*
X1096483*
X1097091Y1066833*
X1095178*
X1093188Y1066743D02*
X1092289Y1067504D01*
X1093711*
X1094546Y1066743*
X1093188*
X1092289Y1067504D02*
X1091648Y1068046D01*
X1093123*
X1093711Y1067504*
X1092289*
X1094628Y1067370D02*
X1093923Y1068059D01*
X1095699*
X1096483Y1067370*
X1094628*
X1091648Y1068046D02*
X1091559Y1068125D01*
X1093037*
X1093123Y1068046*
X1091648*
X1091559Y1068125D02*
X1091437Y1068234D01*
X1092923*
X1093037Y1068125*
X1091559*
X1093923Y1068059D02*
X1093627Y1068336D01*
X1095382*
X1095699Y1068059*
X1093923*
X1091437Y1068234D02*
X1090990Y1068629D01*
X1090990D02*
X1092491D01*
X1092491D02*
X1092923Y1068234D01*
X1091437*
X1093627Y1068336D02*
X1092362Y1069526D01*
X1094019*
X1095382Y1068336*
X1093627*
X1090990Y1068629D02*
X1089978Y1069527D01*
X1091500*
X1092491Y1068629*
X1092491D02*
X1090990D01*
X1092362Y1069526D02*
X1091981Y1069877D01*
X1093618*
X1094019Y1069526*
X1092362*
X1089978Y1069527D02*
X1089560Y1069898D01*
X1091088*
X1091500Y1069527*
X1089978*
X1089560Y1069898D02*
X1088789Y1070586D01*
X1090325*
X1091088Y1069898*
X1089560*
X1088789Y1070586D02*
X1088559Y1070791D01*
X1090099*
X1090325Y1070586*
X1088789*
X1091981Y1069877D02*
X1090639Y1071107D01*
X1092202*
X1093618Y1069877*
X1091981*
X1090639Y1071107D02*
X1090369Y1071349D01*
X1091924*
X1092202Y1071107*
X1090639*
X1088559Y1070791D02*
X1086940Y1072231D01*
X1088499*
X1090099Y1070791*
X1088559*
X1086940Y1072231D02*
X1086849Y1072311D01*
X1088412*
X1088499Y1072231*
X1086940*
X1090369Y1071349D02*
X1089051Y1072532D01*
X1090556*
X1091924Y1071349*
X1090369*
X1089051Y1072532D02*
X1088895Y1072673D01*
X1090392*
X1090556Y1072532*
X1089051*
X1088895Y1072673D02*
X1088567Y1072960D01*
X1090058*
X1090392Y1072673*
X1088895*
X1086849Y1072311D02*
X1085265Y1073710D01*
X1086892*
X1088412Y1072311*
X1086849*
X1085265Y1073710D02*
X1085127Y1073831D01*
X1086767*
X1086892Y1073710*
X1085265*
X1088567Y1072960D02*
X1087271Y1074095D01*
X1088729*
X1090058Y1072960*
X1088567*
X1087271Y1074095D02*
X1086930Y1074383D01*
X1088391*
X1088729Y1074095*
X1087271*
X1086930Y1074383D02*
X1086907Y1074403D01*
X1091129*
X1088391Y1074383*
X1086930*
X1086907Y1074403D02*
X1086860Y1074442D01*
X1092672*
X1091129Y1074403*
X1086907*
X1086860Y1074442D02*
X1086674Y1074599D01*
X1093490*
X1092672Y1074442*
X1086860*
X1085127Y1073831D02*
X1083841Y1074954D01*
X1085611*
X1086767Y1073831*
X1085127*
X1086674Y1074599D02*
X1086230Y1074974D01*
X1093812*
X1093490Y1074599*
X1086674*
X1083841Y1074954D02*
X1083784Y1075003D01*
X1085564*
X1085611Y1074954*
X1083841*
X1086230Y1074974D02*
X1085911Y1075244D01*
X1093836*
X1093812Y1074974*
X1086230*
X1085911Y1075244D02*
X1085440Y1075612D01*
X1093867*
X1093836Y1075244*
X1085911*
X1083784Y1075003D02*
X1082987Y1075682D01*
X1084926*
X1085564Y1075003*
X1083784*
X1082987Y1075682D02*
X1082803Y1075832D01*
X1084785*
X1084926Y1075682*
X1082987*
X1085440Y1075612D02*
X1084955Y1075992D01*
X1093750*
X1093867Y1075612*
X1085440*
X1082803Y1075832D02*
X1082339Y1076211D01*
X1084545*
X1084785Y1075832*
X1082803*
X1084955Y1075992D02*
X1084545Y1076211D01*
X1093682*
X1093750Y1075992*
X1084955*
X1082339Y1076211D02*
X1081887Y1076580D01*
X1093568*
X1093682Y1076211*
X1082339*
X1081887Y1076580D02*
X1081736Y1076704D01*
X1093221*
X1093568Y1076580*
X1081887*
X1081736Y1076704D02*
X1084546Y1076738D01*
X1093125*
X1093221Y1076704*
X1081736*
X1084546Y1076738D02*
X1086641Y1076763D01*
X1093053*
X1093125Y1076738*
X1084546*
X1086641Y1076763D02*
X1088126Y1076783D01*
X1092997*
X1093053Y1076763*
X1086641*
X1088126Y1076783D02*
X1089966Y1076814D01*
X1092909*
X1092997Y1076783*
X1088126*
X1089966Y1076814D02*
X1091288Y1076845D01*
X1092825*
X1092909Y1076814*
X1089966*
X1091288Y1076845D02*
X1091874Y1076869D01*
X1092755*
X1092825Y1076845*
X1091288*
X1091874Y1076869D02*
X1092616Y1076919D01*
X1092755Y1076869*
X1091874*
X1092547Y1106475D02*
X1091826Y1106749D01*
X1093082*
X1092547Y1106475*
X1091826Y1106749D02*
X1091757Y1106787D01*
X1093156*
X1093082Y1106749*
X1091826*
X1091757Y1106787D02*
X1091495Y1106931D01*
X1093176*
X1093156Y1106787*
X1091757*
X1091495Y1106931D02*
X1090368Y1107181D01*
X1093210*
X1093176Y1106931*
X1091495*
X1090368Y1107181D02*
X1088867Y1107279D01*
X1093224*
X1093210Y1107181*
X1090368*
X1088867Y1107279D02*
X1088004Y1107314D01*
X1093229*
X1093224Y1107279*
X1088867*
X1088004Y1107314D02*
X1087162Y1107442D01*
X1093247*
X1093229Y1107314*
X1088004*
X1087162Y1107442D02*
X1086649Y1107520D01*
X1093244*
X1093247Y1107442*
X1087162*
X1086649Y1107520D02*
X1085867Y1107851D01*
X1093231*
X1093244Y1107520*
X1086649*
X1085867Y1107851D02*
X1085837Y1107886D01*
X1093230*
X1093231Y1107851*
X1085867*
X1085837Y1107886D02*
X1085692Y1108325D01*
X1093213*
X1093230Y1107886*
X1085837*
X1085692Y1108325D02*
X1085563Y1108720D01*
X1093294*
X1093213Y1108325*
X1085692*
X1085563Y1108720D02*
X1085535Y1108946D01*
X1093340*
X1093294Y1108720*
X1085563*
X1085535Y1108946D02*
X1085447Y1109675D01*
X1093436*
X1093340Y1108946*
X1085535*
X1085447Y1109675D02*
X1085439Y1109737D01*
X1088853*
X1089782Y1109675*
X1085447*
X1085439Y1109737D02*
Y1109740D01*
X1088829*
X1088853Y1109737*
X1085439*
X1089782Y1109675D02*
X1089882Y1109863D01*
X1093461*
X1093436Y1109675*
X1089782*
X1085439Y1109740D02*
X1085423Y1109865D01*
X1088082*
X1088829Y1109740*
X1085439*
X1089882Y1109863D02*
X1089929Y1109951D01*
X1093464*
X1093461Y1109863*
X1089882*
X1085423Y1109865D02*
X1085385Y1110178D01*
X1087666*
X1088082Y1109865*
X1085423*
X1085385Y1110178D02*
X1085381Y1110209D01*
X1085381D02*
X1087658D01*
X1087666Y1110178*
X1085385*
X1089929Y1109951D02*
X1089424Y1110794D01*
X1093495*
X1093464Y1109951*
X1089929*
X1085381Y1110209D02*
X1085349Y1110905D01*
X1087484*
X1087658Y1110209*
X1085381*
X1089424Y1110794D02*
X1089339Y1110926D01*
X1093500*
X1093495Y1110794*
X1089424*
X1089339Y1110926D02*
X1089320Y1110955D01*
X1091167*
X1091364Y1110926*
X1089339*
X1089320Y1110955D02*
X1089197Y1111143D01*
X1091055*
X1091167Y1110955*
X1089320*
X1091364Y1110926D02*
X1091423Y1111424D01*
X1093518*
X1093500Y1110926*
X1091364*
X1089197Y1111143D02*
X1088953Y1111578D01*
X1090795*
X1091055Y1111143*
X1089197*
X1091423Y1111424D02*
X1091444Y1111610D01*
X1093516*
X1093518Y1111424*
X1091423*
X1088953Y1111578D02*
X1088904Y1111667D01*
X1090747*
X1090795Y1111578*
X1088953*
X1088904Y1111667D02*
X1088726Y1111984D01*
X1090486*
X1090747Y1111667*
X1088904*
X1085349Y1110905D02*
X1085293Y1112087D01*
X1087446*
X1087484Y1110905*
X1085349*
X1085293Y1112087D02*
Y1112272D01*
X1087440*
X1087446Y1112087*
X1085293*
X1088726Y1111984D02*
X1088777Y1112403D01*
X1090140*
X1090486Y1111984*
X1088726*
X1088777Y1112403D02*
X1089140Y1112587D01*
X1089989*
X1090140Y1112403*
X1088777*
X1089140Y1112587D02*
X1089337Y1112687D01*
X1089989Y1112587*
X1089140*
X1085293Y1112272D02*
X1085295Y1112993D01*
X1087439*
X1087440Y1112272*
X1085293*
X1091444Y1111610D02*
X1091467Y1113127D01*
X1093502*
X1093516Y1111610*
X1091444*
X1091467Y1113127D02*
X1091468Y1113281D01*
X1093501*
X1093502Y1113127*
X1091467*
X1091468Y1113281D02*
X1091466Y1113320D01*
X1093501*
Y1113281*
X1091468*
X1091466Y1113320D02*
X1091447Y1113685D01*
X1093488*
X1093501Y1113320*
X1091466*
X1085295Y1112993D02*
X1085297Y1114086D01*
X1087451*
X1087439Y1112993*
X1085295*
X1085297Y1114086D02*
X1085328Y1114659D01*
X1087458*
X1087451Y1114086*
X1085297*
X1091447Y1113685D02*
X1091379Y1114986D01*
X1093399*
X1093488Y1113685*
X1091447*
X1091379Y1114986D02*
X1091154Y1115552D01*
X1093360*
X1093399Y1114986*
X1091379*
X1085328Y1114659D02*
X1085377Y1115599D01*
X1087578*
X1087458Y1114659*
X1085328*
X1091154Y1115552D02*
X1091002Y1115933D01*
X1093307*
X1093360Y1115552*
X1091154*
X1085377Y1115599D02*
X1085395Y1115939D01*
X1087821*
X1087578Y1115599*
X1085377*
X1085395Y1115939D02*
X1085408Y1116039D01*
X1087894*
X1087821Y1115939*
X1085395*
X1085408Y1116039D02*
X1085430Y1116208D01*
X1088498*
X1087894Y1116039*
X1085408*
X1085430Y1116208D02*
X1085435Y1116243D01*
X1088788*
X1088498Y1116208*
X1085430*
X1085435Y1116243D02*
X1085442Y1116294D01*
X1090188*
X1088788Y1116243*
X1085435*
X1091002Y1115933D02*
X1090188Y1116294D01*
X1093257*
X1093307Y1115933*
X1091002*
X1085442Y1116294D02*
X1085546Y1117083D01*
X1093148*
X1093257Y1116294*
X1085442*
X1085546Y1117083D02*
X1085585Y1117378D01*
X1093065*
X1093148Y1117083*
X1085546*
X1085585Y1117378D02*
X1085816Y1117999D01*
X1092892*
X1093065Y1117378*
X1085585*
X1085816Y1117999D02*
X1085850Y1118090D01*
X1092835*
X1092892Y1117999*
X1085816*
X1085850Y1118090D02*
X1085867Y1118136D01*
X1092734*
X1092835Y1118090*
X1085850*
X1085867Y1118136D02*
X1086246Y1118351D01*
X1092267*
X1092734Y1118136*
X1085867*
X1086246Y1118351D02*
X1086685Y1118444D01*
X1092065*
X1092267Y1118351*
X1086246*
X1086685Y1118444D02*
X1087444Y1118605D01*
X1090984*
X1092065Y1118444*
X1086685*
X1087444Y1118605D02*
X1088158Y1118650D01*
X1090687*
X1090984Y1118605*
X1087444*
X1088158Y1118650D02*
X1088423Y1118666D01*
X1090188*
X1090687Y1118650*
X1088158*
X1088423Y1118666D02*
X1089036Y1118704D01*
X1090188Y1118666*
X1088423*
X1088555Y1093470D02*
X1085296D01*
X1088557*
X1088555*
X1085296D02*
Y1093563D01*
X1090678*
X1088557Y1093470*
X1085296*
Y1093563D02*
Y1093951D01*
X1092079*
X1090678Y1093563*
X1085296*
Y1093951D02*
Y1094795D01*
X1092916*
X1092079Y1093951*
X1085296*
Y1094795D02*
Y1094875D01*
X1092939*
X1092916Y1094795*
X1085296*
Y1094875D02*
X1085297Y1095139D01*
X1093016*
X1092939Y1094875*
X1085296*
X1085297Y1095139D02*
X1085382Y1095798D01*
X1093209*
X1093016Y1095139*
X1085297*
X1085382Y1095798D02*
X1085760Y1096156D01*
X1093313*
X1093209Y1095798*
X1085382*
X1085760Y1096156D02*
X1086291Y1096258D01*
X1093343*
X1093313Y1096156*
X1085760*
X1086291Y1096258D02*
X1086650Y1096326D01*
X1093348*
X1093343Y1096258*
X1086291*
X1086650Y1096326D02*
X1088272Y1096423D01*
X1093356*
X1093348Y1096326*
X1086650*
X1088272Y1096423D02*
X1091248Y1096565D01*
X1093367*
X1093356Y1096423*
X1088272*
X1091248Y1096565D02*
X1091350Y1098499D01*
X1093518*
X1093367Y1096565*
X1091248*
X1091350Y1098499D02*
X1091356Y1098613D01*
X1093522*
X1093518Y1098499*
X1091350*
X1091356Y1098613D02*
X1091389Y1099242D01*
X1093524*
X1093522Y1098613*
X1091356*
X1091389Y1099242D02*
X1091416Y1100490D01*
X1093529*
X1093524Y1099242*
X1091389*
X1091416Y1100490D02*
X1091417Y1100532D01*
X1093527*
X1093529Y1100490*
X1091416*
X1091417Y1100532D02*
X1091210Y1101601D01*
X1093463*
X1093527Y1100532*
X1091417*
X1091210Y1101601D02*
X1090643Y1102130D01*
X1093432*
X1093463Y1101601*
X1091210*
X1090643Y1102130D02*
X1090575Y1102194D01*
X1093421*
X1093432Y1102130*
X1090643*
X1090575Y1102194D02*
X1089336Y1102451D01*
X1093377*
X1093421Y1102194*
X1090575*
X1089336Y1102451D02*
X1087320Y1102511D01*
X1093367*
X1093377Y1102451*
X1089336*
X1087320Y1102511D02*
X1086948Y1102514D01*
X1093366*
X1093367Y1102511*
X1087320*
X1086948Y1102514D02*
X1085856Y1102611D01*
X1093350*
X1093366Y1102514*
X1086948*
X1085856Y1102611D02*
X1085392Y1102957D01*
X1093290*
X1093350Y1102611*
X1085856*
X1085392Y1102957D02*
X1085366Y1103163D01*
X1093255*
X1093290Y1102957*
X1085392*
X1085366Y1103163D02*
X1085296Y1103708D01*
X1092946*
X1093255Y1103163*
X1085366*
X1085296Y1103708D02*
X1085320Y1103993D01*
X1092783*
X1092946Y1103708*
X1085296*
X1085320Y1103993D02*
X1085351Y1104351D01*
X1092193*
X1092783Y1103993*
X1085320*
X1085351Y1104351D02*
X1085497Y1104519D01*
X1091917*
X1092193Y1104351*
X1085351*
X1085497Y1104519D02*
X1085674Y1104720D01*
X1090879*
X1091917Y1104519*
X1085497*
X1085674Y1104720D02*
X1086105Y1104798D01*
X1090480*
X1090879Y1104720*
X1085674*
X1086105Y1104798D02*
X1086492Y1104868D01*
X1088832*
X1090480Y1104798*
X1086105*
X1086492Y1104868D02*
X1087956Y1104890D01*
X1088292*
X1088832Y1104868*
X1086492*
X1087956Y1104890D02*
X1088034Y1104892D01*
X1088292Y1104890*
X1087956*
X1093501Y1078808D02*
X1092747Y1078921D01*
X1093571*
X1093501Y1078808*
X1092747Y1078921D02*
X1091984Y1079325D01*
X1093818*
X1093571Y1078921*
X1092747*
X1091984Y1079325D02*
X1091395Y1079637D01*
X1093839*
X1093818Y1079325*
X1091984*
X1091395Y1079637D02*
X1090910Y1079918D01*
X1093857*
X1093839Y1079637*
X1091395*
X1090910Y1079918D02*
X1090620Y1080081D01*
X1093867*
X1093857Y1079918*
X1090910*
X1090620Y1080081D02*
X1089320Y1080809D01*
X1093710*
X1093867Y1080081*
X1090620*
X1089320Y1080809D02*
X1088537Y1081232D01*
X1093618*
X1093710Y1080809*
X1089320*
X1088537Y1081232D02*
X1087677Y1081696D01*
X1092925*
X1093618Y1081232*
X1088537*
X1087677Y1081696D02*
X1087665Y1081703D01*
X1092915*
X1092925Y1081696*
X1087677*
X1087665Y1081703D02*
X1087203Y1081957D01*
X1092396*
X1092915Y1081703*
X1087665*
X1087203Y1081957D02*
X1086819Y1082167D01*
X1092289*
X1092396Y1081957*
X1087203*
X1086819Y1082167D02*
X1086349Y1082527D01*
X1092107*
X1092289Y1082167*
X1086819*
X1086349Y1082527D02*
X1085940Y1082839D01*
X1092073*
X1092107Y1082527*
X1086349*
X1085940Y1082839D02*
X1085706Y1083328D01*
X1092019*
X1092073Y1082839*
X1085940*
X1089663Y1083328D02*
X1090236Y1083330D01*
X1092018*
X1092019Y1083328*
X1089663*
X1090236Y1083330D02*
X1090347Y1083639D01*
X1091984*
X1092018Y1083330*
X1090236*
X1085706Y1083328D02*
X1085544Y1083667D01*
X1088754*
X1089663Y1083328*
X1085706*
X1085544Y1083667D02*
X1085541Y1083692D01*
X1088685*
X1088754Y1083667*
X1085544*
X1090347Y1083639D02*
X1090380Y1083730D01*
X1091983*
X1091984Y1083639*
X1090347*
X1085541Y1083692D02*
X1085478Y1084246D01*
X1087677*
X1088685Y1083692*
X1085541*
X1090380Y1083730D02*
X1090497Y1084717D01*
X1091968*
X1091983Y1083730*
X1090380*
X1085478Y1084246D02*
X1085412Y1084814D01*
X1087016*
X1087677Y1084246*
X1085478*
X1085412Y1084814D02*
X1085408Y1084848D01*
X1086993*
X1087016Y1084814*
X1085412*
X1085408Y1084848D02*
X1085391Y1084997D01*
X1087073*
X1086993Y1084848*
X1085408*
X1090497Y1084717D02*
X1090507Y1085075D01*
X1091963*
X1091968Y1084717*
X1090497*
X1085391Y1084997D02*
X1085373Y1085272D01*
X1087218*
X1087073Y1084997*
X1085391*
X1090507Y1085075D02*
X1090532Y1085889D01*
X1091983*
X1091963Y1085075*
X1090507*
X1085373Y1085272D02*
X1085329Y1085943D01*
X1087974*
X1087218Y1085272*
X1085373*
X1085329Y1085943D02*
X1085283Y1086643D01*
X1088961*
X1087974Y1085943*
X1085329*
X1090532Y1085889D02*
X1090479Y1086828D01*
X1092007*
X1091983Y1085889*
X1090532*
X1090479Y1086828D02*
X1090477Y1086869D01*
X1092014*
X1092007Y1086828*
X1090479*
X1085283Y1086643D02*
X1085249Y1087153D01*
X1089880*
X1088961Y1086643*
X1085283*
X1085249Y1087153D02*
X1085248Y1087168D01*
X1089934*
X1089880Y1087153*
X1085249*
X1085248Y1087168D02*
X1085441Y1087279D01*
X1090323*
X1089934Y1087168*
X1085248*
X1090477Y1086869D02*
X1090323Y1087279D01*
X1092084*
X1092014Y1086869*
X1090477*
X1085441Y1087279D02*
X1086477Y1087877D01*
X1092185*
X1092084Y1087279*
X1085441*
X1086477Y1087877D02*
X1087499Y1088467D01*
X1092559*
X1092185Y1087877*
X1086477*
X1087499Y1088467D02*
X1087917Y1088708D01*
X1092915*
X1092559Y1088467*
X1087499*
X1087917Y1088708D02*
X1089045Y1089358D01*
X1093520*
X1092915Y1088708*
X1087917*
X1089045Y1089358D02*
X1089059Y1089367D01*
X1093523*
X1093520Y1089358*
X1089045*
X1089059Y1089367D02*
X1089934Y1089863D01*
X1093696*
X1093523Y1089367*
X1089059*
X1089934Y1089863D02*
X1090323Y1090075D01*
X1093769*
X1093696Y1089863*
X1089934*
X1090323Y1090075D02*
X1090725Y1090292D01*
X1093845*
X1093769Y1090075*
X1090323*
X1090725Y1090292D02*
X1091544Y1090736D01*
X1093839*
X1093845Y1090292*
X1090725*
X1091544Y1090736D02*
X1092372Y1091147D01*
X1093833*
X1093839Y1090736*
X1091544*
X1092372Y1091147D02*
X1092760Y1091340D01*
X1093644*
X1093833Y1091147*
X1092372*
X1092760Y1091340D02*
X1093360Y1091562D01*
X1093426*
X1093644Y1091340*
X1092760*
X1093360Y1091562D02*
X1093369Y1091565D01*
X1093426Y1091562*
X1093360*
X1089343Y1064898D02*
X1088578Y1064899D01*
X1088578D02*
X1089374D01*
X1089374D02*
X1089343Y1064898D01*
X1088578Y1064899D02*
X1086749Y1064917D01*
X1091178*
X1089374Y1064899*
X1089374D02*
X1088578D01*
X1086749Y1064917D02*
X1086734Y1064918D01*
X1091287*
X1091178Y1064917*
X1086749*
X1086734Y1064918D02*
X1086004Y1064971D01*
X1086004D02*
X1092813D01*
X1092813D02*
X1091287Y1064918D01*
X1086734*
X1086004Y1064971D02*
X1085638Y1064998D01*
X1093123*
X1092813Y1064971*
X1092813D02*
X1086004D01*
X1085638Y1064998D02*
X1085485Y1065049D01*
X1093713*
X1093123Y1064998*
X1085638*
X1085485Y1065049D02*
X1085327Y1065102D01*
X1093867*
X1093713Y1065049*
X1085485*
X1085327Y1065102D02*
X1085064Y1065189D01*
X1093794*
X1093867Y1065102*
X1085327*
X1085064Y1065189D02*
X1084873Y1065501D01*
X1093534*
X1093794Y1065189*
X1085064*
X1084873Y1065501D02*
X1084851Y1065537D01*
X1093494*
X1093534Y1065501*
X1084873*
X1084851Y1065537D02*
X1084820Y1066089D01*
X1092870*
X1093494Y1065537*
X1084851*
X1084820Y1066089D02*
X1084830Y1066231D01*
X1092710*
X1092870Y1066089*
X1084820*
X1084830Y1066231D02*
X1084844Y1066411D01*
X1092488*
X1092710Y1066231*
X1084830*
X1084844Y1066411D02*
X1084865Y1066694D01*
X1092158*
X1092488Y1066411*
X1084844*
X1084865Y1066694D02*
X1085166Y1067089D01*
X1091696*
X1092158Y1066694*
X1084865*
X1085166Y1067089D02*
X1085406Y1067137D01*
X1091638*
X1091696Y1067089*
X1085166*
X1085406Y1067137D02*
X1085954Y1067249D01*
X1091513*
X1091638Y1067137*
X1085406*
X1085954Y1067249D02*
X1087463Y1067279D01*
X1091480*
X1091513Y1067249*
X1085954*
X1087463Y1067279D02*
X1090106D01*
X1091479*
X1091480*
X1087463*
X1090106D02*
X1088875Y1068361D01*
X1090266*
X1091479Y1067279*
X1090106*
X1088875Y1068361D02*
X1087093Y1069928D01*
X1088541*
X1090266Y1068361*
X1088875*
X1087093Y1069928D02*
X1085095Y1071684D01*
X1086635*
X1088541Y1069928*
X1087093*
X1085095Y1071684D02*
X1084824Y1071922D01*
X1086379*
X1086635Y1071684*
X1085095*
X1084824Y1071922D02*
X1084706Y1072026D01*
X1086267*
X1086379Y1071922*
X1084824*
X1084706Y1072026D02*
X1084515Y1072199D01*
X1086081*
X1086267Y1072026*
X1084706*
X1084515Y1072199D02*
X1082558Y1073971D01*
X1084116*
X1086081Y1072199*
X1084515*
X1082558Y1073971D02*
X1082532Y1073993D01*
X1084089*
X1084116Y1073971*
X1082558*
X1082532Y1073993D02*
X1081128Y1075379D01*
X1082430*
X1084089Y1073993*
X1082532*
X1081128Y1075379D02*
X1081060Y1075446D01*
X1082339*
X1082430Y1075379*
X1081128*
X1081060Y1075446D02*
X1080337Y1076327D01*
X1081145*
X1082339Y1075446*
X1081060*
X1080337Y1076327D02*
X1080309Y1076362D01*
X1081078*
X1081145Y1076327*
X1080337*
X1080309Y1076362D02*
X1080298Y1076721D01*
X1080384*
X1081078Y1076362*
X1080309*
X1080298Y1076721D02*
Y1076723D01*
X1080384Y1076721*
X1080298*
X1086010Y1052517D02*
X1084820D01*
X1086011*
X1086010*
X1084820D02*
Y1052606D01*
X1086745*
X1086011Y1052517*
X1084820*
Y1052606D02*
Y1053043D01*
X1087093*
X1086745Y1052606*
X1084820*
Y1053043D02*
Y1054082D01*
X1087196*
X1087093Y1053043*
X1084820*
Y1054082D02*
Y1054660D01*
X1087201*
X1087196Y1054082*
X1084820*
Y1054660D02*
Y1056803D01*
X1087201*
Y1054660*
X1084820*
Y1056803D02*
X1084820D01*
X1090296*
X1087201*
X1084820*
Y1056824*
X1091960*
X1090296Y1056803*
X1084820*
Y1056824D02*
Y1056942D01*
X1092886*
X1091960Y1056824*
X1084820*
Y1056942D02*
Y1057239D01*
X1093291*
X1092886Y1056942*
X1084820*
Y1057239D02*
Y1057799D01*
X1093389*
X1093291Y1057239*
X1084820*
Y1057799D02*
Y1057993D01*
X1093391*
X1093389Y1057799*
X1084820*
Y1057993D02*
Y1058633D01*
X1093337*
X1093391Y1057993*
X1084820*
Y1058633D02*
Y1058990D01*
X1093031*
X1093337Y1058633*
X1084820*
Y1058990D02*
Y1059146D01*
X1092257*
X1093031Y1058990*
X1084820*
Y1059146D02*
Y1059183D01*
X1090801*
X1092257Y1059146*
X1084820*
Y1059183D02*
Y1059184D01*
X1090296*
X1090801Y1059183*
X1084820*
Y1059184D02*
Y1061327D01*
X1087201*
Y1059184*
X1084820*
Y1061327D02*
Y1062649D01*
X1087151*
X1087201Y1061327*
X1084820*
Y1062649D02*
Y1063276D01*
X1086909*
X1087151Y1062649*
X1084820*
Y1063276D02*
Y1063461D01*
X1086331*
X1086909Y1063276*
X1084820*
Y1063461D02*
Y1063470D01*
X1086010*
X1086331Y1063461*
X1084820*
X1093034Y1040220D02*
X1092846Y1040312D01*
X1093113*
X1093034Y1040220*
X1092846Y1040312D02*
X1092454Y1040511D01*
X1093283*
X1093113Y1040312*
X1092846*
X1092454Y1040511D02*
X1091942Y1040770D01*
X1093313*
X1093283Y1040511*
X1092454*
X1091942Y1040770D02*
X1090635Y1041438D01*
X1093391*
X1093313Y1040770*
X1091942*
X1090635Y1041438D02*
X1090564Y1041474D01*
X1093391*
Y1041438*
X1090635*
X1090564Y1041474D02*
X1090506Y1041504D01*
X1093385*
X1093391Y1041474*
X1090564*
X1090506Y1041504D02*
X1088748Y1042408D01*
X1093208*
X1093385Y1041504*
X1090506*
X1088748Y1042408D02*
X1088359Y1042609D01*
X1093168*
X1093208Y1042408*
X1088748*
X1088359Y1042609D02*
X1088335Y1042621D01*
X1093166*
X1093168Y1042609*
X1088359*
X1088335Y1042621D02*
X1087308Y1043166D01*
X1092677*
X1093166Y1042621*
X1088335*
X1087308Y1043166D02*
X1086655Y1043511D01*
X1092348*
X1092677Y1043166*
X1087308*
X1086655Y1043511D02*
X1086510Y1043602D01*
X1092261*
X1092348Y1043511*
X1086655*
X1086510Y1043602D02*
X1085611Y1044167D01*
X1092137*
X1092261Y1043602*
X1086510*
X1085611Y1044167D02*
X1085350Y1044438D01*
X1092077*
X1092137Y1044167*
X1085611*
X1090058Y1044438D02*
Y1044627D01*
X1092035*
X1092077Y1044438*
X1090058*
X1085350D02*
X1085065Y1044732D01*
X1089441*
X1090058Y1044438*
X1085350*
X1085065Y1044732D02*
X1084899Y1045236D01*
X1088382*
X1089441Y1044732*
X1085065*
X1084899Y1045236D02*
X1084858Y1045362D01*
X1088161*
X1088382Y1045236*
X1084899*
X1084858Y1045362D02*
X1084839Y1045881D01*
X1087246*
X1088161Y1045362*
X1084858*
X1084839Y1045881D02*
X1084827Y1046213D01*
X1087071*
X1087246Y1045881*
X1084839*
X1090058Y1044627D02*
Y1046412D01*
X1091963*
X1092035Y1044627*
X1090058*
X1084827Y1046213D02*
X1084838Y1046451D01*
X1086945*
X1087071Y1046213*
X1084827*
X1090058Y1046412D02*
Y1046565D01*
X1091963*
Y1046412*
X1090058*
X1084838Y1046451D02*
X1084869Y1047119D01*
X1087489*
X1086945Y1046451*
X1084838*
X1084869Y1047119D02*
X1084881Y1047394D01*
X1087890*
X1087489Y1047119*
X1084869*
X1084881Y1047394D02*
X1085020Y1047827D01*
X1088518*
X1087890Y1047394*
X1084881*
X1085020Y1047827D02*
X1085192Y1048363D01*
X1089366*
X1088518Y1047827*
X1085020*
X1090058Y1046565D02*
Y1048408D01*
X1092026*
X1091963Y1046565*
X1090058*
X1085192Y1048363D02*
X1085654Y1048801D01*
X1090058*
X1089366Y1048363*
X1085192*
X1090058Y1048408D02*
Y1048801D01*
X1092105*
X1092026Y1048408*
X1090058*
X1085654Y1048801D02*
X1085969Y1049101D01*
X1092165*
X1092105Y1048801*
X1085654*
X1085969Y1049101D02*
X1086651Y1049478D01*
X1092240*
X1092165Y1049101*
X1085969*
X1086651Y1049478D02*
X1087418Y1049903D01*
X1092602*
X1092240Y1049478*
X1086651*
X1087418Y1049903D02*
X1087509Y1049949D01*
X1092642*
X1092602Y1049903*
X1087418*
X1087509Y1049949D02*
X1087538Y1049964D01*
X1092677*
X1092642Y1049949*
X1087509*
X1087538Y1049964D02*
X1087687Y1050040D01*
X1092740*
X1092677Y1049964*
X1087538*
X1087687Y1050040D02*
X1088521Y1050500D01*
X1093118*
X1092740Y1050040*
X1087687*
X1088521Y1050500D02*
X1089387Y1050978D01*
X1093243*
X1093118Y1050500*
X1088521*
X1089387Y1050978D02*
X1090058Y1051387D01*
X1093349*
X1093243Y1050978*
X1089387*
X1090058Y1051387D02*
X1090148Y1051442D01*
X1093364*
X1093349Y1051387*
X1090058*
X1090148Y1051442D02*
X1090937Y1051922D01*
X1093370*
X1093364Y1051442*
X1090148*
X1090937Y1051922D02*
X1091296Y1052151D01*
X1093373*
X1093370Y1051922*
X1090937*
X1091296Y1052151D02*
X1091722Y1052393D01*
X1093375*
X1093375D02*
X1093373Y1052151D01*
X1091296*
X1091722Y1052393D02*
X1092355Y1052752D01*
X1093208*
X1093375Y1052393*
X1093375D02*
X1091722D01*
X1092355Y1052752D02*
X1092890Y1052958D01*
X1093113*
X1093208Y1052752*
X1092355*
X1092890Y1052958D02*
X1092981Y1052993D01*
X1093113Y1052958*
X1092890*
X1092965Y1027602D02*
X1091963Y1027654D01*
X1093012*
X1092965Y1027602*
X1091963Y1027654D02*
X1091945Y1027656D01*
X1093014*
X1093012Y1027654*
X1091963*
X1088298Y1027774D02*
X1086925Y1027776D01*
X1088306*
X1088298Y1027774*
X1091945Y1027656D02*
X1090948Y1027957D01*
X1093288*
X1093014Y1027656*
X1091945*
X1090948Y1027957D02*
X1090891Y1028015D01*
X1093341*
X1093288Y1027957*
X1090948*
X1086925Y1027776D02*
X1085739Y1028025D01*
X1089447*
X1088306Y1027776*
X1086925*
X1085739Y1028025D02*
X1085728Y1028034D01*
X1089486*
X1089447Y1028025*
X1085739*
X1085728Y1028034D02*
X1085346Y1028327D01*
X1089963*
X1089486Y1028034*
X1085728*
X1090891Y1028015D02*
X1090534Y1028381D01*
X1093366*
X1093341Y1028015*
X1090891*
X1085346Y1028327D02*
X1085109Y1028509D01*
X1090272*
X1089963Y1028327*
X1085346*
X1085109Y1028509D02*
X1085085Y1028614D01*
X1090452*
X1090272Y1028509*
X1085109*
X1090534Y1028381D02*
X1090452Y1028614D01*
X1093381*
X1093366Y1028381*
X1090534*
X1085085Y1028614D02*
X1085052Y1028757D01*
X1093391*
X1093381Y1028614*
X1085085*
X1085052Y1028757D02*
X1085043Y1028799D01*
X1093383*
X1093391Y1028757*
X1085052*
X1085043Y1028799D02*
X1084946Y1029789D01*
X1093183*
X1093383Y1028799*
X1085043*
X1084946Y1029789D02*
X1084928Y1029966D01*
X1092861*
X1093183Y1029789*
X1084946*
X1084928Y1029966D02*
X1084921Y1030136D01*
X1092553*
X1092861Y1029966*
X1084928*
X1088162Y1030136D02*
X1088584Y1030192D01*
X1092452*
X1092553Y1030136*
X1088162*
X1088584Y1030192D02*
X1088596Y1030205D01*
X1092429*
X1092452Y1030192*
X1088584*
X1088596Y1030205D02*
X1088613Y1030222D01*
X1092320*
X1092429Y1030205*
X1088596*
X1088613Y1030222D02*
X1088799Y1030417D01*
X1091704*
X1092320Y1030222*
X1088613*
X1088799Y1030417D02*
X1088921Y1030546D01*
X1091618*
X1091704Y1030417*
X1088799*
X1084921Y1030136D02*
X1084901Y1030563D01*
X1087302*
X1088162Y1030136*
X1084921*
X1088921Y1030546D02*
X1088988Y1030939D01*
X1091356*
X1091618Y1030546*
X1088921*
X1088988Y1030939D02*
X1089071Y1031419D01*
X1091277*
X1091356Y1030939*
X1088988*
X1084901Y1030563D02*
X1084849Y1031701D01*
X1086866*
X1087302Y1030563*
X1084901*
X1084849Y1031701D02*
X1084848Y1031788D01*
X1086833*
X1086866Y1031701*
X1084849*
X1089071Y1031419D02*
X1089084Y1032025D01*
X1091177*
X1091277Y1031419*
X1089071*
X1089084Y1032025D02*
X1089105Y1033027D01*
X1091111*
X1091177Y1032025*
X1089084*
X1089105Y1033027D02*
Y1033073D01*
X1091108*
X1091111Y1033027*
X1089105*
Y1033073D02*
Y1033112D01*
X1091105*
X1091108Y1033073*
X1089105*
X1084848Y1031788D02*
X1084820Y1033731D01*
X1086785*
X1086833Y1031788*
X1084848*
X1084820Y1033731D02*
Y1033747D01*
X1086787*
X1086785Y1033731*
X1084820*
Y1033747D02*
Y1033999D01*
X1086808*
X1086787Y1033747*
X1084820*
X1089105Y1033112D02*
X1089079Y1034644D01*
X1091049*
X1091105Y1033112*
X1089105*
X1089079Y1034644D02*
X1089078Y1034652D01*
X1091049*
Y1034644*
X1089079*
X1084820Y1033999D02*
Y1035179D01*
X1087077*
X1086808Y1033999*
X1084820*
X1089078Y1034652D02*
X1088947Y1035469D01*
X1091145*
X1091049Y1034652*
X1089078*
X1088947Y1035469D02*
X1088946Y1035477D01*
X1091153*
X1091145Y1035469*
X1088947*
X1084820Y1035179D02*
Y1035693D01*
X1087703*
X1087077Y1035179*
X1084820*
Y1035693D02*
Y1035765D01*
X1088034*
X1087703Y1035693*
X1084820*
Y1035765D02*
Y1035781D01*
X1088625*
X1088034Y1035765*
X1084820*
X1088946Y1035477D02*
X1088625Y1035781D01*
X1091470*
X1091153Y1035477*
X1088946*
X1084820Y1035781D02*
Y1035793D01*
X1091482*
X1091470Y1035781*
X1084820*
Y1035793D02*
Y1035851D01*
X1092151*
X1091482Y1035793*
X1084820*
Y1035851D02*
X1084820D01*
X1092177*
X1092151*
X1084820*
Y1036038*
X1093095*
X1092177Y1035851*
X1084820*
Y1036038D02*
Y1036785D01*
X1093384*
X1093095Y1036038*
X1084820*
Y1036785D02*
Y1037041D01*
X1093391*
X1093384Y1036785*
X1084820*
Y1037041D02*
Y1037605D01*
X1093357*
X1093391Y1037041*
X1084820*
Y1037605D02*
Y1037954D01*
X1093132*
X1093357Y1037605*
X1084820*
Y1037954D02*
Y1038142D01*
X1092534*
X1093132Y1037954*
X1084820*
Y1038142D02*
Y1038217D01*
X1091379*
X1092534Y1038142*
X1084820*
Y1038217D02*
Y1038231D01*
X1089483*
X1091379Y1038217*
X1084820*
Y1038231D02*
Y1038232D01*
X1089105*
X1089483Y1038231*
X1084820*
G54D192*
X1105255Y1082108D02*
X1105978Y1081681D01*
X1106778Y1081642*
X1107614Y1082078*
X1108091Y1082887*
X1108148Y1083746*
X1107722Y1084332*
X1107306Y1084422*
X1106286Y1084107*
X1105477Y1083366*
X1105148Y1082502*
X1105255Y1082108*
X1099717Y1055348D02*
X1100004Y1054900D01*
X1100030Y1054898*
X1100515Y1055244*
X1100534Y1055374*
X1100951Y1055674*
X1101988Y1055828*
X1103326Y1055845*
X1104645Y1055732*
X1105626Y1055495*
X1105626D02*
X1105941Y1055255D01*
X1106315Y1055019*
X1106933Y1055584*
X1107435Y1056540*
X1107662Y1057610*
X1107579Y1058445*
X1107252Y1058708*
X1106731Y1058329*
X1106552Y1057993*
X1106040Y1057538*
X1104849Y1057316*
X1103644Y1057279*
X1102129Y1057318*
X1101338Y1057491*
X1101043Y1057884*
X1101010Y1058271*
X1100782Y1058997*
X1100415Y1059068*
X1100029Y1058552*
X1099762Y1057526*
X1099647Y1056341*
X1099717Y1055348*
X1101872Y1052055D02*
X1102474Y1051873D01*
X1103260Y1051586*
X1103202Y1051247*
X1102796Y1050909*
X1102079Y1049986*
X1102088Y1049074*
X1102716Y1048521*
X1103739Y1048303*
X1105029Y1048236*
X1106248Y1048309*
X1107055Y1048510*
X1107201Y1048679*
X1106781Y1049011*
X1105749Y1049250*
X1105524Y1049274*
X1104208Y1049532*
X1103817Y1049958*
X1104345Y1050504*
X1105653Y1051074*
X1106866Y1051556*
X1107589Y1051963*
X1107677Y1052083*
X1107251Y1052313*
X1106169Y1052546*
X1105445Y1052645*
X1103891Y1052725*
X1102605Y1052632*
X1102265Y1052546*
X1101652Y1052266*
X1101872Y1052055*
X1098091Y1044564D02*
X1099088Y1044422D01*
X1099105*
X1100139Y1044283*
X1100519Y1043728*
X1100549Y1043351*
X1100609Y1042608*
X1100895Y1042733*
X1101231Y1043159*
X1101814Y1043670*
X1102730Y1043896*
X1104254Y1043894*
X1104627Y1043873*
X1106232Y1043882*
X1107264Y1044086*
X1107626Y1044410*
X1107220Y1044780*
X1106207Y1045073*
X1104637Y1045297*
X1103332Y1045374*
X1102241Y1045595*
X1101963Y1046089*
X1101732Y1046723*
X1101537Y1046803*
X1101017Y1046424*
X1100838Y1046089*
X1100181Y1045553*
X1099120Y1045374*
X1098111Y1045238*
X1097677Y1044908*
Y1044898*
X1098091Y1044564*
X1102362Y1034037D02*
X1102926Y1033946D01*
X1103559Y1033884*
X1103579Y1033529*
X1103099Y1032740*
X1103099D02*
X1102566Y1031690D01*
X1102696Y1031274*
X1103413Y1031523*
X1104360Y1032220*
X1105530Y1033023*
X1106571Y1033449*
X1106761Y1033470*
X1107513Y1033777*
X1107677Y1034184*
X1107457Y1034599*
X1106680Y1034821*
X1105164Y1034897*
X1104820Y1034898*
X1103298Y1034826*
X1102266Y1034637*
X1101963Y1034422*
X1102362Y1034037*
X1102227Y1018998D02*
X1103191Y1018526D01*
X1104943Y1018327*
X1106585Y1018323*
X1107518Y1018501*
X1107677Y1018684*
X1107350Y1019166*
X1107231Y1019184*
X1107005Y1019594*
X1107020Y1020605*
X1107055Y1020851*
X1107171Y1021961*
X1106916Y1022424*
X1106128Y1022517*
X1106089*
X1105863Y1022442*
Y1021565*
X1106175Y1021285*
X1105980Y1020716*
X1105426Y1020260*
X1105385Y1020245*
X1105026Y1020394*
X1105108Y1020811*
X1105595Y1021466*
X1105863Y1021565*
Y1022442*
X1104943Y1022138*
X1104153Y1021225*
X1103979Y1020112*
X1104044Y1019885*
X1103996Y1019438*
X1103580Y1019507*
X1103097Y1020046*
X1103166Y1021149*
X1103205Y1022213*
X1102861Y1022512*
X1102386Y1021991*
X1102168Y1021364*
X1101932Y1019894*
X1102227Y1018998*
X1099984Y1091599D02*
X1101033Y1090932D01*
X1102320Y1090295*
X1105058Y1089077*
X1102558Y1087967*
X1101133Y1087225*
X1100269Y1086568*
X1100036Y1086101*
X1100500Y1085935*
X1101367Y1086076*
X1103112Y1086620*
X1104797Y1087321*
X1106185Y1088062*
X1107041Y1088721*
X1107201Y1089031*
X1106797Y1089573*
X1105750Y1090283*
X1104598Y1090864*
X1102225Y1091844*
X1100627Y1092338*
X1099766Y1092354*
X1099582Y1092066*
X1099984Y1091599*
X1102041Y1074959D02*
X1102915Y1074706D01*
X1104200Y1074888*
X1104939Y1075115*
X1105520Y1075211*
X1105747Y1074669*
X1105772Y1073997*
X1105930Y1072872*
X1106303Y1072556*
X1106739Y1073104*
X1106901Y1073589*
X1107099Y1074728*
X1107184Y1076025*
X1107151Y1077139*
X1106998Y1077729*
X1106943Y1077755*
X1106425Y1077499*
X1105492Y1076872*
X1105335Y1076757*
X1104215Y1076124*
X1103284Y1075913*
X1103214Y1075923*
X1102734Y1076128*
X1102759Y1076620*
X1103164Y1077469*
X1103618Y1078629*
X1103519Y1079131*
X1102956Y1078885*
X1102374Y1078269*
X1101667Y1076979*
X1101569Y1075794*
X1102041Y1074959*
X1102122Y1068262D02*
X1102621Y1068232D01*
X1103668Y1067869*
X1104057Y1067160*
X1104328Y1066433*
X1104628Y1066568*
X1104851Y1066922*
X1105682Y1067618*
X1106272Y1067755*
X1107059Y1068007*
X1107105Y1068536*
X1106399Y1069005*
X1106321Y1069027*
X1105676Y1069506*
X1105662Y1070411*
X1105602Y1071329*
X1104986Y1071537*
X1104719Y1071415*
Y1069842*
X1104820Y1069645*
X1104434Y1069236*
X1104105Y1069184*
X1103470Y1069286*
X1103391Y1069371*
X1103763Y1069678*
X1104105Y1069832*
X1104719Y1069842*
Y1071415*
X1103889Y1071038*
X1102951Y1070332*
X1101836Y1069252*
X1101562Y1068573*
X1102122Y1068262*
X1102134Y1038036D02*
X1102717Y1036882D01*
X1103048Y1036613*
X1103926Y1036441*
X1104524Y1037133*
X1104799Y1038632*
X1104812Y1039123*
X1104876Y1040155*
X1105129Y1040396*
X1105534Y1040136*
X1106179Y1039280*
X1105977Y1038345*
X1105458Y1037671*
X1104932Y1036823*
X1105118Y1036456*
X1105834Y1036713*
X1106245Y1037038*
X1106980Y1038196*
X1107176Y1039593*
X1106793Y1040799*
X1106629Y1040993*
X1105528Y1041504*
X1104141Y1041442*
X1103391Y1041078*
Y1039898*
X1103727Y1039710*
X1103867Y1038778*
Y1038708*
X1103741Y1037740*
X1103414Y1037505*
X1103391Y1037517*
X1102987Y1038191*
X1102915Y1038708*
X1103140Y1039608*
X1103391Y1039898*
Y1041078*
X1102912Y1040845*
X1102715Y1040655*
X1102122Y1039431*
X1102134Y1038036*
X1097513Y1024821D02*
X1097894Y1024439D01*
X1098719Y1024062*
X1099196Y1024304*
X1099073Y1024950*
X1098836Y1025236*
X1098441Y1025994*
X1098920Y1026528*
X1100208Y1026782*
X1100653Y1026796*
X1101681Y1026592*
X1101978Y1025970*
X1102048Y1025425*
X1102361Y1025636*
X1102673Y1026035*
X1103364Y1026619*
X1104408Y1026759*
X1105277Y1026675*
X1106565Y1026588*
X1107130Y1026814*
X1107201Y1027086*
X1106819Y1027565*
X1105620Y1027751*
X1105296Y1027755*
X1103971Y1027873*
X1103426Y1028264*
X1103391Y1028470*
X1103161Y1029104*
X1102966Y1029184*
X1102445Y1028805*
X1102267Y1028470*
X1101563Y1027928*
X1100168Y1027755*
X1098564Y1027488*
X1097510Y1026797*
X1097121Y1025852*
X1097513Y1024821*
X1102266Y1013053D02*
X1102697Y1012682D01*
X1103517Y1012623*
X1103769Y1012762*
X1103734Y1013209*
X1103510Y1013336*
X1102973Y1013926*
X1103027Y1014832*
X1103614Y1015675*
X1103905Y1015870*
X1105178Y1016238*
X1105974Y1015907*
X1106140Y1015075*
X1105524Y1013937*
X1105458Y1013861*
X1104932Y1013014*
X1105118Y1012646*
X1105834Y1012903*
X1106245Y1013229*
X1107049Y1014550*
X1107050Y1016176*
X1106885Y1016684*
X1106246Y1017155*
X1105111Y1017266*
X1103855Y1017044*
X1102854Y1016512*
X1102751Y1016408*
X1102152Y1015312*
X1101989Y1014071*
X1102266Y1013053*
X1102134Y1008036D02*
X1102717Y1006882D01*
X1103048Y1006613*
X1103926Y1006441*
X1104524Y1007133*
X1104799Y1008632*
X1104812Y1009123*
X1104876Y1010155*
X1105129Y1010396*
X1105534Y1010136*
X1106179Y1009280*
X1105977Y1008345*
X1105458Y1007671*
X1104932Y1006823*
X1105118Y1006456*
X1105834Y1006713*
X1106245Y1007038*
X1106980Y1008196*
X1107176Y1009593*
X1106793Y1010799*
X1106629Y1010993*
X1105528Y1011504*
X1104141Y1011442*
X1103391Y1011078*
Y1009898*
X1103727Y1009710*
X1103867Y1008778*
Y1008708*
X1103741Y1007740*
X1103414Y1007505*
X1103391Y1007517*
X1102987Y1008191*
X1102915Y1008708*
X1103140Y1009608*
X1103391Y1009898*
Y1011078*
X1102912Y1010845*
X1102715Y1010655*
X1102122Y1009431*
X1102134Y1008036*
X1082987Y1075682D02*
X1083784Y1075003D01*
X1085127Y1073831*
X1086849Y1072311*
X1088789Y1070586*
X1089560Y1069898*
X1091648Y1068046*
X1093188Y1066743*
X1094331Y1065890*
X1095227Y1065388*
X1096027Y1065140*
X1096882Y1065046*
X1096993Y1065040*
X1098252Y1065002*
X1098990Y1065016*
X1099073Y1065040*
X1098725Y1065373*
X1097811Y1066195*
X1096483Y1067370*
X1095382Y1068336*
X1093618Y1069877*
X1091924Y1071349*
X1090556Y1072532*
X1090058Y1072960*
X1088391Y1074383*
X1091129Y1074403*
X1092672Y1074442*
X1093490Y1074599*
X1093812Y1074974*
X1093867Y1075612*
X1093568Y1076580*
X1092616Y1076919*
X1091874Y1076869*
X1091288Y1076845*
X1089966Y1076814*
X1088126Y1076783*
X1086641Y1076763*
X1084546Y1076738*
Y1076211*
X1084955Y1075992*
X1085911Y1075244*
X1087271Y1074095*
X1088895Y1072673*
X1090639Y1071107*
X1092362Y1069526*
X1093923Y1068059*
X1095178Y1066833*
X1095987Y1065977*
X1096217Y1065642*
X1095931Y1065654*
X1095170Y1066195*
X1094708Y1066595*
X1093711Y1067504*
X1093037Y1068125*
X1092923Y1068234*
X1092491Y1068629*
X1092491D02*
X1091500Y1069527D01*
X1090099Y1070791*
X1088499Y1072231*
X1086892Y1073710*
X1085611Y1074954*
X1084785Y1075832*
X1084546Y1076211*
Y1076738*
X1081736Y1076704*
X1082987Y1075682*
X1085381Y1110209D02*
X1085563Y1108720D01*
X1085837Y1107886*
X1085867Y1107851*
X1086649Y1107520*
X1088004Y1107314*
X1088867Y1107279*
X1090368Y1107181*
X1091495Y1106931*
X1091826Y1106749*
X1092547Y1106475*
X1093156Y1106787*
X1093247Y1107442*
X1093213Y1108325*
X1093340Y1108946*
X1093461Y1109863*
X1093518Y1111424*
X1093501Y1113320*
X1093488Y1113685*
X1093360Y1115552*
X1093148Y1117083*
X1092892Y1117999*
X1092835Y1118090*
X1092065Y1118444*
X1090687Y1118650*
X1090188Y1118666*
Y1116294*
X1091002Y1115933*
X1091379Y1114986*
X1091468Y1113281*
X1091467Y1113127*
X1091444Y1111610*
X1091364Y1110926*
X1091167Y1110955*
X1090795Y1111578*
X1090747Y1111667*
X1089989Y1112587*
X1089337Y1112687*
X1088777Y1112403*
X1088726Y1111984*
X1089197Y1111143*
X1089424Y1110794*
X1089929Y1109951*
X1089782Y1109675*
X1088853Y1109737*
X1088829Y1109740*
X1088082Y1109865*
X1087666Y1110178*
X1087484Y1110905*
X1087440Y1112272*
X1087439Y1112993*
X1087458Y1114659*
X1087578Y1115599*
X1087894Y1116039*
X1088498Y1116208*
X1088788Y1116243*
X1090188Y1116294*
Y1118666*
X1089036Y1118704*
X1087444Y1118605*
X1086246Y1118351*
X1085867Y1118136*
X1085585Y1117378*
X1085395Y1115939*
X1085297Y1114086*
X1085293Y1112087*
X1085381Y1110209*
X1088555Y1093470D02*
X1090678Y1093563D01*
X1092079Y1093951*
X1092916Y1094795*
X1093343Y1096258*
X1093518Y1098499*
X1093522Y1098613*
X1093529Y1100490*
X1093432Y1102130*
X1093255Y1103163*
X1092783Y1103993*
X1091917Y1104519*
X1090480Y1104798*
X1088292Y1104890*
X1088034Y1104892*
X1086492Y1104868*
X1085674Y1104720*
X1085351Y1104351*
X1085296Y1103708*
X1085392Y1102957*
X1085856Y1102611*
X1086948Y1102514*
X1087320Y1102511*
X1089336Y1102451*
X1090575Y1102194*
X1091210Y1101601*
X1091417Y1100532*
X1091389Y1099242*
X1091248Y1096565*
X1088272Y1096423*
X1086650Y1096326*
X1085760Y1096156*
X1085382Y1095798*
X1085297Y1095139*
X1085296Y1094875*
Y1093470*
X1088555*
X1085391Y1084997D02*
X1085544Y1083667D01*
X1085940Y1082839*
X1086819Y1082167*
X1087677Y1081696*
X1089320Y1080809*
X1090910Y1079918*
X1091395Y1079637*
X1092747Y1078921*
X1093501Y1078808*
X1093818Y1079325*
X1093867Y1080081*
X1093618Y1081232*
X1092915Y1081703*
X1092396Y1081957*
X1092107Y1082527*
X1091984Y1083639*
X1091963Y1085075*
X1092007Y1086828*
X1092185Y1087877*
X1092559Y1088467*
X1092915Y1088708*
X1093520Y1089358*
X1093845Y1090292*
X1093833Y1091147*
X1093426Y1091562*
X1093369Y1091565*
X1092760Y1091340*
X1091544Y1090736*
X1090323Y1090075*
Y1087279*
X1090477Y1086869*
X1090532Y1085889*
X1090497Y1084717*
X1090380Y1083730*
X1090236Y1083330*
X1089663Y1083328*
X1088685Y1083692*
X1087677Y1084246*
X1087016Y1084814*
X1086993Y1084848*
X1087218Y1085272*
X1087974Y1085943*
X1088961Y1086643*
X1089880Y1087153*
X1090323Y1087279*
Y1090075*
X1089934Y1089863*
X1089059Y1089367*
X1085248Y1087168*
X1085391Y1084997*
X1080309Y1076362D02*
X1081060Y1075446D01*
X1082532Y1073993*
X1084706Y1072026*
X1084824Y1071922*
X1090107Y1067279*
X1087463*
X1085954Y1067249*
X1085166Y1067089*
X1084865Y1066693*
X1084820Y1066089*
X1084851Y1065537*
X1085064Y1065189*
X1085638Y1064998*
X1086749Y1064917*
X1088578Y1064899*
X1088578D02*
X1089343Y1064898D01*
X1089343D02*
X1091287Y1064918D01*
X1092813Y1064971*
X1092813D02*
X1093713Y1065049D01*
X1093867Y1065102*
X1093534Y1065501*
X1092710Y1066231*
X1092488Y1066411*
X1091638Y1067137*
X1090266Y1068361*
X1088541Y1069928*
X1086635Y1071684*
X1086081Y1072199*
X1084116Y1073971*
X1082430Y1075379*
X1081145Y1076327*
X1080384Y1076721*
X1080297Y1076723*
X1080309Y1076362*
X1086010Y1052517D02*
X1086745Y1052606D01*
X1087093Y1053043*
X1087196Y1054082*
X1087201Y1054660*
Y1056803*
X1090296*
X1091960Y1056824*
X1092887Y1056942*
X1093291Y1057239*
X1093389Y1057799*
X1093391Y1057993*
X1093337Y1058633*
X1093031Y1058990*
X1092257Y1059146*
X1090801Y1059183*
X1090296Y1059184*
X1087201*
Y1061327*
X1087151Y1062649*
X1086909Y1063276*
X1086331Y1063461*
X1086010Y1063470*
X1084820*
Y1052517*
X1086010*
X1084858Y1045362D02*
X1085065Y1044732D01*
X1085611Y1044167*
X1086655Y1043511*
X1088359Y1042609*
X1088748Y1042408*
X1090506Y1041504*
X1091942Y1040770*
X1092846Y1040312*
X1093034Y1040220*
X1093283Y1040511*
X1093391Y1041438*
Y1041474*
X1093166Y1042621*
X1092677Y1043166*
X1092261Y1043602*
X1092035Y1044627*
X1091963Y1046412*
Y1046565*
X1092026Y1048408*
X1092240Y1049478*
X1092642Y1049950*
X1092677Y1049964*
X1093118Y1050500*
X1093364Y1051442*
X1093375Y1052393*
X1093375D02*
X1093113Y1052958D01*
X1092981Y1052993*
X1092355Y1052752*
X1091296Y1052151*
X1090937Y1051922*
X1090058Y1051387*
Y1044437*
X1088382Y1045236*
X1087246Y1045881*
X1086945Y1046451*
X1087489Y1047119*
X1088518Y1047827*
X1090058Y1048801*
Y1051387*
X1089387Y1050978*
X1087687Y1050040*
X1087418Y1049903*
X1085969Y1049101*
X1085192Y1048363*
X1084881Y1047394*
X1084827Y1046213*
X1084858Y1045362*
X1084849Y1031701D02*
X1084928Y1029966D01*
X1085043Y1028799*
X1085109Y1028509*
X1085739Y1028025*
X1086925Y1027776*
X1088298Y1027774*
X1089486Y1028034*
X1089963Y1028327*
X1090452Y1028614*
X1090534Y1028381*
X1090948Y1027957*
X1091945Y1027656*
X1091963Y1027654*
X1092965Y1027602*
X1093341Y1028015*
X1093391Y1028757*
X1093183Y1029789*
X1092428Y1030205*
X1092320Y1030222*
X1091704Y1030417*
X1091356Y1030939*
X1091177Y1032025*
X1091105Y1033112*
X1091049Y1034652*
X1091145Y1035469*
X1091482Y1035793*
X1092151Y1035851*
X1092177*
X1093095Y1036038*
X1093384Y1036785*
X1093391Y1037041*
X1093357Y1037605*
X1093132Y1037955*
X1092534Y1038142*
X1091379Y1038217*
X1089483Y1038231*
X1089105Y1038232*
X1088625*
Y1035781*
X1088946Y1035477*
X1089079Y1034644*
X1089105Y1033073*
Y1033027*
X1089071Y1031419*
X1088921Y1030546*
X1088584Y1030192*
X1088162Y1030136*
X1087302Y1030563*
X1086833Y1031788*
X1086785Y1033731*
X1086808Y1033999*
X1087077Y1035179*
X1087703Y1035693*
X1088034Y1035765*
X1088625Y1035781*
Y1038232*
X1084820*
Y1033747*
X1084849Y1031701*
G74*
X0Y0D02*
M02*
