*
*
G04 PADS VX.2.4 Build Number: 11282995 generated Gerber (RS-274-X) file*
G04 PC Version=2.1*
*
%IN "v24.pcb"*%
*
%MOIN*%
*
%FSLAX35Y35*%
*
*
*
*
G04 PC Standard Apertures*
*
*
G04 Thermal Relief Aperture macro.*
%AMTER*
1,1,$1,0,0*
1,0,$1-$2,0,0*
21,0,$3,$4,0,0,45*
21,0,$3,$4,0,0,135*
%
*
*
G04 Annular Aperture macro.*
%AMANN*
1,1,$1,0,0*
1,0,$2,0,0*
%
*
*
G04 Odd Aperture macro.*
%AMODD*
1,1,$1,0,0*
1,0,$1-0.005,0,0*
%
*
*
G04 PC Custom Aperture Macros*
*
*
*
*
*
*
G04 PC Aperture Table*
*
%ADD011C,0.01*%
%ADD012C,0.008*%
%ADD022R,0.06X0.06*%
%ADD023C,0.06*%
%ADD034R,0.045X0.045*%
%ADD038C,0.02*%
%ADD039C,0.025*%
%ADD040C,0.015*%
%ADD042C,0.035*%
%ADD043C,0.001*%
%ADD166C,0.013*%
%ADD194C,0.03*%
%ADD202C,0.045*%
%ADD213R,0.08858X0.07087*%
%ADD214R,0.10079X0.0315*%
%ADD215R,0.0165X0.0528*%
%ADD217R,0.11811X0.02756*%
%ADD218R,0.1X0.1*%
%ADD220O,0.12X0.08*%
%ADD221C,0.07874*%
*
*
*
*
G04 PC Circuitry*
G04 Layer Name v24.pcb - circuitry*
%LPD*%
*
*
G04 PC Custom Flashes*
G04 Layer Name v24.pcb - flashes*
%LPD*%
*
*
G04 PC Circuitry*
G04 Layer Name v24.pcb - circuitry*
%LPD*%
*
G54D11*
G01X1091680Y1236132D02*
X1107609D01*
Y1245172*
X1091680*
Y1236132*
X1091743D02*
Y1245172D01*
X1092243Y1236132D02*
Y1245172D01*
X1092743Y1236132D02*
Y1245172D01*
X1093243Y1236132D02*
Y1245172D01*
X1093743Y1236132D02*
Y1245172D01*
X1094243Y1236132D02*
Y1245172D01*
X1094743Y1236132D02*
Y1245172D01*
X1095243Y1236132D02*
Y1245172D01*
X1095743Y1236132D02*
Y1245172D01*
X1096243Y1236132D02*
Y1245172D01*
X1096743Y1236132D02*
Y1245172D01*
X1097243Y1236132D02*
Y1245172D01*
X1097743Y1236132D02*
Y1245172D01*
X1098243Y1236132D02*
Y1245172D01*
X1098743Y1236132D02*
Y1245172D01*
X1099243Y1236132D02*
Y1245172D01*
X1099743Y1236132D02*
Y1245172D01*
X1100243Y1236132D02*
Y1245172D01*
X1100743Y1236132D02*
Y1245172D01*
X1101243Y1236132D02*
Y1245172D01*
X1101743Y1236132D02*
Y1245172D01*
X1102243Y1236132D02*
Y1245172D01*
X1102743Y1236132D02*
Y1245172D01*
X1103243Y1236132D02*
Y1245172D01*
X1103743Y1236132D02*
Y1245172D01*
X1104243Y1236132D02*
Y1245172D01*
X1104743Y1236132D02*
Y1245172D01*
X1105243Y1236132D02*
Y1245172D01*
X1105743Y1236132D02*
Y1245172D01*
X1106243Y1236132D02*
Y1245172D01*
X1106743Y1236132D02*
Y1245172D01*
X1107243Y1236132D02*
Y1245172D01*
X1091680Y1172314D02*
X1107609D01*
Y1181353*
X1091680*
Y1172314*
X1091743D02*
Y1181353D01*
X1092243Y1172314D02*
Y1181353D01*
X1092743Y1172314D02*
Y1181353D01*
X1093243Y1172314D02*
Y1181353D01*
X1093743Y1172314D02*
Y1181353D01*
X1094243Y1172314D02*
Y1181353D01*
X1094743Y1172314D02*
Y1181353D01*
X1095243Y1172314D02*
Y1181353D01*
X1095743Y1172314D02*
Y1181353D01*
X1096243Y1172314D02*
Y1181353D01*
X1096743Y1172314D02*
Y1181353D01*
X1097243Y1172314D02*
Y1181353D01*
X1097743Y1172314D02*
Y1181353D01*
X1098243Y1172314D02*
Y1181353D01*
X1098743Y1172314D02*
Y1181353D01*
X1099243Y1172314D02*
Y1181353D01*
X1099743Y1172314D02*
Y1181353D01*
X1100243Y1172314D02*
Y1181353D01*
X1100743Y1172314D02*
Y1181353D01*
X1101243Y1172314D02*
Y1181353D01*
X1101743Y1172314D02*
Y1181353D01*
X1102243Y1172314D02*
Y1181353D01*
X1102743Y1172314D02*
Y1181353D01*
X1103243Y1172314D02*
Y1181353D01*
X1103743Y1172314D02*
Y1181353D01*
X1104243Y1172314D02*
Y1181353D01*
X1104743Y1172314D02*
Y1181353D01*
X1105243Y1172314D02*
Y1181353D01*
X1105743Y1172314D02*
Y1181353D01*
X1106243Y1172314D02*
Y1181353D01*
X1106743Y1172314D02*
Y1181353D01*
X1107243Y1172314D02*
Y1181353D01*
X1045633Y1083573D02*
X1045691D01*
Y1088735*
X1053227Y1085262D02*
Y1082333D01*
X1053263Y1082298*
Y1083573*
X1053227Y1085262D02*
X1053263Y1085298D01*
Y1094413*
X1051243Y1074573D02*
Y1054053D01*
X1059498Y1045798*
X1079640*
X1082191Y1043247*
X1058383Y1056073D02*
Y1083573D01*
X1078853D02*
Y1082098D01*
X1086691*
X1076303Y1083573D02*
Y1079798D01*
X1077688Y1078413*
X1089006*
X1092691Y1082098*
X1073743Y1083573D02*
Y1086849D01*
X1075391Y1088498*
X1086691*
X1066103Y1083573D02*
Y1057213D01*
X1067518Y1055798*
X1098191*
X1108243Y1045747*
X1063503Y1083573D02*
Y1056813D01*
X1066518Y1053798*
X1096191*
X1105743Y1044247*
Y1028349*
X1060983Y1083573D02*
Y1055833D01*
X1065018Y1051798*
X1092287*
X1098262Y1045823*
Y1041758*
X1055863Y1083573D02*
Y1084413D01*
X1055983Y1084293*
Y1066743*
X1048183Y1083573D02*
Y1053613D01*
X1060037Y1041758*
X1072121*
Y1024436D02*
X1079924D01*
X1086562Y1017798*
X1102191*
X1108243Y1023849*
Y1045747*
X1072121Y1033097D02*
X1072473Y1032743D01*
X1080222*
X1082191Y1034712*
Y1043247*
X1098262Y1024436D02*
X1101829D01*
X1105743Y1028349*
X1007243Y1085743D02*
X1012191Y1080794D01*
Y1013294*
X1015188Y1010298*
X1020943*
X1024143Y1007098*
X1029191*
X1007243Y1095743D02*
X1012243Y1100743D01*
X1046743*
X1050743Y1104743*
Y1111913*
X1092653Y1149105D02*
X1092691Y1149067D01*
Y1145298*
X1092653Y1149105D02*
X1092684D01*
X1092691Y1149098*
X1086691Y1125243D02*
Y1145298D01*
X1073691Y1107344D02*
Y1111913D01*
X1073743*
X1073691Y1107344D02*
X1077623Y1103413D01*
X1089006*
X1092691Y1107098*
X1050691Y1088735D02*
X1050743Y1088684D01*
Y1083573*
X1068691Y1145298D02*
Y1149098D01*
X1074691D02*
Y1145298D01*
X1074763Y1145727*
Y1122743*
X1062691Y1149098D02*
Y1145298D01*
Y1127294*
X1071223Y1118763*
Y1111913*
X1080691Y1145298D02*
Y1149098D01*
X1056691Y1145298D02*
Y1149098D01*
X1086691Y1145298D02*
Y1149098D01*
X1068623Y1102913D02*
Y1111913D01*
X1066103Y1104913D02*
Y1111913D01*
X1048183D02*
Y1125243D01*
X1058383Y1111913D02*
Y1122743D01*
X1060983Y1111913D02*
X1061103D01*
Y1104913*
X1076303Y1111913D02*
Y1107993D01*
X1077198Y1107098*
X1086691*
X1078853Y1111913D02*
Y1113498D01*
X1086691*
X1060191Y1187998D02*
Y1192993D01*
X1061941Y1194743*
X1064243*
X1060191Y1187998D02*
X1092691Y1155498D01*
X1054191Y1184798D02*
Y1208993D01*
X1055941Y1210743*
X1064243*
X1054191Y1184798D02*
X1074691Y1164298D01*
Y1155498*
X1058191Y1186798D02*
Y1196993D01*
X1059941Y1198743*
X1064243*
X1058191Y1186798D02*
X1086691Y1158298D01*
Y1155498*
X1050191Y1182798D02*
Y1216993D01*
X1051941Y1218743*
X1064243*
X1050191Y1182798D02*
X1062691Y1170298D01*
Y1155498*
X1052191Y1183798D02*
Y1212993D01*
X1053941Y1214743*
X1064243*
X1052191Y1183798D02*
X1068691Y1167298D01*
Y1155498*
X1048191Y1181798D02*
Y1220993D01*
X1049941Y1222743*
X1064243*
X1048191Y1181798D02*
X1056691Y1173298D01*
Y1155498*
X1056191Y1185798D02*
Y1200993D01*
X1057941Y1202743*
X1064243*
X1056191Y1185798D02*
X1080691Y1161298D01*
Y1155498*
X1011343Y1005743D02*
G75*
G03X1011343I-4100J0D01*
G01X1021343Y1085743D02*
G03X1021343I-4100J0D01*
G01Y1115743D02*
G03X1021343I-4100J0D01*
G01Y1125743D02*
G03X1021343I-4100J0D01*
G01Y1135743D02*
G03X1021343I-4100J0D01*
G01Y1145743D02*
G03X1021343I-4100J0D01*
G01Y1155743D02*
G03X1021343I-4100J0D01*
G01Y1165743D02*
G03X1021343I-4100J0D01*
G01Y1175743D02*
G03X1021343I-4100J0D01*
G01Y1185743D02*
G03X1021343I-4100J0D01*
G01Y1195743D02*
G03X1021343I-4100J0D01*
G01Y1205743D02*
G03X1021343I-4100J0D01*
G01Y1215743D02*
G03X1021343I-4100J0D01*
G01Y1225743D02*
G03X1021343I-4100J0D01*
G01Y1235743D02*
G03X1021343I-4100J0D01*
G01Y1245743D02*
G03X1021343I-4100J0D01*
G01X1011343Y1105743D02*
G03X1011343I-4100J0D01*
G01Y1115743D02*
G03X1011343I-4100J0D01*
G01Y1125743D02*
G03X1011343I-4100J0D01*
G01Y1135743D02*
G03X1011343I-4100J0D01*
G01Y1145743D02*
G03X1011343I-4100J0D01*
G01Y1155743D02*
G03X1011343I-4100J0D01*
G01Y1165743D02*
G03X1011343I-4100J0D01*
G01Y1175743D02*
G03X1011343I-4100J0D01*
G01Y1185743D02*
G03X1011343I-4100J0D01*
G01Y1195743D02*
G03X1011343I-4100J0D01*
G01Y1205743D02*
G03X1011343I-4100J0D01*
G01Y1215743D02*
G03X1011343I-4100J0D01*
G01Y1225743D02*
G03X1011343I-4100J0D01*
G01Y1235743D02*
G03X1011343I-4100J0D01*
G01X1111143Y1180371D02*
G03X1110643Y1180871I-500J-0D01*
G01X1109709*
G03X1109209Y1180371I-0J-500*
G01Y1171814*
X1108109Y1170713D02*
G03X1109209Y1171814I-0J1101D01*
G01X1108109Y1170713D02*
X1091180D01*
X1090080Y1171814D02*
G03X1091180Y1170713I1100J-0D01*
G01X1090080Y1171814D02*
Y1180371D01*
G03X1089580Y1180871I-500J-0*
G01X1086353*
X1079804Y1185227D02*
G03X1086353Y1180871I6549J2744D01*
G01X1079804Y1185227D02*
G03X1078844Y1185052I-461J-193D01*
G01X1071128Y1180712D02*
G03X1078844Y1185052I2532J4527D01*
G01X1071128Y1180712D02*
G03X1070384Y1180275I-244J-437D01*
X1070530Y1179922I500J0*
G01X1091758Y1158694*
G03X1092111Y1158548I353J354*
G01X1093891*
X1095391Y1157048D02*
G03X1093891Y1158548I-1500J-0D01*
G01X1095391Y1157048D02*
Y1153948D01*
X1094739Y1152710D02*
G03X1095391Y1153948I-848J1238D01*
G01X1094739Y1152710D02*
G03Y1151885I283J-412D01*
G01X1095391Y1150648D02*
G03X1094739Y1151885I-1500J-0D01*
G01X1095391Y1150648D02*
Y1147548D01*
X1094864Y1146405D02*
G03X1095391Y1147548I-973J1143D01*
G01X1094864Y1146405D02*
G03X1094708Y1145885I324J-380D01*
G01X1090675D02*
G03X1094708I2016J-587D01*
G01X1090675D02*
G03X1090519Y1146405I-480J140D01*
G01X1090141Y1146894D02*
G03X1090519Y1146405I1350J654D01*
G01X1090141Y1146894D02*
G03X1089241I-450J-218D01*
G01X1088864Y1146405D02*
G03X1089241Y1146894I-973J1143D01*
G01X1088864Y1146405D02*
G03X1088708Y1145885I324J-380D01*
G01X1088791Y1145298D02*
G03X1088708Y1145885I-2100J-0D01*
G01X1088388Y1144060D02*
G03X1088791Y1145298I-1697J1238D01*
G01X1088388Y1144060D02*
G03X1088291Y1143765I403J-295D01*
G01Y1126776*
G03X1088388Y1126481I500J-0*
G01X1088791Y1125243D02*
G03X1088388Y1126481I-2100J-0D01*
G01X1084591Y1125243D02*
G03X1088791I2100J-0D01*
G01X1084995Y1126481D02*
G03X1084591Y1125243I1696J-1238D01*
G01X1084995Y1126481D02*
G03X1085091Y1126776I-404J295D01*
G01Y1143765*
G03X1084995Y1144060I-500J-0*
G01X1084591Y1145298D02*
G03X1084995Y1144060I2100J-0D01*
G01X1084675Y1145885D02*
G03X1084591Y1145298I2016J-587D01*
G01X1084675Y1145885D02*
G03X1084519Y1146405I-480J140D01*
G01X1084141Y1146894D02*
G03X1084519Y1146405I1350J654D01*
G01X1084141Y1146894D02*
G03X1083241I-450J-218D01*
G01X1082864Y1146405D02*
G03X1083241Y1146894I-973J1143D01*
G01X1082864Y1146405D02*
G03X1082708Y1145885I324J-380D01*
G01X1078675D02*
G03X1082708I2016J-587D01*
G01X1078675D02*
G03X1078519Y1146405I-480J140D01*
G01X1078141Y1146894D02*
G03X1078519Y1146405I1350J654D01*
G01X1078141Y1146894D02*
G03X1077241I-450J-218D01*
G01X1076864Y1146405D02*
G03X1077241Y1146894I-973J1143D01*
G01X1076864Y1146405D02*
G03X1076708Y1145885I324J-380D01*
G01X1076445Y1144142D02*
G03X1076708Y1145885I-1754J1156D01*
G01X1076445Y1144142D02*
G03X1076363Y1143867I418J-275D01*
G01Y1124276*
G03X1076459Y1123981I500J-0*
G01X1076863Y1122743D02*
G03X1076459Y1123981I-2100J-0D01*
G01X1072663Y1122743D02*
G03X1076863I2100J-0D01*
G01X1073066Y1123981D02*
G03X1072663Y1122743I1697J-1238D01*
G01X1073066Y1123981D02*
G03X1073163Y1124276I-403J295D01*
G01Y1143672*
G03X1073053Y1143984I-500J-0*
G01X1072591Y1145298D02*
G03X1073053Y1143984I2100J-0D01*
G01X1072675Y1145885D02*
G03X1072591Y1145298I2016J-587D01*
G01X1072675Y1145885D02*
G03X1072519Y1146405I-480J140D01*
G01X1072141Y1146894D02*
G03X1072519Y1146405I1350J654D01*
G01X1072141Y1146894D02*
G03X1071241I-450J-218D01*
G01X1070864Y1146405D02*
G03X1071241Y1146894I-973J1143D01*
G01X1070864Y1146405D02*
G03X1070708Y1145885I324J-380D01*
G01X1066675D02*
G03X1070708I2016J-587D01*
G01X1066675D02*
G03X1066519Y1146405I-480J140D01*
G01X1066141Y1146894D02*
G03X1066519Y1146405I1350J654D01*
G01X1066141Y1146894D02*
G03X1065241I-450J-218D01*
G01X1064864Y1146405D02*
G03X1065241Y1146894I-973J1143D01*
G01X1064864Y1146405D02*
G03X1064708Y1145885I324J-380D01*
G01X1064791Y1145298D02*
G03X1064708Y1145885I-2100J-0D01*
G01X1064388Y1144060D02*
G03X1064791Y1145298I-1697J1238D01*
G01X1064388Y1144060D02*
G03X1064291Y1143765I403J-295D01*
G01Y1128164*
G03X1064438Y1127810I500J-0*
G01X1072354Y1119894*
X1072823Y1118763D02*
G03X1072354Y1119894I-1600J-0D01*
G01X1072823Y1118763D02*
Y1116153D01*
G03X1073323Y1115653I500J-0*
G01X1074568*
X1074880Y1115607D02*
G03X1074568Y1115653I-312J-1054D01*
G01X1074880Y1115607D02*
G03X1075165I143J480D01*
G01X1075478Y1115653D02*
G03X1075165Y1115607I-0J-1100D01*
G01X1075478Y1115653D02*
X1077128D01*
X1077437Y1115608D02*
G03X1077128Y1115653I-309J-1055D01*
G01X1077437Y1115608D02*
G03X1077718I141J480D01*
G01X1078028Y1115653D02*
G03X1077718Y1115608I-0J-1100D01*
G01X1078028Y1115653D02*
X1079678D01*
X1080511Y1115271D02*
G03X1079678Y1115653I-833J-718D01*
G01X1080511Y1115271D02*
G03X1080889Y1115098I378J327D01*
G01X1083569*
G03X1084049Y1115460I-0J500*
G01X1085491Y1116548D02*
G03X1084049Y1115460I0J-1500D01*
G01X1085491Y1116548D02*
X1087891D01*
X1089241Y1115702D02*
G03X1087891Y1116548I-1350J-654D01*
G01X1089241Y1115702D02*
G03X1090141I450J218D01*
G01X1091491Y1116548D02*
G03X1090141Y1115702I0J-1500D01*
G01X1091491Y1116548D02*
X1093891D01*
X1095391Y1115048D02*
G03X1093891Y1116548I-1500J-0D01*
G01X1095391Y1115048D02*
Y1111948D01*
X1094739Y1110710D02*
G03X1095391Y1111948I-848J1238D01*
G01X1094739Y1110710D02*
G03Y1109885I283J-412D01*
G01X1095391Y1108648D02*
G03X1094739Y1109885I-1500J-0D01*
G01X1095391Y1108648D02*
Y1105548D01*
X1094618Y1104235D02*
G03X1095391Y1105548I-727J1313D01*
G01X1094618Y1104235D02*
G03Y1103360I242J-437D01*
G01X1095391Y1102048D02*
G03X1094618Y1103360I-1500J-0D01*
G01X1095391Y1102048D02*
Y1098948D01*
X1094739Y1097710D02*
G03X1095391Y1098948I-848J1238D01*
G01X1094739Y1097710D02*
G03Y1096885I283J-412D01*
G01X1095391Y1095648D02*
G03X1094739Y1096885I-1500J-0D01*
G01X1095391Y1095648D02*
Y1092548D01*
X1095062Y1091610D02*
G03X1095391Y1092548I-1171J938D01*
G01X1095062Y1091610D02*
G03Y1090985I391J-312D01*
G01X1095391Y1090048D02*
G03X1095062Y1090985I-1500J-0D01*
G01X1095391Y1090048D02*
Y1086948D01*
X1094739Y1085710D02*
G03X1095391Y1086948I-848J1238D01*
G01X1094739Y1085710D02*
G03Y1084885I283J-412D01*
G01X1095391Y1083648D02*
G03X1094739Y1084885I-1500J-0D01*
G01X1095391Y1083648D02*
Y1080548D01*
X1093891Y1079048D02*
G03X1095391Y1080548I0J1500D01*
G01X1093891Y1079048D02*
X1092111D01*
G03X1091758Y1078901I0J-500*
G01X1090138Y1077281*
X1089006Y1076813D02*
G03X1090138Y1077281I0J1600D01*
G01X1089006Y1076813D02*
X1077688D01*
X1076556Y1077281D02*
G03X1077688Y1076813I1132J1132D01*
G01X1076556Y1077281D02*
X1075171Y1078666D01*
X1074742Y1079443D02*
G03X1075171Y1078666I1561J355D01*
G01X1074742Y1079443D02*
G03X1074255Y1079833I-487J-110D01*
G01X1072918*
X1072619Y1079874D02*
G03X1072918Y1079833I299J1059D01*
G01X1072619Y1079874D02*
G03X1072347I-136J-481D01*
G01X1072048Y1079833D02*
G03X1072347Y1079874I-0J1100D01*
G01X1072048Y1079833D02*
X1070398D01*
X1070071Y1079882D02*
G03X1070398Y1079833I327J1051D01*
G01X1070071Y1079882D02*
G03X1069774I-148J-477D01*
G01X1069448Y1079833D02*
G03X1069774Y1079882I-0J1100D01*
G01X1069448Y1079833D02*
X1068203D01*
G03X1067703Y1079333I-0J-500*
G01Y1058082*
X1067703D02*
G03X1067849Y1057729I500J0D01*
G01X1068034Y1057544*
G03X1068387Y1057398I353J354*
G01X1098191*
X1099323Y1056929D02*
G03X1098191Y1057398I-1132J-1131D01*
G01X1099323Y1056929D02*
X1109374Y1046878D01*
X1109843Y1045747D02*
G03X1109374Y1046878I-1600J-0D01*
G01X1109843Y1045747D02*
Y1023849D01*
X1109374Y1022718D02*
G03X1109843Y1023849I-1131J1131D01*
G01X1109374Y1022718D02*
X1103323Y1016666D01*
X1102191Y1016198D02*
G03X1103323Y1016666I0J1600D01*
G01X1102191Y1016198D02*
X1086562D01*
X1085430Y1016666D02*
G03X1086562Y1016198I1132J1132D01*
G01X1085430Y1016666D02*
X1079407Y1022689D01*
G03X1079054Y1022836I-353J-353*
G01X1078671*
G03X1078199Y1022500I0J-500*
G01X1077160Y1021761D02*
G03X1078199Y1022500I-0J1100D01*
G01X1077160Y1021761D02*
X1067081D01*
X1065981Y1022861D02*
G03X1067081Y1021761I1100J-0D01*
G01X1065981Y1022861D02*
Y1026010D01*
X1067081Y1027110D02*
G03X1065981Y1026010I0J-1100D01*
G01X1067081Y1027110D02*
X1077160D01*
X1078199Y1026371D02*
G03X1077160Y1027110I-1039J-361D01*
G01X1078199Y1026371D02*
G03X1078671Y1026036I472J165D01*
G01X1079924*
X1081055Y1025567D02*
G03X1079924Y1026036I-1131J-1131D01*
G01X1081055Y1025567D02*
X1087078Y1019544D01*
G03X1087431Y1019398I353J354*
G01X1101322*
G03X1101675Y1019544I-0J500*
G01X1103038Y1020907*
G03X1103185Y1021261I-353J354*
X1102685Y1021761I-500J-0*
G01X1093223*
X1092123Y1022861D02*
G03X1093223Y1021761I1100J-0D01*
G01X1092123Y1022861D02*
Y1026010D01*
X1093223Y1027110D02*
G03X1092123Y1026010I-0J-1100D01*
G01X1093223Y1027110D02*
X1102034D01*
G03X1102388Y1027257I0J500*
G01X1103996Y1028865*
G03X1104143Y1029219I-353J354*
G01Y1029959*
G03X1103536Y1030447I-500J-0*
G01X1103302Y1030422D02*
G03X1103536Y1030447I-0J1100D01*
G01X1103302Y1030422D02*
X1093223D01*
X1092378Y1030817D02*
G03X1093223Y1030422I845J705D01*
G01X1092378Y1030817D02*
G03X1091995Y1030997I-383J-320D01*
G01X1091262*
Y1035197D02*
G03Y1030997I0J-2100D01*
G01Y1035197D02*
X1091995D01*
G03X1092378Y1035377I-0J500*
G01X1093223Y1035772D02*
G03X1092378Y1035377I-0J-1100D01*
G01X1093223Y1035772D02*
X1103302D01*
X1103536Y1035747D02*
G03X1103302Y1035772I-234J-1075D01*
G01X1103536Y1035747D02*
G03X1104143Y1036235I107J488D01*
G01Y1038620*
G03X1103536Y1039109I-500J0*
G01X1103302Y1039084D02*
G03X1103536Y1039109I-0J1100D01*
G01X1103302Y1039084D02*
X1093223D01*
X1092123Y1040184D02*
G03X1093223Y1039084I1100J-0D01*
G01X1092123Y1040184D02*
Y1043333D01*
X1093223Y1044433D02*
G03X1092123Y1043333I-0J-1100D01*
G01X1093223Y1044433D02*
X1096162D01*
G03X1096662Y1044933I0J500*
G01Y1044953*
G03X1096516Y1045306I-500J-0*
G01X1091771Y1050051*
G03X1091417Y1050198I-354J-353*
G01X1065018*
X1063886Y1050666D02*
G03X1065018Y1050198I1132J1132D01*
G01X1063886Y1050666D02*
X1060244Y1054308D01*
G03X1059601Y1054362I-353J-353*
G01X1056283Y1056073D02*
G03X1059601Y1054362I2100J-0D01*
G01X1056686Y1057311D02*
G03X1056283Y1056073I1697J-1238D01*
G01X1056686Y1057311D02*
G03X1056783Y1057606I-403J295D01*
G01Y1064160*
G03X1056225Y1064657I-500J-0*
G01X1053883Y1066743D02*
G03X1056225Y1064657I2100J-0D01*
G01X1054286Y1067981D02*
G03X1053883Y1066743I1697J-1238D01*
G01X1054286Y1067981D02*
G03X1054383Y1068276I-403J295D01*
G01Y1079333*
G03X1053883Y1079833I-500J-0*
G01X1052438*
X1052139Y1079874D02*
G03X1052438Y1079833I299J1059D01*
G01X1052139Y1079874D02*
G03X1051867I-136J-481D01*
G01X1051568Y1079833D02*
G03X1051867Y1079874I-0J1100D01*
G01X1051568Y1079833D02*
X1050283D01*
G03X1049783Y1079333I-0J-500*
G01Y1076989*
G03X1050467Y1076524I500J-0*
G01X1053343Y1074573D02*
G03X1050467Y1076524I-2100J-0D01*
G01X1052939Y1073334D02*
G03X1053343Y1074573I-1696J1239D01*
G01X1052939Y1073334D02*
G03X1052843Y1073040I404J-294D01*
G01Y1054922*
X1052843D02*
G03X1052989Y1054569I500J0D01*
G01X1060014Y1047544*
G03X1060367Y1047398I353J354*
G01X1079640*
X1080772Y1046929D02*
G03X1079640Y1047398I-1132J-1131D01*
G01X1080772Y1046929D02*
X1083323Y1044378D01*
X1083791Y1043247D02*
G03X1083323Y1044378I-1600J-0D01*
G01X1083791Y1043247D02*
Y1034712D01*
X1083323Y1033581D02*
G03X1083791Y1034712I-1132J1131D01*
G01X1083323Y1033581D02*
X1081353Y1031611D01*
X1080222Y1031143D02*
G03X1081353Y1031611I-0J1600D01*
G01X1080222Y1031143D02*
X1078497D01*
G03X1078079Y1030917I-0J-500*
G01X1077160Y1030422D02*
G03X1078079Y1030917I-0J1100D01*
G01X1077160Y1030422D02*
X1067081D01*
X1065981Y1031522D02*
G03X1067081Y1030422I1100J0D01*
G01X1065981Y1031522D02*
Y1034672D01*
X1067081Y1035772D02*
G03X1065981Y1034672I0J-1100D01*
G01X1067081Y1035772D02*
X1077160D01*
X1078254Y1034789D02*
G03X1077160Y1035772I-1094J-117D01*
G01X1078254Y1034789D02*
G03X1078751Y1034343I497J54D01*
G01X1079352*
G03X1079705Y1034489I-0J500*
G01X1080445Y1035229*
G03X1080591Y1035582I-354J353*
G01Y1042377*
G03X1080445Y1042730I-500J-0*
G01X1079124Y1044051*
G03X1078770Y1044198I-354J-353*
G01X1078718*
G03X1078218Y1043698I-0J-500*
X1078231Y1043584I500J-0*
G01X1078260Y1043333D02*
G03X1078231Y1043584I-1100J0D01*
G01X1078260Y1043333D02*
Y1040184D01*
X1077160Y1039084D02*
G03X1078260Y1040184I-0J1100D01*
G01X1077160Y1039084D02*
X1067081D01*
X1066042Y1039822D02*
G03X1067081Y1039084I1039J362D01*
G01X1066042Y1039822D02*
G03X1065570Y1040158I-472J-164D01*
G01X1060037*
X1058906Y1040627D02*
G03X1060037Y1040158I1131J1131D01*
G01X1058906Y1040627D02*
X1047051Y1052481D01*
X1046583Y1053613D02*
G03X1047051Y1052481I1600J-0D01*
G01X1046583Y1053613D02*
Y1079333D01*
G03X1046083Y1079833I-500J-0*
G01X1044808*
X1043708Y1080933D02*
G03X1044808Y1079833I1100J-0D01*
G01X1043708Y1080933D02*
Y1086213D01*
X1043958Y1086911D02*
G03X1043708Y1086213I850J-698D01*
G01X1043958Y1086911D02*
G03X1044072Y1087229I-386J318D01*
X1043979Y1087519I-500J-0*
G01X1047711Y1089312D02*
G03X1043979Y1087519I-2020J-577D01*
G01X1047711Y1089312D02*
G03X1048672I480J137D01*
G01X1051072Y1090800D02*
G03X1048672Y1089312I-381J-2065D01*
G01X1051072Y1090800D02*
G03X1051663Y1091292I91J492D01*
G01Y1092880*
G03X1051566Y1093174I-500J-0*
G01X1051163Y1094413D02*
G03X1051566Y1093174I2100J-0D01*
G01X1055363Y1094413D02*
G03X1051163I-2100J-0D01*
G01X1054959Y1093174D02*
G03X1055363Y1094413I-1696J1239D01*
G01X1054959Y1093174D02*
G03X1054863Y1092880I404J-294D01*
G01Y1087813*
G03X1055363Y1087313I500J-0*
G01X1056688*
X1056987Y1087271D02*
G03X1056688Y1087313I-299J-1058D01*
G01X1056987Y1087271D02*
G03X1057259I136J481D01*
G01X1057558Y1087313D02*
G03X1057259Y1087271I-0J-1100D01*
G01X1057558Y1087313D02*
X1059208D01*
X1059534Y1087263D02*
G03X1059208Y1087313I-326J-1050D01*
G01X1059534Y1087263D02*
G03X1059831I149J478D01*
G01X1060158Y1087313D02*
G03X1059831Y1087263I-0J-1100D01*
G01X1060158Y1087313D02*
X1061808D01*
X1062107Y1087271D02*
G03X1061808Y1087313I-299J-1058D01*
G01X1062107Y1087271D02*
G03X1062379I136J481D01*
G01X1062678Y1087313D02*
G03X1062379Y1087271I-0J-1100D01*
G01X1062678Y1087313D02*
X1064328D01*
X1064654Y1087263D02*
G03X1064328Y1087313I-326J-1050D01*
G01X1064654Y1087263D02*
G03X1064951I149J478D01*
G01X1065278Y1087313D02*
G03X1064951Y1087263I-0J-1100D01*
G01X1065278Y1087313D02*
X1066928D01*
X1067227Y1087271D02*
G03X1066928Y1087313I-299J-1058D01*
G01X1067227Y1087271D02*
G03X1067499I136J481D01*
G01X1067798Y1087313D02*
G03X1067499Y1087271I-0J-1100D01*
G01X1067798Y1087313D02*
X1068973D01*
G03X1069473Y1087813I-0J500*
G01Y1091965*
G03X1069336Y1092309I-500J0*
G01X1068623Y1094098D02*
G03X1069336Y1092309I2600J-0D01*
G01X1073011Y1095985D02*
G03X1068623Y1094098I-1788J-1887D01*
G01X1073011Y1095985D02*
G03X1073355Y1095848I344J363D01*
G01X1089618*
G03X1090086Y1096173I-0J500*
G01X1090644Y1096885D02*
G03X1090086Y1096173I847J-1237D01*
G01X1090644Y1096885D02*
G03Y1097710I-283J413D01*
G01X1089991Y1098948D02*
G03X1090644Y1097710I1500J-0D01*
G01X1089991Y1098948D02*
Y1101369D01*
G03X1089376Y1101856I-500J0*
G01X1089006Y1101813D02*
G03X1089376Y1101856I0J1600D01*
G01X1089006Y1101813D02*
X1077623D01*
X1076491Y1102281D02*
G03X1077623Y1101813I1132J1132D01*
G01X1076491Y1102281D02*
X1072560Y1106212D01*
X1072091Y1107344D02*
G03X1072560Y1106212I1600J-0D01*
G01X1072091Y1107344D02*
Y1107673D01*
G03X1071591Y1108173I-500J-0*
G01X1070723*
G03X1070223Y1107673I-0J-500*
G01Y1104446*
G03X1070319Y1104151I500J-0*
G01X1070723Y1102913D02*
G03X1070319Y1104151I-2100J-0D01*
G01X1066579Y1102428D02*
G03X1070723Y1102913I2044J485D01*
G01X1066579Y1102428D02*
G03X1066095Y1102813I-486J-115D01*
G01X1064083Y1104336D02*
G03X1066095Y1102813I2020J577D01*
G01X1064083Y1104336D02*
G03X1063122I-480J-138D01*
G01X1059003Y1104913D02*
G03X1063122Y1104336I2100J-0D01*
G01X1059406Y1106151D02*
G03X1059003Y1104913I1697J-1238D01*
G01X1059406Y1106151D02*
G03X1059503Y1106446I-403J295D01*
G01Y1107673*
G03X1059003Y1108173I-500J-0*
G01X1057558*
X1057259Y1108214D02*
G03X1057558Y1108173I299J1059D01*
G01X1057259Y1108214D02*
G03X1056987I-136J-481D01*
G01X1056688Y1108173D02*
G03X1056987Y1108214I-0J1100D01*
G01X1056688Y1108173D02*
X1055038D01*
X1054711Y1108222D02*
G03X1055038Y1108173I327J1051D01*
G01X1054711Y1108222D02*
G03X1054414I-148J-477D01*
G01X1054088Y1108173D02*
G03X1054414Y1108222I-0J1100D01*
G01X1054088Y1108173D02*
X1052843D01*
G03X1052343Y1107673I-0J-500*
G01Y1104743*
X1051874Y1103611D02*
G03X1052343Y1104743I-1131J1132D01*
G01X1051874Y1103611D02*
X1047874Y1099611D01*
X1046743Y1099143D02*
G03X1047874Y1099611I-0J1600D01*
G01X1046743Y1099143D02*
X1020813D01*
G03X1020425Y1098327I0J-500*
G01X1014060D02*
G03X1020425I3183J-2584D01*
G01X1014060D02*
G03X1013672Y1099143I-388J316D01*
G01X1013112*
X1013112D02*
G03X1012759Y1098996I0J-500D01*
G01X1011268Y1097505*
G03X1011122Y1097152I354J-353*
X1011146Y1096999I500J-0*
G01X1008499Y1099646D02*
G03X1011146Y1096999I-1256J-3903D01*
G01X1008499Y1099646D02*
G03X1009005Y1099768I153J476D01*
G01X1011111Y1101874*
X1012243Y1102343D02*
G03X1011111Y1101874I-0J-1600D01*
G01X1012243Y1102343D02*
X1013672D01*
G03X1014060Y1103158I-0J500*
G01X1020425D02*
G03X1014060I-3182J2585D01*
G01X1020425D02*
G03X1020813Y1102343I388J-315D01*
G01X1045873*
G03X1046226Y1102489I-0J500*
G01X1048996Y1105259*
G03X1049143Y1105612I-353J353*
G01X1049143D02*
Y1107673D01*
G03X1048643Y1108173I-500J-0*
G01X1047358*
X1047048Y1108217D02*
G03X1047358Y1108173I310J1056D01*
G01X1047048Y1108217D02*
G03X1046767I-140J-480D01*
G01X1046458Y1108173D02*
G03X1046767Y1108217I-0J1100D01*
G01X1046458Y1108173D02*
X1044808D01*
X1043708Y1109273D02*
G03X1044808Y1108173I1100J-0D01*
G01X1043708Y1109273D02*
Y1114553D01*
X1044808Y1115653D02*
G03X1043708Y1114553I-0J-1100D01*
G01X1044808Y1115653D02*
X1046083D01*
G03X1046583Y1116153I-0J500*
G01Y1123710*
G03X1046486Y1124004I-500J-0*
G01X1046083Y1125243D02*
G03X1046486Y1124004I2100J-0D01*
G01X1050283Y1125243D02*
G03X1046083I-2100J-0D01*
G01X1049879Y1124004D02*
G03X1050283Y1125243I-1696J1239D01*
G01X1049879Y1124004D02*
G03X1049783Y1123710I404J-294D01*
G01Y1116153*
G03X1050283Y1115653I500J-0*
G01X1051568*
X1051867Y1115611D02*
G03X1051568Y1115653I-299J-1058D01*
G01X1051867Y1115611D02*
G03X1052139I136J481D01*
G01X1052438Y1115653D02*
G03X1052139Y1115611I-0J-1100D01*
G01X1052438Y1115653D02*
X1054088D01*
X1054414Y1115603D02*
G03X1054088Y1115653I-326J-1050D01*
G01X1054414Y1115603D02*
G03X1054711I149J478D01*
G01X1055038Y1115653D02*
G03X1054711Y1115603I-0J-1100D01*
G01X1055038Y1115653D02*
X1056283D01*
G03X1056783Y1116153I-0J500*
G01Y1121210*
G03X1056686Y1121504I-500J-0*
G01X1056283Y1122743D02*
G03X1056686Y1121504I2100J-0D01*
G01X1060483Y1122743D02*
G03X1056283I-2100J-0D01*
G01X1060079Y1121504D02*
G03X1060483Y1122743I-1696J1239D01*
G01X1060079Y1121504D02*
G03X1059983Y1121210I404J-294D01*
G01Y1116153*
G03X1060483Y1115653I500J-0*
G01X1061808*
X1062107Y1115611D02*
G03X1061808Y1115653I-299J-1058D01*
G01X1062107Y1115611D02*
G03X1062379I136J481D01*
G01X1062678Y1115653D02*
G03X1062379Y1115611I-0J-1100D01*
G01X1062678Y1115653D02*
X1064328D01*
X1064654Y1115603D02*
G03X1064328Y1115653I-326J-1050D01*
G01X1064654Y1115603D02*
G03X1064951I149J478D01*
G01X1065278Y1115653D02*
G03X1064951Y1115603I-0J-1100D01*
G01X1065278Y1115653D02*
X1066928D01*
X1067227Y1115611D02*
G03X1066928Y1115653I-299J-1058D01*
G01X1067227Y1115611D02*
G03X1067499I136J481D01*
G01X1067798Y1115653D02*
G03X1067499Y1115611I-0J-1100D01*
G01X1067798Y1115653D02*
X1069123D01*
G03X1069623Y1116153I-0J500*
G01Y1117893*
G03X1069476Y1118246I-500J-0*
G01X1061560Y1126162*
X1061091Y1127294D02*
G03X1061560Y1126162I1600J-0D01*
G01X1061091Y1127294D02*
Y1143765D01*
G03X1060995Y1144060I-500J-0*
G01X1060591Y1145298D02*
G03X1060995Y1144060I2100J-0D01*
G01X1060675Y1145885D02*
G03X1060591Y1145298I2016J-587D01*
G01X1060675Y1145885D02*
G03X1060519Y1146405I-480J140D01*
G01X1060141Y1146894D02*
G03X1060519Y1146405I1350J654D01*
G01X1060141Y1146894D02*
G03X1059241I-450J-218D01*
G01X1058864Y1146405D02*
G03X1059241Y1146894I-973J1143D01*
G01X1058864Y1146405D02*
G03X1058708Y1145885I324J-380D01*
G01X1054675D02*
G03X1058708I2016J-587D01*
G01X1054675D02*
G03X1054519Y1146405I-480J140D01*
G01X1053991Y1147548D02*
G03X1054519Y1146405I1500J-0D01*
G01X1053991Y1147548D02*
Y1150648D01*
X1054644Y1151885D02*
G03X1053991Y1150648I847J-1237D01*
G01X1054644Y1151885D02*
G03Y1152710I-283J413D01*
G01X1053991Y1153948D02*
G03X1054644Y1152710I1500J-0D01*
G01X1053991Y1153948D02*
Y1157048D01*
X1054816Y1158387D02*
G03X1053991Y1157048I675J-1339D01*
G01X1054816Y1158387D02*
G03X1055091Y1158834I-225J447D01*
G01Y1172428*
G03X1054945Y1172781I-500J-0*
G01X1047060Y1180666*
X1046591Y1181798D02*
G03X1047060Y1180666I1600J-0D01*
G01X1046591Y1181798D02*
Y1220993D01*
X1047060Y1222124D02*
G03X1046591Y1220993I1131J-1131D01*
G01X1047060Y1222124D02*
X1048810Y1223874D01*
X1049941Y1224343D02*
G03X1048810Y1223874I0J-1600D01*
G01X1049941Y1224343D02*
X1062710D01*
G03X1063004Y1224439I-0J500*
G01X1064243Y1224843D02*
G03X1063004Y1224439I-0J-2100D01*
G01X1064243Y1224843D02*
X1064691D01*
G03X1065033Y1224978I0J500*
G01X1065786Y1225276D02*
G03X1065033Y1224978I-0J-1100D01*
G01X1065786Y1225276D02*
X1077597D01*
X1078392Y1224936D02*
G03X1077597Y1225276I-795J-760D01*
G01X1078392Y1224936D02*
G03X1079253Y1225282I361J346D01*
G01Y1229514*
X1079255Y1229708D02*
G03X1079253Y1229514I7098J-194D01*
G01X1079255Y1229708D02*
G03X1079256Y1229722I-499J14D01*
X1078308Y1229944I-500J-0*
G01X1078844Y1232433D02*
G03X1078308Y1229944I-5184J-186D01*
G01X1078844Y1232433D02*
G03X1079804Y1232258I499J18D01*
G01X1086353Y1236614D02*
G03X1079804Y1232258I-0J-7100D01*
G01X1086353Y1236614D02*
X1089580D01*
G03X1090080Y1237114I-0J500*
G01Y1245672*
X1091180Y1246772D02*
G03X1090080Y1245672I-0J-1100D01*
G01X1091180Y1246772D02*
X1108109D01*
X1109209Y1245672D02*
G03X1108109Y1246772I-1100J-0D01*
G01X1109209Y1245672D02*
Y1237114D01*
G03X1109709Y1236614I500J0*
G01X1110643*
G03X1111143Y1237114I-0J500*
G01X1111142Y1247243*
G03X1106242Y1252143I-4900J-0*
G01X1004243*
G03X999343Y1247243I-0J-4900*
G01Y1004243*
G03X1004243Y999343I4900J-0*
G01X1106243*
G03X1111143Y1004243I-0J4900*
G01Y1180371*
X1079256Y1187764D02*
G03X1079255Y1187777I-500J-0D01*
G01X1079253Y1187971D02*
G03X1079255Y1187777I7100J0D01*
G01X1079253Y1187971D02*
Y1192203D01*
G03X1078392Y1192549I-500J0*
G01X1077597Y1192210D02*
G03X1078392Y1192549I-0J1100D01*
G01X1077597Y1192210D02*
X1065786D01*
X1065033Y1192507D02*
G03X1065786Y1192210I753J803D01*
G01X1065033Y1192507D02*
G03X1064691Y1192643I-342J-364D01*
G01X1064243*
X1063053Y1193012D02*
G03X1064243Y1192643I1190J1731D01*
G01X1063053Y1193012D02*
G03X1062416Y1192954I-284J-412D01*
G01X1061938Y1192476*
G03X1061791Y1192123I353J-353*
G01Y1188868*
G03X1061938Y1188514I500J-0*
G01X1068343Y1182109*
G03X1069133Y1182707I354J353*
G01X1078308Y1187542D02*
G03X1069133Y1182707I-4648J-2303D01*
G01X1078308Y1187542D02*
G03X1079256Y1187764I448J222D01*
G01X1064686Y1208143D02*
G03X1064197Y1208643I-500J0D01*
G01X1063004Y1209046D02*
G03X1064197Y1208643I1239J1697D01*
G01X1063004Y1209046D02*
G03X1062710Y1209143I-294J-403D01*
G01X1056811*
G03X1056458Y1208996I0J-500*
G01X1055938Y1208476*
G03X1055791Y1208123I353J-353*
G01Y1204063*
G03X1056645Y1203709I500J-0*
G01X1056810Y1203874*
X1057941Y1204343D02*
G03X1056810Y1203874I0J-1600D01*
G01X1057941Y1204343D02*
X1062710D01*
G03X1063004Y1204439I-0J500*
G01X1064197Y1204842D02*
G03X1063004Y1204439I46J-2099D01*
G01X1064197Y1204842D02*
G03X1064686Y1205342I-11J500D01*
G01X1064686*
G03Y1205347I-500J0*
G01Y1205357D02*
G03Y1205347I1100J-0D01*
G01Y1205357D02*
Y1208113D01*
Y1208134D02*
G03Y1208113I1100J-21D01*
G01Y1208134D02*
G03Y1208143I-500J9D01*
G01X1064503Y1107673D02*
G03X1064003Y1108173I-500J-0D01*
G01X1063203*
G03X1062703Y1107673I-0J-500*
G01Y1106446*
G03X1062799Y1106151I500J-0*
G01X1063122Y1105490D02*
G03X1062799Y1106151I-2019J-577D01*
G01X1063122Y1105490D02*
G03X1064083I481J137D01*
G01X1064406Y1106151D02*
G03X1064083Y1105490I1697J-1238D01*
G01X1064406Y1106151D02*
G03X1064503Y1106446I-403J295D01*
G01Y1107673*
X1048672Y1088158D02*
G03X1048728Y1087990I2019J577D01*
G01X1048672Y1088158D02*
G03X1047711I-481J-137D01*
G01X1047655Y1087990D02*
G03X1047711Y1088158I-1964J745D01*
G01X1047655Y1087990D02*
G03X1048122Y1087313I467J-177D01*
G01X1048260*
G03X1048728Y1087990I0J500*
G01X1104402Y1013412D02*
Y1010262D01*
X1103302Y1009162D02*
G03X1104402Y1010262I-0J1100D01*
G01X1103302Y1009162D02*
X1093223D01*
X1092559Y1009386D02*
G03X1093223Y1009162I664J876D01*
G01X1092559Y1009386D02*
G03X1092257Y1009487I-302J-399D01*
G01X1085152*
X1083490Y1010175D02*
G03X1085152Y1009487I1662J1662D01*
G01X1083490Y1010175D02*
X1078065Y1015601D01*
X1078065D02*
G03X1077712Y1015747I-353J-354D01*
G01X1063892*
X1062507Y1016199D02*
G03X1063892Y1015747I1385J1898D01*
G01X1062507Y1016199D02*
G03X1061737Y1015640I-295J-404D01*
G01X1061791Y1015298D02*
G03X1061737Y1015640I-1100J-0D01*
G01X1061791Y1015298D02*
Y1014937D01*
G03X1062291Y1014437I500J0*
G01X1066598*
G03X1066749Y1014461I-0J500*
G01X1067081Y1014512D02*
G03X1066749Y1014461I0J-1100D01*
G01X1067081Y1014512D02*
X1077160D01*
X1078260Y1013412D02*
G03X1077160Y1014512I-1100J-0D01*
G01X1078260Y1013412D02*
Y1010262D01*
X1077160Y1009162D02*
G03X1078260Y1010262I-0J1100D01*
G01X1077160Y1009162D02*
X1067081D01*
X1066749Y1009214D02*
G03X1067081Y1009162I332J1048D01*
G01X1066749Y1009214D02*
G03X1066598Y1009237I-151J-477D01*
G01X1062291*
G03X1061791Y1008737I0J-500*
G01Y1005298*
X1060691Y1004198D02*
G03X1061791Y1005298I0J1100D01*
G01X1060691Y1004198D02*
X1050691D01*
X1049591Y1005298D02*
G03X1050691Y1004198I1100J-0D01*
G01X1049591Y1005298D02*
Y1005688D01*
G03X1049091Y1006188I-500J-0*
G01X1047977*
G03X1047614Y1006032I0J-500*
G01X1046815Y1005688D02*
G03X1047614Y1006032I0J1100D01*
G01X1046815Y1005688D02*
X1042315D01*
X1041215Y1006788D02*
G03X1042315Y1005688I1100J-0D01*
G01X1041215Y1006788D02*
Y1011288D01*
X1042315Y1012388D02*
G03X1041215Y1011288I0J-1100D01*
G01X1042315Y1012388D02*
X1046815D01*
X1047614Y1012044D02*
G03X1046815Y1012388I-799J-756D01*
G01X1047614Y1012044D02*
G03X1047977Y1011888I363J344D01*
G01X1049091*
G03X1049591Y1012388I0J500*
G01Y1015298*
X1050691Y1016398D02*
G03X1049591Y1015298I0J-1100D01*
G01X1050691Y1016398D02*
X1060691D01*
X1060985Y1016358D02*
G03X1060691Y1016398I-294J-1060D01*
G01X1060985Y1016358D02*
G03X1061619Y1016840I134J482D01*
X1061473Y1017193I-500J-0*
G01X1056721Y1021945*
X1056033Y1023607D02*
G03X1056721Y1021945I2350J-0D01*
G01X1056033Y1023607D02*
Y1023698D01*
G03X1055533Y1024198I-500J-0*
G01X1050691*
X1049591Y1025298D02*
G03X1050691Y1024198I1100J-0D01*
G01X1049591Y1025298D02*
Y1026563D01*
G03X1049091Y1027063I-500J-0*
G01X1046623*
X1044254Y1028044D02*
G03X1046623Y1027063I2369J2369D01*
G01X1044254Y1028044D02*
X1040013Y1032285D01*
G03X1039659Y1032431I-354J-354*
G01X1039222*
G03X1038731Y1032027I0J-500*
G01X1037652Y1031138D02*
G03X1038731Y1032027I-0J1100D01*
G01X1037652Y1031138D02*
X1028794D01*
X1027992Y1031485D02*
G03X1028794Y1031138I802J753D01*
G01X1027992Y1031485D02*
G03X1027627Y1031643I-365J-342D01*
G01X1017243*
X1014612Y1032598D02*
G03X1017243Y1031643I2631J3145D01*
G01X1014612Y1032598D02*
G03X1013791Y1032214I-321J-384D01*
G01Y1029271*
G03X1014612Y1028888I500J0*
G01Y1022598D02*
G03Y1028888I2631J3145D01*
G01Y1022598D02*
G03X1013791Y1022214I-321J-384D01*
G01Y1019271*
G03X1014612Y1018888I500J0*
G01X1021343Y1015743D02*
G03X1014612Y1018888I-4100J-0D01*
G01X1020057Y1012761D02*
G03X1021343Y1015743I-2814J2982D01*
G01X1020057Y1012761D02*
G03X1020401Y1011898I344J-363D01*
G01X1020943*
X1022074Y1011429D02*
G03X1020943Y1011898I-1131J-1131D01*
G01X1022074Y1011429D02*
X1024659Y1008844D01*
G03X1025012Y1008698I353J354*
G01X1025012D02*
X1026069D01*
G03X1026549Y1009060I-0J500*
G01X1027144Y1009885D02*
G03X1026549Y1009060I847J-1237D01*
G01X1027144Y1009885D02*
G03Y1010710I-283J413D01*
G01X1026491Y1011948D02*
G03X1027144Y1010710I1500J-0D01*
G01X1026491Y1011948D02*
Y1015048D01*
X1027991Y1016548D02*
G03X1026491Y1015048I0J-1500D01*
G01X1027991Y1016548D02*
X1030391D01*
X1031531Y1016023D02*
G03X1030391Y1016548I-1140J-975D01*
G01X1031531Y1016023D02*
G03X1031911Y1015848I380J325D01*
G01X1033537*
G03X1033819Y1015935I-0J500*
G01X1034441Y1016128D02*
G03X1033819Y1015935I0J-1100D01*
G01X1034441Y1016128D02*
X1038941D01*
X1040041Y1015028D02*
G03X1038941Y1016128I-1100J0D01*
G01X1040041Y1015028D02*
Y1010528D01*
X1039464Y1009560D02*
G03X1040041Y1010528I-523J968D01*
G01X1039464Y1009560D02*
G03X1039425Y1008704I238J-440D01*
G01X1039915Y1007788D02*
G03X1039425Y1008704I-1100J-0D01*
G01X1039915Y1007788D02*
Y1003288D01*
X1038815Y1002188D02*
G03X1039915Y1003288I0J1100D01*
G01X1038815Y1002188D02*
X1034315D01*
X1033215Y1003288D02*
G03X1034315Y1002188I1100J-0D01*
G01X1033215Y1003288D02*
Y1007788D01*
X1033793Y1008756D02*
G03X1033215Y1007788I522J-968D01*
G01X1033793Y1008756D02*
G03X1033832Y1009612I-238J440D01*
G01X1033341Y1010528D02*
G03X1033832Y1009612I1100J0D01*
G01X1033341Y1010528D02*
Y1010648D01*
G03X1032841Y1011148I-500J-0*
G01X1031911*
G03X1031531Y1010973I0J-500*
G01X1031239Y1010710D02*
G03X1031531Y1010973I-848J1238D01*
G01X1031239Y1010710D02*
G03Y1009885I283J-412D01*
G01X1031891Y1008648D02*
G03X1031239Y1009885I-1500J-0D01*
G01X1031891Y1008648D02*
Y1005548D01*
X1030391Y1004048D02*
G03X1031891Y1005548I0J1500D01*
G01X1030391Y1004048D02*
X1027991D01*
X1026549Y1005135D02*
G03X1027991Y1004048I1442J413D01*
G01X1026549Y1005135D02*
G03X1026069Y1005498I-480J-137D01*
G01X1024143*
X1023011Y1005966D02*
G03X1024143Y1005498I1132J1132D01*
G01X1023011Y1005966D02*
X1022135Y1006842D01*
G03X1021288Y1006408I-353J-353*
G01X1014143Y1008426D02*
G03X1021288Y1006408I3100J-2683D01*
G01X1014143Y1008426D02*
G03X1014265Y1008753I-378J327D01*
X1014103Y1009121I-500J0*
G01X1014056Y1009166D02*
G03X1014103Y1009121I1132J1132D01*
G01X1014056Y1009166D02*
X1011060Y1012162D01*
X1010770Y1012559D02*
G03X1011060Y1012162I1421J735D01*
G01X1010770Y1012559D02*
G03X1009991Y1012700I-444J-230D01*
G01X1009782Y1018962D02*
G03X1009991Y1012700I-2539J-3219D01*
G01X1009782Y1018962D02*
G03X1010591Y1019354I309J392D01*
G01Y1022131*
G03X1009782Y1022523I-500J-0*
G01Y1028962D02*
G03Y1022523I-2539J-3219D01*
G01Y1028962D02*
G03X1010591Y1029354I309J392D01*
G01Y1032131*
G03X1009782Y1032523I-500J-0*
G01Y1038962D02*
G03Y1032523I-2539J-3219D01*
G01Y1038962D02*
G03X1010591Y1039354I309J392D01*
G01Y1042131*
G03X1009782Y1042523I-500J-0*
G01Y1048962D02*
G03Y1042523I-2539J-3219D01*
G01Y1048962D02*
G03X1010591Y1049354I309J392D01*
G01Y1052131*
G03X1009782Y1052523I-500J-0*
G01Y1058962D02*
G03Y1052523I-2539J-3219D01*
G01Y1058962D02*
G03X1010591Y1059354I309J392D01*
G01Y1062131*
G03X1009782Y1062523I-500J-0*
G01Y1068962D02*
G03Y1062523I-2539J-3219D01*
G01Y1068962D02*
G03X1010591Y1069354I309J392D01*
G01Y1072131*
G03X1009782Y1072523I-500J-0*
G01Y1078962D02*
G03Y1072523I-2539J-3219D01*
G01Y1078962D02*
G03X1010591Y1079354I309J392D01*
G01Y1079924*
G03X1010445Y1080278I-500J-0*
G01X1009005Y1081717*
G03X1008499Y1081840I-353J-353*
G01X1011146Y1084487D02*
G03X1008499Y1081840I-3903J1256D01*
G01X1011146Y1084487D02*
G03X1011122Y1084334I476J-153D01*
X1011268Y1083980I500J-0*
G01X1013323Y1081925*
X1013791Y1080794D02*
G03X1013323Y1081925I-1600J-0D01*
G01X1013791Y1080794D02*
Y1079271D01*
G03X1014612Y1078888I500J0*
G01Y1072598D02*
G03Y1078888I2631J3145D01*
G01Y1072598D02*
G03X1013791Y1072214I-321J-384D01*
G01Y1069271*
G03X1014612Y1068888I500J0*
G01Y1062598D02*
G03Y1068888I2631J3145D01*
G01Y1062598D02*
G03X1013791Y1062214I-321J-384D01*
G01Y1059271*
G03X1014612Y1058888I500J0*
G01Y1052598D02*
G03Y1058888I2631J3145D01*
G01Y1052598D02*
G03X1013791Y1052214I-321J-384D01*
G01Y1049271*
G03X1014612Y1048888I500J0*
G01Y1042598D02*
G03Y1048888I2631J3145D01*
G01Y1042598D02*
G03X1013791Y1042214I-321J-384D01*
G01Y1039271*
G03X1014612Y1038888I500J0*
G01X1017243Y1039843D02*
G03X1014612Y1038888I-0J-4100D01*
G01X1017243Y1039843D02*
X1027559D01*
G03X1027945Y1040025I0J500*
G01X1028794Y1040425D02*
G03X1027945Y1040025I-0J-1100D01*
G01X1028794Y1040425D02*
X1037652D01*
X1038731Y1039535D02*
G03X1037652Y1040425I-1079J-210D01*
G01X1038731Y1039535D02*
G03X1039222Y1039131I491J96D01*
G01X1041254*
X1043623Y1038150D02*
G03X1041254Y1039131I-2369J-2369D01*
G01X1043623Y1038150D02*
X1047864Y1033909D01*
G03X1048217Y1033763I353J354*
G01X1049091*
G03X1049591Y1034263I0J500*
G01Y1035298*
X1050691Y1036398D02*
G03X1049591Y1035298I0J-1100D01*
G01X1050691Y1036398D02*
X1052341D01*
G03X1052841Y1036898I0J500*
G01Y1037298*
X1058541D02*
G03X1052841I-2850J-0D01*
G01X1058541D02*
Y1036898D01*
G03X1059041Y1036398I500J-0*
G01X1060691*
X1061791Y1035298D02*
G03X1060691Y1036398I-1100J-0D01*
G01X1061791Y1035298D02*
Y1025298D01*
X1061480Y1024531D02*
G03X1061791Y1025298I-789J767D01*
G01X1061480Y1024531D02*
G03X1061338Y1024182I358J-349D01*
X1061484Y1023828I500J-0*
G01X1064719Y1020593*
G03X1065073Y1020447I354J354*
G01X1078892*
X1080554Y1019759D02*
G03X1078892Y1020447I-1662J-1662D01*
G01X1080554Y1019759D02*
X1085979Y1014334D01*
G03X1086333Y1014187I354J353*
G01X1092257*
G03X1092559Y1014289I-0J500*
G01X1093223Y1014512D02*
G03X1092559Y1014289I-0J-1100D01*
G01X1093223Y1014512D02*
X1103302D01*
X1104402Y1013412D02*
G03X1103302Y1014512I-1100J-0D01*
G01X1038752Y1027907D02*
Y1020821D01*
X1037652Y1019721D02*
G03X1038752Y1020821I-0J1100D01*
G01X1037652Y1019721D02*
X1028794D01*
X1027693Y1020821D02*
G03X1028794Y1019721I1101J-0D01*
G01X1027693Y1020821D02*
Y1027907D01*
X1028794Y1029007D02*
G03X1027693Y1027907I-0J-1100D01*
G01X1028794Y1029007D02*
X1037652D01*
X1038752Y1027907D02*
G03X1037652Y1029007I-1100J0D01*
G01X1011343Y1005743D02*
G03X1011343I-4100J0D01*
G01X1021343Y1085743D02*
G03X1021343I-4100J0D01*
G01Y1115743D02*
G03X1021343I-4100J0D01*
G01Y1125743D02*
G03X1021343I-4100J0D01*
G01Y1135743D02*
G03X1021343I-4100J0D01*
G01Y1145743D02*
G03X1021343I-4100J0D01*
G01Y1155743D02*
G03X1021343I-4100J0D01*
G01Y1165743D02*
G03X1021343I-4100J0D01*
G01Y1175743D02*
G03X1021343I-4100J0D01*
G01Y1185743D02*
G03X1021343I-4100J0D01*
G01Y1195743D02*
G03X1021343I-4100J0D01*
G01Y1205743D02*
G03X1021343I-4100J0D01*
G01Y1215743D02*
G03X1021343I-4100J0D01*
G01Y1225743D02*
G03X1021343I-4100J0D01*
G01Y1235743D02*
G03X1021343I-4100J0D01*
G01Y1245743D02*
G03X1021343I-4100J0D01*
G01X1011343Y1105743D02*
G03X1011343I-4100J0D01*
G01Y1115743D02*
G03X1011343I-4100J0D01*
G01Y1125743D02*
G03X1011343I-4100J0D01*
G01Y1135743D02*
G03X1011343I-4100J0D01*
G01Y1145743D02*
G03X1011343I-4100J0D01*
G01Y1155743D02*
G03X1011343I-4100J0D01*
G01Y1165743D02*
G03X1011343I-4100J0D01*
G01Y1175743D02*
G03X1011343I-4100J0D01*
G01Y1185743D02*
G03X1011343I-4100J0D01*
G01Y1195743D02*
G03X1011343I-4100J0D01*
G01Y1205743D02*
G03X1011343I-4100J0D01*
G01Y1215743D02*
G03X1011343I-4100J0D01*
G01Y1225743D02*
G03X1011343I-4100J0D01*
G01Y1235743D02*
G03X1011343I-4100J0D01*
G01Y1248743D02*
Y1242743D01*
X1010243Y1241643D02*
G03X1011343Y1242743I-0J1100D01*
G01X1010243Y1241643D02*
X1004243D01*
X1003143Y1242743D02*
G03X1004243Y1241643I1100J-0D01*
G01X1003143Y1242743D02*
Y1248743D01*
X1004243Y1249843D02*
G03X1003143Y1248743I-0J-1100D01*
G01X1004243Y1249843D02*
X1010243D01*
X1011343Y1248743D02*
G03X1010243Y1249843I-1100J-0D01*
G01X1109209Y1180241D02*
X1111143D01*
X1109209Y1179341D02*
X1111143D01*
X1109209Y1178441D02*
X1111143D01*
X1109209Y1177541D02*
X1111143D01*
X1109209Y1176641D02*
X1111143D01*
X1109209Y1175741D02*
X1111143D01*
X1109209Y1174841D02*
X1111143D01*
X1109209Y1173941D02*
X1111143D01*
X1109209Y1173041D02*
X1111143D01*
X1109209Y1172141D02*
X1111143D01*
X1109048Y1171241D02*
X1111143D01*
X1080111Y1170341D02*
X1111143D01*
X1081011Y1169441D02*
X1111143D01*
X1081911Y1168541D02*
X1111143D01*
X1082811Y1167641D02*
X1111143D01*
X1083711Y1166741D02*
X1111143D01*
X1084611Y1165841D02*
X1111143D01*
X1085511Y1164941D02*
X1111143D01*
X1086411Y1164041D02*
X1111143D01*
X1087311Y1163141D02*
X1111143D01*
X1088211Y1162241D02*
X1111143D01*
X1089111Y1161341D02*
X1111143D01*
X1090011Y1160441D02*
X1111143D01*
X1090911Y1159541D02*
X1111143D01*
X1091820Y1158641D02*
X1111143D01*
X1095221Y1157741D02*
X1111143D01*
X1095391Y1156841D02*
X1111143D01*
X1095391Y1155941D02*
X1111143D01*
X1095391Y1155041D02*
X1111143D01*
X1095391Y1154141D02*
X1111143D01*
X1095215Y1153241D02*
X1111143D01*
X1094524Y1152341D02*
X1111143D01*
X1095164Y1151441D02*
X1111143D01*
X1095391Y1150541D02*
X1111143D01*
X1095391Y1149641D02*
X1111143D01*
X1095391Y1148741D02*
X1111143D01*
X1095391Y1147841D02*
X1111143D01*
X1095263Y1146941D02*
X1111143D01*
X1094688Y1146041D02*
X1111143D01*
X1094786Y1145141D02*
X1111143D01*
X1094506Y1144241D02*
X1111143D01*
X1093455Y1143341D02*
X1111143D01*
X1088291Y1142441D02*
X1111143D01*
X1088291Y1141541D02*
X1111143D01*
X1088291Y1140641D02*
X1111143D01*
X1088291Y1139741D02*
X1111143D01*
X1088291Y1138841D02*
X1111143D01*
X1088291Y1137941D02*
X1111143D01*
X1088291Y1137041D02*
X1111143D01*
X1088291Y1136141D02*
X1111143D01*
X1088291Y1135241D02*
X1111143D01*
X1088291Y1134341D02*
X1111143D01*
X1088291Y1133441D02*
X1111143D01*
X1088291Y1132541D02*
X1111143D01*
X1088291Y1131641D02*
X1111143D01*
X1088291Y1130741D02*
X1111143D01*
X1088291Y1129841D02*
X1111143D01*
X1088291Y1128941D02*
X1111143D01*
X1088291Y1128041D02*
X1111143D01*
X1088291Y1127141D02*
X1111143D01*
X1088539Y1126241D02*
X1111143D01*
X1088789Y1125341D02*
X1111143D01*
X1088633Y1124441D02*
X1111143D01*
X1087923Y1123541D02*
X1111143D01*
X1076860Y1122641D02*
X1111143D01*
X1076609Y1121741D02*
X1111143D01*
X1075654Y1120841D02*
X1111143D01*
X1072307Y1119941D02*
X1111143D01*
X1072798Y1119041D02*
X1111143D01*
X1072823Y1118141D02*
X1111143D01*
X1072823Y1117241D02*
X1111143D01*
X1094651Y1116341D02*
X1111143D01*
X1095339Y1115441D02*
X1111143D01*
X1095391Y1114541D02*
X1111143D01*
X1095391Y1113641D02*
X1111143D01*
X1095391Y1112741D02*
X1111143D01*
X1095388Y1111841D02*
X1111143D01*
X1095004Y1110941D02*
X1111143D01*
X1094593Y1110041D02*
X1111143D01*
X1095308Y1109141D02*
X1111143D01*
X1095391Y1108241D02*
X1111143D01*
X1095391Y1107341D02*
X1111143D01*
X1095391Y1106441D02*
X1111143D01*
X1095391Y1105541D02*
X1111143D01*
X1095087Y1104641D02*
X1111143D01*
X1094363Y1103741D02*
X1111143D01*
X1095164Y1102841D02*
X1111143D01*
X1095391Y1101941D02*
X1111143D01*
X1095391Y1101041D02*
X1111143D01*
X1095391Y1100141D02*
X1111143D01*
X1095391Y1099241D02*
X1111143D01*
X1095263Y1098341D02*
X1111143D01*
X1094543Y1097441D02*
X1111143D01*
X1095096Y1096541D02*
X1111143D01*
X1095391Y1095641D02*
X1111143D01*
X1095391Y1094741D02*
X1111143D01*
X1095391Y1093841D02*
X1111143D01*
X1095391Y1092941D02*
X1111143D01*
X1095303Y1092041D02*
X1111143D01*
X1094978Y1091141D02*
X1111143D01*
X1095379Y1090241D02*
X1111143D01*
X1095391Y1089341D02*
X1111143D01*
X1095391Y1088441D02*
X1111143D01*
X1095391Y1087541D02*
X1111143D01*
X1095360Y1086641D02*
X1111143D01*
X1094783Y1085741D02*
X1111143D01*
X1094800Y1084841D02*
X1111143D01*
X1095362Y1083941D02*
X1111143D01*
X1095391Y1083041D02*
X1111143D01*
X1095391Y1082141D02*
X1111143D01*
X1095391Y1081241D02*
X1111143D01*
X1095377Y1080341D02*
X1111143D01*
X1094904Y1079441D02*
X1111143D01*
X1091398Y1078541D02*
X1111143D01*
X1090498Y1077641D02*
X1111143D01*
X1067703Y1076741D02*
X1111143D01*
X1067703Y1075841D02*
X1111143D01*
X1067703Y1074941D02*
X1111143D01*
X1067703Y1074041D02*
X1111143D01*
X1067703Y1073141D02*
X1111143D01*
X1067703Y1072241D02*
X1111143D01*
X1067703Y1071341D02*
X1111143D01*
X1067703Y1070441D02*
X1111143D01*
X1067703Y1069541D02*
X1111143D01*
X1067703Y1068641D02*
X1111143D01*
X1067703Y1067741D02*
X1111143D01*
X1067703Y1066841D02*
X1111143D01*
X1067703Y1065941D02*
X1111143D01*
X1067703Y1065041D02*
X1111143D01*
X1067703Y1064141D02*
X1111143D01*
X1067703Y1063241D02*
X1111143D01*
X1067703Y1062341D02*
X1111143D01*
X1067703Y1061441D02*
X1111143D01*
X1067703Y1060541D02*
X1111143D01*
X1067703Y1059641D02*
X1111143D01*
X1067703Y1058741D02*
X1111143D01*
X1067765Y1057841D02*
X1111143D01*
X1099311Y1056941D02*
X1111143D01*
X1100211Y1056041D02*
X1111143D01*
X1101111Y1055141D02*
X1111143D01*
X1102011Y1054241D02*
X1111143D01*
X1102911Y1053341D02*
X1111143D01*
X1103811Y1052441D02*
X1111143D01*
X1104711Y1051541D02*
X1111143D01*
X1105611Y1050641D02*
X1111143D01*
X1106511Y1049741D02*
X1111143D01*
X1107411Y1048841D02*
X1111143D01*
X1108311Y1047941D02*
X1111143D01*
X1109211Y1047041D02*
X1111143D01*
X1109793Y1046141D02*
X1111143D01*
X1109843Y1045241D02*
X1111143D01*
X1109843Y1044341D02*
X1111143D01*
X1109843Y1043441D02*
X1111143D01*
X1109843Y1042541D02*
X1111143D01*
X1109843Y1041641D02*
X1111143D01*
X1109843Y1040741D02*
X1111143D01*
X1109843Y1039841D02*
X1111143D01*
X1109843Y1038941D02*
X1111143D01*
X1109843Y1038041D02*
X1111143D01*
X1109843Y1037141D02*
X1111143D01*
X1109843Y1036241D02*
X1111143D01*
X1109843Y1035341D02*
X1111143D01*
X1109843Y1034441D02*
X1111143D01*
X1109843Y1033541D02*
X1111143D01*
X1109843Y1032641D02*
X1111143D01*
X1109843Y1031741D02*
X1111143D01*
X1109843Y1030841D02*
X1111143D01*
X1109843Y1029941D02*
X1111143D01*
X1109843Y1029041D02*
X1111143D01*
X1109843Y1028141D02*
X1111143D01*
X1109843Y1027241D02*
X1111143D01*
X1109843Y1026341D02*
X1111143D01*
X1109843Y1025441D02*
X1111143D01*
X1109843Y1024541D02*
X1111143D01*
X1109829Y1023641D02*
X1111143D01*
X1109397Y1022741D02*
X1111143D01*
X1108498Y1021841D02*
X1111143D01*
X1107598Y1020941D02*
X1111143D01*
X1106698Y1020041D02*
X1111143D01*
X1105798Y1019141D02*
X1111143D01*
X1104898Y1018241D02*
X1111143D01*
X1103998Y1017341D02*
X1111143D01*
X1103040Y1016441D02*
X1111143D01*
X1084771Y1015541D02*
X1111143D01*
X1085671Y1014641D02*
X1111143D01*
X1104351Y1013741D02*
X1111143D01*
X1104402Y1012841D02*
X1111143D01*
X1104402Y1011941D02*
X1111143D01*
X1104402Y1011041D02*
X1111143D01*
X1104395Y1010141D02*
X1111143D01*
X1103711Y1009241D02*
X1111143D01*
X1061791Y1008341D02*
X1111143D01*
X1061791Y1007441D02*
X1111143D01*
X1061791Y1006541D02*
X1111143D01*
X1061791Y1005641D02*
X1111143D01*
X1061640Y1004741D02*
X1111143D01*
X1109209Y1237841D02*
X1111143D01*
X1109209Y1238741D02*
X1111143D01*
X1109209Y1239641D02*
X1111143D01*
X1109209Y1240541D02*
X1111143D01*
X1109209Y1241441D02*
X1111142D01*
X1109209Y1242341D02*
X1111142D01*
X1109209Y1243241D02*
X1111142D01*
X1109209Y1244141D02*
X1111142D01*
X1109209Y1245041D02*
X1111142D01*
X1109175Y1245941D02*
X1111142D01*
X1021193Y1246841D02*
X1111142D01*
X1039915Y1003841D02*
X1111126D01*
X1020822Y1247741D02*
X1111117D01*
X1109240Y1236941D02*
X1111112D01*
X1039859Y1002941D02*
X1110967D01*
X1020142Y1248641D02*
X1110938D01*
X1019006Y1002041D02*
X1110620D01*
X1018785Y1249541D02*
X1110570D01*
X1000449Y1001141D02*
X1110036D01*
X1000531Y1250441D02*
X1109954D01*
X1001414Y1000241D02*
X1109071D01*
X1001557Y1251341D02*
X1108928D01*
X1083791Y1038041D02*
X1104143D01*
X1083791Y1037141D02*
X1104143D01*
X1083791Y1036241D02*
X1104143D01*
X1061791Y1029941D02*
X1104143D01*
X1061791Y1029041D02*
X1104110D01*
X1083791Y1038941D02*
X1104026D01*
X1061791Y1028141D02*
X1103272D01*
X1085681Y1020941D02*
X1103069D01*
X1061791Y1027241D02*
X1102372D01*
X1086581Y1020041D02*
X1102172D01*
X1082459Y1045241D02*
X1096571D01*
X1081559Y1046141D02*
X1095681D01*
X1080647Y1047041D02*
X1094781D01*
X1059617Y1047941D02*
X1093881D01*
X1058717Y1048841D02*
X1092981D01*
X1077569Y1009241D02*
X1092814D01*
X1084781Y1021841D02*
X1092810D01*
X1083358Y1044341D02*
X1092783D01*
X1078024Y1030841D02*
X1092357D01*
X1083791Y1035341D02*
X1092346D01*
X1083791Y1039841D02*
X1092178D01*
X1078211Y1026341D02*
X1092174D01*
X1083881Y1022741D02*
X1092129D01*
X1083780Y1043441D02*
X1092128D01*
X1083791Y1042541D02*
X1092123D01*
X1083791Y1041641D02*
X1092123D01*
X1083791Y1040741D02*
X1092123D01*
X1081181Y1025441D02*
X1092123D01*
X1082081Y1024541D02*
X1092123D01*
X1082981Y1023641D02*
X1092123D01*
X1057817Y1049741D02*
X1092081D01*
X1088291Y1143341D02*
X1091928D01*
X1088506Y1144241D02*
X1090876D01*
X1020974Y1097441D02*
X1090840D01*
X1088651Y1116341D02*
X1090732D01*
X1088688Y1146041D02*
X1090695D01*
X1088786Y1145141D02*
X1090597D01*
X1072111Y1096541D02*
X1090287D01*
X1079211Y1171241D02*
X1090240D01*
X1020414Y1098341D02*
X1090119D01*
X1089268Y1146941D02*
X1090115D01*
X1021338Y1245941D02*
X1090113D01*
X1021282Y1245041D02*
X1090080D01*
X1021017Y1244141D02*
X1090080D01*
X1020491Y1243241D02*
X1090080D01*
X1019532Y1242341D02*
X1090080D01*
X999343Y1241441D02*
X1090080D01*
X999343Y1240541D02*
X1090080D01*
X1018512Y1239641D02*
X1090080D01*
X1020039Y1238741D02*
X1090080D01*
X1020765Y1237841D02*
X1090080D01*
X1075050Y1180241D02*
X1090080D01*
X1071111Y1179341D02*
X1090080D01*
X1072011Y1178441D02*
X1090080D01*
X1072911Y1177541D02*
X1090080D01*
X1073811Y1176641D02*
X1090080D01*
X1074711Y1175741D02*
X1090080D01*
X1075611Y1174841D02*
X1090080D01*
X1076511Y1173941D02*
X1090080D01*
X1077411Y1173041D02*
X1090080D01*
X1078311Y1172141D02*
X1090080D01*
X1075865Y1236941D02*
X1090049D01*
X1069576Y1101041D02*
X1089991D01*
X1048404Y1100141D02*
X1089991D01*
X1047296Y1099241D02*
X1089991D01*
X1089546Y1115441D02*
X1089837D01*
X1081483Y1031741D02*
X1089658D01*
X1083768Y1034441D02*
X1089649D01*
X1082383Y1032641D02*
X1089212D01*
X1083283Y1033541D02*
X1089210D01*
X1083871Y1016441D02*
X1085713D01*
X1076705Y1123541D02*
X1085460D01*
X1081455Y1143341D02*
X1085091D01*
X1076363Y1142441D02*
X1085091D01*
X1076363Y1141541D02*
X1085091D01*
X1076363Y1140641D02*
X1085091D01*
X1076363Y1139741D02*
X1085091D01*
X1076363Y1138841D02*
X1085091D01*
X1076363Y1137941D02*
X1085091D01*
X1076363Y1137041D02*
X1085091D01*
X1076363Y1136141D02*
X1085091D01*
X1076363Y1135241D02*
X1085091D01*
X1076363Y1134341D02*
X1085091D01*
X1076363Y1133441D02*
X1085091D01*
X1076363Y1132541D02*
X1085091D01*
X1076363Y1131641D02*
X1085091D01*
X1076363Y1130741D02*
X1085091D01*
X1076363Y1129841D02*
X1085091D01*
X1076363Y1128941D02*
X1085091D01*
X1076363Y1128041D02*
X1085091D01*
X1076363Y1127141D02*
X1085091D01*
X1082506Y1144241D02*
X1084876D01*
X1076363Y1126241D02*
X1084844D01*
X1082971Y1017341D02*
X1084755D01*
X1076363Y1124441D02*
X1084750D01*
X1072823Y1116341D02*
X1084732D01*
X1082688Y1146041D02*
X1084695D01*
X1082786Y1145141D02*
X1084597D01*
X1076363Y1125341D02*
X1084594D01*
X1076841Y1181141D02*
X1084412D01*
X1083268Y1146941D02*
X1084115D01*
X1080326Y1115441D02*
X1084043D01*
X1082071Y1018241D02*
X1083855D01*
X1077196Y1236041D02*
X1083559D01*
X1078253Y1010141D02*
X1083525D01*
X1081171Y1019141D02*
X1082955D01*
X1078260Y1011041D02*
X1082624D01*
X1077744Y1182041D02*
X1082448D01*
X1080212Y1020041D02*
X1082055D01*
X1077964Y1235141D02*
X1082023D01*
X1078260Y1011941D02*
X1081724D01*
X1078310Y1182941D02*
X1081342D01*
X1064371Y1020941D02*
X1081155D01*
X1078448Y1234241D02*
X1081055D01*
X1078260Y1012841D02*
X1080824D01*
X1078260Y1041641D02*
X1080591D01*
X1078260Y1040741D02*
X1080591D01*
X1078205Y1039841D02*
X1080591D01*
X1058020Y1038941D02*
X1080591D01*
X1058443Y1038041D02*
X1080591D01*
X1058541Y1037141D02*
X1080591D01*
X1061257Y1036241D02*
X1080591D01*
X1078655Y1183841D02*
X1080577D01*
X1078260Y1042541D02*
X1080564D01*
X1078033Y1035341D02*
X1080530D01*
X1078730Y1233341D02*
X1080373D01*
X1077573Y1021841D02*
X1080255D01*
X1078823Y1184741D02*
X1080030D01*
X1076363Y1143341D02*
X1079928D01*
X1078210Y1013741D02*
X1079924D01*
X1078843Y1232441D02*
X1079884D01*
X1078255Y1043441D02*
X1079734D01*
X1078453Y1034441D02*
X1079650D01*
X1078379Y1022741D02*
X1079346D01*
X1078202Y1229741D02*
X1079255D01*
X1077573Y1228841D02*
X1079253D01*
X1076553Y1227941D02*
X1079253D01*
X1021132Y1227041D02*
X1079253D01*
X1021323Y1226141D02*
X1079253D01*
X1077870Y1225241D02*
X1079251D01*
X1061888Y1014641D02*
X1079024D01*
X1076506Y1144241D02*
X1078876D01*
X1076688Y1146041D02*
X1078695D01*
X1076786Y1145141D02*
X1078597D01*
X1061764Y1015541D02*
X1078124D01*
X1077268Y1146941D02*
X1078115D01*
X1070485Y1101941D02*
X1076994D01*
X1067703Y1077641D02*
X1076196D01*
X1070721Y1102841D02*
X1075931D01*
X1067703Y1078541D02*
X1075296D01*
X1070552Y1103741D02*
X1075031D01*
X1067715Y1079441D02*
X1074743D01*
X1070223Y1104641D02*
X1074131D01*
X1071407Y1120841D02*
X1073871D01*
X1070223Y1105541D02*
X1073231D01*
X1069455Y1143341D02*
X1073163D01*
X1064291Y1142441D02*
X1073163D01*
X1064291Y1141541D02*
X1073163D01*
X1064291Y1140641D02*
X1073163D01*
X1064291Y1139741D02*
X1073163D01*
X1064291Y1138841D02*
X1073163D01*
X1064291Y1137941D02*
X1073163D01*
X1064291Y1137041D02*
X1073163D01*
X1064291Y1136141D02*
X1073163D01*
X1064291Y1135241D02*
X1073163D01*
X1064291Y1134341D02*
X1073163D01*
X1064291Y1133441D02*
X1073163D01*
X1064291Y1132541D02*
X1073163D01*
X1064291Y1131641D02*
X1073163D01*
X1064291Y1130741D02*
X1073163D01*
X1064291Y1129841D02*
X1073163D01*
X1064291Y1128941D02*
X1073163D01*
X1064307Y1128041D02*
X1073163D01*
X1065107Y1127141D02*
X1073163D01*
X1066007Y1126241D02*
X1073163D01*
X1066907Y1125341D02*
X1073163D01*
X1067807Y1124441D02*
X1073163D01*
X1070507Y1121741D02*
X1072917D01*
X1070506Y1144241D02*
X1072876D01*
X1068707Y1123541D02*
X1072820D01*
X1070688Y1146041D02*
X1072695D01*
X1069607Y1122641D02*
X1072665D01*
X1070786Y1145141D02*
X1072597D01*
X1070223Y1106441D02*
X1072370D01*
X1070385Y1180241D02*
X1072270D01*
X1071268Y1146941D02*
X1072115D01*
X1070223Y1107341D02*
X1072091D01*
X1021164Y1236941D02*
X1071454D01*
X1020703Y1227941D02*
X1070767D01*
X1021264Y1096541D02*
X1070334D01*
X1021332Y1236041D02*
X1070124D01*
X1019927Y1228841D02*
X1069747D01*
X1059983Y1117241D02*
X1069623D01*
X1059983Y1116341D02*
X1069623D01*
X1059983Y1118141D02*
X1069556D01*
X1054863Y1091141D02*
X1069473D01*
X1054863Y1090241D02*
X1069473D01*
X1054863Y1089341D02*
X1069473D01*
X1054863Y1088441D02*
X1069473D01*
X1054863Y1092041D02*
X1069467D01*
X1054943Y1087541D02*
X1069393D01*
X1021298Y1235141D02*
X1069356D01*
X1054966Y1095641D02*
X1069130D01*
X1018148Y1229741D02*
X1069118D01*
X1054866Y1092941D02*
X1068894D01*
X1021058Y1234241D02*
X1068872D01*
X999343Y1230641D02*
X1068728D01*
X1055337Y1094741D02*
X1068704D01*
X1059983Y1119041D02*
X1068681D01*
X1055283Y1093841D02*
X1068635D01*
X1020566Y1233341D02*
X1068590D01*
X999343Y1231541D02*
X1068521D01*
X1019674Y1232441D02*
X1068477D01*
X1064291Y1143341D02*
X1067928D01*
X1059983Y1119941D02*
X1067781D01*
X1049304Y1101041D02*
X1067670D01*
X1059983Y1120841D02*
X1066881D01*
X1064506Y1144241D02*
X1066876D01*
X1050204Y1101941D02*
X1066761D01*
X1064688Y1146041D02*
X1066695D01*
X1063471Y1021841D02*
X1066668D01*
X1064786Y1145141D02*
X1066597D01*
X1061791Y1030841D02*
X1066217D01*
X1061790Y1035341D02*
X1066208D01*
X1065268Y1146941D02*
X1066115D01*
X1056977Y1039841D02*
X1066035D01*
X1061791Y1026341D02*
X1066032D01*
X1062571Y1022741D02*
X1065988D01*
X1061791Y1034441D02*
X1065981D01*
X1061791Y1033541D02*
X1065981D01*
X1061791Y1032641D02*
X1065981D01*
X1061791Y1031741D02*
X1065981D01*
X1061791Y1025441D02*
X1065981D01*
X1061490Y1024541D02*
X1065981D01*
X1061671Y1023641D02*
X1065981D01*
X1060229Y1121741D02*
X1065981D01*
X1061449Y1102841D02*
X1065756D01*
X1021312Y1225241D02*
X1065513D01*
X1060480Y1122641D02*
X1065081D01*
X1062846Y1103741D02*
X1064360D01*
X1060325Y1123541D02*
X1064181D01*
X1056917Y1050641D02*
X1063912D01*
X1063371Y1104641D02*
X1063835D01*
X1059617Y1124441D02*
X1063281D01*
X1056017Y1051541D02*
X1063011D01*
X1050280Y1125341D02*
X1062381D01*
X1055117Y1052441D02*
X1062111D01*
X1050030Y1126241D02*
X1061486D01*
X1030946Y1016441D02*
X1061421D01*
X1021018Y1017341D02*
X1061325D01*
X1054217Y1053341D02*
X1061211D01*
X1049080Y1127141D02*
X1061099D01*
X1057455Y1143341D02*
X1061091D01*
X1019674Y1142441D02*
X1061091D01*
X999343Y1141541D02*
X1061091D01*
X999343Y1140641D02*
X1061091D01*
X1018148Y1139741D02*
X1061091D01*
X1019927Y1138841D02*
X1061091D01*
X1020703Y1137941D02*
X1061091D01*
X1021132Y1137041D02*
X1061091D01*
X1021323Y1136141D02*
X1061091D01*
X1021312Y1135241D02*
X1061091D01*
X1021096Y1134341D02*
X1061091D01*
X1020636Y1133441D02*
X1061091D01*
X1019804Y1132541D02*
X1061091D01*
X999343Y1131641D02*
X1061091D01*
X999343Y1130741D02*
X1061091D01*
X1017346Y1129841D02*
X1061091D01*
X1019807Y1128941D02*
X1061091D01*
X1020638Y1128041D02*
X1061091D01*
X1058506Y1144241D02*
X1060876D01*
X1051104Y1102841D02*
X1060756D01*
X1058688Y1146041D02*
X1060695D01*
X1058786Y1145141D02*
X1060597D01*
X1020493Y1018241D02*
X1060425D01*
X1059410Y1054241D02*
X1060311D01*
X1059268Y1146941D02*
X1060115D01*
X1019536Y1019141D02*
X1059525D01*
X1052343Y1107341D02*
X1059503D01*
X1052343Y1106441D02*
X1059503D01*
X1051991Y1103741D02*
X1059360D01*
X1052343Y1105541D02*
X1059099D01*
X1052339Y1104641D02*
X1059020D01*
X1013791Y1040741D02*
X1058791D01*
X1038428Y1020041D02*
X1058625D01*
X1013791Y1041641D02*
X1057891D01*
X1038752Y1020941D02*
X1057725D01*
X1053317Y1054241D02*
X1057355D01*
X1050124Y1124441D02*
X1057148D01*
X1019804Y1042541D02*
X1056991D01*
X1038752Y1021841D02*
X1056825D01*
X1049783Y1120841D02*
X1056783D01*
X1049783Y1119941D02*
X1056783D01*
X1049783Y1119041D02*
X1056783D01*
X1049783Y1118141D02*
X1056783D01*
X1049783Y1117241D02*
X1056783D01*
X1049783Y1116341D02*
X1056783D01*
X1052843Y1064141D02*
X1056783D01*
X1052843Y1063241D02*
X1056783D01*
X1052843Y1062341D02*
X1056783D01*
X1052843Y1061441D02*
X1056783D01*
X1052843Y1060541D02*
X1056783D01*
X1052843Y1059641D02*
X1056783D01*
X1052843Y1058741D02*
X1056783D01*
X1052843Y1057841D02*
X1056783D01*
X1049783Y1121741D02*
X1056537D01*
X1052843Y1055141D02*
X1056500D01*
X1052843Y1056941D02*
X1056471D01*
X1049783Y1123541D02*
X1056440D01*
X1049783Y1122641D02*
X1056285D01*
X1052843Y1056041D02*
X1056283D01*
X1038752Y1022741D02*
X1056198D01*
X1020636Y1043441D02*
X1056091D01*
X1038752Y1023641D02*
X1056033D01*
X1020566Y1143341D02*
X1055928D01*
X1021096Y1044341D02*
X1055191D01*
X1019202Y1172141D02*
X1055091D01*
X999343Y1171241D02*
X1055091D01*
X999343Y1170341D02*
X1055091D01*
X1019012Y1169441D02*
X1055091D01*
X1020239Y1168541D02*
X1055091D01*
X1020877Y1167641D02*
X1055091D01*
X1021219Y1166741D02*
X1055091D01*
X1021341Y1165841D02*
X1055091D01*
X1021264Y1164941D02*
X1055091D01*
X1020973Y1164041D02*
X1055091D01*
X1020412Y1163141D02*
X1055091D01*
X1019376Y1162241D02*
X1055091D01*
X999343Y1161341D02*
X1055091D01*
X999343Y1160441D02*
X1055091D01*
X1018785Y1159541D02*
X1055091D01*
X1020142Y1158641D02*
X1055053D01*
X1021058Y1144241D02*
X1054876D01*
X1019532Y1152341D02*
X1054859D01*
X1052843Y1065041D02*
X1054752D01*
X1021332Y1146041D02*
X1054695D01*
X1020327Y1173041D02*
X1054685D01*
X1054504Y1108241D02*
X1054621D01*
X1021298Y1145141D02*
X1054597D01*
X1038623Y1039841D02*
X1054406D01*
X1049783Y1078541D02*
X1054383D01*
X1049783Y1077641D02*
X1054383D01*
X1049848Y1076741D02*
X1054383D01*
X1052916Y1075841D02*
X1054383D01*
X1053310Y1074941D02*
X1054383D01*
X1053274Y1074041D02*
X1054383D01*
X1052853Y1073141D02*
X1054383D01*
X1052843Y1072241D02*
X1054383D01*
X1052843Y1071341D02*
X1054383D01*
X1052843Y1070441D02*
X1054383D01*
X1052843Y1069541D02*
X1054383D01*
X1052843Y1068641D02*
X1054383D01*
X1049795Y1079441D02*
X1054371D01*
X1021312Y1045241D02*
X1054291D01*
X999343Y1151441D02*
X1054219D01*
X1020491Y1153241D02*
X1054168D01*
X1020822Y1157741D02*
X1054161D01*
X1052843Y1067741D02*
X1054135D01*
X1021164Y1146941D02*
X1054119D01*
X1052843Y1065941D02*
X1054042D01*
X1021193Y1156841D02*
X1053991D01*
X1021338Y1155941D02*
X1053991D01*
X1021282Y1155041D02*
X1053991D01*
X1021017Y1154141D02*
X1053991D01*
X999343Y1150541D02*
X1053991D01*
X1018512Y1149641D02*
X1053991D01*
X1020039Y1148741D02*
X1053991D01*
X1020765Y1147841D02*
X1053991D01*
X1052843Y1066841D02*
X1053885D01*
X1020926Y1173941D02*
X1053785D01*
X1021323Y1046141D02*
X1053391D01*
X1042366Y1038941D02*
X1053363D01*
X1043732Y1038041D02*
X1052940D01*
X1021242Y1174841D02*
X1052885D01*
X1044632Y1037141D02*
X1052841D01*
X1021132Y1047041D02*
X1052491D01*
X1021343Y1175741D02*
X1051985D01*
X1019006Y1092041D02*
X1051663D01*
X1020236Y1092941D02*
X1051659D01*
X999343Y1091141D02*
X1051639D01*
X1020703Y1047941D02*
X1051591D01*
X1021341Y1095641D02*
X1051560D01*
X1020875Y1093841D02*
X1051242D01*
X1021219Y1094741D02*
X1051189D01*
X1021243Y1176641D02*
X1051085D01*
X1019927Y1048841D02*
X1050691D01*
X1020927Y1177541D02*
X1050185D01*
X1045532Y1036241D02*
X1050126D01*
X1038752Y1024541D02*
X1049893D01*
X1021096Y1224341D02*
X1049877D01*
X1018148Y1049741D02*
X1049791D01*
X1039915Y1004741D02*
X1049743D01*
X1039914Y1015541D02*
X1049619D01*
X1046432Y1035341D02*
X1049592D01*
X1047332Y1034441D02*
X1049591D01*
X1038752Y1026341D02*
X1049591D01*
X1038752Y1025441D02*
X1049591D01*
X1040041Y1014641D02*
X1049591D01*
X1040041Y1013741D02*
X1049591D01*
X1040041Y1012841D02*
X1049591D01*
X1039915Y1005641D02*
X1049591D01*
X1047753Y1011941D02*
X1049316D01*
X1020329Y1178441D02*
X1049285D01*
X1047154Y1090241D02*
X1049228D01*
X1021018Y1107341D02*
X1049143D01*
X1021283Y1106441D02*
X1049143D01*
X1021338Y1105541D02*
X1049138D01*
X1013791Y1050641D02*
X1048891D01*
X1047702Y1089341D02*
X1048681D01*
X1019207Y1179341D02*
X1048385D01*
X1021192Y1104641D02*
X1048379D01*
X1020636Y1223441D02*
X1048377D01*
X1013791Y1051541D02*
X1047991D01*
X999343Y1180241D02*
X1047485D01*
X1020821Y1103741D02*
X1047479D01*
X1019804Y1222541D02*
X1047477D01*
X1021097Y1127141D02*
X1047285D01*
X1019674Y1052441D02*
X1047091D01*
X999343Y1181141D02*
X1046732D01*
X999343Y1221641D02*
X1046729D01*
X1020566Y1053341D02*
X1046606D01*
X999343Y1220741D02*
X1046591D01*
X1017346Y1219841D02*
X1046591D01*
X1019807Y1218941D02*
X1046591D01*
X1020638Y1218041D02*
X1046591D01*
X1021097Y1217141D02*
X1046591D01*
X1021312Y1216241D02*
X1046591D01*
X1021323Y1215341D02*
X1046591D01*
X1021131Y1214441D02*
X1046591D01*
X1020702Y1213541D02*
X1046591D01*
X1019924Y1212641D02*
X1046591D01*
X1018137Y1211741D02*
X1046591D01*
X999343Y1210841D02*
X1046591D01*
X999343Y1209941D02*
X1046591D01*
X1019678Y1209041D02*
X1046591D01*
X1020568Y1208141D02*
X1046591D01*
X1021059Y1207241D02*
X1046591D01*
X1021299Y1206341D02*
X1046591D01*
X1021332Y1205441D02*
X1046591D01*
X1021163Y1204541D02*
X1046591D01*
X1020763Y1203641D02*
X1046591D01*
X1020036Y1202741D02*
X1046591D01*
X1018504Y1201841D02*
X1046591D01*
X999343Y1200941D02*
X1046591D01*
X999343Y1200041D02*
X1046591D01*
X1019536Y1199141D02*
X1046591D01*
X1020493Y1198241D02*
X1046591D01*
X1021018Y1197341D02*
X1046591D01*
X1021283Y1196441D02*
X1046591D01*
X1021338Y1195541D02*
X1046591D01*
X1021192Y1194641D02*
X1046591D01*
X1020821Y1193741D02*
X1046591D01*
X1020140Y1192841D02*
X1046591D01*
X1018779Y1191941D02*
X1046591D01*
X999343Y1191041D02*
X1046591D01*
X999343Y1190141D02*
X1046591D01*
X1019380Y1189241D02*
X1046591D01*
X1020414Y1188341D02*
X1046591D01*
X1020974Y1187441D02*
X1046591D01*
X1021264Y1186541D02*
X1046591D01*
X1021341Y1185641D02*
X1046591D01*
X1021219Y1184741D02*
X1046591D01*
X1020875Y1183841D02*
X1046591D01*
X1020236Y1182941D02*
X1046591D01*
X1019006Y1182041D02*
X1046591D01*
X1020702Y1123541D02*
X1046583D01*
X1019924Y1122641D02*
X1046583D01*
X1018137Y1121741D02*
X1046583D01*
X999343Y1120841D02*
X1046583D01*
X999343Y1119941D02*
X1046583D01*
X1019678Y1119041D02*
X1046583D01*
X1020568Y1118141D02*
X1046583D01*
X1021059Y1117241D02*
X1046583D01*
X1021299Y1116341D02*
X1046583D01*
X1020239Y1078541D02*
X1046583D01*
X1020877Y1077641D02*
X1046583D01*
X1021219Y1076741D02*
X1046583D01*
X1021341Y1075841D02*
X1046583D01*
X1021264Y1074941D02*
X1046583D01*
X1020973Y1074041D02*
X1046583D01*
X1020412Y1073141D02*
X1046583D01*
X1019376Y1072241D02*
X1046583D01*
X1013791Y1071341D02*
X1046583D01*
X1013791Y1070441D02*
X1046583D01*
X1018785Y1069541D02*
X1046583D01*
X1020142Y1068641D02*
X1046583D01*
X1020822Y1067741D02*
X1046583D01*
X1021193Y1066841D02*
X1046583D01*
X1021338Y1065941D02*
X1046583D01*
X1021282Y1065041D02*
X1046583D01*
X1021017Y1064141D02*
X1046583D01*
X1020491Y1063241D02*
X1046583D01*
X1019532Y1062341D02*
X1046583D01*
X1013791Y1061441D02*
X1046583D01*
X1013791Y1060541D02*
X1046583D01*
X1018512Y1059641D02*
X1046583D01*
X1020039Y1058741D02*
X1046583D01*
X1020765Y1057841D02*
X1046583D01*
X1021164Y1056941D02*
X1046583D01*
X1021332Y1056041D02*
X1046583D01*
X1021298Y1055141D02*
X1046583D01*
X1021058Y1054241D02*
X1046583D01*
X1020313Y1102841D02*
X1046579D01*
X1019012Y1079441D02*
X1046571D01*
X1021312Y1126241D02*
X1046335D01*
X1021131Y1124441D02*
X1046242D01*
X1021323Y1125341D02*
X1046085D01*
X1038752Y1027241D02*
X1045543D01*
X1020493Y1108241D02*
X1044425D01*
X999343Y1090241D02*
X1044228D01*
X1021332Y1115441D02*
X1044159D01*
X1038727Y1028141D02*
X1044156D01*
X1020927Y1087541D02*
X1043964D01*
X1013791Y1080341D02*
X1043880D01*
X1021243Y1086641D02*
X1043795D01*
X1019536Y1109141D02*
X1043715D01*
X1021163Y1114541D02*
X1043708D01*
X1020763Y1113641D02*
X1043708D01*
X1020036Y1112741D02*
X1043708D01*
X1018504Y1111841D02*
X1043708D01*
X999343Y1110941D02*
X1043708D01*
X999343Y1110041D02*
X1043708D01*
X1021343Y1085741D02*
X1043708D01*
X1021242Y1084841D02*
X1043708D01*
X1020926Y1083941D02*
X1043708D01*
X1020327Y1083041D02*
X1043708D01*
X1019202Y1082141D02*
X1043708D01*
X1013728Y1081241D02*
X1043708D01*
X1019207Y1089341D02*
X1043681D01*
X1020329Y1088441D02*
X1043612D01*
X1019678Y1029041D02*
X1043256D01*
X1013791Y1029941D02*
X1042356D01*
X1013791Y1030841D02*
X1041456D01*
X1040041Y1011941D02*
X1041431D01*
X1039915Y1006541D02*
X1041243D01*
X1040041Y1011041D02*
X1041215D01*
X1039971Y1010141D02*
X1041215D01*
X1039217Y1009241D02*
X1041215D01*
X1039766Y1008341D02*
X1041215D01*
X1039915Y1007441D02*
X1041215D01*
X1038633Y1031741D02*
X1040556D01*
X1031769Y1009241D02*
X1034053D01*
X1031047Y1010141D02*
X1033412D01*
X1031891Y1008341D02*
X1033365D01*
X1020236Y1002941D02*
X1033271D01*
X1031891Y1007441D02*
X1033215D01*
X1031891Y1006541D02*
X1033215D01*
X1031891Y1005641D02*
X1033215D01*
X1031656Y1004741D02*
X1033215D01*
X1020875Y1003841D02*
X1033215D01*
X1031603Y1011041D02*
X1033150D01*
X1013791Y1020041D02*
X1028017D01*
X1020568Y1028141D02*
X1027719D01*
X1021059Y1027241D02*
X1027693D01*
X1021299Y1026341D02*
X1027693D01*
X1021332Y1025441D02*
X1027693D01*
X1021163Y1024541D02*
X1027693D01*
X1020763Y1023641D02*
X1027693D01*
X1020036Y1022741D02*
X1027693D01*
X1018504Y1021841D02*
X1027693D01*
X1013791Y1020941D02*
X1027693D01*
X1021283Y1016441D02*
X1027437D01*
X1023362Y1010141D02*
X1027336D01*
X1022462Y1011041D02*
X1026796D01*
X1021219Y1004741D02*
X1026727D01*
X1024262Y1009241D02*
X1026614D01*
X1021338Y1015541D02*
X1026575D01*
X1020196Y1011941D02*
X1026491D01*
X1021192Y1014641D02*
X1026491D01*
X1020821Y1013741D02*
X1026491D01*
X1020140Y1012841D02*
X1026491D01*
X1021341Y1005641D02*
X1023480D01*
X1021285Y1006541D02*
X1022436D01*
X1007346Y1219841D02*
X1017139D01*
X1007346Y1129841D02*
X1017139D01*
X1013791Y1039841D02*
X1017139D01*
X1008137Y1211741D02*
X1016348D01*
X1008137Y1121741D02*
X1016348D01*
X1013791Y1031741D02*
X1016348D01*
X1008148Y1229741D02*
X1016337D01*
X1008148Y1139741D02*
X1016337D01*
X1013791Y1049741D02*
X1016337D01*
X1008504Y1201841D02*
X1015982D01*
X1008504Y1111841D02*
X1015982D01*
X1013791Y1021841D02*
X1015982D01*
X1008512Y1239641D02*
X1015974D01*
X1008512Y1149641D02*
X1015974D01*
X1013791Y1059641D02*
X1015974D01*
X1008779Y1191941D02*
X1015706D01*
X1010999Y1249541D02*
X1015700D01*
X1008785Y1159541D02*
X1015700D01*
X1013791Y1069541D02*
X1015700D01*
X1009006Y1002041D02*
X1015479D01*
X1009006Y1092041D02*
X1015479D01*
X1009006Y1182041D02*
X1015479D01*
X1009012Y1169441D02*
X1015474D01*
X1013791Y1079441D02*
X1015474D01*
X1009202Y1172141D02*
X1015283D01*
X1013107Y1082141D02*
X1015283D01*
X1009207Y1179341D02*
X1015278D01*
X1009207Y1089341D02*
X1015278D01*
X1009376Y1162241D02*
X1015109D01*
X1013792Y1072241D02*
X1015109D01*
X1009380Y1189241D02*
X1015105D01*
X1011267Y1242341D02*
X1014953D01*
X1009532Y1152341D02*
X1014953D01*
X1013808Y1062341D02*
X1014953D01*
X1009536Y1109141D02*
X1014949D01*
X1009536Y1199141D02*
X1014949D01*
X1013809Y1019141D02*
X1014949D01*
X1009674Y1232441D02*
X1014811D01*
X1009674Y1142441D02*
X1014811D01*
X1013846Y1052441D02*
X1014811D01*
X1009678Y1209041D02*
X1014808D01*
X1009678Y1119041D02*
X1014808D01*
X1013847Y1029041D02*
X1014808D01*
X1009804Y1222541D02*
X1014681D01*
X1009804Y1132541D02*
X1014681D01*
X1013913Y1042541D02*
X1014681D01*
X1009807Y1218941D02*
X1014678D01*
X1009807Y1128941D02*
X1014678D01*
X1013916Y1038941D02*
X1014678D01*
X1009924Y1212641D02*
X1014561D01*
X1009924Y1122641D02*
X1014561D01*
X1009927Y1228841D02*
X1014558D01*
X1009927Y1138841D02*
X1014558D01*
X1014032Y1032641D02*
X1014551D01*
X1014036Y1048841D02*
X1014547D01*
X1010036Y1202741D02*
X1014449D01*
X1010036Y1112741D02*
X1014449D01*
X1010039Y1238741D02*
X1014447D01*
X1010039Y1148741D02*
X1014447D01*
X1010140Y1192841D02*
X1014346D01*
X1011343Y1248641D02*
X1014343D01*
X1010142Y1158641D02*
X1014343D01*
X1010236Y1002941D02*
X1014249D01*
X1010236Y1092941D02*
X1014249D01*
X1010236Y1182941D02*
X1014249D01*
X1010239Y1168541D02*
X1014246D01*
X1010140Y1102841D02*
X1014172D01*
X1010327Y1173041D02*
X1014158D01*
X1012207Y1083041D02*
X1014158D01*
X1010329Y1178441D02*
X1014156D01*
X1010329Y1088441D02*
X1014156D01*
X1010412Y1163141D02*
X1014073D01*
X1010414Y1008341D02*
X1014071D01*
X1010414Y1188341D02*
X1014071D01*
X1012104Y1098341D02*
X1014071D01*
X1011343Y1243241D02*
X1013994D01*
X1010491Y1153241D02*
X1013994D01*
X1010493Y1108241D02*
X1013992D01*
X1010493Y1198241D02*
X1013992D01*
X1009380Y1009241D02*
X1013981D01*
X1010566Y1233341D02*
X1013919D01*
X1010566Y1143341D02*
X1013919D01*
X1010568Y1208141D02*
X1013918D01*
X1010568Y1118141D02*
X1013918D01*
X1010636Y1223441D02*
X1013849D01*
X1010636Y1133441D02*
X1013849D01*
X1010638Y1218041D02*
X1013848D01*
X1010638Y1128041D02*
X1013848D01*
X1010702Y1213541D02*
X1013784D01*
X1010702Y1123541D02*
X1013784D01*
X1010703Y1227941D02*
X1013782D01*
X1010703Y1137941D02*
X1013782D01*
X1010763Y1203641D02*
X1013722D01*
X1010763Y1113641D02*
X1013722D01*
X1010765Y1237841D02*
X1013720D01*
X1010765Y1147841D02*
X1013720D01*
X1010821Y1193741D02*
X1013664D01*
X1010821Y1103741D02*
X1013664D01*
X1011343Y1247741D02*
X1013663D01*
X1010822Y1157741D02*
X1013663D01*
X1010875Y1003841D02*
X1013610D01*
X1010875Y1183841D02*
X1013610D01*
X1010875Y1093841D02*
X1013610D01*
X1010877Y1167641D02*
X1013609D01*
X1010926Y1173941D02*
X1013560D01*
X1011307Y1083941D02*
X1013560D01*
X1010927Y1177541D02*
X1013558D01*
X1010927Y1087541D02*
X1013558D01*
X1010973Y1164041D02*
X1013512D01*
X1010974Y1187441D02*
X1013511D01*
X1010974Y1007441D02*
X1013511D01*
X1011214Y1097441D02*
X1013511D01*
X1011343Y1244141D02*
X1013468D01*
X1011017Y1154141D02*
X1013468D01*
X1011018Y1107341D02*
X1013467D01*
X1011018Y1197341D02*
X1013467D01*
X1011058Y1234241D02*
X1013427D01*
X1011058Y1144241D02*
X1013427D01*
X1011059Y1207241D02*
X1013426D01*
X1011059Y1117241D02*
X1013426D01*
X1011096Y1224341D02*
X1013390D01*
X1011096Y1134341D02*
X1013390D01*
X1011097Y1217141D02*
X1013389D01*
X1011097Y1127141D02*
X1013389D01*
X1011131Y1214441D02*
X1013355D01*
X1011131Y1124441D02*
X1013355D01*
X1011132Y1227041D02*
X1013354D01*
X1011132Y1137041D02*
X1013354D01*
X1011163Y1204541D02*
X1013323D01*
X1011163Y1114541D02*
X1013323D01*
X1011164Y1236941D02*
X1013322D01*
X1011164Y1146941D02*
X1013322D01*
X1011192Y1194641D02*
X1013293D01*
X1011192Y1104641D02*
X1013293D01*
X1011343Y1246841D02*
X1013293D01*
X1011193Y1156841D02*
X1013293D01*
X1011219Y1004741D02*
X1013267D01*
X1011219Y1094741D02*
X1013267D01*
X1011219Y1184741D02*
X1013267D01*
X1011219Y1166741D02*
X1013266D01*
X1011242Y1174841D02*
X1013243D01*
X1011242Y1084841D02*
X1013243D01*
X1011243Y1176641D02*
X1013242D01*
X1011243Y1086641D02*
X1013242D01*
X1011264Y1164941D02*
X1013222D01*
X1011264Y1006541D02*
X1013221D01*
X1011264Y1186541D02*
X1013221D01*
X1011264Y1096541D02*
X1013221D01*
X1011343Y1245041D02*
X1013203D01*
X1011282Y1155041D02*
X1013203D01*
X1011283Y1196441D02*
X1013203D01*
X1011283Y1106441D02*
X1013203D01*
X1011298Y1235141D02*
X1013187D01*
X1011298Y1145141D02*
X1013187D01*
X1011299Y1206341D02*
X1013187D01*
X1011299Y1116341D02*
X1013187D01*
X1011312Y1225241D02*
X1013173D01*
X1011312Y1135241D02*
X1013173D01*
X1011312Y1216241D02*
X1013173D01*
X1011312Y1126241D02*
X1013173D01*
X1011323Y1215341D02*
X1013162D01*
X1011323Y1125341D02*
X1013162D01*
X1011323Y1226141D02*
X1013162D01*
X1011323Y1136141D02*
X1013162D01*
X1011332Y1205441D02*
X1013154D01*
X1011332Y1115441D02*
X1013154D01*
X1011332Y1236041D02*
X1013154D01*
X1011332Y1146041D02*
X1013154D01*
X1011338Y1195541D02*
X1013148D01*
X1011338Y1105541D02*
X1013148D01*
X1011343Y1245941D02*
X1013147D01*
X1011338Y1155941D02*
X1013147D01*
X1011341Y1005641D02*
X1013144D01*
X1011341Y1185641D02*
X1013144D01*
X1011341Y1095641D02*
X1013144D01*
X1011341Y1165841D02*
X1013144D01*
X1011343Y1175741D02*
X1013143D01*
X1011343Y1085741D02*
X1013143D01*
X999343Y1010141D02*
X1013081D01*
X999343Y1011041D02*
X1012181D01*
X1008779Y1011941D02*
X1011281D01*
X1008779Y1101941D02*
X1011183D01*
X1009012Y1079441D02*
X1010591D01*
X999343Y1071341D02*
X1010591D01*
X999343Y1070441D02*
X1010591D01*
X1008785Y1069541D02*
X1010591D01*
X999343Y1061441D02*
X1010591D01*
X999343Y1060541D02*
X1010591D01*
X1008512Y1059641D02*
X1010591D01*
X999343Y1051541D02*
X1010591D01*
X999343Y1050641D02*
X1010591D01*
X1008148Y1049741D02*
X1010591D01*
X999343Y1041641D02*
X1010591D01*
X999343Y1040741D02*
X1010591D01*
X1007346Y1039841D02*
X1010591D01*
X1008137Y1031741D02*
X1010591D01*
X999343Y1030841D02*
X1010591D01*
X999343Y1029941D02*
X1010591D01*
X1008504Y1021841D02*
X1010591D01*
X999343Y1020941D02*
X1010591D01*
X999343Y1020041D02*
X1010591D01*
X1009376Y1072241D02*
X1010579D01*
X1009532Y1062341D02*
X1010545D01*
X1009536Y1019141D02*
X1010544D01*
X1009674Y1052441D02*
X1010483D01*
X1009678Y1029041D02*
X1010481D01*
X999343Y1080341D02*
X1010381D01*
X1009806Y1042541D02*
X1010377D01*
X1009810Y1038941D02*
X1010373D01*
X999343Y1101041D02*
X1010279D01*
X999343Y1081241D02*
X1009481D01*
X999343Y1100141D02*
X1009379D01*
X999343Y1039841D02*
X1007139D01*
X999343Y1219841D02*
X1007139D01*
X999343Y1129841D02*
X1007139D01*
X999343Y1031741D02*
X1006348D01*
X999343Y1211741D02*
X1006348D01*
X999343Y1121741D02*
X1006348D01*
X999343Y1049741D02*
X1006337D01*
X999343Y1229741D02*
X1006337D01*
X999343Y1139741D02*
X1006337D01*
X999343Y1021841D02*
X1005982D01*
X999343Y1201841D02*
X1005982D01*
X999343Y1111841D02*
X1005982D01*
X999343Y1059641D02*
X1005974D01*
X999343Y1239641D02*
X1005974D01*
X999343Y1149641D02*
X1005974D01*
X999343Y1011941D02*
X1005706D01*
X999343Y1191941D02*
X1005706D01*
X999343Y1101941D02*
X1005706D01*
X999343Y1069541D02*
X1005700D01*
X999343Y1159541D02*
X1005700D01*
X999343Y1092041D02*
X1005479D01*
X999343Y1182041D02*
X1005479D01*
X999865Y1002041D02*
X1005479D01*
X999343Y1079441D02*
X1005474D01*
X999343Y1169441D02*
X1005474D01*
X999343Y1172141D02*
X1005283D01*
X999343Y1082141D02*
X1005283D01*
X999343Y1179341D02*
X1005278D01*
X999343Y1089341D02*
X1005278D01*
X999343Y1072241D02*
X1005109D01*
X999343Y1162241D02*
X1005109D01*
X999343Y1099241D02*
X1005105D01*
X999343Y1189241D02*
X1005105D01*
X999343Y1009241D02*
X1005105D01*
X999343Y1062341D02*
X1004953D01*
X999343Y1152341D02*
X1004953D01*
X999343Y1019141D02*
X1004949D01*
X999343Y1199141D02*
X1004949D01*
X999343Y1109141D02*
X1004949D01*
X999343Y1052441D02*
X1004811D01*
X999343Y1232441D02*
X1004811D01*
X999343Y1142441D02*
X1004811D01*
X999343Y1029041D02*
X1004808D01*
X999343Y1209041D02*
X1004808D01*
X999343Y1119041D02*
X1004808D01*
X999343Y1042541D02*
X1004681D01*
X999343Y1222541D02*
X1004681D01*
X999343Y1132541D02*
X1004681D01*
X999343Y1038941D02*
X1004678D01*
X999343Y1218941D02*
X1004678D01*
X999343Y1128941D02*
X1004678D01*
X999343Y1032641D02*
X1004561D01*
X999343Y1212641D02*
X1004561D01*
X999343Y1122641D02*
X1004561D01*
X999343Y1048841D02*
X1004558D01*
X999343Y1228841D02*
X1004558D01*
X999343Y1138841D02*
X1004558D01*
X999343Y1022741D02*
X1004449D01*
X999343Y1202741D02*
X1004449D01*
X999343Y1112741D02*
X1004449D01*
X999343Y1058741D02*
X1004447D01*
X999343Y1238741D02*
X1004447D01*
X999343Y1148741D02*
X1004447D01*
X999343Y1012841D02*
X1004346D01*
X999343Y1192841D02*
X1004346D01*
X999343Y1102841D02*
X1004346D01*
X999343Y1068641D02*
X1004343D01*
X999343Y1158641D02*
X1004343D01*
X999343Y1092941D02*
X1004249D01*
X999343Y1182941D02*
X1004249D01*
X999519Y1002941D02*
X1004249D01*
X999343Y1078541D02*
X1004246D01*
X999343Y1168541D02*
X1004246D01*
X999343Y1173041D02*
X1004158D01*
X999343Y1083041D02*
X1004158D01*
X999343Y1178441D02*
X1004156D01*
X999343Y1088441D02*
X1004156D01*
X999343Y1073141D02*
X1004074D01*
X999343Y1163141D02*
X1004073D01*
X999343Y1098341D02*
X1004071D01*
X999343Y1188341D02*
X1004071D01*
X999343Y1008341D02*
X1004071D01*
X999343Y1063241D02*
X1003994D01*
X999343Y1153241D02*
X1003994D01*
X999343Y1018241D02*
X1003992D01*
X999343Y1198241D02*
X1003992D01*
X999343Y1108241D02*
X1003992D01*
X999343Y1053341D02*
X1003919D01*
X999343Y1233341D02*
X1003919D01*
X999343Y1143341D02*
X1003919D01*
X999343Y1028141D02*
X1003918D01*
X999343Y1208141D02*
X1003918D01*
X999343Y1118141D02*
X1003918D01*
X999343Y1043441D02*
X1003849D01*
X999343Y1223441D02*
X1003849D01*
X999343Y1133441D02*
X1003849D01*
X999343Y1038041D02*
X1003848D01*
X999343Y1218041D02*
X1003848D01*
X999343Y1128041D02*
X1003848D01*
X999343Y1033541D02*
X1003784D01*
X999343Y1213541D02*
X1003784D01*
X999343Y1123541D02*
X1003784D01*
X999343Y1047941D02*
X1003782D01*
X999343Y1227941D02*
X1003782D01*
X999343Y1137941D02*
X1003782D01*
X999343Y1023641D02*
X1003722D01*
X999343Y1203641D02*
X1003722D01*
X999343Y1113641D02*
X1003722D01*
X999343Y1057841D02*
X1003720D01*
X999343Y1237841D02*
X1003720D01*
X999343Y1147841D02*
X1003720D01*
X999343Y1013741D02*
X1003664D01*
X999343Y1193741D02*
X1003664D01*
X999343Y1103741D02*
X1003664D01*
X999343Y1067741D02*
X1003663D01*
X999343Y1157741D02*
X1003663D01*
X999343Y1093841D02*
X1003610D01*
X999343Y1183841D02*
X1003610D01*
X999359Y1003841D02*
X1003610D01*
X999343Y1077641D02*
X1003609D01*
X999343Y1167641D02*
X1003609D01*
X999343Y1173941D02*
X1003560D01*
X999343Y1083941D02*
X1003560D01*
X999343Y1177541D02*
X1003558D01*
X999343Y1087541D02*
X1003558D01*
X999343Y1074041D02*
X1003512D01*
X999343Y1164041D02*
X1003512D01*
X999343Y1187441D02*
X1003511D01*
X999343Y1097441D02*
X1003511D01*
X999343Y1007441D02*
X1003511D01*
X999915Y1249541D02*
X1003486D01*
X999343Y1064141D02*
X1003468D01*
X999343Y1154141D02*
X1003468D01*
X999343Y1017341D02*
X1003467D01*
X999343Y1197341D02*
X1003467D01*
X999343Y1107341D02*
X1003467D01*
X999343Y1054241D02*
X1003427D01*
X999343Y1234241D02*
X1003427D01*
X999343Y1144241D02*
X1003427D01*
X999343Y1027241D02*
X1003426D01*
X999343Y1207241D02*
X1003426D01*
X999343Y1117241D02*
X1003426D01*
X999343Y1044341D02*
X1003390D01*
X999343Y1224341D02*
X1003390D01*
X999343Y1134341D02*
X1003390D01*
X999343Y1037141D02*
X1003389D01*
X999343Y1217141D02*
X1003389D01*
X999343Y1127141D02*
X1003389D01*
X999343Y1034441D02*
X1003355D01*
X999343Y1214441D02*
X1003355D01*
X999343Y1124441D02*
X1003355D01*
X999343Y1047041D02*
X1003354D01*
X999343Y1227041D02*
X1003354D01*
X999343Y1137041D02*
X1003354D01*
X999343Y1024541D02*
X1003323D01*
X999343Y1204541D02*
X1003323D01*
X999343Y1114541D02*
X1003323D01*
X999343Y1056941D02*
X1003322D01*
X999343Y1236941D02*
X1003322D01*
X999343Y1146941D02*
X1003322D01*
X999343Y1014641D02*
X1003293D01*
X999343Y1194641D02*
X1003293D01*
X999343Y1104641D02*
X1003293D01*
X999343Y1066841D02*
X1003293D01*
X999343Y1156841D02*
X1003293D01*
X999343Y1094741D02*
X1003267D01*
X999343Y1184741D02*
X1003267D01*
X999343Y1004741D02*
X1003267D01*
X999343Y1076741D02*
X1003266D01*
X999343Y1166741D02*
X1003266D01*
X999343Y1174841D02*
X1003243D01*
X999343Y1084841D02*
X1003243D01*
X999343Y1176641D02*
X1003242D01*
X999343Y1086641D02*
X1003242D01*
X999343Y1074941D02*
X1003222D01*
X999343Y1164941D02*
X1003222D01*
X999343Y1096541D02*
X1003221D01*
X999343Y1186541D02*
X1003221D01*
X999343Y1006541D02*
X1003221D01*
X999343Y1242341D02*
X1003218D01*
X999343Y1065041D02*
X1003203D01*
X999343Y1155041D02*
X1003203D01*
X999343Y1016441D02*
X1003203D01*
X999343Y1196441D02*
X1003203D01*
X999343Y1106441D02*
X1003203D01*
X999343Y1055141D02*
X1003187D01*
X999343Y1235141D02*
X1003187D01*
X999343Y1145141D02*
X1003187D01*
X999343Y1026341D02*
X1003187D01*
X999343Y1206341D02*
X1003187D01*
X999343Y1116341D02*
X1003187D01*
X999343Y1045241D02*
X1003173D01*
X999343Y1225241D02*
X1003173D01*
X999343Y1135241D02*
X1003173D01*
X999343Y1036241D02*
X1003173D01*
X999343Y1216241D02*
X1003173D01*
X999343Y1126241D02*
X1003173D01*
X999343Y1035341D02*
X1003162D01*
X999343Y1215341D02*
X1003162D01*
X999343Y1125341D02*
X1003162D01*
X999343Y1046141D02*
X1003162D01*
X999343Y1226141D02*
X1003162D01*
X999343Y1136141D02*
X1003162D01*
X999343Y1025441D02*
X1003154D01*
X999343Y1205441D02*
X1003154D01*
X999343Y1115441D02*
X1003154D01*
X999343Y1056041D02*
X1003154D01*
X999343Y1236041D02*
X1003154D01*
X999343Y1146041D02*
X1003154D01*
X999343Y1015541D02*
X1003148D01*
X999343Y1195541D02*
X1003148D01*
X999343Y1105541D02*
X1003148D01*
X999343Y1065941D02*
X1003147D01*
X999343Y1155941D02*
X1003147D01*
X999343Y1095641D02*
X1003144D01*
X999343Y1185641D02*
X1003144D01*
X999343Y1005641D02*
X1003144D01*
X999343Y1075841D02*
X1003144D01*
X999343Y1165841D02*
X1003144D01*
X999547Y1248641D02*
X1003143D01*
X999368Y1247741D02*
X1003143D01*
X999343Y1246841D02*
X1003143D01*
X999343Y1245941D02*
X1003143D01*
X999343Y1245041D02*
X1003143D01*
X999343Y1244141D02*
X1003143D01*
X999343Y1243241D02*
X1003143D01*
X999343Y1175741D02*
X1003143D01*
X999343Y1085741D02*
X1003143D01*
X1061791Y1191941D02*
X1079253D01*
X1061791Y1191041D02*
X1079253D01*
X1075354Y1190141D02*
X1079253D01*
X1076959Y1189241D02*
X1079253D01*
X1077817Y1188341D02*
X1079253D01*
X1078374Y1187441D02*
X1079138D01*
X1061791Y1190141D02*
X1071966D01*
X1061791Y1189241D02*
X1070361D01*
X1062111Y1188341D02*
X1069503D01*
X1067511Y1182941D02*
X1069009D01*
X1068427Y1182041D02*
X1068966D01*
X1063011Y1187441D02*
X1068964D01*
X1066611Y1183841D02*
X1068665D01*
X1063911Y1186541D02*
X1068639D01*
X1065711Y1184741D02*
X1068497D01*
X1064811Y1185641D02*
X1068489D01*
X1062303Y1192841D02*
X1063351D01*
X1055792Y1208141D02*
X1064686D01*
X1055791Y1207241D02*
X1064686D01*
X1055791Y1206341D02*
X1064686D01*
X1055791Y1205441D02*
X1064686D01*
X1055791Y1204541D02*
X1063159D01*
X1056510Y1209041D02*
X1063012D01*
X1056022Y1203641D02*
X1056561D01*
X1062703Y1107341D02*
X1064503D01*
X1062703Y1106441D02*
X1064503D01*
X1063106Y1105541D02*
X1064099D01*
X1047702Y1087541D02*
X1048680D01*
X1047921Y1088441D02*
X1048462D01*
X1063503Y1115653D02*
Y1114553D01*
Y1108173D02*
Y1109273D01*
X1033223Y1019721D02*
Y1020821D01*
X1038752Y1024364D02*
X1037652D01*
X1033223Y1029007D02*
Y1027907D01*
X1027694Y1024364D02*
X1028794D01*
X1095391Y1113498D02*
X1094291D01*
X1092691Y1116548D02*
Y1115448D01*
X1089991Y1100498D02*
X1091091D01*
X1095391D02*
X1094291D01*
X1068623Y1087313D02*
Y1086213D01*
Y1079833D02*
Y1080933D01*
X1055863Y1115653D02*
Y1114553D01*
Y1108173D02*
Y1109273D01*
X1053263Y1115653D02*
Y1114553D01*
Y1108173D02*
Y1109273D01*
X1064686Y1206735D02*
X1065786D01*
X1039915Y1005538D02*
X1038815D01*
X1033215D02*
X1034315D01*
X1036565Y1002188D02*
Y1003288D01*
X1004243Y1253243D02*
G03X998243Y1247243I-0J-6000D01*
G01X1004243Y1253243D02*
X1106242D01*
X1112242Y1247243D02*
G03X1106242Y1253243I-6000J-0D01*
G01X1112242Y1247243D02*
X1112243Y1235514D01*
X1086353*
G03X1080353Y1229514I-0J-6000*
G01Y1187971*
G03X1086353Y1181971I6000J-0*
G01X1112243*
Y1004243*
X1106243Y998243D02*
G03X1112243Y1004243I-0J6000D01*
G01X1106243Y998243D02*
X1004243D01*
X998243Y1004243D02*
G03X1004243Y998243I6000J-0D01*
G01X998243Y1004243D02*
Y1247243D01*
G54D12*
X1087891Y1105548D02*
X1085491D01*
Y1108648*
X1087891*
Y1105548*
X1085491Y1105600D02*
X1087891D01*
X1085491Y1106400D02*
X1087891D01*
X1085491Y1107200D02*
X1087891D01*
X1085491Y1108000D02*
X1087891D01*
X1085600Y1105548D02*
Y1108648D01*
X1086400Y1105548D02*
Y1108648D01*
X1087200Y1105548D02*
Y1108648D01*
X1087891Y1111948D02*
X1085491D01*
Y1115048*
X1087891*
Y1111948*
X1085491Y1112000D02*
X1087891D01*
X1085491Y1112800D02*
X1087891D01*
X1085491Y1113600D02*
X1087891D01*
X1085491Y1114400D02*
X1087891D01*
X1085600Y1111948D02*
Y1115048D01*
X1086400Y1111948D02*
Y1115048D01*
X1087200Y1111948D02*
Y1115048D01*
X1091491Y1102048D02*
X1093891D01*
Y1098948*
X1091491*
Y1102048*
Y1099200D02*
X1093891D01*
X1091491Y1100000D02*
X1093891D01*
X1091491Y1100800D02*
X1093891D01*
X1091491Y1101600D02*
X1093891D01*
X1092000Y1098948D02*
Y1102048D01*
X1092800Y1098948D02*
Y1102048D01*
X1093600Y1098948D02*
Y1102048D01*
X1091491Y1095648D02*
X1093891D01*
Y1092548*
X1091491*
Y1095648*
Y1092800D02*
X1093891D01*
X1091491Y1093600D02*
X1093891D01*
X1091491Y1094400D02*
X1093891D01*
X1091491Y1095200D02*
X1093891D01*
X1092000Y1092548D02*
Y1095648D01*
X1092800Y1092548D02*
Y1095648D01*
X1093600Y1092548D02*
Y1095648D01*
X1093891Y1080548D02*
X1091491D01*
Y1083648*
X1093891*
Y1080548*
X1091491Y1080800D02*
X1093891D01*
X1091491Y1081600D02*
X1093891D01*
X1091491Y1082400D02*
X1093891D01*
X1091491Y1083200D02*
X1093891D01*
X1092000Y1080548D02*
Y1083648D01*
X1092800Y1080548D02*
Y1083648D01*
X1093600Y1080548D02*
Y1083648D01*
X1093891Y1086948D02*
X1091491D01*
Y1090048*
X1093891*
Y1086948*
X1091491Y1087200D02*
X1093891D01*
X1091491Y1088000D02*
X1093891D01*
X1091491Y1088800D02*
X1093891D01*
X1091491Y1089600D02*
X1093891D01*
X1092000Y1086948D02*
Y1090048D01*
X1092800Y1086948D02*
Y1090048D01*
X1093600Y1086948D02*
Y1090048D01*
X1093891Y1105548D02*
X1091491D01*
Y1108648*
X1093891*
Y1105548*
X1091491Y1105600D02*
X1093891D01*
X1091491Y1106400D02*
X1093891D01*
X1091491Y1107200D02*
X1093891D01*
X1091491Y1108000D02*
X1093891D01*
X1092000Y1105548D02*
Y1108648D01*
X1092800Y1105548D02*
Y1108648D01*
X1093600Y1105548D02*
Y1108648D01*
X1093891Y1111948D02*
X1091491D01*
Y1115048*
X1093891*
Y1111948*
X1091491Y1112000D02*
X1093891D01*
X1091491Y1112800D02*
X1093891D01*
X1091491Y1113600D02*
X1093891D01*
X1091491Y1114400D02*
X1093891D01*
X1092000Y1111948D02*
Y1115048D01*
X1092800Y1111948D02*
Y1115048D01*
X1093600Y1111948D02*
Y1115048D01*
X1087891Y1080548D02*
X1085491D01*
Y1083648*
X1087891*
Y1080548*
X1085491Y1080800D02*
X1087891D01*
X1085491Y1081600D02*
X1087891D01*
X1085491Y1082400D02*
X1087891D01*
X1085491Y1083200D02*
X1087891D01*
X1085600Y1080548D02*
Y1083648D01*
X1086400Y1080548D02*
Y1083648D01*
X1087200Y1080548D02*
Y1083648D01*
X1087891Y1086948D02*
X1085491D01*
Y1090048*
X1087891*
Y1086948*
X1085491Y1087200D02*
X1087891D01*
X1085491Y1088000D02*
X1087891D01*
X1085491Y1088800D02*
X1087891D01*
X1085491Y1089600D02*
X1087891D01*
X1085600Y1086948D02*
Y1090048D01*
X1086400Y1086948D02*
Y1090048D01*
X1087200Y1086948D02*
Y1090048D01*
X1030391Y1005548D02*
X1027991D01*
Y1008648*
X1030391*
Y1005548*
X1027991Y1005600D02*
X1030391D01*
X1027991Y1006400D02*
X1030391D01*
X1027991Y1007200D02*
X1030391D01*
X1027991Y1008000D02*
X1030391D01*
X1028000Y1005548D02*
Y1008648D01*
X1028800Y1005548D02*
Y1008648D01*
X1029600Y1005548D02*
Y1008648D01*
X1030391Y1011948D02*
X1027991D01*
Y1015048*
X1030391*
Y1011948*
X1027991Y1012000D02*
X1030391D01*
X1027991Y1012800D02*
X1030391D01*
X1027991Y1013600D02*
X1030391D01*
X1027991Y1014400D02*
X1030391D01*
X1028000Y1011948D02*
Y1015048D01*
X1028800Y1011948D02*
Y1015048D01*
X1029600Y1011948D02*
Y1015048D01*
X1093891Y1147548D02*
X1091491D01*
Y1150648*
X1093891*
Y1147548*
X1091491Y1148000D02*
X1093891D01*
X1091491Y1148800D02*
X1093891D01*
X1091491Y1149600D02*
X1093891D01*
X1091491Y1150400D02*
X1093891D01*
X1092000Y1147548D02*
Y1150648D01*
X1092800Y1147548D02*
Y1150648D01*
X1093600Y1147548D02*
Y1150648D01*
X1093891Y1153948D02*
X1091491D01*
Y1157048*
X1093891*
Y1153948*
X1091491Y1154400D02*
X1093891D01*
X1091491Y1155200D02*
X1093891D01*
X1091491Y1156000D02*
X1093891D01*
X1091491Y1156800D02*
X1093891D01*
X1092000Y1153948D02*
Y1157048D01*
X1092800Y1153948D02*
Y1157048D01*
X1093600Y1153948D02*
Y1157048D01*
X1087891Y1147548D02*
X1085491D01*
Y1150648*
X1087891*
Y1147548*
X1085491Y1148000D02*
X1087891D01*
X1085491Y1148800D02*
X1087891D01*
X1085491Y1149600D02*
X1087891D01*
X1085491Y1150400D02*
X1087891D01*
X1085600Y1147548D02*
Y1150648D01*
X1086400Y1147548D02*
Y1150648D01*
X1087200Y1147548D02*
Y1150648D01*
X1087891Y1153948D02*
X1085491D01*
Y1157048*
X1087891*
Y1153948*
X1085491Y1154400D02*
X1087891D01*
X1085491Y1155200D02*
X1087891D01*
X1085491Y1156000D02*
X1087891D01*
X1085491Y1156800D02*
X1087891D01*
X1085600Y1153948D02*
Y1157048D01*
X1086400Y1153948D02*
Y1157048D01*
X1087200Y1153948D02*
Y1157048D01*
X1081891Y1147548D02*
X1079491D01*
Y1150648*
X1081891*
Y1147548*
X1079491Y1148000D02*
X1081891D01*
X1079491Y1148800D02*
X1081891D01*
X1079491Y1149600D02*
X1081891D01*
X1079491Y1150400D02*
X1081891D01*
X1080000Y1147548D02*
Y1150648D01*
X1080800Y1147548D02*
Y1150648D01*
X1081600Y1147548D02*
Y1150648D01*
X1081891Y1153948D02*
X1079491D01*
Y1157048*
X1081891*
Y1153948*
X1079491Y1154400D02*
X1081891D01*
X1079491Y1155200D02*
X1081891D01*
X1079491Y1156000D02*
X1081891D01*
X1079491Y1156800D02*
X1081891D01*
X1080000Y1153948D02*
Y1157048D01*
X1080800Y1153948D02*
Y1157048D01*
X1081600Y1153948D02*
Y1157048D01*
X1069891Y1147548D02*
X1067491D01*
Y1150648*
X1069891*
Y1147548*
X1067491Y1148000D02*
X1069891D01*
X1067491Y1148800D02*
X1069891D01*
X1067491Y1149600D02*
X1069891D01*
X1067491Y1150400D02*
X1069891D01*
X1068000Y1147548D02*
Y1150648D01*
X1068800Y1147548D02*
Y1150648D01*
X1069600Y1147548D02*
Y1150648D01*
X1069891Y1153948D02*
X1067491D01*
Y1157048*
X1069891*
Y1153948*
X1067491Y1154400D02*
X1069891D01*
X1067491Y1155200D02*
X1069891D01*
X1067491Y1156000D02*
X1069891D01*
X1067491Y1156800D02*
X1069891D01*
X1068000Y1153948D02*
Y1157048D01*
X1068800Y1153948D02*
Y1157048D01*
X1069600Y1153948D02*
Y1157048D01*
X1063891Y1147548D02*
X1061491D01*
Y1150648*
X1063891*
Y1147548*
X1061491Y1148000D02*
X1063891D01*
X1061491Y1148800D02*
X1063891D01*
X1061491Y1149600D02*
X1063891D01*
X1061491Y1150400D02*
X1063891D01*
X1061600Y1147548D02*
Y1150648D01*
X1062400Y1147548D02*
Y1150648D01*
X1063200Y1147548D02*
Y1150648D01*
X1063891Y1153948D02*
X1061491D01*
Y1157048*
X1063891*
Y1153948*
X1061491Y1154400D02*
X1063891D01*
X1061491Y1155200D02*
X1063891D01*
X1061491Y1156000D02*
X1063891D01*
X1061491Y1156800D02*
X1063891D01*
X1061600Y1153948D02*
Y1157048D01*
X1062400Y1153948D02*
Y1157048D01*
X1063200Y1153948D02*
Y1157048D01*
X1057891Y1147548D02*
X1055491D01*
Y1150648*
X1057891*
Y1147548*
X1055491Y1148000D02*
X1057891D01*
X1055491Y1148800D02*
X1057891D01*
X1055491Y1149600D02*
X1057891D01*
X1055491Y1150400D02*
X1057891D01*
X1056000Y1147548D02*
Y1150648D01*
X1056800Y1147548D02*
Y1150648D01*
X1057600Y1147548D02*
Y1150648D01*
X1057891Y1153948D02*
X1055491D01*
Y1157048*
X1057891*
Y1153948*
X1055491Y1154400D02*
X1057891D01*
X1055491Y1155200D02*
X1057891D01*
X1055491Y1156000D02*
X1057891D01*
X1055491Y1156800D02*
X1057891D01*
X1056000Y1153948D02*
Y1157048D01*
X1056800Y1153948D02*
Y1157048D01*
X1057600Y1153948D02*
Y1157048D01*
X1075891Y1147548D02*
X1073491D01*
Y1150648*
X1075891*
Y1147548*
X1073491Y1148000D02*
X1075891D01*
X1073491Y1148800D02*
X1075891D01*
X1073491Y1149600D02*
X1075891D01*
X1073491Y1150400D02*
X1075891D01*
X1073600Y1147548D02*
Y1150648D01*
X1074400Y1147548D02*
Y1150648D01*
X1075200Y1147548D02*
Y1150648D01*
X1075891Y1153948D02*
X1073491D01*
Y1157048*
X1075891*
Y1153948*
X1073491Y1154400D02*
X1075891D01*
X1073491Y1155200D02*
X1075891D01*
X1073491Y1156000D02*
X1075891D01*
X1073491Y1156800D02*
X1075891D01*
X1073600Y1153948D02*
Y1157048D01*
X1074400Y1153948D02*
Y1157048D01*
X1075200Y1153948D02*
Y1157048D01*
G54D22*
X1007243Y1245743D03*
G54D23*
X1017243D03*
X1007243Y1235743D03*
X1017243D03*
X1007243Y1225743D03*
X1017243D03*
X1007243Y1215743D03*
X1017243D03*
X1007243Y1205743D03*
X1017243D03*
X1007243Y1195743D03*
X1017243D03*
X1007243Y1185743D03*
X1017243D03*
X1007243Y1175743D03*
X1017243D03*
X1007243Y1165743D03*
X1017243D03*
X1007243Y1155743D03*
X1017243D03*
X1007243Y1145743D03*
X1017243D03*
X1007243Y1135743D03*
X1017243D03*
X1007243Y1125743D03*
X1017243D03*
X1007243Y1115743D03*
X1017243D03*
X1007243Y1105743D03*
X1017243D03*
X1007243Y1095743D03*
X1017243D03*
X1007243Y1085743D03*
X1017243D03*
X1007243Y1075743D03*
X1017243D03*
X1007243Y1065743D03*
X1017243D03*
X1007243Y1055743D03*
X1017243D03*
X1007243Y1045743D03*
X1017243D03*
X1007243Y1035743D03*
X1017243D03*
X1007243Y1025743D03*
X1017243D03*
X1007243Y1015743D03*
X1017243D03*
X1007243Y1005743D03*
X1017243D03*
Y1035743D02*
X1033184D01*
X1033223Y1035781*
G54D34*
X1036691Y1012778D03*
X1036565Y1005538D03*
X1044565Y1009038D03*
G54D38*
X1091262Y1033097D02*
X1098262D01*
X1092691Y1088498D02*
Y1094098D01*
X1064243Y1218743D02*
X1071652D01*
X1071691Y1218782*
X1064243Y1222743D02*
X1071636D01*
X1071691Y1222798*
X1064243Y1214743D02*
X1071668D01*
X1071691Y1214766*
X1064243Y1194743D02*
X1071691D01*
Y1194688*
X1064243Y1210743D02*
X1071691D01*
Y1210751*
X1064243Y1198743D02*
X1071652D01*
X1071691Y1198703*
X1064243Y1202743D02*
X1071691D01*
Y1202719*
X1023623Y1061913D03*
X1026623Y1058913D03*
X1023623D03*
X1038623Y1046913D03*
X1041623D03*
Y1049913D03*
X1026623Y1061913D03*
X1041623Y1076913D03*
X1044623Y1019913D03*
X1038623Y1049913D03*
Y1076913D03*
X1026623Y1064913D03*
X1023623D03*
X1038623Y1073913D03*
X1041623D03*
X1044623Y1016913D03*
X1086623Y1040913D03*
Y1037913D03*
X1089623Y1040913D03*
Y1037913D03*
X1077623Y1067913D03*
X1092623Y1064913D03*
X1095623D03*
Y1067913D03*
X1077623Y1064913D03*
X1087243Y1024243D03*
Y1028243D03*
X1084243D03*
X1092623Y1067913D03*
X1047623Y1016913D03*
X1080623Y1067913D03*
X1084343Y1024243D03*
X1047623Y1019913D03*
X1080623Y1064913D03*
X1091262Y1033097D03*
X1051243Y1074573D03*
X1055983Y1066743D03*
X1058383Y1056073D03*
X1038623Y1163913D03*
X1026623Y1127913D03*
X1029623D03*
Y1130913D03*
X1026623D03*
Y1091913D03*
Y1112913D03*
X1029623Y1091913D03*
Y1094913D03*
X1026623D03*
Y1109913D03*
X1029623D03*
Y1112913D03*
X1038623Y1160913D03*
Y1148913D03*
X1041623D03*
Y1145913D03*
X1038623D03*
X1041623Y1163913D03*
Y1160913D03*
X1045691Y1088735D03*
X1091183Y1122243D03*
X1094183D03*
Y1119243D03*
X1091183D03*
X1059183Y1134243D03*
X1070183Y1132243D03*
X1080183Y1130243D03*
X1071623Y1097913D03*
X1074623Y1100913D03*
X1053623Y1103913D03*
X1056623D03*
X1074623Y1097913D03*
X1071623Y1100913D03*
X1056623D03*
X1058383Y1122743D03*
X1048183Y1125243D03*
X1086691D03*
X1074763Y1122743D03*
X1053623Y1100913D03*
X1050691Y1088735D03*
X1068691Y1145298D03*
X1074691D03*
X1062691D03*
X1080691D03*
X1092691D03*
X1053263Y1094413D03*
X1056691Y1145298D03*
X1086691D03*
X1061103Y1104913D03*
X1068623Y1102913D03*
X1066103Y1104913D03*
X1038623Y1220913D03*
X1041623D03*
Y1217913D03*
X1038623D03*
Y1205913D03*
X1041623D03*
Y1202913D03*
X1038623D03*
Y1190913D03*
X1041623D03*
Y1187913D03*
X1038623D03*
Y1178913D03*
X1041623D03*
Y1175913D03*
X1038623D03*
X1026623Y1238913D03*
X1029623D03*
Y1241913D03*
X1026623D03*
X1066183Y1189243D03*
X1059623Y1229913D03*
X1062623D03*
Y1232913D03*
X1059623D03*
X1077743Y1226743D03*
Y1190743D03*
X1063743Y1206743D03*
X1064243Y1218743D03*
Y1222743D03*
Y1214743D03*
Y1194743D03*
Y1210743D03*
Y1198743D03*
Y1202743D03*
G54D39*
X1029191Y1013498D02*
X1036672D01*
X1036691Y1012778*
X1055691Y1030298D02*
X1058383Y1026607D01*
Y1023607*
X1063892Y1018097*
X1078892*
X1085152Y1011837*
X1098262*
G54D40*
X1007243Y1001643D02*
Y1002743D01*
X1011343Y1005743D02*
X1010243D01*
X1007243Y1009843D02*
Y1008743D01*
X1003143Y1005743D02*
X1004243D01*
X1017243Y1051643D02*
Y1052743D01*
X1021343Y1055743D02*
X1020243D01*
X1017243Y1059843D02*
Y1058743D01*
Y1001643D02*
Y1002743D01*
X1021343Y1005743D02*
X1020243D01*
X1013143D02*
X1014243D01*
X1017243Y1121643D02*
Y1122743D01*
X1021343Y1125743D02*
X1020243D01*
X1017243Y1129843D02*
Y1128743D01*
X1013143Y1125743D02*
X1014243D01*
X1099644Y1246520D02*
Y1245420D01*
Y1170965D02*
Y1172065D01*
X1003143Y1245743D02*
X1004243D01*
X1007243Y1241643D02*
Y1242743D01*
X1011343Y1245743D02*
X1010243D01*
X1007243Y1249843D02*
Y1248743D01*
X1017243Y1241643D02*
Y1242743D01*
X1021343Y1245743D02*
X1020243D01*
X1017243Y1249843D02*
Y1248743D01*
X1013143Y1245743D02*
X1014243D01*
X1017243Y1191643D02*
Y1192743D01*
X1021343Y1195743D02*
X1020243D01*
X1017243Y1199843D02*
Y1198743D01*
X1013143Y1195743D02*
X1014243D01*
X1017243Y1181643D02*
Y1182743D01*
X1021343Y1185743D02*
X1020243D01*
X1017243Y1189843D02*
Y1188743D01*
X1013143Y1185743D02*
X1014243D01*
X1007243Y1121643D02*
Y1122743D01*
X1011343Y1125743D02*
X1010243D01*
X1007243Y1129843D02*
Y1128743D01*
X1003143Y1125743D02*
X1004243D01*
X1017243Y1061643D02*
Y1062743D01*
X1021343Y1065743D02*
X1020243D01*
X1017243Y1069843D02*
Y1068743D01*
G54D42*
X1044565Y1009038D02*
X1055432D01*
X1055691Y1010298*
Y1030298D02*
Y1037298D01*
G54D43*
G54D166*
X1071223Y1083573D02*
Y1094098D01*
X1092691*
G54D194*
X1055691Y1010298D02*
Y1007798D01*
X1056191*
Y1011837*
X1072121*
X1055691Y1037298D03*
X1071223Y1094098D03*
G54D202*
X1033223Y1035781D02*
X1041254D01*
X1046623Y1030413*
X1055577*
X1055691Y1030298*
G54D213*
X1033223Y1035781D03*
Y1024364D03*
G54D214*
X1098262Y1011837D03*
Y1024436D03*
Y1033097D03*
Y1041758D03*
X1072121D03*
Y1033097D03*
Y1024436D03*
Y1011837D03*
G54D215*
X1045633Y1083573D03*
X1048183D03*
X1050743D03*
X1053263D03*
X1055863D03*
X1058383D03*
X1060983D03*
X1063503D03*
X1066103D03*
X1068623D03*
X1071223D03*
X1073743D03*
X1076303D03*
X1078853D03*
Y1111913D03*
X1076303D03*
X1073743D03*
X1071223D03*
X1068623D03*
X1066103D03*
X1063503D03*
X1060983D03*
X1058383D03*
X1055863D03*
X1053263D03*
X1050743D03*
X1048183D03*
X1045633D03*
G54D217*
X1071691Y1222798D03*
Y1218782D03*
Y1214766D03*
Y1210751D03*
Y1206735D03*
Y1202719D03*
Y1198703D03*
Y1194688D03*
G54D218*
X1055691Y1010298D03*
Y1030298D03*
G54D220*
X1099644Y1241420D03*
Y1176065D03*
Y1241420D03*
Y1176065D03*
G54D221*
X1073660Y1232247D03*
Y1185239D03*
G74*
X0Y0D02*
M02*
