M48
;FILE_FORMAT=2:4
INCH,LZ
FMAT,2
ICI,OFF
;TYPE=PLATED
T1C.01
T2C.015
T3C.035
T4C.03937
T5C.07874
%
M72
G90
G93X0Y0
T1C.01F095S3
X104462Y101991
X104462Y101691
X104762Y101691
X104762Y101991
X108424Y102824
X108434Y102424
X108724Y102424
X108724Y102824
X109126Y10331
X108962Y104091
X108962Y103791
X108662Y104091
X108662Y103791
X104162Y104691
X104162Y104991
X103862Y104691
X103862Y104991
X102362Y106491
X102362Y105891
X102362Y106191
X102662Y106491
X102662Y105891
X102662Y106191
X103862Y107391
X103862Y107691
X104162Y107391
X104162Y107691
X105124Y107457
X105598Y106674
X105838Y105607
X107762Y106491
X107762Y106791
X108062Y106491
X108062Y106791
X109262Y106791
X109262Y106491
X109562Y106791
X109562Y106491
X107462Y110091
X107462Y109791
X107162Y109791
X107162Y110091
X106862Y110291
X10661Y110491
X10611Y110491
X105662Y110391
X105662Y110091
X105362Y110391
X105362Y110091
X105326Y109441
X105069Y108873
X104569Y108873
X102962Y109191
X102962Y109491
X102662Y109491
X102662Y109191
X102662Y111291
X102662Y112791
X102662Y110991
X102962Y112791
X102962Y110991
X102962Y111291
X104818Y112524
X105838Y112274
X107476Y112274
X108018Y113024
X108669Y112524
X109118Y111924
X109118Y112224
X109418Y111924
X109418Y112224
X109269Y11453
X108669Y11453
X108069Y11453
X107469Y11453
X107018Y113224
X106869Y11453
X106269Y11453
X105918Y113424
X105669Y11453
X104162Y114891
X104162Y114591
X103862Y114891
X103862Y114591
X102962Y113091
X102662Y113091
X103862Y116091
X103862Y116391
X103862Y117891
X103862Y117591
X104162Y116391
X104162Y117891
X104162Y117591
X104162Y116091
X107774Y119074
X106618Y118924
X106424Y119474
X106424Y119874
X106424Y120274
X104162Y120291
X104162Y119091
X104162Y118791
X103862Y119091
X103862Y120291
X103862Y118791
X103862Y121791
X103862Y120591
X103862Y122091
X104162Y120591
X104162Y122091
X104162Y121791
X105962Y122991
X106262Y122991
X106374Y120674
X106424Y121474
X106424Y122274
X106424Y121074
X106424Y121874
X107774Y122674
X106262Y123291
X105962Y123291
X102962Y123891
X102962Y124191
X102662Y124191
X102662Y123891
T2C.015F095S3
X105569Y10373
X107122Y10941
T3C.035F197S55
X100724Y102574
X100724Y101574
X100724Y100574
X101724Y101574
X101724Y102574
X101724Y100574
X101724Y104574
X101724Y103574
X100724Y103574
X100724Y104574
X100724Y107574
X100724Y106574
X100724Y105574
X101724Y106574
X101724Y107574
X101724Y105574
X101724Y109574
X101724Y108574
X100724Y108574
X100724Y109574
X100724Y112574
X100724Y111574
X100724Y110574
X101724Y111574
X101724Y112574
X101724Y110574
X101724Y113574
X101724Y114574
X100724Y114574
X100724Y113574
X100724Y116574
X100724Y115574
X100724Y117574
X101724Y115574
X101724Y116574
X101724Y117574
X101724Y118574
X101724Y119574
X100724Y119574
X100724Y118574
X100724Y121574
X100724Y120574
X100724Y122574
X101724Y120574
X101724Y121574
X101724Y122574
X101724Y123574
X101724Y124574
X100724Y124574
X100724Y123574
T4C.03937F197S55
X109964Y117607
X109964Y124142
T5C.07874F081S55
X107366Y118524
X107366Y123225
M30
