*
*
G04 PADS VX.2.4 Build Number: 11282995 generated Gerber (RS-274-X) file*
G04 PC Version=2.1*
*
%IN "v24.pcb"*%
*
%MOIN*%
*
%FSLAX35Y35*%
*
*
*
*
G04 PC Standard Apertures*
*
*
G04 Thermal Relief Aperture macro.*
%AMTER*
1,1,$1,0,0*
1,0,$1-$2,0,0*
21,0,$3,$4,0,0,45*
21,0,$3,$4,0,0,135*
%
*
*
G04 Annular Aperture macro.*
%AMANN*
1,1,$1,0,0*
1,0,$2,0,0*
%
*
*
G04 Odd Aperture macro.*
%AMODD*
1,1,$1,0,0*
1,0,$1-0.005,0,0*
%
*
*
G04 PC Custom Aperture Macros*
*
*
*
*
*
*
G04 PC Aperture Table*
*
%ADD011C,0.01*%
%ADD012C,0.008*%
%ADD022R,0.06X0.06*%
%ADD023C,0.06*%
%ADD038C,0.02*%
%ADD040C,0.015*%
%ADD043C,0.001*%
%ADD191R,0.059X0.026*%
%ADD194C,0.03*%
%ADD220O,0.12X0.08*%
%ADD221C,0.07874*%
*
*
*
*
G04 PC Circuitry*
G04 Layer Name v24.pcb - circuitry*
%LPD*%
*
*
G04 PC Custom Flashes*
G04 Layer Name v24.pcb - flashes*
%LPD*%
*
*
G04 PC Circuitry*
G04 Layer Name v24.pcb - circuitry*
%LPD*%
*
G54D11*
G01X1020243Y1020743D02*
X1012243D01*
X1007243Y1025743*
X1020243Y1020743D02*
X1022691Y1023191D01*
Y1042191*
X1036573Y1056073*
X1058383*
X1017243Y1045743D02*
X1023243D01*
X1036413Y1058913*
X1060913*
X1065123Y1063123*
Y1099413*
X1068623Y1102913*
X1007243Y1045743D02*
X1012243Y1050743D01*
X1025073*
X1035743Y1061413*
X1060413*
X1063123Y1064123*
Y1101933*
X1066103Y1104913*
X1085413Y1010413D02*
X1005073D01*
X1001983Y1013503*
Y1030483*
X1007243Y1035743*
X1085413Y1010413D02*
X1091262Y1016262D01*
Y1033097*
X1059913Y1063913D02*
X1035573D01*
X1023743Y1075743*
X1017243*
X1059913Y1063913D02*
X1061103Y1065103D01*
Y1104913*
X1051243Y1074573D02*
X1053763Y1077073D01*
Y1089833*
X1039743Y1103853*
Y1124243*
X1045243Y1129743*
X1072683*
X1080691Y1137751*
Y1145298*
X1055983Y1066743D02*
X1036243D01*
X1017243Y1085743*
X1045691Y1088735D02*
X1035743Y1098684D01*
Y1126243*
X1043243Y1133743*
X1054941*
X1056691Y1135493*
Y1145298*
X1058383Y1122743D02*
X1074763D01*
X1048183Y1125243D02*
X1086691D01*
X1050691Y1088735D02*
Y1089144D01*
X1037743Y1102093*
Y1125243*
X1044243Y1131743*
X1063683*
X1068691Y1136751*
Y1145298*
Y1161794*
X1057003Y1173483*
X1051377*
X1074691Y1145298D02*
Y1159794D01*
X1056243Y1178243*
Y1184743*
X1053503Y1187483*
X1051377*
X1062691Y1145298D02*
Y1155298D01*
X1058507Y1159483*
X1051377*
X1080691Y1145298D02*
Y1157794D01*
X1058243Y1180243*
Y1186243*
X1056243Y1188243*
Y1198743*
X1053503Y1201483*
X1051377*
X1092691Y1145298D02*
Y1153794D01*
X1062743Y1183743*
Y1188243*
X1060243Y1190743*
Y1201743*
X1058243Y1203743*
Y1214243*
X1056243Y1216243*
Y1226743*
X1053503Y1229483*
X1051377*
X1053263Y1094413D02*
X1041743Y1105825D01*
Y1123053*
X1046433Y1127743*
X1083683*
X1092691Y1136751*
Y1145298*
X1056691D02*
X1051377D01*
Y1145483*
X1086691Y1145298D02*
Y1155794D01*
X1060743Y1181743*
Y1187243*
X1058243Y1189743*
Y1200243*
X1056243Y1202243*
Y1212743*
X1053503Y1215483*
X1051377*
X1021343Y1065743D02*
G75*
G03X1021343I-4100J0D01*
G01Y1095743D02*
G03X1021343I-4100J0D01*
G01Y1105743D02*
G03X1021343I-4100J0D01*
G01Y1115743D02*
G03X1021343I-4100J0D01*
G01Y1125743D02*
G03X1021343I-4100J0D01*
G01Y1135743D02*
G03X1021343I-4100J0D01*
G01Y1145743D02*
G03X1021343I-4100J0D01*
G01Y1155743D02*
G03X1021343I-4100J0D01*
G01Y1165743D02*
G03X1021343I-4100J0D01*
G01Y1175743D02*
G03X1021343I-4100J0D01*
G01Y1185743D02*
G03X1021343I-4100J0D01*
G01Y1195743D02*
G03X1021343I-4100J0D01*
G01Y1205743D02*
G03X1021343I-4100J0D01*
G01Y1215743D02*
G03X1021343I-4100J0D01*
G01Y1225743D02*
G03X1021343I-4100J0D01*
G01Y1235743D02*
G03X1021343I-4100J0D01*
G01Y1245743D02*
G03X1021343I-4100J0D01*
G01X1011343Y1235743D02*
G03X1011343I-4100J0D01*
G01X1111143Y1180371D02*
G03X1110643Y1180871I-500J-0D01*
G01X1105225*
G03X1104905Y1179987I0J-500*
G01X1101644Y1170965D02*
G03X1104905Y1179987I0J5100D01*
G01X1101644Y1170965D02*
X1097644D01*
X1094383Y1179987D02*
G03X1097644Y1170965I3261J-3922D01*
G01X1094383Y1179987D02*
G03X1094063Y1180871I-320J384D01*
G01X1086353*
X1079804Y1185227D02*
G03X1086353Y1180871I6549J2744D01*
G01X1079804Y1185227D02*
G03X1078844Y1185052I-461J-193D01*
G01X1068473Y1185239D02*
G03X1078844Y1185052I5187J-0D01*
G01X1071824Y1190090D02*
G03X1068473Y1185239I1836J-4851D01*
G01X1071824Y1190090D02*
G03X1071709Y1191054I-177J468D01*
G01X1070655Y1191695D02*
G03X1071709Y1191054I1238J848D01*
G01X1070655Y1191695D02*
G03X1069830I-412J-283D01*
G01X1068593Y1191043D02*
G03X1069830Y1191695I-0J1500D01*
G01X1068593Y1191043D02*
X1065493D01*
X1064010Y1192317D02*
G03X1065493Y1191043I1483J226D01*
G01X1064010Y1192317D02*
G03X1063684Y1192712I-495J-76D01*
G01X1063536Y1192765*
X1062708Y1193309D02*
G03X1063536Y1192765I1535J1434D01*
G01X1062708Y1193309D02*
G03X1061843Y1192968I-365J-341D01*
G01Y1191612*
X1061843D02*
G03X1061989Y1191259I500J0D01*
G01X1063874Y1189374*
X1064343Y1188243D02*
G03X1063874Y1189374I-1600J-0D01*
G01X1064343Y1188243D02*
Y1184612D01*
X1064343D02*
G03X1064489Y1184259I500J0D01*
G01X1093823Y1154925*
X1094291Y1153794D02*
G03X1093823Y1154925I-1600J-0D01*
G01X1094291Y1153794D02*
Y1146831D01*
G03X1094388Y1146536I500J-0*
G01Y1144060D02*
G03Y1146536I-1697J1238D01*
G01Y1144060D02*
G03X1094291Y1143765I403J-295D01*
G01Y1136751*
X1093823Y1135620D02*
G03X1094291Y1136751I-1132J1131D01*
G01X1093823Y1135620D02*
X1086398Y1128196D01*
G03X1086252Y1127842I354J-354*
X1086740Y1127342I500J-0*
G01X1085453Y1123546D02*
G03X1086740Y1127342I1238J1697D01*
G01X1085453Y1123546D02*
G03X1085158Y1123643I-295J-403D01*
G01X1077332*
G03X1076838Y1123066I-0J-500*
G01X1076863Y1122743D02*
G03X1076838Y1123066I-2100J-0D01*
G01X1076863Y1122743D02*
X1076863D01*
X1073524Y1121046D02*
G03X1076863Y1122743I1239J1697D01*
G01X1073524Y1121046D02*
G03X1073230Y1121143I-294J-403D01*
G01X1059916*
G03X1059621Y1121046I-0J-500*
G01X1056283Y1122743D02*
G03X1059621Y1121046I2100J-0D01*
G01X1056283Y1122743D02*
X1056283D01*
X1056308Y1123066D02*
G03X1056283Y1122743I2075J-323D01*
G01X1056308Y1123066D02*
G03X1055814Y1123643I-494J77D01*
G01X1049716*
G03X1049421Y1123546I-0J-500*
G01X1046274Y1124368D02*
G03X1049421Y1123546I1909J875D01*
G01X1046274Y1124368D02*
G03X1045466Y1124513I-455J-209D01*
G01X1043489Y1122536*
G03X1043343Y1122183I354J-353*
G01Y1106701*
G03X1043491Y1106346I500J-0*
G01X1053300Y1096628*
G03X1053577Y1096489I352J355*
G01X1054230Y1092549D02*
G03X1053577Y1096489I-967J1864D01*
G01X1054230Y1092549D02*
G03X1053960Y1092105I230J-444D01*
X1054107Y1091751I500J-0*
G01X1054894Y1090964*
X1055363Y1089833D02*
G03X1054894Y1090964I-1600J-0D01*
G01X1055363Y1089833D02*
Y1077073D01*
X1054890Y1075937D02*
G03X1055363Y1077073I-1127J1136D01*
G01X1054890Y1075937D02*
X1053458Y1074516D01*
G03X1053316Y1074241I352J-355*
G01X1050927Y1076649D02*
G03X1053316Y1074241I316J-2076D01*
G01X1050927Y1076649D02*
G03X1051204Y1076788I-75J494D01*
G01X1052015Y1077592*
G03X1052163Y1077947I-352J355*
G01Y1086323*
G03X1051476Y1086787I-500J-0*
G01X1048672Y1088158D02*
G03X1051476Y1086787I2019J577D01*
G01X1048672Y1088158D02*
G03X1047711I-481J-137D01*
G01X1043617Y1088411D02*
G03X1047711Y1088158I2074J324D01*
G01X1043617Y1088411D02*
G03X1043476Y1088687I-494J-77D01*
G01X1034611Y1097552*
X1034143Y1098684D02*
G03X1034611Y1097552I1600J-0D01*
G01X1034143Y1098684D02*
Y1126243D01*
X1034611Y1127374D02*
G03X1034143Y1126243I1132J-1131D01*
G01X1034611Y1127374D02*
X1042111Y1134874D01*
X1043243Y1135343D02*
G03X1042111Y1134874I-0J-1600D01*
G01X1043243Y1135343D02*
X1047077D01*
G03X1047499Y1136111I0J500*
G01X1047327Y1136703D02*
G03X1047499Y1136111I1100J-0D01*
G01X1047327Y1136703D02*
Y1139039D01*
G03X1046587Y1139478I-500J-0*
G01X1046059Y1139343D02*
G03X1046587Y1139478I-0J1100D01*
G01X1046059Y1139343D02*
X1040159D01*
X1039873Y1139380D02*
G03X1040159Y1139343I286J1063D01*
G01X1039873Y1139380D02*
G03X1039613I-130J-482D01*
G01X1039327Y1139343D02*
G03X1039613Y1139380I-0J1100D01*
G01X1039327Y1139343D02*
X1033427D01*
X1032899Y1139478D02*
G03X1033427Y1139343I528J965D01*
G01X1032899Y1139478D02*
G03X1032159Y1139039I-240J-439D01*
G01Y1136703*
X1031059Y1135603D02*
G03X1032159Y1136703I-0J1100D01*
G01X1031059Y1135603D02*
X1025159D01*
X1024059Y1136703D02*
G03X1025159Y1135603I1100J-0D01*
G01X1024059Y1136703D02*
Y1139303D01*
X1025159Y1140403D02*
G03X1024059Y1139303I-0J-1100D01*
G01X1025159Y1140403D02*
X1031059D01*
X1031587Y1140268D02*
G03X1031059Y1140403I-528J-965D01*
G01X1031587Y1140268D02*
G03X1032327Y1140706I240J438D01*
G01Y1142779*
G03X1031587Y1143218I-500J-0*
G01X1031059Y1143083D02*
G03X1031587Y1143218I-0J1100D01*
G01X1031059Y1143083D02*
X1025159D01*
X1024059Y1144183D02*
G03X1025159Y1143083I1100J-0D01*
G01X1024059Y1144183D02*
Y1146783D01*
X1025159Y1147883D02*
G03X1024059Y1146783I-0J-1100D01*
G01X1025159Y1147883D02*
X1031059D01*
X1032159Y1146783D02*
G03X1031059Y1147883I-1100J-0D01*
G01X1032159Y1146783D02*
Y1144446D01*
G03X1032899Y1144008I500J0*
G01X1033427Y1144143D02*
G03X1032899Y1144008I-0J-1100D01*
G01X1033427Y1144143D02*
X1039327D01*
X1039613Y1144105D02*
G03X1039327Y1144143I-286J-1062D01*
G01X1039613Y1144105D02*
G03X1039873I130J483D01*
G01X1040159Y1144143D02*
G03X1039873Y1144105I-0J-1100D01*
G01X1040159Y1144143D02*
X1046059D01*
X1046587Y1144008D02*
G03X1046059Y1144143I-528J-965D01*
G01X1046587Y1144008D02*
G03X1047327Y1144446I240J438D01*
G01Y1146783*
X1048427Y1147883D02*
G03X1047327Y1146783I-0J-1100D01*
G01X1048427Y1147883D02*
X1054327D01*
X1055237Y1147400D02*
G03X1054327Y1147883I-910J-617D01*
G01X1055237Y1147400D02*
G03X1055851Y1147222I414J281D01*
G01X1058791Y1145298D02*
G03X1055851Y1147222I-2100J-0D01*
G01X1058388Y1144060D02*
G03X1058791Y1145298I-1697J1238D01*
G01X1058388Y1144060D02*
G03X1058291Y1143765I403J-295D01*
G01Y1135493*
X1057823Y1134361D02*
G03X1058291Y1135493I-1132J1132D01*
G01X1057823Y1134361D02*
X1057658Y1134196D01*
G03X1057511Y1133843I353J-353*
X1058011Y1133343I500J-0*
G01X1062813*
G03X1063166Y1133489I-0J500*
G01X1066945Y1137268*
G03X1067091Y1137621I-354J353*
G01Y1143765*
G03X1066995Y1144060I-500J-0*
G01Y1146536D02*
G03Y1144060I1696J-1238D01*
G01Y1146536D02*
G03X1067091Y1146831I-404J295D01*
G01Y1160924*
G03X1066945Y1161278I-500J-0*
G01X1056486Y1171736*
G03X1056133Y1171883I-353J-353*
G01X1055712*
G03X1055279Y1171633I0J-500*
G01X1054327Y1171083D02*
G03X1055279Y1171633I-0J1100D01*
G01X1054327Y1171083D02*
X1048427D01*
X1047899Y1171218D02*
G03X1048427Y1171083I528J965D01*
G01X1047899Y1171218D02*
G03X1047159Y1170779I-240J-439D01*
G01Y1168706*
G03X1047899Y1168268I500J0*
G01X1048427Y1168403D02*
G03X1047899Y1168268I-0J-1100D01*
G01X1048427Y1168403D02*
X1054327D01*
X1055427Y1167303D02*
G03X1054327Y1168403I-1100J-0D01*
G01X1055427Y1167303D02*
Y1164703D01*
X1054327Y1163603D02*
G03X1055427Y1164703I-0J1100D01*
G01X1054327Y1163603D02*
X1048427D01*
X1047327Y1164703D02*
G03X1048427Y1163603I1100J-0D01*
G01X1047327Y1164703D02*
Y1167039D01*
G03X1046587Y1167478I-500J-0*
G01X1046059Y1167343D02*
G03X1046587Y1167478I-0J1100D01*
G01X1046059Y1167343D02*
X1040159D01*
X1039873Y1167380D02*
G03X1040159Y1167343I286J1063D01*
G01X1039873Y1167380D02*
G03X1039613I-130J-482D01*
G01X1039327Y1167343D02*
G03X1039613Y1167380I-0J1100D01*
G01X1039327Y1167343D02*
X1033427D01*
X1032899Y1167478D02*
G03X1033427Y1167343I528J965D01*
G01X1032899Y1167478D02*
G03X1032159Y1167039I-240J-439D01*
G01Y1164703*
X1031059Y1163603D02*
G03X1032159Y1164703I-0J1100D01*
G01X1031059Y1163603D02*
X1025159D01*
X1024059Y1164703D02*
G03X1025159Y1163603I1100J-0D01*
G01X1024059Y1164703D02*
Y1167303D01*
X1025159Y1168403D02*
G03X1024059Y1167303I-0J-1100D01*
G01X1025159Y1168403D02*
X1031059D01*
X1031587Y1168268D02*
G03X1031059Y1168403I-528J-965D01*
G01X1031587Y1168268D02*
G03X1032327Y1168706I240J438D01*
G01Y1170779*
G03X1031587Y1171218I-500J-0*
G01X1031059Y1171083D02*
G03X1031587Y1171218I-0J1100D01*
G01X1031059Y1171083D02*
X1025159D01*
X1024059Y1172183D02*
G03X1025159Y1171083I1100J-0D01*
G01X1024059Y1172183D02*
Y1174783D01*
X1025159Y1175883D02*
G03X1024059Y1174783I-0J-1100D01*
G01X1025159Y1175883D02*
X1031059D01*
X1032159Y1174783D02*
G03X1031059Y1175883I-1100J-0D01*
G01X1032159Y1174783D02*
Y1172446D01*
G03X1032899Y1172008I500J0*
G01X1033427Y1172143D02*
G03X1032899Y1172008I-0J-1100D01*
G01X1033427Y1172143D02*
X1039327D01*
X1039613Y1172105D02*
G03X1039327Y1172143I-286J-1062D01*
G01X1039613Y1172105D02*
G03X1039873I130J483D01*
G01X1040159Y1172143D02*
G03X1039873Y1172105I-0J-1100D01*
G01X1040159Y1172143D02*
X1046059D01*
X1046587Y1172008D02*
G03X1046059Y1172143I-528J-965D01*
G01X1046587Y1172008D02*
G03X1047327Y1172446I240J438D01*
G01Y1174783*
X1048427Y1175883D02*
G03X1047327Y1174783I-0J-1100D01*
G01X1048427Y1175883D02*
X1054327D01*
X1055279Y1175333D02*
G03X1054327Y1175883I-952J-550D01*
G01X1055279Y1175333D02*
G03X1055712Y1175083I433J250D01*
G01X1055933*
G03X1056433Y1175583I-0J500*
X1056286Y1175936I-500J-0*
G01X1055111Y1177111*
X1054896Y1177379D02*
G03X1055111Y1177111I1347J864D01*
G01X1054896Y1177379D02*
G03X1054428Y1177607I-421J-270D01*
G01X1054327Y1177603D02*
G03X1054428Y1177607I-0J1100D01*
G01X1054327Y1177603D02*
X1048427D01*
X1047327Y1178703D02*
G03X1048427Y1177603I1100J-0D01*
G01X1047327Y1178703D02*
Y1181039D01*
G03X1046587Y1181478I-500J-0*
G01X1046059Y1181343D02*
G03X1046587Y1181478I-0J1100D01*
G01X1046059Y1181343D02*
X1040159D01*
X1039873Y1181380D02*
G03X1040159Y1181343I286J1063D01*
G01X1039873Y1181380D02*
G03X1039613I-130J-482D01*
G01X1039327Y1181343D02*
G03X1039613Y1181380I-0J1100D01*
G01X1039327Y1181343D02*
X1033427D01*
X1032899Y1181478D02*
G03X1033427Y1181343I528J965D01*
G01X1032899Y1181478D02*
G03X1032159Y1181039I-240J-439D01*
G01Y1178703*
X1031059Y1177603D02*
G03X1032159Y1178703I-0J1100D01*
G01X1031059Y1177603D02*
X1025159D01*
X1024059Y1178703D02*
G03X1025159Y1177603I1100J-0D01*
G01X1024059Y1178703D02*
Y1181303D01*
X1025159Y1182403D02*
G03X1024059Y1181303I-0J-1100D01*
G01X1025159Y1182403D02*
X1031059D01*
X1031587Y1182268D02*
G03X1031059Y1182403I-528J-965D01*
G01X1031587Y1182268D02*
G03X1032327Y1182706I240J438D01*
G01Y1184779*
G03X1031587Y1185218I-500J-0*
G01X1031059Y1185083D02*
G03X1031587Y1185218I-0J1100D01*
G01X1031059Y1185083D02*
X1025159D01*
X1024059Y1186183D02*
G03X1025159Y1185083I1100J-0D01*
G01X1024059Y1186183D02*
Y1188783D01*
X1025159Y1189883D02*
G03X1024059Y1188783I-0J-1100D01*
G01X1025159Y1189883D02*
X1031059D01*
X1032159Y1188783D02*
G03X1031059Y1189883I-1100J-0D01*
G01X1032159Y1188783D02*
Y1186446D01*
G03X1032899Y1186008I500J0*
G01X1033427Y1186143D02*
G03X1032899Y1186008I-0J-1100D01*
G01X1033427Y1186143D02*
X1039327D01*
X1039613Y1186105D02*
G03X1039327Y1186143I-286J-1062D01*
G01X1039613Y1186105D02*
G03X1039873I130J483D01*
G01X1040159Y1186143D02*
G03X1039873Y1186105I-0J-1100D01*
G01X1040159Y1186143D02*
X1046059D01*
X1046587Y1186008D02*
G03X1046059Y1186143I-528J-965D01*
G01X1046587Y1186008D02*
G03X1047327Y1186446I240J438D01*
G01Y1188783*
X1048427Y1189883D02*
G03X1047327Y1188783I-0J-1100D01*
G01X1048427Y1189883D02*
X1054143D01*
G03X1054643Y1190383I-0J500*
G01Y1191103*
G03X1054143Y1191603I-500J-0*
G01X1048427*
X1047327Y1192703D02*
G03X1048427Y1191603I1100J-0D01*
G01X1047327Y1192703D02*
Y1195039D01*
G03X1046587Y1195478I-500J-0*
G01X1046059Y1195343D02*
G03X1046587Y1195478I-0J1100D01*
G01X1046059Y1195343D02*
X1040159D01*
X1039873Y1195380D02*
G03X1040159Y1195343I286J1063D01*
G01X1039873Y1195380D02*
G03X1039613I-130J-482D01*
G01X1039327Y1195343D02*
G03X1039613Y1195380I-0J1100D01*
G01X1039327Y1195343D02*
X1033427D01*
X1032899Y1195478D02*
G03X1033427Y1195343I528J965D01*
G01X1032899Y1195478D02*
G03X1032159Y1195039I-240J-439D01*
G01Y1192703*
X1031059Y1191603D02*
G03X1032159Y1192703I-0J1100D01*
G01X1031059Y1191603D02*
X1025159D01*
X1024059Y1192703D02*
G03X1025159Y1191603I1100J-0D01*
G01X1024059Y1192703D02*
Y1195303D01*
X1025159Y1196403D02*
G03X1024059Y1195303I-0J-1100D01*
G01X1025159Y1196403D02*
X1031059D01*
X1031587Y1196268D02*
G03X1031059Y1196403I-528J-965D01*
G01X1031587Y1196268D02*
G03X1032327Y1196706I240J438D01*
G01Y1198779*
G03X1031587Y1199218I-500J-0*
G01X1031059Y1199083D02*
G03X1031587Y1199218I-0J1100D01*
G01X1031059Y1199083D02*
X1025159D01*
X1024059Y1200183D02*
G03X1025159Y1199083I1100J-0D01*
G01X1024059Y1200183D02*
Y1202783D01*
X1025159Y1203883D02*
G03X1024059Y1202783I-0J-1100D01*
G01X1025159Y1203883D02*
X1031059D01*
X1032159Y1202783D02*
G03X1031059Y1203883I-1100J-0D01*
G01X1032159Y1202783D02*
Y1200446D01*
G03X1032899Y1200008I500J0*
G01X1033427Y1200143D02*
G03X1032899Y1200008I-0J-1100D01*
G01X1033427Y1200143D02*
X1039327D01*
X1039613Y1200105D02*
G03X1039327Y1200143I-286J-1062D01*
G01X1039613Y1200105D02*
G03X1039873I130J483D01*
G01X1040159Y1200143D02*
G03X1039873Y1200105I-0J-1100D01*
G01X1040159Y1200143D02*
X1046059D01*
X1046587Y1200008D02*
G03X1046059Y1200143I-528J-965D01*
G01X1046587Y1200008D02*
G03X1047327Y1200446I240J438D01*
G01Y1202783*
X1048427Y1203883D02*
G03X1047327Y1202783I-0J-1100D01*
G01X1048427Y1203883D02*
X1054143D01*
G03X1054643Y1204383I-0J500*
G01Y1205103*
G03X1054143Y1205603I-500J-0*
G01X1048427*
X1047327Y1206703D02*
G03X1048427Y1205603I1100J-0D01*
G01X1047327Y1206703D02*
Y1209039D01*
G03X1046587Y1209478I-500J-0*
G01X1046059Y1209343D02*
G03X1046587Y1209478I-0J1100D01*
G01X1046059Y1209343D02*
X1040159D01*
X1039873Y1209380D02*
G03X1040159Y1209343I286J1063D01*
G01X1039873Y1209380D02*
G03X1039613I-130J-482D01*
G01X1039327Y1209343D02*
G03X1039613Y1209380I-0J1100D01*
G01X1039327Y1209343D02*
X1033427D01*
X1032899Y1209478D02*
G03X1033427Y1209343I528J965D01*
G01X1032899Y1209478D02*
G03X1032159Y1209039I-240J-439D01*
G01Y1206703*
X1031059Y1205603D02*
G03X1032159Y1206703I-0J1100D01*
G01X1031059Y1205603D02*
X1025159D01*
X1024059Y1206703D02*
G03X1025159Y1205603I1100J-0D01*
G01X1024059Y1206703D02*
Y1209303D01*
X1025159Y1210403D02*
G03X1024059Y1209303I-0J-1100D01*
G01X1025159Y1210403D02*
X1031059D01*
X1031587Y1210268D02*
G03X1031059Y1210403I-528J-965D01*
G01X1031587Y1210268D02*
G03X1032327Y1210706I240J438D01*
G01Y1212779*
G03X1031587Y1213218I-500J-0*
G01X1031059Y1213083D02*
G03X1031587Y1213218I-0J1100D01*
G01X1031059Y1213083D02*
X1025159D01*
X1024059Y1214183D02*
G03X1025159Y1213083I1100J-0D01*
G01X1024059Y1214183D02*
Y1216783D01*
X1025159Y1217883D02*
G03X1024059Y1216783I-0J-1100D01*
G01X1025159Y1217883D02*
X1031059D01*
X1032159Y1216783D02*
G03X1031059Y1217883I-1100J-0D01*
G01X1032159Y1216783D02*
Y1214446D01*
G03X1032899Y1214008I500J0*
G01X1033427Y1214143D02*
G03X1032899Y1214008I-0J-1100D01*
G01X1033427Y1214143D02*
X1039327D01*
X1039613Y1214105D02*
G03X1039327Y1214143I-286J-1062D01*
G01X1039613Y1214105D02*
G03X1039873I130J483D01*
G01X1040159Y1214143D02*
G03X1039873Y1214105I-0J-1100D01*
G01X1040159Y1214143D02*
X1046059D01*
X1046587Y1214008D02*
G03X1046059Y1214143I-528J-965D01*
G01X1046587Y1214008D02*
G03X1047327Y1214446I240J438D01*
G01Y1216783*
X1048427Y1217883D02*
G03X1047327Y1216783I-0J-1100D01*
G01X1048427Y1217883D02*
X1054143D01*
G03X1054643Y1218383I-0J500*
G01Y1219103*
G03X1054143Y1219603I-500J-0*
G01X1048427*
X1047327Y1220703D02*
G03X1048427Y1219603I1100J-0D01*
G01X1047327Y1220703D02*
Y1223039D01*
G03X1046587Y1223478I-500J-0*
G01X1046059Y1223343D02*
G03X1046587Y1223478I-0J1100D01*
G01X1046059Y1223343D02*
X1040159D01*
X1039873Y1223380D02*
G03X1040159Y1223343I286J1063D01*
G01X1039873Y1223380D02*
G03X1039613I-130J-482D01*
G01X1039327Y1223343D02*
G03X1039613Y1223380I-0J1100D01*
G01X1039327Y1223343D02*
X1033427D01*
X1032899Y1223478D02*
G03X1033427Y1223343I528J965D01*
G01X1032899Y1223478D02*
G03X1032159Y1223039I-240J-439D01*
G01Y1220703*
X1031059Y1219603D02*
G03X1032159Y1220703I-0J1100D01*
G01X1031059Y1219603D02*
X1025159D01*
X1024059Y1220703D02*
G03X1025159Y1219603I1100J-0D01*
G01X1024059Y1220703D02*
Y1223303D01*
X1025159Y1224403D02*
G03X1024059Y1223303I-0J-1100D01*
G01X1025159Y1224403D02*
X1031059D01*
X1031587Y1224268D02*
G03X1031059Y1224403I-528J-965D01*
G01X1031587Y1224268D02*
G03X1032327Y1224706I240J438D01*
G01Y1226779*
G03X1031587Y1227218I-500J-0*
G01X1031059Y1227083D02*
G03X1031587Y1227218I-0J1100D01*
G01X1031059Y1227083D02*
X1025159D01*
X1024059Y1228183D02*
G03X1025159Y1227083I1100J-0D01*
G01X1024059Y1228183D02*
Y1230783D01*
X1025159Y1231883D02*
G03X1024059Y1230783I-0J-1100D01*
G01X1025159Y1231883D02*
X1031059D01*
X1032159Y1230783D02*
G03X1031059Y1231883I-1100J-0D01*
G01X1032159Y1230783D02*
Y1228446D01*
G03X1032899Y1228008I500J0*
G01X1033427Y1228143D02*
G03X1032899Y1228008I-0J-1100D01*
G01X1033427Y1228143D02*
X1039327D01*
X1039613Y1228105D02*
G03X1039327Y1228143I-286J-1062D01*
G01X1039613Y1228105D02*
G03X1039873I130J483D01*
G01X1040159Y1228143D02*
G03X1039873Y1228105I-0J-1100D01*
G01X1040159Y1228143D02*
X1046059D01*
X1046587Y1228008D02*
G03X1046059Y1228143I-528J-965D01*
G01X1046587Y1228008D02*
G03X1047327Y1228446I240J438D01*
G01Y1230783*
X1048427Y1231883D02*
G03X1047327Y1230783I-0J-1100D01*
G01X1048427Y1231883D02*
X1054327D01*
X1055427Y1230783D02*
G03X1054327Y1231883I-1100J-0D01*
G01X1055427Y1230783D02*
Y1230028D01*
X1055427D02*
G03X1055573Y1229675I500J0D01*
G01X1057374Y1227874*
X1057843Y1226743D02*
G03X1057374Y1227874I-1600J-0D01*
G01X1057843Y1226743D02*
Y1217112D01*
X1057843D02*
G03X1057989Y1216759I500J0D01*
G01X1059374Y1215374*
X1059843Y1214243D02*
G03X1059374Y1215374I-1600J-0D01*
G01X1059843Y1214243D02*
Y1204612D01*
X1059843D02*
G03X1059989Y1204259I500J0D01*
G01X1061341Y1202907*
G03X1062185Y1203161I354J353*
G01X1063536Y1204720D02*
G03X1062185Y1203161I707J-1977D01*
G01X1063536Y1204720D02*
X1063684Y1204773D01*
G03X1064010Y1205169I-169J471*
G01X1064839Y1206293D02*
G03X1064010Y1205168I654J-1350D01*
G01X1064839Y1206293D02*
G03Y1207193I-218J450D01*
G01X1064010Y1208317D02*
G03X1064839Y1207193I1483J226D01*
G01X1064010Y1208317D02*
G03X1063684Y1208712I-495J-76D01*
G01X1063536Y1208765*
X1062143Y1210743D02*
G03X1063536Y1208765I2100J-0D01*
G01X1062901Y1212358D02*
G03X1062143Y1210743I1342J-1615D01*
G01X1062901Y1212358D02*
G03Y1213127I-320J385D01*
G01Y1216358D02*
G03Y1213127I1342J-1615D01*
G01Y1216358D02*
G03Y1217127I-320J385D01*
G01Y1220358D02*
G03Y1217127I1342J-1615D01*
G01Y1220358D02*
G03Y1221127I-320J385D01*
G01X1062143Y1222743D02*
G03X1062901Y1221127I2100J-0D01*
G01X1063022Y1224452D02*
G03X1062143Y1222743I1221J-1709D01*
G01X1063022Y1224452D02*
X1063783Y1224995D01*
G03X1063993Y1225402I-290J407*
G01Y1225943*
X1065493Y1227443D02*
G03X1063993Y1225943I-0J-1500D01*
G01X1065493Y1227443D02*
X1068593D01*
X1069830Y1226790D02*
G03X1068593Y1227443I-1237J-847D01*
G01X1069830Y1226790D02*
G03X1070655I413J283D01*
G01X1070915Y1227080D02*
G03X1070655Y1226790I978J-1137D01*
G01X1070915Y1227080D02*
G03X1071089Y1227460I-326J380D01*
X1070859Y1227881I-500J-0*
G01X1068473Y1232247D02*
G03X1070859Y1227881I5187J-0D01*
G01X1078844Y1232433D02*
G03X1068473Y1232247I-5184J-186D01*
G01X1078844Y1232433D02*
G03X1079804Y1232258I499J18D01*
G01X1086353Y1236614D02*
G03X1079804Y1232258I-0J-7100D01*
G01X1086353Y1236614D02*
X1094063D01*
G03X1094383Y1237499I0J500*
G01X1097644Y1246520D02*
G03X1094383Y1237499I0J-5100D01*
G01X1097644Y1246520D02*
X1101644D01*
X1104905Y1237499D02*
G03X1101644Y1246520I-3261J3921D01*
G01X1104905Y1237499D02*
G03X1105225Y1236614I320J-385D01*
G01X1110643*
G03X1111143Y1237114I-0J500*
G01X1111142Y1247243*
G03X1106242Y1252143I-4900J-0*
G01X1004243*
G03X999343Y1247243I-0J-4900*
G01Y1212020*
G03X1000196Y1211666I500J-0*
G01X1003074Y1214544*
G03X1003212Y1214990I-353J354*
G01X1003143Y1215743D02*
G03X1003212Y1214990I4100J-0D01*
G01X1003143Y1215743D02*
Y1225743D01*
X1011343D02*
G03X1003143I-4100J-0D01*
G01X1011343D02*
Y1215743D01*
X1006490Y1211712D02*
G03X1011343Y1215743I753J4031D01*
G01X1006490Y1211712D02*
G03X1006044Y1211574I-92J-491D01*
G01X1004492Y1210023*
G03X1004346Y1209669I354J-354*
X1005106Y1209242I500J-0*
G01X1004212Y1202981D02*
G03X1005106Y1209242I3031J2762D01*
G01X1004212Y1202981D02*
G03X1003343Y1202644I-369J-337D01*
G01Y1198841*
G03X1004212Y1198504I500J0*
G01Y1192981D02*
G03Y1198504I3031J2762D01*
G01Y1192981D02*
G03X1003343Y1192644I-369J-337D01*
G01Y1188841*
G03X1004212Y1188504I500J0*
G01Y1182981D02*
G03Y1188504I3031J2762D01*
G01Y1182981D02*
G03X1003343Y1182644I-369J-337D01*
G01Y1178841*
G03X1004212Y1178504I500J0*
G01Y1172981D02*
G03Y1178504I3031J2762D01*
G01Y1172981D02*
G03X1003343Y1172644I-369J-337D01*
G01Y1168841*
G03X1004212Y1168504I500J0*
G01Y1162981D02*
G03Y1168504I3031J2762D01*
G01Y1162981D02*
G03X1003343Y1162644I-369J-337D01*
G01Y1158841*
G03X1004212Y1158504I500J0*
G01Y1152981D02*
G03Y1158504I3031J2762D01*
G01Y1152981D02*
G03X1003343Y1152644I-369J-337D01*
G01Y1148841*
G03X1004212Y1148504I500J0*
G01Y1142981D02*
G03Y1148504I3031J2762D01*
G01Y1142981D02*
G03X1003343Y1142644I-369J-337D01*
G01Y1138841*
G03X1004212Y1138504I500J0*
G01Y1132981D02*
G03Y1138504I3031J2762D01*
G01Y1132981D02*
G03X1003343Y1132644I-369J-337D01*
G01Y1128841*
G03X1004212Y1128504I500J0*
G01Y1122981D02*
G03Y1128504I3031J2762D01*
G01Y1122981D02*
G03X1003343Y1122644I-369J-337D01*
G01Y1118841*
G03X1004212Y1118504I500J0*
G01Y1112981D02*
G03Y1118504I3031J2762D01*
G01Y1112981D02*
G03X1003343Y1112644I-369J-337D01*
G01Y1108841*
G03X1004212Y1108504I500J0*
G01Y1102981D02*
G03Y1108504I3031J2762D01*
G01Y1102981D02*
G03X1003343Y1102644I-369J-337D01*
G01Y1098841*
G03X1004212Y1098504I500J0*
G01Y1092981D02*
G03Y1098504I3031J2762D01*
G01Y1092981D02*
G03X1003343Y1092644I-369J-337D01*
G01Y1088841*
G03X1004212Y1088504I500J0*
G01Y1082981D02*
G03Y1088504I3031J2762D01*
G01Y1082981D02*
G03X1003343Y1082644I-369J-337D01*
G01Y1078841*
G03X1004212Y1078504I500J0*
G01Y1072981D02*
G03Y1078504I3031J2762D01*
G01Y1072981D02*
G03X1003343Y1072644I-369J-337D01*
G01Y1068841*
G03X1004212Y1068504I500J0*
G01Y1062981D02*
G03Y1068504I3031J2762D01*
G01Y1062981D02*
G03X1003343Y1062644I-369J-337D01*
G01Y1058841*
G03X1004212Y1058504I500J0*
G01Y1052981D02*
G03Y1058504I3031J2762D01*
G01Y1052981D02*
G03X1003343Y1052644I-369J-337D01*
G01Y1048841*
G03X1004212Y1048504I500J0*
G01X1008499Y1049646D02*
G03X1004212Y1048504I-1256J-3903D01*
G01X1008499Y1049646D02*
G03X1009005Y1049768I153J476D01*
G01X1011111Y1051874*
X1012243Y1052343D02*
G03X1011111Y1051874I-0J-1600D01*
G01X1012243Y1052343D02*
X1013672D01*
G03X1014060Y1053158I-0J500*
G01X1020425D02*
G03X1014060I-3182J2585D01*
G01X1020425D02*
G03X1020813Y1052343I388J-315D01*
G01X1024203*
G03X1024556Y1052489I-0J500*
G01X1034291Y1062224*
G03Y1062931I-353J354*
G01X1023226Y1073996*
G03X1022873Y1074143I-353J-353*
G01X1021335*
G03X1020890Y1073871I0J-500*
G01Y1077614D02*
G03Y1073871I-3647J-1871D01*
G01Y1077614D02*
G03X1021335Y1077343I445J229D01*
G01X1022173*
G03X1022673Y1077843I-0J500*
X1022526Y1078196I-500J-0*
G01X1019005Y1081717*
G03X1018499Y1081840I-353J-353*
G01X1021146Y1084487D02*
G03X1018499Y1081840I-3903J1256D01*
G01X1021146Y1084487D02*
G03X1021122Y1084334I476J-153D01*
X1021268Y1083980I500J-0*
G01X1036759Y1068489*
G03X1037112Y1068343I353J354*
G01X1037112D02*
X1054450D01*
G03X1054744Y1068439I-0J500*
G01X1057998Y1066153D02*
G03X1054744Y1068439I-2015J590D01*
G01X1057998Y1066153D02*
G03X1057978Y1066013I480J-140D01*
X1058478Y1065513I500J-0*
G01X1059003*
G03X1059503Y1066013I-0J500*
G01Y1103380*
G03X1059406Y1103674I-500J-0*
G01X1059003Y1104913D02*
G03X1059406Y1103674I2100J-0D01*
G01X1063122Y1105490D02*
G03X1059003Y1104913I-2019J-577D01*
G01X1063122Y1105490D02*
G03X1064083I481J137D01*
G01X1068146Y1105397D02*
G03X1064083Y1105490I-2043J-484D01*
G01X1068146Y1105397D02*
G03X1068631Y1105013I486J116D01*
G01X1068946Y1100838D02*
G03X1068631Y1105013I-323J2075D01*
G01X1068946Y1100838D02*
G03X1068670Y1100697I78J-494D01*
G01X1066869Y1098896*
G03X1066723Y1098543I354J-353*
G01Y1063123*
X1066254Y1061991D02*
G03X1066723Y1063123I-1131J1132D01*
G01X1066254Y1061991D02*
X1062044Y1057781D01*
X1060913Y1057313D02*
G03X1062044Y1057781I-0J1600D01*
G01X1060913Y1057313D02*
X1060875D01*
G03X1060375Y1056813I0J-500*
X1060396Y1056670I500J-0*
G01X1057144Y1054376D02*
G03X1060396Y1056670I1239J1697D01*
G01X1057144Y1054376D02*
G03X1056850Y1054473I-294J-403D01*
G01X1037442*
X1037442D02*
G03X1037089Y1054326I0J-500D01*
G01X1024438Y1041675*
G03X1024291Y1041322I353J-353*
G01Y1023191*
X1023823Y1022060D02*
G03X1024291Y1023191I-1132J1131D01*
G01X1023823Y1022060D02*
X1021374Y1019611D01*
X1020637Y1019192D02*
G03X1021374Y1019611I-394J1551D01*
G01X1020637Y1019192D02*
G03X1020378Y1018385I123J-485D01*
G01X1020162Y1012864D02*
G03X1020378Y1018385I-2919J2879D01*
G01X1020162Y1012864D02*
G03X1020518Y1012013I356J-351D01*
G01X1084543*
G03X1084896Y1012159I-0J500*
G01X1089516Y1016779*
G03X1089662Y1017132I-354J353*
G01Y1031564*
G03X1089566Y1031859I-500J-0*
G01X1089162Y1033097D02*
G03X1089566Y1031859I2100J-0D01*
G01X1093362Y1033097D02*
G03X1089162I-2100J-0D01*
G01X1092958Y1031859D02*
G03X1093362Y1033097I-1696J1238D01*
G01X1092959Y1031859D02*
G03X1092862Y1031564I403J-295D01*
G01Y1016262*
X1092394Y1015131D02*
G03X1092862Y1016262I-1132J1131D01*
G01X1092394Y1015131D02*
X1086544Y1009281D01*
X1085412Y1008813D02*
G03X1086544Y1009281I1J1600D01*
G01X1085412Y1008813D02*
X1021058D01*
G03X1020643Y1008033I-0J-500*
G01X1021343Y1005743D02*
G03X1020643Y1008033I-4100J-0D01*
G01X1013143Y1005743D02*
G03X1021343I4100J-0D01*
G01X1013842Y1008033D02*
G03X1013143Y1005743I3401J-2290D01*
G01X1013842Y1008033D02*
G03X1013427Y1008813I-415J280D01*
G01X1011058*
G03X1010643Y1008033I-0J-500*
G01X1011343Y1005743D02*
G03X1010643Y1008033I-4100J-0D01*
G01X1004150Y1008435D02*
G03X1011343Y1005743I3093J-2692D01*
G01X1004150Y1008435D02*
G03X1004273Y1008763I-377J328D01*
X1004083Y1009156I-500J0*
G01X1003941Y1009281D02*
G03X1004083Y1009156I1132J1132D01*
G01X1003941Y1009281D02*
X1000851Y1012371D01*
X1000383Y1013503D02*
G03X1000851Y1012371I1600J-0D01*
G01X1000383Y1013503D02*
Y1030483D01*
X1000851Y1031614D02*
G03X1000383Y1030483I1132J-1131D01*
G01X1000851Y1031614D02*
X1003217Y1033980D01*
G03X1003364Y1034334I-353J354*
X1003340Y1034487I-500J-0*
G01X1003762Y1037910D02*
G03X1003340Y1034487I3481J-2167D01*
G01X1003762Y1037910D02*
G03X1003838Y1038174I-424J264D01*
X1003416Y1038668I-500J0*
G01X1002258Y1039258D02*
G03X1003416Y1038668I1485J1485D01*
G01X1002258Y1039258D02*
X1000196Y1041319D01*
G03X999343Y1040966I-353J-353*
G01Y1004243*
G03X1004243Y999343I4900J-0*
G01X1106243*
G03X1111143Y1004243I-0J4900*
G01Y1180371*
X1091091Y1152924D02*
G03X1090945Y1153278I-500J-0D01*
G01X1089145Y1155077*
G03X1088291Y1154724I-354J-353*
G01Y1146831*
G03X1088388Y1146536I500J-0*
G01X1088791Y1145298D02*
G03X1088388Y1146536I-2100J-0D01*
G01X1084591Y1145298D02*
G03X1088791I2100J-0D01*
G01X1084995Y1146536D02*
G03X1084591Y1145298I1696J-1238D01*
G01X1084995Y1146536D02*
G03X1085091Y1146831I-404J295D01*
G01Y1154924*
G03X1084945Y1155278I-500J-0*
G01X1083145Y1157077*
G03X1082291Y1156724I-354J-353*
G01Y1146831*
G03X1082388Y1146536I500J-0*
G01Y1144060D02*
G03Y1146536I-1697J1238D01*
G01Y1144060D02*
G03X1082291Y1143765I403J-295D01*
G01Y1137751*
X1081823Y1136620D02*
G03X1082291Y1137751I-1132J1131D01*
G01X1081823Y1136620D02*
X1075399Y1130196D01*
G03X1075253Y1129843I354J-353*
X1075753Y1129343I500J-0*
G01X1082813*
G03X1083166Y1129489I-0J500*
G01X1090945Y1137268*
G03X1091091Y1137621I-354J353*
G01Y1143765*
G03X1090995Y1144060I-500J-0*
G01Y1146536D02*
G03Y1144060I1696J-1238D01*
G01Y1146536D02*
G03X1091091Y1146831I-404J295D01*
G01Y1152924*
X1079256Y1229722D02*
G03X1078308Y1229944I-500J-0D01*
G01X1076217Y1227733D02*
G03X1078308Y1229944I-2557J4514D01*
G01X1076217Y1227733D02*
G03X1076095Y1226959I246J-435D01*
G01X1076493Y1225943D02*
G03X1076095Y1226959I-1500J-0D01*
G01X1076493Y1225943D02*
Y1223543D01*
X1076133Y1222568D02*
G03X1076493Y1223543I-1140J975D01*
G01X1076133Y1222568D02*
G03Y1221918I380J-325D01*
G01X1076493Y1220943D02*
G03X1076133Y1221918I-1500J-0D01*
G01X1076493Y1220943D02*
Y1218543D01*
X1076133Y1217568D02*
G03X1076493Y1218543I-1140J975D01*
G01X1076133Y1217568D02*
G03Y1216918I380J-325D01*
G01X1076493Y1215943D02*
G03X1076133Y1216918I-1500J-0D01*
G01X1076493Y1215943D02*
Y1213543D01*
X1076133Y1212568D02*
G03X1076493Y1213543I-1140J975D01*
G01X1076133Y1212568D02*
G03Y1211918I380J-325D01*
G01X1076493Y1210943D02*
G03X1076133Y1211918I-1500J-0D01*
G01X1076493Y1210943D02*
Y1208543D01*
X1075647Y1207193D02*
G03X1076493Y1208543I-654J1350D01*
G01X1075647Y1207193D02*
G03Y1206293I217J-450D01*
G01X1076493Y1204943D02*
G03X1075647Y1206293I-1500J-0D01*
G01X1076493Y1204943D02*
Y1202543D01*
X1076133Y1201568D02*
G03X1076493Y1202543I-1140J975D01*
G01X1076133Y1201568D02*
G03Y1200918I380J-325D01*
G01X1076493Y1199943D02*
G03X1076133Y1200918I-1500J-0D01*
G01X1076493Y1199943D02*
Y1197543D01*
X1076133Y1196568D02*
G03X1076493Y1197543I-1140J975D01*
G01X1076133Y1196568D02*
G03Y1195918I380J-325D01*
G01X1076493Y1194943D02*
G03X1076133Y1195918I-1500J-0D01*
G01X1076493Y1194943D02*
Y1192543D01*
X1075388Y1191096D02*
G03X1076493Y1192543I-395J1447D01*
G01X1075388Y1191096D02*
G03X1075356Y1190141I131J-483D01*
G01X1078308Y1187542D02*
G03X1075356Y1190141I-4648J-2303D01*
G01X1078308Y1187542D02*
G03X1079256Y1187764I448J222D01*
X1079255Y1187777I-500J-0*
G01X1079253Y1187971D02*
G03X1079255Y1187777I7100J0D01*
G01X1079253Y1187971D02*
Y1229514D01*
X1079255Y1229708D02*
G03X1079253Y1229514I7098J-194D01*
G01X1079255Y1229708D02*
G03X1079256Y1229722I-499J14D01*
G01X1054643Y1225873D02*
G03X1054496Y1226226I-500J-0D01*
G01X1053786Y1226936*
G03X1053433Y1227083I-353J-353*
G01X1048427*
X1047899Y1227218D02*
G03X1048427Y1227083I528J965D01*
G01X1047899Y1227218D02*
G03X1047159Y1226779I-240J-439D01*
G01Y1224706*
G03X1047899Y1224268I500J0*
G01X1048427Y1224403D02*
G03X1047899Y1224268I-0J-1100D01*
G01X1048427Y1224403D02*
X1054143D01*
G03X1054643Y1224903I-0J500*
G01Y1225873*
Y1211873D02*
G03X1054496Y1212226I-500J-0D01*
G01X1053786Y1212936*
G03X1053433Y1213083I-353J-353*
G01X1048427*
X1047899Y1213218D02*
G03X1048427Y1213083I528J965D01*
G01X1047899Y1213218D02*
G03X1047159Y1212779I-240J-439D01*
G01Y1210706*
G03X1047899Y1210268I500J0*
G01X1048427Y1210403D02*
G03X1047899Y1210268I-0J-1100D01*
G01X1048427Y1210403D02*
X1054143D01*
G03X1054643Y1210903I-0J500*
G01Y1211873*
Y1197873D02*
G03X1054496Y1198226I-500J-0D01*
G01X1053786Y1198936*
G03X1053433Y1199083I-353J-353*
G01X1048427*
X1047899Y1199218D02*
G03X1048427Y1199083I528J965D01*
G01X1047899Y1199218D02*
G03X1047159Y1198779I-240J-439D01*
G01Y1196706*
G03X1047899Y1196268I500J0*
G01X1048427Y1196403D02*
G03X1047899Y1196268I-0J-1100D01*
G01X1048427Y1196403D02*
X1054143D01*
G03X1054643Y1196903I-0J500*
G01Y1197873*
Y1183873D02*
G03X1054496Y1184226I-500J-0D01*
G01X1053786Y1184936*
G03X1053433Y1185083I-353J-353*
G01X1048427*
X1047899Y1185218D02*
G03X1048427Y1185083I528J965D01*
G01X1047899Y1185218D02*
G03X1047159Y1184779I-240J-439D01*
G01Y1182706*
G03X1047899Y1182268I500J0*
G01X1048427Y1182403D02*
G03X1047899Y1182268I-0J-1100D01*
G01X1048427Y1182403D02*
X1054143D01*
G03X1054643Y1182903I-0J500*
G01Y1183873*
X1079091Y1156924D02*
G03X1078945Y1157278I-500J-0D01*
G01X1077145Y1159077*
G03X1076291Y1158724I-354J-353*
G01Y1146831*
G03X1076388Y1146536I500J-0*
G01X1076791Y1145298D02*
G03X1076388Y1146536I-2100J-0D01*
G01X1072591Y1145298D02*
G03X1076791I2100J-0D01*
G01X1072995Y1146536D02*
G03X1072591Y1145298I1696J-1238D01*
G01X1072995Y1146536D02*
G03X1073091Y1146831I-404J295D01*
G01Y1158924*
G03X1072945Y1159278I-500J-0*
G01X1071145Y1161077*
G03X1070291Y1160724I-354J-353*
G01Y1146831*
G03X1070388Y1146536I500J-0*
G01Y1144060D02*
G03Y1146536I-1697J1238D01*
G01Y1144060D02*
G03X1070291Y1143765I403J-295D01*
G01Y1136751*
X1069823Y1135620D02*
G03X1070291Y1136751I-1132J1131D01*
G01X1069823Y1135620D02*
X1066399Y1132196D01*
G03X1066253Y1131843I354J-353*
X1066753Y1131343I500J-0*
G01X1071813*
G03X1072166Y1131489I-0J500*
G01X1078945Y1138268*
G03X1079091Y1138621I-354J353*
G01Y1143765*
G03X1078995Y1144060I-500J-0*
G01Y1146536D02*
G03Y1144060I1696J-1238D01*
G01Y1146536D02*
G03X1079091Y1146831I-404J295D01*
G01Y1156924*
X1055091Y1142605D02*
G03X1054509Y1143098I-500J-0D01*
G01X1054327Y1143083D02*
G03X1054509Y1143098I-0J1100D01*
G01X1054327Y1143083D02*
X1048427D01*
X1047899Y1143218D02*
G03X1048427Y1143083I528J965D01*
G01X1047899Y1143218D02*
G03X1047159Y1142779I-240J-439D01*
G01Y1140706*
G03X1047899Y1140268I500J0*
G01X1048427Y1140403D02*
G03X1047899Y1140268I-0J-1100D01*
G01X1048427Y1140403D02*
X1054327D01*
X1054509Y1140387D02*
G03X1054327Y1140403I-182J-1084D01*
G01X1054509Y1140387D02*
G03X1055091Y1140881I82J494D01*
G01Y1142605*
X1060995Y1146536D02*
G03X1060591Y1145298I1696J-1238D01*
G01X1060995Y1146536D02*
G03X1061091Y1146831I-404J295D01*
G01Y1154428*
G03X1060945Y1154781I-500J-0*
G01X1057990Y1157736*
G03X1057637Y1157883I-353J-353*
G01X1055712*
G03X1055279Y1157633I0J-500*
G01X1054327Y1157083D02*
G03X1055279Y1157633I-0J1100D01*
G01X1054327Y1157083D02*
X1048427D01*
X1047899Y1157218D02*
G03X1048427Y1157083I528J965D01*
G01X1047899Y1157218D02*
G03X1047159Y1156779I-240J-439D01*
G01Y1154706*
G03X1047899Y1154268I500J0*
G01X1048427Y1154403D02*
G03X1047899Y1154268I-0J-1100D01*
G01X1048427Y1154403D02*
X1054327D01*
X1055427Y1153303D02*
G03X1054327Y1154403I-1100J-0D01*
G01X1055427Y1153303D02*
Y1150703D01*
X1054327Y1149603D02*
G03X1055427Y1150703I-0J1100D01*
G01X1054327Y1149603D02*
X1048427D01*
X1047327Y1150703D02*
G03X1048427Y1149603I1100J-0D01*
G01X1047327Y1150703D02*
Y1153039D01*
G03X1046587Y1153478I-500J-0*
G01X1046059Y1153343D02*
G03X1046587Y1153478I-0J1100D01*
G01X1046059Y1153343D02*
X1040159D01*
X1039873Y1153380D02*
G03X1040159Y1153343I286J1063D01*
G01X1039873Y1153380D02*
G03X1039613I-130J-482D01*
G01X1039327Y1153343D02*
G03X1039613Y1153380I-0J1100D01*
G01X1039327Y1153343D02*
X1033427D01*
X1032899Y1153478D02*
G03X1033427Y1153343I528J965D01*
G01X1032899Y1153478D02*
G03X1032159Y1153039I-240J-439D01*
G01Y1150703*
X1031059Y1149603D02*
G03X1032159Y1150703I-0J1100D01*
G01X1031059Y1149603D02*
X1025159D01*
X1024059Y1150703D02*
G03X1025159Y1149603I1100J-0D01*
G01X1024059Y1150703D02*
Y1153303D01*
X1025159Y1154403D02*
G03X1024059Y1153303I-0J-1100D01*
G01X1025159Y1154403D02*
X1031059D01*
X1031587Y1154268D02*
G03X1031059Y1154403I-528J-965D01*
G01X1031587Y1154268D02*
G03X1032327Y1154706I240J438D01*
G01Y1156779*
G03X1031587Y1157218I-500J-0*
G01X1031059Y1157083D02*
G03X1031587Y1157218I-0J1100D01*
G01X1031059Y1157083D02*
X1025159D01*
X1024059Y1158183D02*
G03X1025159Y1157083I1100J-0D01*
G01X1024059Y1158183D02*
Y1160783D01*
X1025159Y1161883D02*
G03X1024059Y1160783I-0J-1100D01*
G01X1025159Y1161883D02*
X1031059D01*
X1032159Y1160783D02*
G03X1031059Y1161883I-1100J-0D01*
G01X1032159Y1160783D02*
Y1158446D01*
G03X1032899Y1158008I500J0*
G01X1033427Y1158143D02*
G03X1032899Y1158008I-0J-1100D01*
G01X1033427Y1158143D02*
X1039327D01*
X1039613Y1158105D02*
G03X1039327Y1158143I-286J-1062D01*
G01X1039613Y1158105D02*
G03X1039873I130J483D01*
G01X1040159Y1158143D02*
G03X1039873Y1158105I-0J-1100D01*
G01X1040159Y1158143D02*
X1046059D01*
X1046587Y1158008D02*
G03X1046059Y1158143I-528J-965D01*
G01X1046587Y1158008D02*
G03X1047327Y1158446I240J438D01*
G01Y1160783*
X1048427Y1161883D02*
G03X1047327Y1160783I-0J-1100D01*
G01X1048427Y1161883D02*
X1054327D01*
X1055279Y1161333D02*
G03X1054327Y1161883I-952J-550D01*
G01X1055279Y1161333D02*
G03X1055712Y1161083I433J250D01*
G01X1058507*
X1059638Y1160614D02*
G03X1058507Y1161083I-1131J-1131D01*
G01X1059638Y1160614D02*
X1063823Y1156429D01*
X1064291Y1155298D02*
G03X1063823Y1156429I-1600J-0D01*
G01X1064291Y1155298D02*
Y1146831D01*
G03X1064388Y1146536I500J-0*
G01X1060591Y1145298D02*
G03X1064388Y1146536I2100J-0D01*
G01X1021343Y1065743D02*
G03X1021343I-4100J0D01*
G01Y1095743D02*
G03X1021343I-4100J0D01*
G01Y1105743D02*
G03X1021343I-4100J0D01*
G01Y1115743D02*
G03X1021343I-4100J0D01*
G01Y1125743D02*
G03X1021343I-4100J0D01*
G01Y1135743D02*
G03X1021343I-4100J0D01*
G01Y1145743D02*
G03X1021343I-4100J0D01*
G01Y1155743D02*
G03X1021343I-4100J0D01*
G01Y1165743D02*
G03X1021343I-4100J0D01*
G01Y1175743D02*
G03X1021343I-4100J0D01*
G01Y1185743D02*
G03X1021343I-4100J0D01*
G01Y1195743D02*
G03X1021343I-4100J0D01*
G01Y1205743D02*
G03X1021343I-4100J0D01*
G01Y1215743D02*
G03X1021343I-4100J0D01*
G01Y1225743D02*
G03X1021343I-4100J0D01*
G01Y1235743D02*
G03X1021343I-4100J0D01*
G01Y1245743D02*
G03X1021343I-4100J0D01*
G01X1011343Y1235743D02*
G03X1011343I-4100J0D01*
G01Y1248743D02*
Y1242743D01*
X1010243Y1241643D02*
G03X1011343Y1242743I-0J1100D01*
G01X1010243Y1241643D02*
X1004243D01*
X1003143Y1242743D02*
G03X1004243Y1241643I1100J-0D01*
G01X1003143Y1242743D02*
Y1248743D01*
X1004243Y1249843D02*
G03X1003143Y1248743I-0J-1100D01*
G01X1004243Y1249843D02*
X1010243D01*
X1011343Y1248743D02*
G03X1010243Y1249843I-1100J-0D01*
G01X1073403Y1092682D02*
G03X1073323Y1092410I420J-272D01*
G01Y1052798*
X1072706Y1051311D02*
G03X1073323Y1052798I-1483J1487D01*
G01X1072706Y1051311D02*
X1058370Y1037004D01*
G03X1058234Y1036754I353J-354*
G01X1055153Y1039841D02*
G03X1058234Y1036754I538J-2543D01*
G01X1055153Y1039841D02*
G03X1055403Y1039977I-103J490D01*
G01X1068976Y1053522*
G03X1069123Y1053876I-353J354*
G01Y1092410*
G03X1069042Y1092682I-500J-0*
G01X1068623Y1094098D02*
G03X1069042Y1092682I2600J-0D01*
G01X1073403D02*
G03X1068623Y1094098I-2180J1416D01*
G01X1104742Y1180241D02*
X1111143D01*
X1105553Y1179341D02*
X1111143D01*
X1106157Y1178441D02*
X1111143D01*
X1106526Y1177541D02*
X1111143D01*
X1106712Y1176641D02*
X1111143D01*
X1106734Y1175741D02*
X1111143D01*
X1106595Y1174841D02*
X1111143D01*
X1106281Y1173941D02*
X1111143D01*
X1105751Y1173041D02*
X1111143D01*
X1104902Y1172141D02*
X1111143D01*
X1103299Y1171241D02*
X1111143D01*
X1078407Y1170341D02*
X1111143D01*
X1079307Y1169441D02*
X1111143D01*
X1080207Y1168541D02*
X1111143D01*
X1081107Y1167641D02*
X1111143D01*
X1082007Y1166741D02*
X1111143D01*
X1082907Y1165841D02*
X1111143D01*
X1083807Y1164941D02*
X1111143D01*
X1084707Y1164041D02*
X1111143D01*
X1085607Y1163141D02*
X1111143D01*
X1086507Y1162241D02*
X1111143D01*
X1087407Y1161341D02*
X1111143D01*
X1088307Y1160441D02*
X1111143D01*
X1089207Y1159541D02*
X1111143D01*
X1090107Y1158641D02*
X1111143D01*
X1091007Y1157741D02*
X1111143D01*
X1091907Y1156841D02*
X1111143D01*
X1092807Y1155941D02*
X1111143D01*
X1093707Y1155041D02*
X1111143D01*
X1094253Y1154141D02*
X1111143D01*
X1094291Y1153241D02*
X1111143D01*
X1094291Y1152341D02*
X1111143D01*
X1094291Y1151441D02*
X1111143D01*
X1094291Y1150541D02*
X1111143D01*
X1094291Y1149641D02*
X1111143D01*
X1094291Y1148741D02*
X1111143D01*
X1094291Y1147841D02*
X1111143D01*
X1094291Y1146941D02*
X1111143D01*
X1094655Y1146041D02*
X1111143D01*
X1094786Y1145141D02*
X1111143D01*
X1094506Y1144241D02*
X1111143D01*
X1094291Y1143341D02*
X1111143D01*
X1094291Y1142441D02*
X1111143D01*
X1094291Y1141541D02*
X1111143D01*
X1094291Y1140641D02*
X1111143D01*
X1094291Y1139741D02*
X1111143D01*
X1094291Y1138841D02*
X1111143D01*
X1094291Y1137941D02*
X1111143D01*
X1094291Y1137041D02*
X1111143D01*
X1094171Y1136141D02*
X1111143D01*
X1093444Y1135241D02*
X1111143D01*
X1092544Y1134341D02*
X1111143D01*
X1091644Y1133441D02*
X1111143D01*
X1090744Y1132541D02*
X1111143D01*
X1089844Y1131641D02*
X1111143D01*
X1088944Y1130741D02*
X1111143D01*
X1088044Y1129841D02*
X1111143D01*
X1087144Y1128941D02*
X1111143D01*
X1086293Y1128041D02*
X1111143D01*
X1087589Y1127141D02*
X1111143D01*
X1088539Y1126241D02*
X1111143D01*
X1088789Y1125341D02*
X1111143D01*
X1088633Y1124441D02*
X1111143D01*
X1087923Y1123541D02*
X1111143D01*
X1076860Y1122641D02*
X1111143D01*
X1076609Y1121741D02*
X1111143D01*
X1075654Y1120841D02*
X1111143D01*
X1043343Y1119941D02*
X1111143D01*
X1043343Y1119041D02*
X1111143D01*
X1043343Y1118141D02*
X1111143D01*
X1043343Y1117241D02*
X1111143D01*
X1043343Y1116341D02*
X1111143D01*
X1043343Y1115441D02*
X1111143D01*
X1043343Y1114541D02*
X1111143D01*
X1043343Y1113641D02*
X1111143D01*
X1043343Y1112741D02*
X1111143D01*
X1043343Y1111841D02*
X1111143D01*
X1043343Y1110941D02*
X1111143D01*
X1043343Y1110041D02*
X1111143D01*
X1043343Y1109141D02*
X1111143D01*
X1043343Y1108241D02*
X1111143D01*
X1043343Y1107341D02*
X1111143D01*
X1067542Y1106441D02*
X1111143D01*
X1068106Y1105541D02*
X1111143D01*
X1069815Y1104641D02*
X1111143D01*
X1070552Y1103741D02*
X1111143D01*
X1070721Y1102841D02*
X1111143D01*
X1070485Y1101941D02*
X1111143D01*
X1069576Y1101041D02*
X1111143D01*
X1068114Y1100141D02*
X1111143D01*
X1067214Y1099241D02*
X1111143D01*
X1066723Y1098341D02*
X1111143D01*
X1066723Y1097441D02*
X1111143D01*
X1072111Y1096541D02*
X1111143D01*
X1073315Y1095641D02*
X1111143D01*
X1073742Y1094741D02*
X1111143D01*
X1073810Y1093841D02*
X1111143D01*
X1073551Y1092941D02*
X1111143D01*
X1073323Y1092041D02*
X1111143D01*
X1073323Y1091141D02*
X1111143D01*
X1073323Y1090241D02*
X1111143D01*
X1073323Y1089341D02*
X1111143D01*
X1073323Y1088441D02*
X1111143D01*
X1073323Y1087541D02*
X1111143D01*
X1073323Y1086641D02*
X1111143D01*
X1073323Y1085741D02*
X1111143D01*
X1073323Y1084841D02*
X1111143D01*
X1073323Y1083941D02*
X1111143D01*
X1073323Y1083041D02*
X1111143D01*
X1073323Y1082141D02*
X1111143D01*
X1073323Y1081241D02*
X1111143D01*
X1073323Y1080341D02*
X1111143D01*
X1073323Y1079441D02*
X1111143D01*
X1073323Y1078541D02*
X1111143D01*
X1073323Y1077641D02*
X1111143D01*
X1073323Y1076741D02*
X1111143D01*
X1073323Y1075841D02*
X1111143D01*
X1073323Y1074941D02*
X1111143D01*
X1073323Y1074041D02*
X1111143D01*
X1073323Y1073141D02*
X1111143D01*
X1073323Y1072241D02*
X1111143D01*
X1073323Y1071341D02*
X1111143D01*
X1073323Y1070441D02*
X1111143D01*
X1073323Y1069541D02*
X1111143D01*
X1073323Y1068641D02*
X1111143D01*
X1073323Y1067741D02*
X1111143D01*
X1073323Y1066841D02*
X1111143D01*
X1073323Y1065941D02*
X1111143D01*
X1073323Y1065041D02*
X1111143D01*
X1073323Y1064141D02*
X1111143D01*
X1073323Y1063241D02*
X1111143D01*
X1073323Y1062341D02*
X1111143D01*
X1073323Y1061441D02*
X1111143D01*
X1073323Y1060541D02*
X1111143D01*
X1073323Y1059641D02*
X1111143D01*
X1073323Y1058741D02*
X1111143D01*
X1073323Y1057841D02*
X1111143D01*
X1073323Y1056941D02*
X1111143D01*
X1073323Y1056041D02*
X1111143D01*
X1073323Y1055141D02*
X1111143D01*
X1073323Y1054241D02*
X1111143D01*
X1073323Y1053341D02*
X1111143D01*
X1073292Y1052441D02*
X1111143D01*
X1072905Y1051541D02*
X1111143D01*
X1072035Y1050641D02*
X1111143D01*
X1071133Y1049741D02*
X1111143D01*
X1070231Y1048841D02*
X1111143D01*
X1069329Y1047941D02*
X1111143D01*
X1068428Y1047041D02*
X1111143D01*
X1067526Y1046141D02*
X1111143D01*
X1066624Y1045241D02*
X1111143D01*
X1065722Y1044341D02*
X1111143D01*
X1064820Y1043441D02*
X1111143D01*
X1063918Y1042541D02*
X1111143D01*
X1063017Y1041641D02*
X1111143D01*
X1062115Y1040741D02*
X1111143D01*
X1061213Y1039841D02*
X1111143D01*
X1060311Y1038941D02*
X1111143D01*
X1059409Y1038041D02*
X1111143D01*
X1058508Y1037141D02*
X1111143D01*
X1058067Y1036241D02*
X1111143D01*
X1057404Y1035341D02*
X1111143D01*
X1092876Y1034441D02*
X1111143D01*
X1093315Y1033541D02*
X1111143D01*
X1093312Y1032641D02*
X1111143D01*
X1092895Y1031741D02*
X1111143D01*
X1092862Y1030841D02*
X1111143D01*
X1092862Y1029941D02*
X1111143D01*
X1092862Y1029041D02*
X1111143D01*
X1092862Y1028141D02*
X1111143D01*
X1092862Y1027241D02*
X1111143D01*
X1092862Y1026341D02*
X1111143D01*
X1092862Y1025441D02*
X1111143D01*
X1092862Y1024541D02*
X1111143D01*
X1092862Y1023641D02*
X1111143D01*
X1092862Y1022741D02*
X1111143D01*
X1092862Y1021841D02*
X1111143D01*
X1092862Y1020941D02*
X1111143D01*
X1092862Y1020041D02*
X1111143D01*
X1092862Y1019141D02*
X1111143D01*
X1092862Y1018241D02*
X1111143D01*
X1092862Y1017341D02*
X1111143D01*
X1092862Y1016441D02*
X1111143D01*
X1092691Y1015541D02*
X1111143D01*
X1091904Y1014641D02*
X1111143D01*
X1091004Y1013741D02*
X1111143D01*
X1090104Y1012841D02*
X1111143D01*
X1089204Y1011941D02*
X1111143D01*
X1088304Y1011041D02*
X1111143D01*
X1087404Y1010141D02*
X1111143D01*
X1086503Y1009241D02*
X1111143D01*
X1020559Y1008341D02*
X1111143D01*
X1020974Y1007441D02*
X1111143D01*
X1021264Y1006541D02*
X1111143D01*
X1021341Y1005641D02*
X1111143D01*
X1021219Y1004741D02*
X1111143D01*
X1105278Y1237841D02*
X1111143D01*
X1105984Y1238741D02*
X1111143D01*
X1106424Y1239641D02*
X1111143D01*
X1106668Y1240541D02*
X1111143D01*
X1106744Y1241441D02*
X1111142D01*
X1106660Y1242341D02*
X1111142D01*
X1106408Y1243241D02*
X1111142D01*
X1105957Y1244141D02*
X1111142D01*
X1105235Y1245041D02*
X1111142D01*
X1104003Y1245941D02*
X1111142D01*
X1021193Y1246841D02*
X1111142D01*
X1020875Y1003841D02*
X1111126D01*
X1020822Y1247741D02*
X1111117D01*
X1104756Y1236941D02*
X1111112D01*
X1020236Y1002941D02*
X1110967D01*
X1020142Y1248641D02*
X1110938D01*
X1019006Y1002041D02*
X1110620D01*
X1018785Y1249541D02*
X1110570D01*
X1000449Y1001141D02*
X1110036D01*
X1000531Y1250441D02*
X1109954D01*
X1001414Y1000241D02*
X1109071D01*
X1001557Y1251341D02*
X1108928D01*
X1077507Y1171241D02*
X1095990D01*
X1021338Y1245941D02*
X1095285D01*
X1075050Y1180241D02*
X1094546D01*
X1075865Y1236941D02*
X1094532D01*
X1076607Y1172141D02*
X1094387D01*
X1021282Y1245041D02*
X1094053D01*
X1020765Y1237841D02*
X1094010D01*
X1069407Y1179341D02*
X1093735D01*
X1075707Y1173041D02*
X1093538D01*
X1021017Y1244141D02*
X1093331D01*
X1020039Y1238741D02*
X1093304D01*
X1070307Y1178441D02*
X1093131D01*
X1074807Y1173941D02*
X1093008D01*
X1020491Y1243241D02*
X1092881D01*
X1018512Y1239641D02*
X1092864D01*
X1071207Y1177541D02*
X1092762D01*
X1073907Y1174841D02*
X1092693D01*
X1019532Y1242341D02*
X1092628D01*
X999343Y1240541D02*
X1092620D01*
X1072107Y1176641D02*
X1092577D01*
X1073007Y1175741D02*
X1092555D01*
X999343Y1241441D02*
X1092544D01*
X1024291Y1030841D02*
X1089662D01*
X1024291Y1029941D02*
X1089662D01*
X1024291Y1029041D02*
X1089662D01*
X1024291Y1028141D02*
X1089662D01*
X1024291Y1027241D02*
X1089662D01*
X1024291Y1026341D02*
X1089662D01*
X1024291Y1025441D02*
X1089662D01*
X1024291Y1024541D02*
X1089662D01*
X1024291Y1023641D02*
X1089662D01*
X1024227Y1022741D02*
X1089662D01*
X1023604Y1021841D02*
X1089662D01*
X1022704Y1020941D02*
X1089662D01*
X1021804Y1020041D02*
X1089662D01*
X1020512Y1019141D02*
X1089662D01*
X1020493Y1018241D02*
X1089662D01*
X1021018Y1017341D02*
X1089662D01*
X1024291Y1034441D02*
X1089649D01*
X1024291Y1031741D02*
X1089630D01*
X1024291Y1032641D02*
X1089212D01*
X1024291Y1033541D02*
X1089210D01*
X1021283Y1016441D02*
X1089179D01*
X1021338Y1015541D02*
X1088279D01*
X1021192Y1014641D02*
X1087379D01*
X1020821Y1013741D02*
X1086479D01*
X1020141Y1012841D02*
X1085579D01*
X1077030Y1123541D02*
X1085460D01*
X1076841Y1181141D02*
X1084412D01*
X1077196Y1236041D02*
X1083559D01*
X1077744Y1182041D02*
X1082448D01*
X1077964Y1235141D02*
X1082023D01*
X1078310Y1182941D02*
X1081342D01*
X1078448Y1234241D02*
X1081055D01*
X1078655Y1183841D02*
X1080577D01*
X1078730Y1233341D02*
X1080373D01*
X1078823Y1184741D02*
X1080030D01*
X1078843Y1232441D02*
X1079884D01*
X1059274Y1120841D02*
X1073871D01*
X1068507Y1180241D02*
X1072270D01*
X1063107Y1190141D02*
X1071924D01*
X1062207Y1191041D02*
X1071774D01*
X1021164Y1236941D02*
X1071454D01*
X1069614Y1227041D02*
X1070871D01*
X1057307Y1227941D02*
X1070767D01*
X1067607Y1181141D02*
X1070479D01*
X1063993Y1189241D02*
X1070361D01*
X1066723Y1096541D02*
X1070334D01*
X1021332Y1236041D02*
X1070124D01*
X1056407Y1228841D02*
X1069747D01*
X1066707Y1182041D02*
X1069576D01*
X1064340Y1188341D02*
X1069503D01*
X1021298Y1235141D02*
X1069356D01*
X1066723Y1095641D02*
X1069130D01*
X1066723Y1092041D02*
X1069123D01*
X1066723Y1091141D02*
X1069123D01*
X1066723Y1090241D02*
X1069123D01*
X1066723Y1089341D02*
X1069123D01*
X1066723Y1088441D02*
X1069123D01*
X1066723Y1087541D02*
X1069123D01*
X1066723Y1086641D02*
X1069123D01*
X1066723Y1085741D02*
X1069123D01*
X1066723Y1084841D02*
X1069123D01*
X1066723Y1083941D02*
X1069123D01*
X1066723Y1083041D02*
X1069123D01*
X1066723Y1082141D02*
X1069123D01*
X1066723Y1081241D02*
X1069123D01*
X1066723Y1080341D02*
X1069123D01*
X1066723Y1079441D02*
X1069123D01*
X1066723Y1078541D02*
X1069123D01*
X1066723Y1077641D02*
X1069123D01*
X1066723Y1076741D02*
X1069123D01*
X1066723Y1075841D02*
X1069123D01*
X1066723Y1074941D02*
X1069123D01*
X1066723Y1074041D02*
X1069123D01*
X1066723Y1073141D02*
X1069123D01*
X1066723Y1072241D02*
X1069123D01*
X1066723Y1071341D02*
X1069123D01*
X1066723Y1070441D02*
X1069123D01*
X1066723Y1069541D02*
X1069123D01*
X1066723Y1068641D02*
X1069123D01*
X1066723Y1067741D02*
X1069123D01*
X1066723Y1066841D02*
X1069123D01*
X1066723Y1065941D02*
X1069123D01*
X1066723Y1065041D02*
X1069123D01*
X1066723Y1064141D02*
X1069123D01*
X1066723Y1063241D02*
X1069123D01*
X1066519Y1062341D02*
X1069123D01*
X1065704Y1061441D02*
X1069123D01*
X1064804Y1060541D02*
X1069123D01*
X1063904Y1059641D02*
X1069123D01*
X1063004Y1058741D02*
X1069123D01*
X1062104Y1057841D02*
X1069123D01*
X1060392Y1056941D02*
X1069123D01*
X1060482Y1056041D02*
X1069123D01*
X1060265Y1055141D02*
X1069123D01*
X1059410Y1054241D02*
X1069123D01*
X1055517Y1229741D02*
X1069118D01*
X1065807Y1182941D02*
X1069009D01*
X1064343Y1187441D02*
X1068964D01*
X1066723Y1092941D02*
X1068894D01*
X1021058Y1234241D02*
X1068872D01*
X1036104Y1053341D02*
X1068794D01*
X1055427Y1230641D02*
X1068728D01*
X1066723Y1094741D02*
X1068704D01*
X1064907Y1183841D02*
X1068665D01*
X1064343Y1186541D02*
X1068639D01*
X1066723Y1093841D02*
X1068635D01*
X1020566Y1233341D02*
X1068590D01*
X1055123Y1231541D02*
X1068521D01*
X1064343Y1184741D02*
X1068497D01*
X1064343Y1185641D02*
X1068489D01*
X1019674Y1232441D02*
X1068477D01*
X1035204Y1052441D02*
X1067893D01*
X1059811Y1160441D02*
X1067091D01*
X1060711Y1159541D02*
X1067091D01*
X1061611Y1158641D02*
X1067091D01*
X1062511Y1157741D02*
X1067091D01*
X1063411Y1156841D02*
X1067091D01*
X1064156Y1155941D02*
X1067091D01*
X1064291Y1155041D02*
X1067091D01*
X1064291Y1154141D02*
X1067091D01*
X1064291Y1153241D02*
X1067091D01*
X1064291Y1152341D02*
X1067091D01*
X1064291Y1151441D02*
X1067091D01*
X1064291Y1150541D02*
X1067091D01*
X1064291Y1149641D02*
X1067091D01*
X1064291Y1148741D02*
X1067091D01*
X1064291Y1147841D02*
X1067091D01*
X1064291Y1146941D02*
X1067091D01*
X1063455Y1143341D02*
X1067091D01*
X1058291Y1142441D02*
X1067091D01*
X1058291Y1141541D02*
X1067091D01*
X1058291Y1140641D02*
X1067091D01*
X1058291Y1139741D02*
X1067091D01*
X1058291Y1138841D02*
X1067091D01*
X1058291Y1137941D02*
X1067091D01*
X1034304Y1051541D02*
X1066991D01*
X1055274Y1161341D02*
X1066881D01*
X1064506Y1144241D02*
X1066876D01*
X1064655Y1146041D02*
X1066727D01*
X1058291Y1137041D02*
X1066719D01*
X1064786Y1145141D02*
X1066597D01*
X1033404Y1050641D02*
X1066089D01*
X1019376Y1162241D02*
X1065981D01*
X1058291Y1136141D02*
X1065819D01*
X1032504Y1049741D02*
X1065187D01*
X1020412Y1163141D02*
X1065081D01*
X1059843Y1206341D02*
X1064919D01*
X1058272Y1135241D02*
X1064919D01*
X1059843Y1207241D02*
X1064747D01*
X1062542Y1106441D02*
X1064663D01*
X1057815Y1227041D02*
X1064471D01*
X1031604Y1048841D02*
X1064285D01*
X1055206Y1164041D02*
X1064181D01*
X1061843Y1191941D02*
X1064118D01*
X1063106Y1105541D02*
X1064099D01*
X1059843Y1205441D02*
X1064078D01*
X1059843Y1208141D02*
X1064047D01*
X1057803Y1134341D02*
X1064019D01*
X1057843Y1226141D02*
X1064006D01*
X1057843Y1225241D02*
X1063966D01*
X1030704Y1047941D02*
X1063384D01*
X1061843Y1192841D02*
X1063351D01*
X1055427Y1164941D02*
X1063281D01*
X1059848Y1204541D02*
X1063159D01*
X1057713Y1133441D02*
X1063111D01*
X1057843Y1220741D02*
X1063081D01*
X1059843Y1212641D02*
X1063071D01*
X1059843Y1209041D02*
X1063012D01*
X1057843Y1217141D02*
X1062884D01*
X1057843Y1224341D02*
X1062881D01*
X1058507Y1216241D02*
X1062772D01*
X1059843Y1213541D02*
X1062520D01*
X1029804Y1047041D02*
X1062482D01*
X1057843Y1221641D02*
X1062455D01*
X1057843Y1219841D02*
X1062453D01*
X1059843Y1211741D02*
X1062395D01*
X1055427Y1165841D02*
X1062381D01*
X1060607Y1203641D02*
X1062345D01*
X1059843Y1209941D02*
X1062302D01*
X1057843Y1218041D02*
X1062263D01*
X1057843Y1223441D02*
X1062262D01*
X1059406Y1215341D02*
X1062230D01*
X1059830Y1214441D02*
X1062164D01*
X1057843Y1222541D02*
X1062152D01*
X1057843Y1218941D02*
X1062152D01*
X1059843Y1210841D02*
X1062145D01*
X1058291Y1143341D02*
X1061928D01*
X1028904Y1046141D02*
X1061580D01*
X1055427Y1166741D02*
X1061481D01*
X1055038Y1154141D02*
X1061091D01*
X1055427Y1153241D02*
X1061091D01*
X1055427Y1152341D02*
X1061091D01*
X1055427Y1151441D02*
X1061091D01*
X1055415Y1150541D02*
X1061091D01*
X1054616Y1149641D02*
X1061091D01*
X1020039Y1148741D02*
X1061091D01*
X1054625Y1147841D02*
X1061091D01*
X1057999Y1146941D02*
X1061091D01*
X1058506Y1144241D02*
X1060876D01*
X1058655Y1146041D02*
X1060727D01*
X1047159Y1155041D02*
X1060685D01*
X1028004Y1045241D02*
X1060678D01*
X1058786Y1145141D02*
X1060597D01*
X1055373Y1167641D02*
X1060581D01*
X1047159Y1155941D02*
X1059785D01*
X1027104Y1044341D02*
X1059776D01*
X1047187Y1168541D02*
X1059681D01*
X1043415Y1106441D02*
X1059663D01*
X1047028Y1102841D02*
X1059503D01*
X1047937Y1101941D02*
X1059503D01*
X1048845Y1101041D02*
X1059503D01*
X1049753Y1100141D02*
X1059503D01*
X1050662Y1099241D02*
X1059503D01*
X1051570Y1098341D02*
X1059503D01*
X1052479Y1097441D02*
X1059503D01*
X1053418Y1096541D02*
X1059503D01*
X1054966Y1095641D02*
X1059503D01*
X1055337Y1094741D02*
X1059503D01*
X1055283Y1093841D02*
X1059503D01*
X1054761Y1092941D02*
X1059503D01*
X1053964Y1092041D02*
X1059503D01*
X1054717Y1091141D02*
X1059503D01*
X1055310Y1090241D02*
X1059503D01*
X1055363Y1089341D02*
X1059503D01*
X1055363Y1088441D02*
X1059503D01*
X1055363Y1087541D02*
X1059503D01*
X1055363Y1086641D02*
X1059503D01*
X1055363Y1085741D02*
X1059503D01*
X1055363Y1084841D02*
X1059503D01*
X1055363Y1083941D02*
X1059503D01*
X1055363Y1083041D02*
X1059503D01*
X1055363Y1082141D02*
X1059503D01*
X1055363Y1081241D02*
X1059503D01*
X1055363Y1080341D02*
X1059503D01*
X1055363Y1079441D02*
X1059503D01*
X1055363Y1078541D02*
X1059503D01*
X1055363Y1077641D02*
X1059503D01*
X1055328Y1076741D02*
X1059503D01*
X1054793Y1075841D02*
X1059503D01*
X1053886Y1074941D02*
X1059503D01*
X1053274Y1074041D02*
X1059503D01*
X1052779Y1073141D02*
X1059503D01*
X1033007Y1072241D02*
X1059503D01*
X1033907Y1071341D02*
X1059503D01*
X1034807Y1070441D02*
X1059503D01*
X1035707Y1069541D02*
X1059503D01*
X1056880Y1068641D02*
X1059503D01*
X1057830Y1067741D02*
X1059503D01*
X1058080Y1066841D02*
X1059503D01*
X1057983Y1065941D02*
X1059498D01*
X1046120Y1103741D02*
X1059360D01*
X1044303Y1105541D02*
X1059099D01*
X1045211Y1104641D02*
X1059020D01*
X1047163Y1156841D02*
X1058885D01*
X1026204Y1043441D02*
X1058875D01*
X1047159Y1169441D02*
X1058781D01*
X1055364Y1157741D02*
X1057985D01*
X1025304Y1042541D02*
X1057973D01*
X1047159Y1170341D02*
X1057881D01*
X1043343Y1120841D02*
X1057491D01*
X1037004Y1054241D02*
X1057355D01*
X1024407Y1041641D02*
X1057071D01*
X1054896Y1171241D02*
X1056981D01*
X1043343Y1121741D02*
X1056537D01*
X1054866Y1175741D02*
X1056407D01*
X1043594Y1122641D02*
X1056285D01*
X1024291Y1040741D02*
X1056169D01*
X1049414Y1123541D02*
X1056115D01*
X1021243Y1176641D02*
X1055581D01*
X1024291Y1039841D02*
X1055153D01*
X1036607Y1068641D02*
X1055085D01*
X1020927Y1177541D02*
X1054727D01*
X1019807Y1218941D02*
X1054643D01*
X1021163Y1204541D02*
X1054643D01*
X1003343Y1191041D02*
X1054643D01*
X1003343Y1190141D02*
X1054581D01*
X1021332Y1205441D02*
X1054510D01*
X1020638Y1218041D02*
X1054508D01*
X1024291Y1035341D02*
X1053979D01*
X1024291Y1038941D02*
X1053677D01*
X1024291Y1036241D02*
X1053316D01*
X1024291Y1038041D02*
X1053200D01*
X1024291Y1037141D02*
X1053096D01*
X1021343Y1085741D02*
X1052163D01*
X1021242Y1084841D02*
X1052163D01*
X1021307Y1083941D02*
X1052163D01*
X1022207Y1083041D02*
X1052163D01*
X1023107Y1082141D02*
X1052163D01*
X1024007Y1081241D02*
X1052163D01*
X1024907Y1080341D02*
X1052163D01*
X1025807Y1079441D02*
X1052163D01*
X1026707Y1078541D02*
X1052163D01*
X1027607Y1077641D02*
X1052058D01*
X1050858Y1086641D02*
X1052048D01*
X1028507Y1076741D02*
X1051150D01*
X1045858Y1086641D02*
X1050525D01*
X1032107Y1073141D02*
X1049706D01*
X1029407Y1075841D02*
X1049569D01*
X1031207Y1074041D02*
X1049211D01*
X1030307Y1074941D02*
X1049175D01*
X1047419Y1087541D02*
X1048964D01*
X1047921Y1088441D02*
X1048462D01*
X1031348Y1149641D02*
X1048137D01*
X1031357Y1147841D02*
X1048128D01*
X1031598Y1175741D02*
X1047887D01*
X1047468Y1171241D02*
X1047849D01*
X1031743Y1219841D02*
X1047742D01*
X1031746Y1203641D02*
X1047739D01*
X1031853Y1191941D02*
X1047633D01*
X1031855Y1231541D02*
X1047630D01*
X1031938Y1164041D02*
X1047548D01*
X1032005Y1136141D02*
X1047481D01*
X1032006Y1161341D02*
X1047479D01*
X1032058Y1189241D02*
X1047427D01*
X1032098Y1206341D02*
X1047388D01*
X1032099Y1217141D02*
X1047387D01*
X1032127Y1178441D02*
X1047358D01*
X1032147Y1150541D02*
X1047339D01*
X1032147Y1146941D02*
X1047338D01*
X1032157Y1174841D02*
X1047328D01*
X1032159Y1230641D02*
X1047327D01*
X1032159Y1229741D02*
X1047327D01*
X1032159Y1228841D02*
X1047327D01*
X1032159Y1222541D02*
X1047327D01*
X1032159Y1221641D02*
X1047327D01*
X1032159Y1220741D02*
X1047327D01*
X1032159Y1216241D02*
X1047327D01*
X1032159Y1215341D02*
X1047327D01*
X1032159Y1208141D02*
X1047327D01*
X1032159Y1207241D02*
X1047327D01*
X1032159Y1202741D02*
X1047327D01*
X1032159Y1201841D02*
X1047327D01*
X1032159Y1200941D02*
X1047327D01*
X1032159Y1194641D02*
X1047327D01*
X1032159Y1193741D02*
X1047327D01*
X1032159Y1192841D02*
X1047327D01*
X1032159Y1188341D02*
X1047327D01*
X1032159Y1187441D02*
X1047327D01*
X1032159Y1186541D02*
X1047327D01*
X1032159Y1180241D02*
X1047327D01*
X1032159Y1179341D02*
X1047327D01*
X1032159Y1173941D02*
X1047327D01*
X1032159Y1173041D02*
X1047327D01*
X1032159Y1166741D02*
X1047327D01*
X1032159Y1165841D02*
X1047327D01*
X1032159Y1164941D02*
X1047327D01*
X1032159Y1160441D02*
X1047327D01*
X1032159Y1159541D02*
X1047327D01*
X1032159Y1158641D02*
X1047327D01*
X1032159Y1152341D02*
X1047327D01*
X1032159Y1151441D02*
X1047327D01*
X1032159Y1146041D02*
X1047327D01*
X1032159Y1145141D02*
X1047327D01*
X1032159Y1138841D02*
X1047327D01*
X1032159Y1137941D02*
X1047327D01*
X1032159Y1137041D02*
X1047327D01*
X1032159Y1209041D02*
X1047327D01*
X1032159Y1214441D02*
X1047327D01*
X1032169Y1181141D02*
X1047316D01*
X1032201Y1153241D02*
X1047284D01*
X1032203Y1144241D02*
X1047283D01*
X1046112Y1172141D02*
X1047223D01*
X1046514Y1223441D02*
X1047123D01*
X1046520Y1200041D02*
X1047120D01*
X1044494Y1123541D02*
X1046952D01*
X1045394Y1124441D02*
X1046232D01*
X1021243Y1086641D02*
X1045525D01*
X1020927Y1087541D02*
X1043964D01*
X1020329Y1088441D02*
X1043611D01*
X1019207Y1089341D02*
X1042822D01*
X1021312Y1135241D02*
X1042682D01*
X1003343Y1090241D02*
X1041922D01*
X1021096Y1134341D02*
X1041579D01*
X1003343Y1091141D02*
X1041022D01*
X1020636Y1133441D02*
X1040679D01*
X1019006Y1092041D02*
X1040122D01*
X1039380Y1172141D02*
X1040105D01*
X1019804Y1132541D02*
X1039779D01*
X1020236Y1092941D02*
X1039222D01*
X1003343Y1131641D02*
X1038879D01*
X1020875Y1093841D02*
X1038322D01*
X1003343Y1130741D02*
X1037979D01*
X1021219Y1094741D02*
X1037422D01*
X1017346Y1129841D02*
X1037079D01*
X1021341Y1095641D02*
X1036522D01*
X1019807Y1128941D02*
X1036179D01*
X1021264Y1096541D02*
X1035622D01*
X1020638Y1128041D02*
X1035279D01*
X1020974Y1097441D02*
X1034722D01*
X1021097Y1127141D02*
X1034419D01*
X1019532Y1062341D02*
X1034378D01*
X1020414Y1098341D02*
X1034180D01*
X1021312Y1126241D02*
X1034143D01*
X1021323Y1125341D02*
X1034143D01*
X1021131Y1124441D02*
X1034143D01*
X1020702Y1123541D02*
X1034143D01*
X1019924Y1122641D02*
X1034143D01*
X1018137Y1121741D02*
X1034143D01*
X1003343Y1120841D02*
X1034143D01*
X1003343Y1119941D02*
X1034143D01*
X1019678Y1119041D02*
X1034143D01*
X1020568Y1118141D02*
X1034143D01*
X1021059Y1117241D02*
X1034143D01*
X1021299Y1116341D02*
X1034143D01*
X1021332Y1115441D02*
X1034143D01*
X1021163Y1114541D02*
X1034143D01*
X1020763Y1113641D02*
X1034143D01*
X1020036Y1112741D02*
X1034143D01*
X1018504Y1111841D02*
X1034143D01*
X1003343Y1110941D02*
X1034143D01*
X1003343Y1110041D02*
X1034143D01*
X1019536Y1109141D02*
X1034143D01*
X1020493Y1108241D02*
X1034143D01*
X1021018Y1107341D02*
X1034143D01*
X1021283Y1106441D02*
X1034143D01*
X1021338Y1105541D02*
X1034143D01*
X1021192Y1104641D02*
X1034143D01*
X1020821Y1103741D02*
X1034143D01*
X1020140Y1102841D02*
X1034143D01*
X1018779Y1101941D02*
X1034143D01*
X1003343Y1101041D02*
X1034143D01*
X1003343Y1100141D02*
X1034143D01*
X1019380Y1099241D02*
X1034143D01*
X1020491Y1063241D02*
X1033981D01*
X1003343Y1061441D02*
X1033509D01*
X1032262Y1172141D02*
X1033373D01*
X1021017Y1064141D02*
X1033081D01*
X1032362Y1223441D02*
X1032971D01*
X1032365Y1200041D02*
X1032966D01*
X1003343Y1060541D02*
X1032609D01*
X1021323Y1226141D02*
X1032327D01*
X1021312Y1225241D02*
X1032327D01*
X1019924Y1212641D02*
X1032327D01*
X1018137Y1211741D02*
X1032327D01*
X1005311Y1210841D02*
X1032327D01*
X1020493Y1198241D02*
X1032327D01*
X1021018Y1197341D02*
X1032327D01*
X1021219Y1184741D02*
X1032327D01*
X1020875Y1183841D02*
X1032327D01*
X1020236Y1182941D02*
X1032327D01*
X1003343Y1170341D02*
X1032327D01*
X1019012Y1169441D02*
X1032327D01*
X1021338Y1155941D02*
X1032327D01*
X1021282Y1155041D02*
X1032327D01*
X1019674Y1142441D02*
X1032327D01*
X1003343Y1141541D02*
X1032327D01*
X1021193Y1156841D02*
X1032323D01*
X1003343Y1140641D02*
X1032322D01*
X1020239Y1168541D02*
X1032299D01*
X1021132Y1227041D02*
X1032252D01*
X1021283Y1196441D02*
X1032251D01*
X1021282Y1065041D02*
X1032181D01*
X1031413Y1199141D02*
X1032171D01*
X1031421Y1224341D02*
X1032168D01*
X1031636Y1171241D02*
X1032017D01*
X1018512Y1059641D02*
X1031709D01*
X1021338Y1065941D02*
X1031281D01*
X1020039Y1058741D02*
X1030809D01*
X1021193Y1066841D02*
X1030381D01*
X1020765Y1057841D02*
X1029909D01*
X1020822Y1067741D02*
X1029481D01*
X1021164Y1056941D02*
X1029009D01*
X1020142Y1068641D02*
X1028581D01*
X1021332Y1056041D02*
X1028109D01*
X1018785Y1069541D02*
X1027681D01*
X1021298Y1055141D02*
X1027209D01*
X1003343Y1070441D02*
X1026781D01*
X1021058Y1054241D02*
X1026309D01*
X1003343Y1071341D02*
X1025881D01*
X1020566Y1053341D02*
X1025409D01*
X1019376Y1072241D02*
X1024981D01*
X1018512Y1149641D02*
X1024869D01*
X1020765Y1147841D02*
X1024860D01*
X1019536Y1199141D02*
X1024804D01*
X1021096Y1224341D02*
X1024797D01*
X1021343Y1175741D02*
X1024619D01*
X1003343Y1171241D02*
X1024589D01*
X1020515Y1052441D02*
X1024501D01*
X1017346Y1219841D02*
X1024474D01*
X1020763Y1203641D02*
X1024471D01*
X1020566Y1143341D02*
X1024450D01*
X1021017Y1154141D02*
X1024447D01*
X1018779Y1191941D02*
X1024365D01*
X999343Y1231541D02*
X1024362D01*
X1019006Y1182041D02*
X1024344D01*
X1020973Y1164041D02*
X1024280D01*
X1020702Y1213541D02*
X1024265D01*
X1004427Y1209941D02*
X1024263D01*
X1021323Y1136141D02*
X1024213D01*
X1003343Y1161341D02*
X1024211D01*
X1021341Y1185641D02*
X1024201D01*
X1019380Y1189241D02*
X1024159D01*
X1020822Y1157741D02*
X1024151D01*
X1018148Y1139741D02*
X1024150D01*
X1021299Y1206341D02*
X1024120D01*
X1021097Y1217141D02*
X1024119D01*
X1020877Y1167641D02*
X1024112D01*
X1020329Y1178441D02*
X1024090D01*
X1020703Y1227941D02*
X1024085D01*
X1021338Y1195541D02*
X1024085D01*
X1020412Y1073141D02*
X1024081D01*
X1003343Y1150541D02*
X1024071D01*
X1021164Y1146941D02*
X1024070D01*
X1003343Y1200041D02*
X1024068D01*
X1020636Y1223441D02*
X1024067D01*
X1021242Y1174841D02*
X1024060D01*
X1019202Y1172141D02*
X1024059D01*
X999343Y1230641D02*
X1024059D01*
X1018148Y1229741D02*
X1024059D01*
X1019927Y1228841D02*
X1024059D01*
X1019804Y1222541D02*
X1024059D01*
X1011343Y1221641D02*
X1024059D01*
X1011343Y1220741D02*
X1024059D01*
X1021312Y1216241D02*
X1024059D01*
X1021323Y1215341D02*
X1024059D01*
X1021131Y1214441D02*
X1024059D01*
X1019678Y1209041D02*
X1024059D01*
X1020568Y1208141D02*
X1024059D01*
X1021059Y1207241D02*
X1024059D01*
X1020036Y1202741D02*
X1024059D01*
X1018504Y1201841D02*
X1024059D01*
X1003343Y1200941D02*
X1024059D01*
X1021192Y1194641D02*
X1024059D01*
X1020821Y1193741D02*
X1024059D01*
X1020140Y1192841D02*
X1024059D01*
X1020414Y1188341D02*
X1024059D01*
X1020974Y1187441D02*
X1024059D01*
X1021264Y1186541D02*
X1024059D01*
X1003343Y1181141D02*
X1024059D01*
X1003343Y1180241D02*
X1024059D01*
X1019207Y1179341D02*
X1024059D01*
X1020926Y1173941D02*
X1024059D01*
X1020327Y1173041D02*
X1024059D01*
X1021219Y1166741D02*
X1024059D01*
X1021341Y1165841D02*
X1024059D01*
X1021264Y1164941D02*
X1024059D01*
X1003343Y1160441D02*
X1024059D01*
X1018785Y1159541D02*
X1024059D01*
X1020142Y1158641D02*
X1024059D01*
X1020491Y1153241D02*
X1024059D01*
X1019532Y1152341D02*
X1024059D01*
X1003343Y1151441D02*
X1024059D01*
X1021332Y1146041D02*
X1024059D01*
X1021298Y1145141D02*
X1024059D01*
X1021058Y1144241D02*
X1024059D01*
X1019927Y1138841D02*
X1024059D01*
X1020703Y1137941D02*
X1024059D01*
X1021132Y1137041D02*
X1024059D01*
X1021034Y1074041D02*
X1023174D01*
X1020877Y1077641D02*
X1022630D01*
X1020239Y1078541D02*
X1022181D01*
X1019012Y1079441D02*
X1021281D01*
X1003343Y1080341D02*
X1020381D01*
X1003343Y1081241D02*
X1019481D01*
X1011343Y1219841D02*
X1017139D01*
X1007346Y1129841D02*
X1017139D01*
X1008137Y1211741D02*
X1016348D01*
X1008137Y1121741D02*
X1016348D01*
X1008148Y1229741D02*
X1016337D01*
X1008148Y1139741D02*
X1016337D01*
X1008504Y1201841D02*
X1015982D01*
X1008504Y1111841D02*
X1015982D01*
X1008512Y1059641D02*
X1015974D01*
X1008512Y1239641D02*
X1015974D01*
X1008512Y1149641D02*
X1015974D01*
X1008779Y1191941D02*
X1015706D01*
X1008779Y1101941D02*
X1015706D01*
X1010999Y1249541D02*
X1015700D01*
X1008785Y1159541D02*
X1015700D01*
X1008785Y1069541D02*
X1015700D01*
X1009006Y1182041D02*
X1015479D01*
X1009006Y1092041D02*
X1015479D01*
X1009006Y1002041D02*
X1015479D01*
X1009012Y1169441D02*
X1015474D01*
X1009012Y1079441D02*
X1015474D01*
X1009202Y1172141D02*
X1015283D01*
X1009202Y1082141D02*
X1015283D01*
X1009207Y1179341D02*
X1015278D01*
X1009207Y1089341D02*
X1015278D01*
X1009376Y1162241D02*
X1015109D01*
X1009376Y1072241D02*
X1015109D01*
X1009380Y1189241D02*
X1015105D01*
X1009380Y1099241D02*
X1015105D01*
X1011267Y1242341D02*
X1014953D01*
X1009532Y1152341D02*
X1014953D01*
X1009532Y1062341D02*
X1014953D01*
X1009536Y1199141D02*
X1014949D01*
X1009536Y1109141D02*
X1014949D01*
X1009674Y1232441D02*
X1014811D01*
X1009674Y1142441D02*
X1014811D01*
X1009678Y1209041D02*
X1014808D01*
X1009678Y1119041D02*
X1014808D01*
X1011343Y1222541D02*
X1014681D01*
X1009804Y1132541D02*
X1014681D01*
X1011343Y1218941D02*
X1014678D01*
X1009807Y1128941D02*
X1014678D01*
X1009924Y1212641D02*
X1014561D01*
X1009924Y1122641D02*
X1014561D01*
X1009927Y1228841D02*
X1014558D01*
X1009927Y1138841D02*
X1014558D01*
X1010036Y1202741D02*
X1014449D01*
X1010036Y1112741D02*
X1014449D01*
X1010039Y1058741D02*
X1014447D01*
X1010039Y1238741D02*
X1014447D01*
X1010039Y1148741D02*
X1014447D01*
X1010140Y1192841D02*
X1014346D01*
X1010140Y1102841D02*
X1014346D01*
X1011343Y1248641D02*
X1014343D01*
X1010142Y1158641D02*
X1014343D01*
X1010142Y1068641D02*
X1014343D01*
X1010236Y1182941D02*
X1014249D01*
X1010236Y1092941D02*
X1014249D01*
X1010236Y1002941D02*
X1014249D01*
X1010239Y1168541D02*
X1014246D01*
X1010239Y1078541D02*
X1014246D01*
X1010327Y1173041D02*
X1014158D01*
X1010327Y1083041D02*
X1014158D01*
X1010329Y1178441D02*
X1014156D01*
X1010329Y1088441D02*
X1014156D01*
X1010412Y1163141D02*
X1014073D01*
X1010412Y1073141D02*
X1014073D01*
X1010414Y1188341D02*
X1014071D01*
X1010414Y1098341D02*
X1014071D01*
X1011343Y1243241D02*
X1013994D01*
X1010491Y1153241D02*
X1013994D01*
X1010491Y1063241D02*
X1013994D01*
X1010493Y1198241D02*
X1013992D01*
X1010493Y1108241D02*
X1013992D01*
X1009674Y1052441D02*
X1013970D01*
X1010559Y1008341D02*
X1013927D01*
X1010566Y1233341D02*
X1013919D01*
X1010566Y1143341D02*
X1013919D01*
X1010566Y1053341D02*
X1013919D01*
X1010568Y1208141D02*
X1013918D01*
X1010568Y1118141D02*
X1013918D01*
X1011343Y1223441D02*
X1013849D01*
X1010636Y1133441D02*
X1013849D01*
X1011343Y1218041D02*
X1013848D01*
X1010638Y1128041D02*
X1013848D01*
X1010702Y1213541D02*
X1013784D01*
X1010702Y1123541D02*
X1013784D01*
X1010703Y1227941D02*
X1013782D01*
X1010703Y1137941D02*
X1013782D01*
X1010763Y1203641D02*
X1013722D01*
X1010763Y1113641D02*
X1013722D01*
X1010765Y1057841D02*
X1013720D01*
X1010765Y1237841D02*
X1013720D01*
X1010765Y1147841D02*
X1013720D01*
X1010821Y1193741D02*
X1013664D01*
X1010821Y1103741D02*
X1013664D01*
X1011343Y1247741D02*
X1013663D01*
X1010822Y1157741D02*
X1013663D01*
X1010822Y1067741D02*
X1013663D01*
X1010875Y1183841D02*
X1013610D01*
X1010875Y1093841D02*
X1013610D01*
X1010875Y1003841D02*
X1013610D01*
X1010877Y1167641D02*
X1013609D01*
X1010877Y1077641D02*
X1013609D01*
X1010926Y1173941D02*
X1013560D01*
X1010926Y1083941D02*
X1013560D01*
X1010927Y1177541D02*
X1013558D01*
X1010927Y1087541D02*
X1013558D01*
X1010973Y1164041D02*
X1013512D01*
X1010973Y1074041D02*
X1013512D01*
X1010974Y1187441D02*
X1013511D01*
X1010974Y1097441D02*
X1013511D01*
X1010974Y1007441D02*
X1013511D01*
X1011343Y1244141D02*
X1013468D01*
X1011017Y1154141D02*
X1013468D01*
X1011017Y1064141D02*
X1013468D01*
X1011018Y1197341D02*
X1013467D01*
X1011018Y1107341D02*
X1013467D01*
X1011058Y1234241D02*
X1013427D01*
X1011058Y1144241D02*
X1013427D01*
X1011058Y1054241D02*
X1013427D01*
X1011059Y1207241D02*
X1013426D01*
X1011059Y1117241D02*
X1013426D01*
X1011343Y1224341D02*
X1013390D01*
X1011096Y1134341D02*
X1013390D01*
X1011343Y1217141D02*
X1013389D01*
X1011097Y1127141D02*
X1013389D01*
X1011131Y1214441D02*
X1013355D01*
X1011131Y1124441D02*
X1013355D01*
X1011132Y1227041D02*
X1013354D01*
X1011132Y1137041D02*
X1013354D01*
X1011163Y1204541D02*
X1013323D01*
X1011163Y1114541D02*
X1013323D01*
X1011164Y1236941D02*
X1013322D01*
X1011164Y1146941D02*
X1013322D01*
X1011164Y1056941D02*
X1013322D01*
X1011192Y1194641D02*
X1013293D01*
X1011192Y1104641D02*
X1013293D01*
X1011343Y1246841D02*
X1013293D01*
X1011193Y1156841D02*
X1013293D01*
X1011193Y1066841D02*
X1013293D01*
X1011219Y1184741D02*
X1013267D01*
X1011219Y1094741D02*
X1013267D01*
X1011219Y1004741D02*
X1013267D01*
X1011219Y1166741D02*
X1013266D01*
X1011219Y1076741D02*
X1013266D01*
X1011242Y1174841D02*
X1013243D01*
X1011242Y1084841D02*
X1013243D01*
X1011243Y1176641D02*
X1013242D01*
X1011243Y1086641D02*
X1013242D01*
X1011264Y1164941D02*
X1013222D01*
X1011264Y1074941D02*
X1013222D01*
X1011264Y1186541D02*
X1013221D01*
X1011264Y1096541D02*
X1013221D01*
X1011264Y1006541D02*
X1013221D01*
X1011343Y1245041D02*
X1013203D01*
X1011282Y1155041D02*
X1013203D01*
X1011282Y1065041D02*
X1013203D01*
X1011283Y1196441D02*
X1013203D01*
X1011283Y1106441D02*
X1013203D01*
X1011298Y1235141D02*
X1013187D01*
X1011298Y1145141D02*
X1013187D01*
X1011298Y1055141D02*
X1013187D01*
X1011299Y1206341D02*
X1013187D01*
X1011299Y1116341D02*
X1013187D01*
X1011343Y1225241D02*
X1013173D01*
X1011312Y1135241D02*
X1013173D01*
X1011343Y1216241D02*
X1013173D01*
X1011312Y1126241D02*
X1013173D01*
X1011323Y1215341D02*
X1013162D01*
X1011323Y1125341D02*
X1013162D01*
X1011323Y1226141D02*
X1013162D01*
X1011323Y1136141D02*
X1013162D01*
X1011332Y1205441D02*
X1013154D01*
X1011332Y1115441D02*
X1013154D01*
X1011332Y1236041D02*
X1013154D01*
X1011332Y1146041D02*
X1013154D01*
X1011332Y1056041D02*
X1013154D01*
X1011338Y1195541D02*
X1013148D01*
X1011338Y1105541D02*
X1013148D01*
X1011343Y1245941D02*
X1013147D01*
X1011338Y1155941D02*
X1013147D01*
X1011338Y1065941D02*
X1013147D01*
X1011341Y1185641D02*
X1013144D01*
X1011341Y1095641D02*
X1013144D01*
X1011341Y1005641D02*
X1013144D01*
X1011341Y1165841D02*
X1013144D01*
X1011341Y1075841D02*
X1013144D01*
X1011343Y1175741D02*
X1013143D01*
X1011343Y1085741D02*
X1013143D01*
X1003343Y1051541D02*
X1010779D01*
X1003343Y1050641D02*
X1009879D01*
X1008148Y1049741D02*
X1008976D01*
X1003343Y1129841D02*
X1007139D01*
X1003343Y1121741D02*
X1006348D01*
X999343Y1229741D02*
X1006337D01*
X1003343Y1139741D02*
X1006337D01*
X1003343Y1049741D02*
X1006337D01*
X1003343Y1201841D02*
X1005982D01*
X1003343Y1111841D02*
X1005982D01*
X999343Y1239641D02*
X1005974D01*
X1003343Y1149641D02*
X1005974D01*
X1003343Y1059641D02*
X1005974D01*
X1003343Y1191941D02*
X1005706D01*
X1003343Y1101941D02*
X1005706D01*
X1003343Y1159541D02*
X1005700D01*
X1003343Y1069541D02*
X1005700D01*
X1003343Y1182041D02*
X1005479D01*
X1003343Y1092041D02*
X1005479D01*
X999865Y1002041D02*
X1005479D01*
X1003343Y1169441D02*
X1005474D01*
X1003343Y1079441D02*
X1005474D01*
X1003343Y1172141D02*
X1005283D01*
X1003343Y1082141D02*
X1005283D01*
X1003343Y1179341D02*
X1005278D01*
X1003343Y1089341D02*
X1005278D01*
X1003343Y1162241D02*
X1005109D01*
X1003343Y1072241D02*
X1005109D01*
X1003343Y1189241D02*
X1005105D01*
X1003343Y1099241D02*
X1005105D01*
X1003343Y1152341D02*
X1004953D01*
X1003343Y1062341D02*
X1004953D01*
X1003343Y1199141D02*
X1004949D01*
X1003343Y1109141D02*
X1004949D01*
X999343Y1232441D02*
X1004811D01*
X1003343Y1142441D02*
X1004811D01*
X1003343Y1052441D02*
X1004811D01*
X1003343Y1119041D02*
X1004808D01*
X1003343Y1132541D02*
X1004681D01*
X1003343Y1128941D02*
X1004678D01*
X1003343Y1122641D02*
X1004561D01*
X999343Y1228841D02*
X1004558D01*
X1003343Y1138841D02*
X1004558D01*
X1003343Y1048841D02*
X1004558D01*
X1003352Y1202741D02*
X1004449D01*
X1003352Y1112741D02*
X1004449D01*
X999343Y1238741D02*
X1004447D01*
X1003353Y1148741D02*
X1004447D01*
X1003353Y1058741D02*
X1004447D01*
X1003383Y1192841D02*
X1004346D01*
X1003383Y1102841D02*
X1004346D01*
X1003384Y1158641D02*
X1004343D01*
X1003384Y1068641D02*
X1004343D01*
X1003441Y1182941D02*
X1004249D01*
X1003441Y1092941D02*
X1004249D01*
X999519Y1002941D02*
X1004249D01*
X1003442Y1168541D02*
X1004246D01*
X1003442Y1078541D02*
X1004246D01*
X1003539Y1173041D02*
X1004146D01*
X1003539Y1083041D02*
X1004146D01*
X1003542Y1178441D02*
X1004143D01*
X1003542Y1088441D02*
X1004143D01*
X999343Y1008341D02*
X1004071D01*
X999343Y1009241D02*
X1003983D01*
X999343Y1233341D02*
X1003919D01*
X1003789Y1163141D02*
X1003896D01*
X1003789Y1073141D02*
X1003896D01*
X1003826Y1188341D02*
X1003859D01*
X1003826Y1098341D02*
X1003859D01*
X999343Y1038041D02*
X1003820D01*
X999343Y1227941D02*
X1003782D01*
X999343Y1237841D02*
X1003720D01*
X999359Y1003841D02*
X1003610D01*
X999343Y1007441D02*
X1003511D01*
X999915Y1249541D02*
X1003486D01*
X999343Y1234241D02*
X1003427D01*
X999343Y1037141D02*
X1003389D01*
X999343Y1227041D02*
X1003354D01*
X999343Y1034441D02*
X1003352D01*
X999343Y1236941D02*
X1003322D01*
X999343Y1004741D02*
X1003267D01*
X999343Y1006541D02*
X1003221D01*
X999343Y1242341D02*
X1003218D01*
X999343Y1235141D02*
X1003187D01*
X999343Y1036241D02*
X1003173D01*
X999343Y1215341D02*
X1003162D01*
X999343Y1035341D02*
X1003162D01*
X999343Y1226141D02*
X1003162D01*
X999343Y1236041D02*
X1003154D01*
X999343Y1005641D02*
X1003144D01*
X999547Y1248641D02*
X1003143D01*
X999368Y1247741D02*
X1003143D01*
X999343Y1246841D02*
X1003143D01*
X999343Y1245941D02*
X1003143D01*
X999343Y1245041D02*
X1003143D01*
X999343Y1244141D02*
X1003143D01*
X999343Y1243241D02*
X1003143D01*
X999343Y1225241D02*
X1003143D01*
X999343Y1224341D02*
X1003143D01*
X999343Y1223441D02*
X1003143D01*
X999343Y1222541D02*
X1003143D01*
X999343Y1221641D02*
X1003143D01*
X999343Y1220741D02*
X1003143D01*
X999343Y1219841D02*
X1003143D01*
X999343Y1218941D02*
X1003143D01*
X999343Y1218041D02*
X1003143D01*
X999343Y1217141D02*
X1003143D01*
X999343Y1216241D02*
X1003143D01*
X999343Y1010141D02*
X1003081D01*
X999343Y1214441D02*
X1002971D01*
X999343Y1033541D02*
X1002779D01*
X999343Y1038941D02*
X1002663D01*
X999343Y1011041D02*
X1002181D01*
X999343Y1213541D02*
X1002071D01*
X999343Y1032641D02*
X1001879D01*
X999343Y1039841D02*
X1001674D01*
X999343Y1011941D02*
X1001281D01*
X999343Y1212641D02*
X1001171D01*
X999343Y1031741D02*
X1000979D01*
X999343Y1040741D02*
X1000774D01*
X999343Y1012841D02*
X1000526D01*
X999343Y1030841D02*
X1000423D01*
X999343Y1029941D02*
X1000383D01*
X999343Y1029041D02*
X1000383D01*
X999343Y1028141D02*
X1000383D01*
X999343Y1027241D02*
X1000383D01*
X999343Y1026341D02*
X1000383D01*
X999343Y1025441D02*
X1000383D01*
X999343Y1024541D02*
X1000383D01*
X999343Y1023641D02*
X1000383D01*
X999343Y1022741D02*
X1000383D01*
X999343Y1021841D02*
X1000383D01*
X999343Y1020941D02*
X1000383D01*
X999343Y1020041D02*
X1000383D01*
X999343Y1019141D02*
X1000383D01*
X999343Y1018241D02*
X1000383D01*
X999343Y1017341D02*
X1000383D01*
X999343Y1016441D02*
X1000383D01*
X999343Y1015541D02*
X1000383D01*
X999343Y1014641D02*
X1000383D01*
X999343Y1013741D02*
X1000383D01*
X999427Y1211741D02*
X1000271D01*
X1088291Y1152341D02*
X1091091D01*
X1088291Y1151441D02*
X1091091D01*
X1088291Y1150541D02*
X1091091D01*
X1088291Y1149641D02*
X1091091D01*
X1088291Y1148741D02*
X1091091D01*
X1088291Y1147841D02*
X1091091D01*
X1088291Y1146941D02*
X1091091D01*
X1087455Y1143341D02*
X1091091D01*
X1082291Y1142441D02*
X1091091D01*
X1082291Y1141541D02*
X1091091D01*
X1082291Y1140641D02*
X1091091D01*
X1082291Y1139741D02*
X1091091D01*
X1082291Y1138841D02*
X1091091D01*
X1082291Y1137941D02*
X1091091D01*
X1088291Y1153241D02*
X1090978D01*
X1088506Y1144241D02*
X1090876D01*
X1088655Y1146041D02*
X1090727D01*
X1082125Y1137041D02*
X1090719D01*
X1088786Y1145141D02*
X1090597D01*
X1088291Y1154141D02*
X1090081D01*
X1081344Y1136141D02*
X1089819D01*
X1088405Y1155041D02*
X1089181D01*
X1080444Y1135241D02*
X1088919D01*
X1079544Y1134341D02*
X1088019D01*
X1078644Y1133441D02*
X1087119D01*
X1077744Y1132541D02*
X1086219D01*
X1082291Y1143341D02*
X1085928D01*
X1076844Y1131641D02*
X1085319D01*
X1082291Y1154141D02*
X1085091D01*
X1082291Y1153241D02*
X1085091D01*
X1082291Y1152341D02*
X1085091D01*
X1082291Y1151441D02*
X1085091D01*
X1082291Y1150541D02*
X1085091D01*
X1082291Y1149641D02*
X1085091D01*
X1082291Y1148741D02*
X1085091D01*
X1082291Y1147841D02*
X1085091D01*
X1082291Y1146941D02*
X1085091D01*
X1082291Y1155041D02*
X1085077D01*
X1082506Y1144241D02*
X1084876D01*
X1082655Y1146041D02*
X1084727D01*
X1082786Y1145141D02*
X1084597D01*
X1075944Y1130741D02*
X1084419D01*
X1082291Y1155941D02*
X1084281D01*
X1075253Y1129841D02*
X1083519D01*
X1082305Y1156841D02*
X1083381D01*
X1078202Y1229741D02*
X1079255D01*
X1077573Y1228841D02*
X1079253D01*
X1076553Y1227941D02*
X1079253D01*
X1076034Y1227041D02*
X1079253D01*
X1076479Y1226141D02*
X1079253D01*
X1076493Y1225241D02*
X1079253D01*
X1076493Y1224341D02*
X1079253D01*
X1076489Y1223441D02*
X1079253D01*
X1076112Y1222541D02*
X1079253D01*
X1076320Y1221641D02*
X1079253D01*
X1076493Y1220741D02*
X1079253D01*
X1076493Y1219841D02*
X1079253D01*
X1076493Y1218941D02*
X1079253D01*
X1076406Y1218041D02*
X1079253D01*
X1076023Y1217141D02*
X1079253D01*
X1076463Y1216241D02*
X1079253D01*
X1076493Y1215341D02*
X1079253D01*
X1076493Y1214441D02*
X1079253D01*
X1076493Y1213541D02*
X1079253D01*
X1076192Y1212641D02*
X1079253D01*
X1076262Y1211741D02*
X1079253D01*
X1076493Y1210841D02*
X1079253D01*
X1076493Y1209941D02*
X1079253D01*
X1076493Y1209041D02*
X1079253D01*
X1076438Y1208141D02*
X1079253D01*
X1075739Y1207241D02*
X1079253D01*
X1075566Y1206341D02*
X1079253D01*
X1076407Y1205441D02*
X1079253D01*
X1076493Y1204541D02*
X1079253D01*
X1076493Y1203641D02*
X1079253D01*
X1076493Y1202741D02*
X1079253D01*
X1076319Y1201841D02*
X1079253D01*
X1076114Y1200941D02*
X1079253D01*
X1076489Y1200041D02*
X1079253D01*
X1076493Y1199141D02*
X1079253D01*
X1076493Y1198241D02*
X1079253D01*
X1076479Y1197341D02*
X1079253D01*
X1076054Y1196441D02*
X1079253D01*
X1076368Y1195541D02*
X1079253D01*
X1076493Y1194641D02*
X1079253D01*
X1076493Y1193741D02*
X1079253D01*
X1076493Y1192841D02*
X1079253D01*
X1076367Y1191941D02*
X1079253D01*
X1075261Y1191041D02*
X1079253D01*
X1075354Y1190141D02*
X1079253D01*
X1076959Y1189241D02*
X1079253D01*
X1077817Y1188341D02*
X1079253D01*
X1078374Y1187441D02*
X1079138D01*
X1047159Y1225241D02*
X1054643D01*
X1047159Y1226141D02*
X1054564D01*
X1047233Y1227041D02*
X1053632D01*
X1047317Y1224341D02*
X1048065D01*
X1047159Y1211741D02*
X1054643D01*
X1047159Y1210841D02*
X1054639D01*
X1047159Y1212641D02*
X1054081D01*
X1047159Y1197341D02*
X1054643D01*
X1047159Y1198241D02*
X1054481D01*
X1047235Y1196441D02*
X1054335D01*
X1047314Y1199141D02*
X1048072D01*
X1047159Y1183841D02*
X1054643D01*
X1047159Y1182941D02*
X1054643D01*
X1047159Y1184741D02*
X1053981D01*
X1076291Y1156841D02*
X1079091D01*
X1076291Y1155941D02*
X1079091D01*
X1076291Y1155041D02*
X1079091D01*
X1076291Y1154141D02*
X1079091D01*
X1076291Y1153241D02*
X1079091D01*
X1076291Y1152341D02*
X1079091D01*
X1076291Y1151441D02*
X1079091D01*
X1076291Y1150541D02*
X1079091D01*
X1076291Y1149641D02*
X1079091D01*
X1076291Y1148741D02*
X1079091D01*
X1076291Y1147841D02*
X1079091D01*
X1076291Y1146941D02*
X1079091D01*
X1075455Y1143341D02*
X1079091D01*
X1070291Y1142441D02*
X1079091D01*
X1070291Y1141541D02*
X1079091D01*
X1070291Y1140641D02*
X1079091D01*
X1070291Y1139741D02*
X1079091D01*
X1070291Y1138841D02*
X1079091D01*
X1076506Y1144241D02*
X1078876D01*
X1076655Y1146041D02*
X1078727D01*
X1070291Y1137941D02*
X1078619D01*
X1076786Y1145141D02*
X1078597D01*
X1076291Y1157741D02*
X1078481D01*
X1070291Y1137041D02*
X1077719D01*
X1076291Y1158641D02*
X1077581D01*
X1070171Y1136141D02*
X1076819D01*
X1069444Y1135241D02*
X1075919D01*
X1068544Y1134341D02*
X1075019D01*
X1067644Y1133441D02*
X1074119D01*
X1070291Y1143341D02*
X1073928D01*
X1066744Y1132541D02*
X1073219D01*
X1070291Y1158641D02*
X1073091D01*
X1070291Y1157741D02*
X1073091D01*
X1070291Y1156841D02*
X1073091D01*
X1070291Y1155941D02*
X1073091D01*
X1070291Y1155041D02*
X1073091D01*
X1070291Y1154141D02*
X1073091D01*
X1070291Y1153241D02*
X1073091D01*
X1070291Y1152341D02*
X1073091D01*
X1070291Y1151441D02*
X1073091D01*
X1070291Y1150541D02*
X1073091D01*
X1070291Y1149641D02*
X1073091D01*
X1070291Y1148741D02*
X1073091D01*
X1070291Y1147841D02*
X1073091D01*
X1070291Y1146941D02*
X1073091D01*
X1070506Y1144241D02*
X1072876D01*
X1070655Y1146041D02*
X1072727D01*
X1070291Y1159541D02*
X1072681D01*
X1070786Y1145141D02*
X1072597D01*
X1066295Y1131641D02*
X1072319D01*
X1070291Y1160441D02*
X1071781D01*
X1047159Y1142441D02*
X1055091D01*
X1047159Y1141541D02*
X1055091D01*
X1047163Y1140641D02*
X1055030D01*
X1076493Y1193743D02*
X1075393D01*
X1076493Y1224743D02*
X1075393D01*
X1076493Y1219743D02*
X1075393D01*
X1076493Y1214743D02*
X1075393D01*
X1076493Y1209743D02*
X1075393D01*
X1076493Y1198743D02*
X1075393D01*
X1076493Y1203743D02*
X1075393D01*
X1028109Y1210403D02*
Y1209303D01*
X1032159Y1208003D02*
X1031059D01*
X1028109Y1205603D02*
Y1206703D01*
X1024059Y1208003D02*
X1025159D01*
X1028109Y1224403D02*
Y1223303D01*
X1032159Y1222003D02*
X1031059D01*
X1028109Y1219603D02*
Y1220703D01*
X1024059Y1222003D02*
X1025159D01*
X1028109Y1196403D02*
Y1195303D01*
X1032159Y1194003D02*
X1031059D01*
X1028109Y1191603D02*
Y1192703D01*
X1024059Y1194003D02*
X1025159D01*
X1028109Y1182403D02*
Y1181303D01*
X1032159Y1180003D02*
X1031059D01*
X1028109Y1177603D02*
Y1178703D01*
X1024059Y1180003D02*
X1025159D01*
X1028109Y1168403D02*
Y1167303D01*
X1032159Y1166003D02*
X1031059D01*
X1028109Y1163603D02*
Y1164703D01*
X1024059Y1166003D02*
X1025159D01*
X1028109Y1154403D02*
Y1153303D01*
X1032159Y1152003D02*
X1031059D01*
X1028109Y1149603D02*
Y1150703D01*
X1024059Y1152003D02*
X1025159D01*
X1028109Y1140403D02*
Y1139303D01*
X1032159Y1138003D02*
X1031059D01*
X1028109Y1135603D02*
Y1136703D01*
X1024059Y1138003D02*
X1025159D01*
X1004243Y1253243D02*
G03X998243Y1247243I-0J-6000D01*
G01X1004243Y1253243D02*
X1106242D01*
X1112242Y1247243D02*
G03X1106242Y1253243I-6000J-0D01*
G01X1112242Y1247243D02*
X1112243Y1235514D01*
X1086353*
G03X1080353Y1229514I-0J-6000*
G01Y1187971*
G03X1086353Y1181971I6000J-0*
G01X1112243*
Y1004243*
X1106243Y998243D02*
G03X1112243Y1004243I-0J6000D01*
G01X1106243Y998243D02*
X1004243D01*
X998243Y1004243D02*
G03X1004243Y998243I6000J-0D01*
G01X998243Y1004243D02*
Y1247243D01*
G54D12*
X1065493Y1192543D02*
Y1194943D01*
X1068593*
Y1192543*
X1065493*
Y1192800D02*
X1068593D01*
X1065493Y1193600D02*
X1068593D01*
X1065493Y1194400D02*
X1068593D01*
X1065600Y1192543D02*
Y1194943D01*
X1066400Y1192543D02*
Y1194943D01*
X1067200Y1192543D02*
Y1194943D01*
X1068000Y1192543D02*
Y1194943D01*
X1071893Y1192543D02*
Y1194943D01*
X1074993*
Y1192543*
X1071893*
Y1192800D02*
X1074993D01*
X1071893Y1193600D02*
X1074993D01*
X1071893Y1194400D02*
X1074993D01*
X1072000Y1192543D02*
Y1194943D01*
X1072800Y1192543D02*
Y1194943D01*
X1073600Y1192543D02*
Y1194943D01*
X1074400Y1192543D02*
Y1194943D01*
X1065493Y1197543D02*
Y1199943D01*
X1068593*
Y1197543*
X1065493*
Y1197600D02*
X1068593D01*
X1065493Y1198400D02*
X1068593D01*
X1065493Y1199200D02*
X1068593D01*
X1065600Y1197543D02*
Y1199943D01*
X1066400Y1197543D02*
Y1199943D01*
X1067200Y1197543D02*
Y1199943D01*
X1068000Y1197543D02*
Y1199943D01*
X1071893Y1197543D02*
Y1199943D01*
X1074993*
Y1197543*
X1071893*
Y1197600D02*
X1074993D01*
X1071893Y1198400D02*
X1074993D01*
X1071893Y1199200D02*
X1074993D01*
X1072000Y1197543D02*
Y1199943D01*
X1072800Y1197543D02*
Y1199943D01*
X1073600Y1197543D02*
Y1199943D01*
X1074400Y1197543D02*
Y1199943D01*
X1065493Y1202543D02*
Y1204943D01*
X1068593*
Y1202543*
X1065493*
Y1203200D02*
X1068593D01*
X1065493Y1204000D02*
X1068593D01*
X1065493Y1204800D02*
X1068593D01*
X1065600Y1202543D02*
Y1204943D01*
X1066400Y1202543D02*
Y1204943D01*
X1067200Y1202543D02*
Y1204943D01*
X1068000Y1202543D02*
Y1204943D01*
X1071893Y1202543D02*
Y1204943D01*
X1074993*
Y1202543*
X1071893*
Y1203200D02*
X1074993D01*
X1071893Y1204000D02*
X1074993D01*
X1071893Y1204800D02*
X1074993D01*
X1072000Y1202543D02*
Y1204943D01*
X1072800Y1202543D02*
Y1204943D01*
X1073600Y1202543D02*
Y1204943D01*
X1074400Y1202543D02*
Y1204943D01*
X1065493Y1208543D02*
Y1210943D01*
X1068593*
Y1208543*
X1065493*
Y1208800D02*
X1068593D01*
X1065493Y1209600D02*
X1068593D01*
X1065493Y1210400D02*
X1068593D01*
X1065600Y1208543D02*
Y1210943D01*
X1066400Y1208543D02*
Y1210943D01*
X1067200Y1208543D02*
Y1210943D01*
X1068000Y1208543D02*
Y1210943D01*
X1071893Y1208543D02*
Y1210943D01*
X1074993*
Y1208543*
X1071893*
Y1208800D02*
X1074993D01*
X1071893Y1209600D02*
X1074993D01*
X1071893Y1210400D02*
X1074993D01*
X1072000Y1208543D02*
Y1210943D01*
X1072800Y1208543D02*
Y1210943D01*
X1073600Y1208543D02*
Y1210943D01*
X1074400Y1208543D02*
Y1210943D01*
X1065493Y1213543D02*
Y1215943D01*
X1068593*
Y1213543*
X1065493*
Y1213600D02*
X1068593D01*
X1065493Y1214400D02*
X1068593D01*
X1065493Y1215200D02*
X1068593D01*
X1065600Y1213543D02*
Y1215943D01*
X1066400Y1213543D02*
Y1215943D01*
X1067200Y1213543D02*
Y1215943D01*
X1068000Y1213543D02*
Y1215943D01*
X1071893Y1213543D02*
Y1215943D01*
X1074993*
Y1213543*
X1071893*
Y1213600D02*
X1074993D01*
X1071893Y1214400D02*
X1074993D01*
X1071893Y1215200D02*
X1074993D01*
X1072000Y1213543D02*
Y1215943D01*
X1072800Y1213543D02*
Y1215943D01*
X1073600Y1213543D02*
Y1215943D01*
X1074400Y1213543D02*
Y1215943D01*
X1065493Y1218543D02*
Y1220943D01*
X1068593*
Y1218543*
X1065493*
Y1219200D02*
X1068593D01*
X1065493Y1220000D02*
X1068593D01*
X1065493Y1220800D02*
X1068593D01*
X1065600Y1218543D02*
Y1220943D01*
X1066400Y1218543D02*
Y1220943D01*
X1067200Y1218543D02*
Y1220943D01*
X1068000Y1218543D02*
Y1220943D01*
X1071893Y1218543D02*
Y1220943D01*
X1074993*
Y1218543*
X1071893*
Y1219200D02*
X1074993D01*
X1071893Y1220000D02*
X1074993D01*
X1071893Y1220800D02*
X1074993D01*
X1072000Y1218543D02*
Y1220943D01*
X1072800Y1218543D02*
Y1220943D01*
X1073600Y1218543D02*
Y1220943D01*
X1074400Y1218543D02*
Y1220943D01*
X1065493Y1223543D02*
Y1225943D01*
X1068593*
Y1223543*
X1065493*
Y1224000D02*
X1068593D01*
X1065493Y1224800D02*
X1068593D01*
X1065493Y1225600D02*
X1068593D01*
X1065600Y1223543D02*
Y1225943D01*
X1066400Y1223543D02*
Y1225943D01*
X1067200Y1223543D02*
Y1225943D01*
X1068000Y1223543D02*
Y1225943D01*
X1071893Y1223543D02*
Y1225943D01*
X1074993*
Y1223543*
X1071893*
Y1224000D02*
X1074993D01*
X1071893Y1224800D02*
X1074993D01*
X1071893Y1225600D02*
X1074993D01*
X1072000Y1223543D02*
Y1225943D01*
X1072800Y1223543D02*
Y1225943D01*
X1073600Y1223543D02*
Y1225943D01*
X1074400Y1223543D02*
Y1225943D01*
G54D22*
X1007243Y1245743D03*
G54D23*
X1017243D03*
X1007243Y1235743D03*
X1017243D03*
X1007243Y1225743D03*
X1017243D03*
X1007243Y1215743D03*
X1017243D03*
X1007243Y1205743D03*
X1017243D03*
X1007243Y1195743D03*
X1017243D03*
X1007243Y1185743D03*
X1017243D03*
X1007243Y1175743D03*
X1017243D03*
X1007243Y1165743D03*
X1017243D03*
X1007243Y1155743D03*
X1017243D03*
X1007243Y1145743D03*
X1017243D03*
X1007243Y1135743D03*
X1017243D03*
X1007243Y1125743D03*
X1017243D03*
X1007243Y1115743D03*
X1017243D03*
X1007243Y1105743D03*
X1017243D03*
X1007243Y1095743D03*
X1017243D03*
X1007243Y1085743D03*
X1017243D03*
X1007243Y1075743D03*
X1017243D03*
X1007243Y1065743D03*
X1017243D03*
X1007243Y1055743D03*
X1017243D03*
X1007243Y1045743D03*
X1017243D03*
X1007243Y1035743D03*
X1017243D03*
X1007243Y1025743D03*
X1017243D03*
X1007243Y1015743D03*
X1017243D03*
X1007243Y1005743D03*
X1017243D03*
Y1025743D02*
Y1035743D01*
X1007243Y1215743D02*
Y1225743D01*
G54D38*
X1017243Y1035743D02*
X1012243Y1040743D01*
X1003743*
X1001243Y1043243*
Y1209743*
X1007243Y1215743*
X1055691Y1037298D02*
X1071223Y1052798D01*
Y1094098*
X1043109Y1155743D02*
X1036377D01*
X1043109Y1141743D02*
X1036377D01*
X1043109Y1211743D02*
X1036377D01*
X1043109Y1169743D02*
X1036377D01*
X1043109Y1197743D02*
X1036377D01*
X1043109Y1183743D02*
X1036377D01*
X1043109Y1225743D02*
X1036377D01*
X1067043Y1214743D02*
X1064243D01*
X1067043Y1209743D02*
X1064243Y1210743D01*
X1067043Y1198743D02*
X1064243D01*
X1067043Y1193743D02*
X1064243Y1194743D01*
Y1218743D02*
X1067043Y1219743D01*
X1064243Y1222743D02*
X1067043Y1224743D01*
X1064243Y1202743D02*
X1067043Y1203743D01*
X1023623Y1061913D03*
X1026623Y1058913D03*
X1023623D03*
X1038623Y1046913D03*
X1041623D03*
Y1049913D03*
X1026623Y1061913D03*
X1041623Y1076913D03*
X1044623Y1019913D03*
X1038623Y1049913D03*
Y1076913D03*
X1026623Y1064913D03*
X1023623D03*
X1038623Y1073913D03*
X1041623D03*
X1044623Y1016913D03*
X1086623Y1040913D03*
Y1037913D03*
X1089623Y1040913D03*
Y1037913D03*
X1077623Y1067913D03*
X1092623Y1064913D03*
X1095623D03*
Y1067913D03*
X1077623Y1064913D03*
X1087243Y1024243D03*
Y1028243D03*
X1084243D03*
X1092623Y1067913D03*
X1047623Y1016913D03*
X1080623Y1067913D03*
X1084343Y1024243D03*
X1047623Y1019913D03*
X1080623Y1064913D03*
X1091262Y1033097D03*
X1051243Y1074573D03*
X1055983Y1066743D03*
X1058383Y1056073D03*
X1038623Y1163913D03*
X1026623Y1127913D03*
X1029623D03*
Y1130913D03*
X1026623D03*
Y1091913D03*
Y1112913D03*
X1029623Y1091913D03*
Y1094913D03*
X1026623D03*
Y1109913D03*
X1029623D03*
Y1112913D03*
X1038623Y1160913D03*
Y1148913D03*
X1041623D03*
Y1145913D03*
X1038623D03*
X1041623Y1163913D03*
Y1160913D03*
X1045691Y1088735D03*
X1091183Y1122243D03*
X1094183D03*
Y1119243D03*
X1091183D03*
X1059183Y1134243D03*
X1070183Y1132243D03*
X1080183Y1130243D03*
X1071623Y1097913D03*
X1074623Y1100913D03*
X1053623Y1103913D03*
X1056623D03*
X1074623Y1097913D03*
X1071623Y1100913D03*
X1056623D03*
X1058383Y1122743D03*
X1048183Y1125243D03*
X1086691D03*
X1074763Y1122743D03*
X1053623Y1100913D03*
X1050691Y1088735D03*
X1068691Y1145298D03*
X1074691D03*
X1062691D03*
X1080691D03*
X1092691D03*
X1053263Y1094413D03*
X1056691Y1145298D03*
X1086691D03*
X1061103Y1104913D03*
X1068623Y1102913D03*
X1066103Y1104913D03*
X1038623Y1220913D03*
X1041623D03*
Y1217913D03*
X1038623D03*
Y1205913D03*
X1041623D03*
Y1202913D03*
X1038623D03*
Y1190913D03*
X1041623D03*
Y1187913D03*
X1038623D03*
Y1178913D03*
X1041623D03*
Y1175913D03*
X1038623D03*
X1026623Y1238913D03*
X1029623D03*
Y1241913D03*
X1026623D03*
X1066183Y1189243D03*
X1059623Y1229913D03*
X1062623D03*
Y1232913D03*
X1059623D03*
X1077743Y1226743D03*
Y1190743D03*
X1063743Y1206743D03*
X1064243Y1218743D03*
Y1222743D03*
Y1214743D03*
Y1194743D03*
Y1210743D03*
Y1198743D03*
Y1202743D03*
G54D40*
X1007243Y1001643D02*
Y1002743D01*
X1011343Y1005743D02*
X1010243D01*
X1003143D02*
X1004243D01*
X1021343Y1055743D02*
X1020243D01*
X1017243Y1059843D02*
Y1058743D01*
X1013143Y1055743D02*
X1014243D01*
X1017243Y1001643D02*
Y1002743D01*
X1021343Y1005743D02*
X1020243D01*
X1013143D02*
X1014243D01*
X1017243Y1121643D02*
Y1122743D01*
X1021343Y1125743D02*
X1020243D01*
X1017243Y1129843D02*
Y1128743D01*
X1013143Y1125743D02*
X1014243D01*
X1099644Y1246520D02*
Y1245420D01*
X1092544Y1241420D02*
X1093644D01*
X1106744D02*
X1105644D01*
X1092544Y1176065D02*
X1093644D01*
X1099644Y1170965D02*
Y1172065D01*
X1106744Y1176065D02*
X1105644D01*
X1003143Y1245743D02*
X1004243D01*
X1007243Y1241643D02*
Y1242743D01*
X1011343Y1245743D02*
X1010243D01*
X1007243Y1249843D02*
Y1248743D01*
X1017243Y1241643D02*
Y1242743D01*
X1021343Y1245743D02*
X1020243D01*
X1017243Y1249843D02*
Y1248743D01*
X1013143Y1245743D02*
X1014243D01*
X1017243Y1191643D02*
Y1192743D01*
X1021343Y1195743D02*
X1020243D01*
X1017243Y1199843D02*
Y1198743D01*
X1013143Y1195743D02*
X1014243D01*
X1017243Y1181643D02*
Y1182743D01*
X1021343Y1185743D02*
X1020243D01*
X1017243Y1189843D02*
Y1188743D01*
X1013143Y1185743D02*
X1014243D01*
X1007243Y1121643D02*
Y1122743D01*
X1011343Y1125743D02*
X1010243D01*
X1007243Y1129843D02*
Y1128743D01*
X1017243Y1061643D02*
Y1062743D01*
X1021343Y1065743D02*
X1020243D01*
X1017243Y1069843D02*
Y1068743D01*
X1013143Y1065743D02*
X1014243D01*
G54D43*
G54D191*
X1051377Y1229483D03*
Y1222003D03*
X1043109Y1225743D03*
X1051377Y1145483D03*
Y1138003D03*
X1043109Y1141743D03*
X1028109Y1180003D03*
Y1187483D03*
X1036377Y1183743D03*
X1028109Y1166003D03*
Y1173483D03*
X1036377Y1169743D03*
X1028109Y1152003D03*
Y1159483D03*
X1036377Y1155743D03*
X1028109Y1138003D03*
Y1145483D03*
X1036377Y1141743D03*
X1028109Y1208003D03*
Y1215483D03*
X1036377Y1211743D03*
X1028109Y1222003D03*
Y1229483D03*
X1036377Y1225743D03*
X1051377Y1187483D03*
Y1180003D03*
X1043109Y1183743D03*
X1051377Y1201483D03*
Y1194003D03*
X1043109Y1197743D03*
X1051377Y1173483D03*
Y1166003D03*
X1043109Y1169743D03*
X1051377Y1215483D03*
Y1208003D03*
X1043109Y1211743D03*
X1051377Y1159483D03*
Y1152003D03*
X1043109Y1155743D03*
X1028109Y1194003D03*
Y1201483D03*
X1036377Y1197743D03*
G54D194*
X1055691Y1037298D03*
X1071223Y1094098D03*
G54D220*
X1099644Y1241420D03*
Y1176065D03*
Y1241420D03*
Y1176065D03*
G54D221*
X1073660Y1232247D03*
Y1185239D03*
G74*
X0Y0D02*
M02*
