*
*
G04 PADS VX.2.4 Build Number: 11282995 generated Gerber (RS-274-X) file*
G04 PC Version=2.1*
*
%IN "v24.pcb"*%
*
%MOIN*%
*
%FSLAX35Y35*%
*
*
*
*
G04 PC Standard Apertures*
*
*
G04 Thermal Relief Aperture macro.*
%AMTER*
1,1,$1,0,0*
1,0,$1-$2,0,0*
21,0,$3,$4,0,0,45*
21,0,$3,$4,0,0,135*
%
*
*
G04 Annular Aperture macro.*
%AMANN*
1,1,$1,0,0*
1,0,$2,0,0*
%
*
*
G04 Odd Aperture macro.*
%AMODD*
1,1,$1,0,0*
1,0,$1-0.005,0,0*
%
*
*
G04 PC Custom Aperture Macros*
*
*
*
*
*
*
G04 PC Aperture Table*
*
%ADD011C,0.01*%
%ADD012C,0.008*%
%ADD022R,0.06X0.06*%
%ADD023C,0.06*%
%ADD034R,0.045X0.045*%
%ADD043C,0.001*%
%ADD213R,0.08858X0.07087*%
%ADD214R,0.10079X0.0315*%
%ADD215R,0.0165X0.0528*%
%ADD217R,0.11811X0.02756*%
%ADD218R,0.1X0.1*%
%ADD221C,0.07874*%
*
*
*
*
G04 PC Circuitry*
G04 Layer Name v24.pcb - circuitry*
%LPD*%
*
*
G04 PC Custom Flashes*
G04 Layer Name v24.pcb - flashes*
%LPD*%
*
*
G04 PC Circuitry*
G04 Layer Name v24.pcb - circuitry*
%LPD*%
*
G54D11*
G01X1091680Y1236132D02*
X1107609D01*
Y1245172*
X1091680*
Y1236132*
X1091743D02*
Y1245172D01*
X1092243Y1236132D02*
Y1245172D01*
X1092743Y1236132D02*
Y1245172D01*
X1093243Y1236132D02*
Y1245172D01*
X1093743Y1236132D02*
Y1245172D01*
X1094243Y1236132D02*
Y1245172D01*
X1094743Y1236132D02*
Y1245172D01*
X1095243Y1236132D02*
Y1245172D01*
X1095743Y1236132D02*
Y1245172D01*
X1096243Y1236132D02*
Y1245172D01*
X1096743Y1236132D02*
Y1245172D01*
X1097243Y1236132D02*
Y1245172D01*
X1097743Y1236132D02*
Y1245172D01*
X1098243Y1236132D02*
Y1245172D01*
X1098743Y1236132D02*
Y1245172D01*
X1099243Y1236132D02*
Y1245172D01*
X1099743Y1236132D02*
Y1245172D01*
X1100243Y1236132D02*
Y1245172D01*
X1100743Y1236132D02*
Y1245172D01*
X1101243Y1236132D02*
Y1245172D01*
X1101743Y1236132D02*
Y1245172D01*
X1102243Y1236132D02*
Y1245172D01*
X1102743Y1236132D02*
Y1245172D01*
X1103243Y1236132D02*
Y1245172D01*
X1103743Y1236132D02*
Y1245172D01*
X1104243Y1236132D02*
Y1245172D01*
X1104743Y1236132D02*
Y1245172D01*
X1105243Y1236132D02*
Y1245172D01*
X1105743Y1236132D02*
Y1245172D01*
X1106243Y1236132D02*
Y1245172D01*
X1106743Y1236132D02*
Y1245172D01*
X1107243Y1236132D02*
Y1245172D01*
X1091680Y1172314D02*
X1107609D01*
Y1181353*
X1091680*
Y1172314*
X1091743D02*
Y1181353D01*
X1092243Y1172314D02*
Y1181353D01*
X1092743Y1172314D02*
Y1181353D01*
X1093243Y1172314D02*
Y1181353D01*
X1093743Y1172314D02*
Y1181353D01*
X1094243Y1172314D02*
Y1181353D01*
X1094743Y1172314D02*
Y1181353D01*
X1095243Y1172314D02*
Y1181353D01*
X1095743Y1172314D02*
Y1181353D01*
X1096243Y1172314D02*
Y1181353D01*
X1096743Y1172314D02*
Y1181353D01*
X1097243Y1172314D02*
Y1181353D01*
X1097743Y1172314D02*
Y1181353D01*
X1098243Y1172314D02*
Y1181353D01*
X1098743Y1172314D02*
Y1181353D01*
X1099243Y1172314D02*
Y1181353D01*
X1099743Y1172314D02*
Y1181353D01*
X1100243Y1172314D02*
Y1181353D01*
X1100743Y1172314D02*
Y1181353D01*
X1101243Y1172314D02*
Y1181353D01*
X1101743Y1172314D02*
Y1181353D01*
X1102243Y1172314D02*
Y1181353D01*
X1102743Y1172314D02*
Y1181353D01*
X1103243Y1172314D02*
Y1181353D01*
X1103743Y1172314D02*
Y1181353D01*
X1104243Y1172314D02*
Y1181353D01*
X1104743Y1172314D02*
Y1181353D01*
X1105243Y1172314D02*
Y1181353D01*
X1105743Y1172314D02*
Y1181353D01*
X1106243Y1172314D02*
Y1181353D01*
X1106743Y1172314D02*
Y1181353D01*
X1107243Y1172314D02*
Y1181353D01*
X1004243Y1253243D02*
G75*
G03X998243Y1247243I-0J-6000D01*
G01X1004243Y1253243D02*
X1106242D01*
X1112242Y1247243D02*
G03X1106242Y1253243I-6000J-0D01*
G01X1112242Y1247243D02*
X1112243Y1235514D01*
X1086353*
G03X1080353Y1229514I-0J-6000*
G01Y1187971*
G03X1086353Y1181971I6000J-0*
G01X1112243*
Y1004243*
X1106243Y998243D02*
G03X1112243Y1004243I-0J6000D01*
G01X1106243Y998243D02*
X1004243D01*
X998243Y1004243D02*
G03X1004243Y998243I6000J-0D01*
G01X998243Y1004243D02*
Y1247243D01*
G54D12*
X1087891Y1105548D02*
X1085491D01*
Y1108648*
X1087891*
Y1105548*
X1085491Y1105600D02*
X1087891D01*
X1085491Y1106400D02*
X1087891D01*
X1085491Y1107200D02*
X1087891D01*
X1085491Y1108000D02*
X1087891D01*
X1085600Y1105548D02*
Y1108648D01*
X1086400Y1105548D02*
Y1108648D01*
X1087200Y1105548D02*
Y1108648D01*
X1087891Y1111948D02*
X1085491D01*
Y1115048*
X1087891*
Y1111948*
X1085491Y1112000D02*
X1087891D01*
X1085491Y1112800D02*
X1087891D01*
X1085491Y1113600D02*
X1087891D01*
X1085491Y1114400D02*
X1087891D01*
X1085600Y1111948D02*
Y1115048D01*
X1086400Y1111948D02*
Y1115048D01*
X1087200Y1111948D02*
Y1115048D01*
X1091491Y1102048D02*
X1093891D01*
Y1098948*
X1091491*
Y1102048*
Y1099200D02*
X1093891D01*
X1091491Y1100000D02*
X1093891D01*
X1091491Y1100800D02*
X1093891D01*
X1091491Y1101600D02*
X1093891D01*
X1092000Y1098948D02*
Y1102048D01*
X1092800Y1098948D02*
Y1102048D01*
X1093600Y1098948D02*
Y1102048D01*
X1091491Y1095648D02*
X1093891D01*
Y1092548*
X1091491*
Y1095648*
Y1092800D02*
X1093891D01*
X1091491Y1093600D02*
X1093891D01*
X1091491Y1094400D02*
X1093891D01*
X1091491Y1095200D02*
X1093891D01*
X1092000Y1092548D02*
Y1095648D01*
X1092800Y1092548D02*
Y1095648D01*
X1093600Y1092548D02*
Y1095648D01*
X1093891Y1080548D02*
X1091491D01*
Y1083648*
X1093891*
Y1080548*
X1091491Y1080800D02*
X1093891D01*
X1091491Y1081600D02*
X1093891D01*
X1091491Y1082400D02*
X1093891D01*
X1091491Y1083200D02*
X1093891D01*
X1092000Y1080548D02*
Y1083648D01*
X1092800Y1080548D02*
Y1083648D01*
X1093600Y1080548D02*
Y1083648D01*
X1093891Y1086948D02*
X1091491D01*
Y1090048*
X1093891*
Y1086948*
X1091491Y1087200D02*
X1093891D01*
X1091491Y1088000D02*
X1093891D01*
X1091491Y1088800D02*
X1093891D01*
X1091491Y1089600D02*
X1093891D01*
X1092000Y1086948D02*
Y1090048D01*
X1092800Y1086948D02*
Y1090048D01*
X1093600Y1086948D02*
Y1090048D01*
X1093891Y1105548D02*
X1091491D01*
Y1108648*
X1093891*
Y1105548*
X1091491Y1105600D02*
X1093891D01*
X1091491Y1106400D02*
X1093891D01*
X1091491Y1107200D02*
X1093891D01*
X1091491Y1108000D02*
X1093891D01*
X1092000Y1105548D02*
Y1108648D01*
X1092800Y1105548D02*
Y1108648D01*
X1093600Y1105548D02*
Y1108648D01*
X1093891Y1111948D02*
X1091491D01*
Y1115048*
X1093891*
Y1111948*
X1091491Y1112000D02*
X1093891D01*
X1091491Y1112800D02*
X1093891D01*
X1091491Y1113600D02*
X1093891D01*
X1091491Y1114400D02*
X1093891D01*
X1092000Y1111948D02*
Y1115048D01*
X1092800Y1111948D02*
Y1115048D01*
X1093600Y1111948D02*
Y1115048D01*
X1087891Y1080548D02*
X1085491D01*
Y1083648*
X1087891*
Y1080548*
X1085491Y1080800D02*
X1087891D01*
X1085491Y1081600D02*
X1087891D01*
X1085491Y1082400D02*
X1087891D01*
X1085491Y1083200D02*
X1087891D01*
X1085600Y1080548D02*
Y1083648D01*
X1086400Y1080548D02*
Y1083648D01*
X1087200Y1080548D02*
Y1083648D01*
X1087891Y1086948D02*
X1085491D01*
Y1090048*
X1087891*
Y1086948*
X1085491Y1087200D02*
X1087891D01*
X1085491Y1088000D02*
X1087891D01*
X1085491Y1088800D02*
X1087891D01*
X1085491Y1089600D02*
X1087891D01*
X1085600Y1086948D02*
Y1090048D01*
X1086400Y1086948D02*
Y1090048D01*
X1087200Y1086948D02*
Y1090048D01*
X1030391Y1005548D02*
X1027991D01*
Y1008648*
X1030391*
Y1005548*
X1027991Y1005600D02*
X1030391D01*
X1027991Y1006400D02*
X1030391D01*
X1027991Y1007200D02*
X1030391D01*
X1027991Y1008000D02*
X1030391D01*
X1028000Y1005548D02*
Y1008648D01*
X1028800Y1005548D02*
Y1008648D01*
X1029600Y1005548D02*
Y1008648D01*
X1030391Y1011948D02*
X1027991D01*
Y1015048*
X1030391*
Y1011948*
X1027991Y1012000D02*
X1030391D01*
X1027991Y1012800D02*
X1030391D01*
X1027991Y1013600D02*
X1030391D01*
X1027991Y1014400D02*
X1030391D01*
X1028000Y1011948D02*
Y1015048D01*
X1028800Y1011948D02*
Y1015048D01*
X1029600Y1011948D02*
Y1015048D01*
X1093891Y1147548D02*
X1091491D01*
Y1150648*
X1093891*
Y1147548*
X1091491Y1148000D02*
X1093891D01*
X1091491Y1148800D02*
X1093891D01*
X1091491Y1149600D02*
X1093891D01*
X1091491Y1150400D02*
X1093891D01*
X1092000Y1147548D02*
Y1150648D01*
X1092800Y1147548D02*
Y1150648D01*
X1093600Y1147548D02*
Y1150648D01*
X1093891Y1153948D02*
X1091491D01*
Y1157048*
X1093891*
Y1153948*
X1091491Y1154400D02*
X1093891D01*
X1091491Y1155200D02*
X1093891D01*
X1091491Y1156000D02*
X1093891D01*
X1091491Y1156800D02*
X1093891D01*
X1092000Y1153948D02*
Y1157048D01*
X1092800Y1153948D02*
Y1157048D01*
X1093600Y1153948D02*
Y1157048D01*
X1087891Y1147548D02*
X1085491D01*
Y1150648*
X1087891*
Y1147548*
X1085491Y1148000D02*
X1087891D01*
X1085491Y1148800D02*
X1087891D01*
X1085491Y1149600D02*
X1087891D01*
X1085491Y1150400D02*
X1087891D01*
X1085600Y1147548D02*
Y1150648D01*
X1086400Y1147548D02*
Y1150648D01*
X1087200Y1147548D02*
Y1150648D01*
X1087891Y1153948D02*
X1085491D01*
Y1157048*
X1087891*
Y1153948*
X1085491Y1154400D02*
X1087891D01*
X1085491Y1155200D02*
X1087891D01*
X1085491Y1156000D02*
X1087891D01*
X1085491Y1156800D02*
X1087891D01*
X1085600Y1153948D02*
Y1157048D01*
X1086400Y1153948D02*
Y1157048D01*
X1087200Y1153948D02*
Y1157048D01*
X1081891Y1147548D02*
X1079491D01*
Y1150648*
X1081891*
Y1147548*
X1079491Y1148000D02*
X1081891D01*
X1079491Y1148800D02*
X1081891D01*
X1079491Y1149600D02*
X1081891D01*
X1079491Y1150400D02*
X1081891D01*
X1080000Y1147548D02*
Y1150648D01*
X1080800Y1147548D02*
Y1150648D01*
X1081600Y1147548D02*
Y1150648D01*
X1081891Y1153948D02*
X1079491D01*
Y1157048*
X1081891*
Y1153948*
X1079491Y1154400D02*
X1081891D01*
X1079491Y1155200D02*
X1081891D01*
X1079491Y1156000D02*
X1081891D01*
X1079491Y1156800D02*
X1081891D01*
X1080000Y1153948D02*
Y1157048D01*
X1080800Y1153948D02*
Y1157048D01*
X1081600Y1153948D02*
Y1157048D01*
X1069891Y1147548D02*
X1067491D01*
Y1150648*
X1069891*
Y1147548*
X1067491Y1148000D02*
X1069891D01*
X1067491Y1148800D02*
X1069891D01*
X1067491Y1149600D02*
X1069891D01*
X1067491Y1150400D02*
X1069891D01*
X1068000Y1147548D02*
Y1150648D01*
X1068800Y1147548D02*
Y1150648D01*
X1069600Y1147548D02*
Y1150648D01*
X1069891Y1153948D02*
X1067491D01*
Y1157048*
X1069891*
Y1153948*
X1067491Y1154400D02*
X1069891D01*
X1067491Y1155200D02*
X1069891D01*
X1067491Y1156000D02*
X1069891D01*
X1067491Y1156800D02*
X1069891D01*
X1068000Y1153948D02*
Y1157048D01*
X1068800Y1153948D02*
Y1157048D01*
X1069600Y1153948D02*
Y1157048D01*
X1063891Y1147548D02*
X1061491D01*
Y1150648*
X1063891*
Y1147548*
X1061491Y1148000D02*
X1063891D01*
X1061491Y1148800D02*
X1063891D01*
X1061491Y1149600D02*
X1063891D01*
X1061491Y1150400D02*
X1063891D01*
X1061600Y1147548D02*
Y1150648D01*
X1062400Y1147548D02*
Y1150648D01*
X1063200Y1147548D02*
Y1150648D01*
X1063891Y1153948D02*
X1061491D01*
Y1157048*
X1063891*
Y1153948*
X1061491Y1154400D02*
X1063891D01*
X1061491Y1155200D02*
X1063891D01*
X1061491Y1156000D02*
X1063891D01*
X1061491Y1156800D02*
X1063891D01*
X1061600Y1153948D02*
Y1157048D01*
X1062400Y1153948D02*
Y1157048D01*
X1063200Y1153948D02*
Y1157048D01*
X1057891Y1147548D02*
X1055491D01*
Y1150648*
X1057891*
Y1147548*
X1055491Y1148000D02*
X1057891D01*
X1055491Y1148800D02*
X1057891D01*
X1055491Y1149600D02*
X1057891D01*
X1055491Y1150400D02*
X1057891D01*
X1056000Y1147548D02*
Y1150648D01*
X1056800Y1147548D02*
Y1150648D01*
X1057600Y1147548D02*
Y1150648D01*
X1057891Y1153948D02*
X1055491D01*
Y1157048*
X1057891*
Y1153948*
X1055491Y1154400D02*
X1057891D01*
X1055491Y1155200D02*
X1057891D01*
X1055491Y1156000D02*
X1057891D01*
X1055491Y1156800D02*
X1057891D01*
X1056000Y1153948D02*
Y1157048D01*
X1056800Y1153948D02*
Y1157048D01*
X1057600Y1153948D02*
Y1157048D01*
X1075891Y1147548D02*
X1073491D01*
Y1150648*
X1075891*
Y1147548*
X1073491Y1148000D02*
X1075891D01*
X1073491Y1148800D02*
X1075891D01*
X1073491Y1149600D02*
X1075891D01*
X1073491Y1150400D02*
X1075891D01*
X1073600Y1147548D02*
Y1150648D01*
X1074400Y1147548D02*
Y1150648D01*
X1075200Y1147548D02*
Y1150648D01*
X1075891Y1153948D02*
X1073491D01*
Y1157048*
X1075891*
Y1153948*
X1073491Y1154400D02*
X1075891D01*
X1073491Y1155200D02*
X1075891D01*
X1073491Y1156000D02*
X1075891D01*
X1073491Y1156800D02*
X1075891D01*
X1073600Y1153948D02*
Y1157048D01*
X1074400Y1153948D02*
Y1157048D01*
X1075200Y1153948D02*
Y1157048D01*
G54D22*
X1007243Y1245743D03*
G54D23*
X1017243D03*
X1007243Y1235743D03*
X1017243D03*
X1007243Y1225743D03*
X1017243D03*
X1007243Y1215743D03*
X1017243D03*
X1007243Y1205743D03*
X1017243D03*
X1007243Y1195743D03*
X1017243D03*
X1007243Y1185743D03*
X1017243D03*
X1007243Y1175743D03*
X1017243D03*
X1007243Y1165743D03*
X1017243D03*
X1007243Y1155743D03*
X1017243D03*
X1007243Y1145743D03*
X1017243D03*
X1007243Y1135743D03*
X1017243D03*
X1007243Y1125743D03*
X1017243D03*
X1007243Y1115743D03*
X1017243D03*
X1007243Y1105743D03*
X1017243D03*
X1007243Y1095743D03*
X1017243D03*
X1007243Y1085743D03*
X1017243D03*
X1007243Y1075743D03*
X1017243D03*
X1007243Y1065743D03*
X1017243D03*
X1007243Y1055743D03*
X1017243D03*
X1007243Y1045743D03*
X1017243D03*
X1007243Y1035743D03*
X1017243D03*
X1007243Y1025743D03*
X1017243D03*
X1007243Y1015743D03*
X1017243D03*
X1007243Y1005743D03*
X1017243D03*
G54D34*
X1036691Y1012778D03*
X1036565Y1005538D03*
X1044565Y1009038D03*
G54D43*
G54D213*
X1033223Y1035781D03*
Y1024364D03*
G54D214*
X1098262Y1011837D03*
Y1024436D03*
Y1033097D03*
Y1041758D03*
X1072121D03*
Y1033097D03*
Y1024436D03*
Y1011837D03*
G54D215*
X1045633Y1083573D03*
X1048183D03*
X1050743D03*
X1053263D03*
X1055863D03*
X1058383D03*
X1060983D03*
X1063503D03*
X1066103D03*
X1068623D03*
X1071223D03*
X1073743D03*
X1076303D03*
X1078853D03*
Y1111913D03*
X1076303D03*
X1073743D03*
X1071223D03*
X1068623D03*
X1066103D03*
X1063503D03*
X1060983D03*
X1058383D03*
X1055863D03*
X1053263D03*
X1050743D03*
X1048183D03*
X1045633D03*
G54D217*
X1071691Y1222798D03*
Y1218782D03*
Y1214766D03*
Y1210751D03*
Y1206735D03*
Y1202719D03*
Y1198703D03*
Y1194688D03*
G54D218*
X1055691Y1010298D03*
Y1030298D03*
G54D221*
X1073660Y1232247D03*
Y1185239D03*
G74*
X0Y0D02*
M02*
