*
*
G04 PADS VX.2.4 Build Number: 11282995 generated Gerber (RS-274-X) file*
G04 PC Version=2.1*
*
%IN "v24.pcb"*%
*
%MOIN*%
*
%FSLAX35Y35*%
*
*
*
*
G04 PC Standard Apertures*
*
*
G04 Thermal Relief Aperture macro.*
%AMTER*
1,1,$1,0,0*
1,0,$1-$2,0,0*
21,0,$3,$4,0,0,45*
21,0,$3,$4,0,0,135*
%
*
*
G04 Annular Aperture macro.*
%AMANN*
1,1,$1,0,0*
1,0,$2,0,0*
%
*
*
G04 Odd Aperture macro.*
%AMODD*
1,1,$1,0,0*
1,0,$1-0.005,0,0*
%
*
*
G04 PC Custom Aperture Macros*
*
*
*
*
*
*
G04 PC Aperture Table*
*
%ADD011C,0.01*%
%ADD043C,0.001*%
*
*
*
*
G04 PC Circuitry*
G04 Layer Name v24.pcb - circuitry*
%LPD*%
*
*
G04 PC Custom Flashes*
G04 Layer Name v24.pcb - flashes*
%LPD*%
*
*
G04 PC Circuitry*
G04 Layer Name v24.pcb - circuitry*
%LPD*%
*
G54D11*
G01X1004243Y1245743D02*
X1010243D01*
X1007243Y1242743D02*
Y1248743D01*
X1008743Y1250524D02*
Y1247243D01*
Y1250524D02*
X1009765D01*
X1010106Y1250368*
X1010220Y1250211*
X1010334Y1249899*
Y1249586*
X1010220Y1249274*
X1010106Y1249118*
X1009765Y1248961*
X1008743D02*
X1009765D01*
X1010106Y1248805*
X1010220Y1248649*
X1010334Y1248336*
Y1247868*
X1010220Y1247555*
X1010106Y1247399*
X1009765Y1247243*
X1008743*
X1014243Y1245743D02*
X1020243D01*
X1017243Y1242743D02*
Y1248743D01*
X1018743Y1250524D02*
Y1247243D01*
Y1250524D02*
X1019765D01*
X1020106Y1250368*
X1020220Y1250211*
X1020334Y1249899*
Y1249586*
X1020220Y1249274*
X1020106Y1249118*
X1019765Y1248961*
X1018743D02*
X1019765D01*
X1020106Y1248805*
X1020220Y1248649*
X1020334Y1248336*
Y1247868*
X1020220Y1247555*
X1020106Y1247399*
X1019765Y1247243*
X1018743*
X1004243Y1235743D02*
X1010243D01*
X1007243Y1232743D02*
Y1238743D01*
X1008743Y1240524D02*
Y1237243D01*
Y1240524D02*
X1009765D01*
X1010106Y1240368*
X1010220Y1240211*
X1010334Y1239899*
Y1239586*
X1010220Y1239274*
X1010106Y1239118*
X1009765Y1238961*
X1008743D02*
X1009765D01*
X1010106Y1238805*
X1010220Y1238649*
X1010334Y1238336*
Y1237868*
X1010220Y1237555*
X1010106Y1237399*
X1009765Y1237243*
X1008743*
X1014243Y1235743D02*
X1020243D01*
X1017243Y1232743D02*
Y1238743D01*
X1018743Y1240524D02*
Y1237243D01*
Y1240524D02*
X1019765D01*
X1020106Y1240368*
X1020220Y1240211*
X1020334Y1239899*
Y1239586*
X1020220Y1239274*
X1020106Y1239118*
X1019765Y1238961*
X1018743D02*
X1019765D01*
X1020106Y1238805*
X1020220Y1238649*
X1020334Y1238336*
Y1237868*
X1020220Y1237555*
X1020106Y1237399*
X1019765Y1237243*
X1018743*
X1004243Y1225743D02*
X1010243D01*
X1007243Y1222743D02*
Y1228743D01*
X1008743Y1230524D02*
Y1227243D01*
Y1230524D02*
X1009765D01*
X1010106Y1230368*
X1010220Y1230211*
X1010334Y1229899*
Y1229586*
X1010220Y1229274*
X1010106Y1229118*
X1009765Y1228961*
X1008743D02*
X1009765D01*
X1010106Y1228805*
X1010220Y1228649*
X1010334Y1228336*
Y1227868*
X1010220Y1227555*
X1010106Y1227399*
X1009765Y1227243*
X1008743*
X1014243Y1225743D02*
X1020243D01*
X1017243Y1222743D02*
Y1228743D01*
X1018743Y1230524D02*
Y1227243D01*
Y1230524D02*
X1019765D01*
X1020106Y1230368*
X1020220Y1230211*
X1020334Y1229899*
Y1229586*
X1020220Y1229274*
X1020106Y1229118*
X1019765Y1228961*
X1018743D02*
X1019765D01*
X1020106Y1228805*
X1020220Y1228649*
X1020334Y1228336*
Y1227868*
X1020220Y1227555*
X1020106Y1227399*
X1019765Y1227243*
X1018743*
X1004243Y1215743D02*
X1010243D01*
X1007243Y1212743D02*
Y1218743D01*
X1008743Y1220524D02*
Y1217243D01*
Y1220524D02*
X1009765D01*
X1010106Y1220368*
X1010220Y1220211*
X1010334Y1219899*
Y1219586*
X1010220Y1219274*
X1010106Y1219118*
X1009765Y1218961*
X1008743D02*
X1009765D01*
X1010106Y1218805*
X1010220Y1218649*
X1010334Y1218336*
Y1217868*
X1010220Y1217555*
X1010106Y1217399*
X1009765Y1217243*
X1008743*
X1014243Y1215743D02*
X1020243D01*
X1017243Y1212743D02*
Y1218743D01*
X1018743Y1220524D02*
Y1217243D01*
Y1220524D02*
X1019765D01*
X1020106Y1220368*
X1020220Y1220211*
X1020334Y1219899*
Y1219586*
X1020220Y1219274*
X1020106Y1219118*
X1019765Y1218961*
X1018743D02*
X1019765D01*
X1020106Y1218805*
X1020220Y1218649*
X1020334Y1218336*
Y1217868*
X1020220Y1217555*
X1020106Y1217399*
X1019765Y1217243*
X1018743*
X1004243Y1205743D02*
X1010243D01*
X1007243Y1202743D02*
Y1208743D01*
X1008743Y1210524D02*
Y1207243D01*
Y1210524D02*
X1009765D01*
X1010106Y1210368*
X1010220Y1210211*
X1010334Y1209899*
Y1209586*
X1010220Y1209274*
X1010106Y1209118*
X1009765Y1208961*
X1008743D02*
X1009765D01*
X1010106Y1208805*
X1010220Y1208649*
X1010334Y1208336*
Y1207868*
X1010220Y1207555*
X1010106Y1207399*
X1009765Y1207243*
X1008743*
X1014243Y1205743D02*
X1020243D01*
X1017243Y1202743D02*
Y1208743D01*
X1018743Y1210524D02*
Y1207243D01*
Y1210524D02*
X1019765D01*
X1020106Y1210368*
X1020220Y1210211*
X1020334Y1209899*
Y1209586*
X1020220Y1209274*
X1020106Y1209118*
X1019765Y1208961*
X1018743D02*
X1019765D01*
X1020106Y1208805*
X1020220Y1208649*
X1020334Y1208336*
Y1207868*
X1020220Y1207555*
X1020106Y1207399*
X1019765Y1207243*
X1018743*
X1004243Y1195743D02*
X1010243D01*
X1007243Y1192743D02*
Y1198743D01*
X1008743Y1200524D02*
Y1197243D01*
Y1200524D02*
X1009765D01*
X1010106Y1200368*
X1010220Y1200211*
X1010334Y1199899*
Y1199586*
X1010220Y1199274*
X1010106Y1199118*
X1009765Y1198961*
X1008743D02*
X1009765D01*
X1010106Y1198805*
X1010220Y1198649*
X1010334Y1198336*
Y1197868*
X1010220Y1197555*
X1010106Y1197399*
X1009765Y1197243*
X1008743*
X1014243Y1195743D02*
X1020243D01*
X1017243Y1192743D02*
Y1198743D01*
X1018743Y1200524D02*
Y1197243D01*
Y1200524D02*
X1019765D01*
X1020106Y1200368*
X1020220Y1200211*
X1020334Y1199899*
Y1199586*
X1020220Y1199274*
X1020106Y1199118*
X1019765Y1198961*
X1018743D02*
X1019765D01*
X1020106Y1198805*
X1020220Y1198649*
X1020334Y1198336*
Y1197868*
X1020220Y1197555*
X1020106Y1197399*
X1019765Y1197243*
X1018743*
X1004243Y1185743D02*
X1010243D01*
X1007243Y1182743D02*
Y1188743D01*
X1008743Y1190524D02*
Y1187243D01*
Y1190524D02*
X1009765D01*
X1010106Y1190368*
X1010220Y1190211*
X1010334Y1189899*
Y1189586*
X1010220Y1189274*
X1010106Y1189118*
X1009765Y1188961*
X1008743D02*
X1009765D01*
X1010106Y1188805*
X1010220Y1188649*
X1010334Y1188336*
Y1187868*
X1010220Y1187555*
X1010106Y1187399*
X1009765Y1187243*
X1008743*
X1014243Y1185743D02*
X1020243D01*
X1017243Y1182743D02*
Y1188743D01*
X1018743Y1190524D02*
Y1187243D01*
Y1190524D02*
X1019765D01*
X1020106Y1190368*
X1020220Y1190211*
X1020334Y1189899*
Y1189586*
X1020220Y1189274*
X1020106Y1189118*
X1019765Y1188961*
X1018743D02*
X1019765D01*
X1020106Y1188805*
X1020220Y1188649*
X1020334Y1188336*
Y1187868*
X1020220Y1187555*
X1020106Y1187399*
X1019765Y1187243*
X1018743*
X1004243Y1175743D02*
X1010243D01*
X1007243Y1172743D02*
Y1178743D01*
X1008743Y1180524D02*
Y1177243D01*
Y1180524D02*
X1009765D01*
X1010106Y1180368*
X1010220Y1180211*
X1010334Y1179899*
Y1179586*
X1010220Y1179274*
X1010106Y1179118*
X1009765Y1178961*
X1008743D02*
X1009765D01*
X1010106Y1178805*
X1010220Y1178649*
X1010334Y1178336*
Y1177868*
X1010220Y1177555*
X1010106Y1177399*
X1009765Y1177243*
X1008743*
X1014243Y1175743D02*
X1020243D01*
X1017243Y1172743D02*
Y1178743D01*
X1018743Y1180524D02*
Y1177243D01*
Y1180524D02*
X1019765D01*
X1020106Y1180368*
X1020220Y1180211*
X1020334Y1179899*
Y1179586*
X1020220Y1179274*
X1020106Y1179118*
X1019765Y1178961*
X1018743D02*
X1019765D01*
X1020106Y1178805*
X1020220Y1178649*
X1020334Y1178336*
Y1177868*
X1020220Y1177555*
X1020106Y1177399*
X1019765Y1177243*
X1018743*
X1004243Y1165743D02*
X1010243D01*
X1007243Y1162743D02*
Y1168743D01*
X1008743Y1170524D02*
Y1167243D01*
Y1170524D02*
X1009765D01*
X1010106Y1170368*
X1010220Y1170211*
X1010334Y1169899*
Y1169586*
X1010220Y1169274*
X1010106Y1169118*
X1009765Y1168961*
X1008743D02*
X1009765D01*
X1010106Y1168805*
X1010220Y1168649*
X1010334Y1168336*
Y1167868*
X1010220Y1167555*
X1010106Y1167399*
X1009765Y1167243*
X1008743*
X1014243Y1165743D02*
X1020243D01*
X1017243Y1162743D02*
Y1168743D01*
X1018743Y1170524D02*
Y1167243D01*
Y1170524D02*
X1019765D01*
X1020106Y1170368*
X1020220Y1170211*
X1020334Y1169899*
Y1169586*
X1020220Y1169274*
X1020106Y1169118*
X1019765Y1168961*
X1018743D02*
X1019765D01*
X1020106Y1168805*
X1020220Y1168649*
X1020334Y1168336*
Y1167868*
X1020220Y1167555*
X1020106Y1167399*
X1019765Y1167243*
X1018743*
X1004243Y1155743D02*
X1010243D01*
X1007243Y1152743D02*
Y1158743D01*
X1008743Y1160524D02*
Y1157243D01*
Y1160524D02*
X1009765D01*
X1010106Y1160368*
X1010220Y1160211*
X1010334Y1159899*
Y1159586*
X1010220Y1159274*
X1010106Y1159118*
X1009765Y1158961*
X1008743D02*
X1009765D01*
X1010106Y1158805*
X1010220Y1158649*
X1010334Y1158336*
Y1157868*
X1010220Y1157555*
X1010106Y1157399*
X1009765Y1157243*
X1008743*
X1014243Y1155743D02*
X1020243D01*
X1017243Y1152743D02*
Y1158743D01*
X1018743Y1160524D02*
Y1157243D01*
Y1160524D02*
X1019765D01*
X1020106Y1160368*
X1020220Y1160211*
X1020334Y1159899*
Y1159586*
X1020220Y1159274*
X1020106Y1159118*
X1019765Y1158961*
X1018743D02*
X1019765D01*
X1020106Y1158805*
X1020220Y1158649*
X1020334Y1158336*
Y1157868*
X1020220Y1157555*
X1020106Y1157399*
X1019765Y1157243*
X1018743*
X1004243Y1145743D02*
X1010243D01*
X1007243Y1142743D02*
Y1148743D01*
X1008743Y1150524D02*
Y1147243D01*
Y1150524D02*
X1009765D01*
X1010106Y1150368*
X1010220Y1150211*
X1010334Y1149899*
Y1149586*
X1010220Y1149274*
X1010106Y1149118*
X1009765Y1148961*
X1008743D02*
X1009765D01*
X1010106Y1148805*
X1010220Y1148649*
X1010334Y1148336*
Y1147868*
X1010220Y1147555*
X1010106Y1147399*
X1009765Y1147243*
X1008743*
X1014243Y1145743D02*
X1020243D01*
X1017243Y1142743D02*
Y1148743D01*
X1018743Y1150524D02*
Y1147243D01*
Y1150524D02*
X1019765D01*
X1020106Y1150368*
X1020220Y1150211*
X1020334Y1149899*
Y1149586*
X1020220Y1149274*
X1020106Y1149118*
X1019765Y1148961*
X1018743D02*
X1019765D01*
X1020106Y1148805*
X1020220Y1148649*
X1020334Y1148336*
Y1147868*
X1020220Y1147555*
X1020106Y1147399*
X1019765Y1147243*
X1018743*
X1004243Y1135743D02*
X1010243D01*
X1007243Y1132743D02*
Y1138743D01*
X1008743Y1140524D02*
Y1137243D01*
Y1140524D02*
X1009765D01*
X1010106Y1140368*
X1010220Y1140211*
X1010334Y1139899*
Y1139586*
X1010220Y1139274*
X1010106Y1139118*
X1009765Y1138961*
X1008743D02*
X1009765D01*
X1010106Y1138805*
X1010220Y1138649*
X1010334Y1138336*
Y1137868*
X1010220Y1137555*
X1010106Y1137399*
X1009765Y1137243*
X1008743*
X1014243Y1135743D02*
X1020243D01*
X1017243Y1132743D02*
Y1138743D01*
X1018743Y1140524D02*
Y1137243D01*
Y1140524D02*
X1019765D01*
X1020106Y1140368*
X1020220Y1140211*
X1020334Y1139899*
Y1139586*
X1020220Y1139274*
X1020106Y1139118*
X1019765Y1138961*
X1018743D02*
X1019765D01*
X1020106Y1138805*
X1020220Y1138649*
X1020334Y1138336*
Y1137868*
X1020220Y1137555*
X1020106Y1137399*
X1019765Y1137243*
X1018743*
X1004243Y1125743D02*
X1010243D01*
X1007243Y1122743D02*
Y1128743D01*
X1008743Y1130524D02*
Y1127243D01*
Y1130524D02*
X1009765D01*
X1010106Y1130368*
X1010220Y1130211*
X1010334Y1129899*
Y1129586*
X1010220Y1129274*
X1010106Y1129118*
X1009765Y1128961*
X1008743D02*
X1009765D01*
X1010106Y1128805*
X1010220Y1128649*
X1010334Y1128336*
Y1127868*
X1010220Y1127555*
X1010106Y1127399*
X1009765Y1127243*
X1008743*
X1014243Y1125743D02*
X1020243D01*
X1017243Y1122743D02*
Y1128743D01*
X1018743Y1130524D02*
Y1127243D01*
Y1130524D02*
X1019765D01*
X1020106Y1130368*
X1020220Y1130211*
X1020334Y1129899*
Y1129586*
X1020220Y1129274*
X1020106Y1129118*
X1019765Y1128961*
X1018743D02*
X1019765D01*
X1020106Y1128805*
X1020220Y1128649*
X1020334Y1128336*
Y1127868*
X1020220Y1127555*
X1020106Y1127399*
X1019765Y1127243*
X1018743*
X1004243Y1115743D02*
X1010243D01*
X1007243Y1112743D02*
Y1118743D01*
X1008743Y1120524D02*
Y1117243D01*
Y1120524D02*
X1009765D01*
X1010106Y1120368*
X1010220Y1120211*
X1010334Y1119899*
Y1119586*
X1010220Y1119274*
X1010106Y1119118*
X1009765Y1118961*
X1008743D02*
X1009765D01*
X1010106Y1118805*
X1010220Y1118649*
X1010334Y1118336*
Y1117868*
X1010220Y1117555*
X1010106Y1117399*
X1009765Y1117243*
X1008743*
X1014243Y1115743D02*
X1020243D01*
X1017243Y1112743D02*
Y1118743D01*
X1018743Y1120524D02*
Y1117243D01*
Y1120524D02*
X1019765D01*
X1020106Y1120368*
X1020220Y1120211*
X1020334Y1119899*
Y1119586*
X1020220Y1119274*
X1020106Y1119118*
X1019765Y1118961*
X1018743D02*
X1019765D01*
X1020106Y1118805*
X1020220Y1118649*
X1020334Y1118336*
Y1117868*
X1020220Y1117555*
X1020106Y1117399*
X1019765Y1117243*
X1018743*
X1004243Y1105743D02*
X1010243D01*
X1007243Y1102743D02*
Y1108743D01*
X1008743Y1110524D02*
Y1107243D01*
Y1110524D02*
X1009765D01*
X1010106Y1110368*
X1010220Y1110211*
X1010334Y1109899*
Y1109586*
X1010220Y1109274*
X1010106Y1109118*
X1009765Y1108961*
X1008743D02*
X1009765D01*
X1010106Y1108805*
X1010220Y1108649*
X1010334Y1108336*
Y1107868*
X1010220Y1107555*
X1010106Y1107399*
X1009765Y1107243*
X1008743*
X1014243Y1105743D02*
X1020243D01*
X1017243Y1102743D02*
Y1108743D01*
X1018743Y1110524D02*
Y1107243D01*
Y1110524D02*
X1019765D01*
X1020106Y1110368*
X1020220Y1110211*
X1020334Y1109899*
Y1109586*
X1020220Y1109274*
X1020106Y1109118*
X1019765Y1108961*
X1018743D02*
X1019765D01*
X1020106Y1108805*
X1020220Y1108649*
X1020334Y1108336*
Y1107868*
X1020220Y1107555*
X1020106Y1107399*
X1019765Y1107243*
X1018743*
X1004243Y1095743D02*
X1010243D01*
X1007243Y1092743D02*
Y1098743D01*
X1008743Y1100524D02*
Y1097243D01*
Y1100524D02*
X1009765D01*
X1010106Y1100368*
X1010220Y1100211*
X1010334Y1099899*
Y1099586*
X1010220Y1099274*
X1010106Y1099118*
X1009765Y1098961*
X1008743D02*
X1009765D01*
X1010106Y1098805*
X1010220Y1098649*
X1010334Y1098336*
Y1097868*
X1010220Y1097555*
X1010106Y1097399*
X1009765Y1097243*
X1008743*
X1014243Y1095743D02*
X1020243D01*
X1017243Y1092743D02*
Y1098743D01*
X1018743Y1100524D02*
Y1097243D01*
Y1100524D02*
X1019765D01*
X1020106Y1100368*
X1020220Y1100211*
X1020334Y1099899*
Y1099586*
X1020220Y1099274*
X1020106Y1099118*
X1019765Y1098961*
X1018743D02*
X1019765D01*
X1020106Y1098805*
X1020220Y1098649*
X1020334Y1098336*
Y1097868*
X1020220Y1097555*
X1020106Y1097399*
X1019765Y1097243*
X1018743*
X1004243Y1085743D02*
X1010243D01*
X1007243Y1082743D02*
Y1088743D01*
X1008743Y1090524D02*
Y1087243D01*
Y1090524D02*
X1009765D01*
X1010106Y1090368*
X1010220Y1090211*
X1010334Y1089899*
Y1089586*
X1010220Y1089274*
X1010106Y1089118*
X1009765Y1088961*
X1008743D02*
X1009765D01*
X1010106Y1088805*
X1010220Y1088649*
X1010334Y1088336*
Y1087868*
X1010220Y1087555*
X1010106Y1087399*
X1009765Y1087243*
X1008743*
X1014243Y1085743D02*
X1020243D01*
X1017243Y1082743D02*
Y1088743D01*
X1018743Y1090524D02*
Y1087243D01*
Y1090524D02*
X1019765D01*
X1020106Y1090368*
X1020220Y1090211*
X1020334Y1089899*
Y1089586*
X1020220Y1089274*
X1020106Y1089118*
X1019765Y1088961*
X1018743D02*
X1019765D01*
X1020106Y1088805*
X1020220Y1088649*
X1020334Y1088336*
Y1087868*
X1020220Y1087555*
X1020106Y1087399*
X1019765Y1087243*
X1018743*
X1004243Y1075743D02*
X1010243D01*
X1007243Y1072743D02*
Y1078743D01*
X1008743Y1080524D02*
Y1077243D01*
Y1080524D02*
X1009765D01*
X1010106Y1080368*
X1010220Y1080211*
X1010334Y1079899*
Y1079586*
X1010220Y1079274*
X1010106Y1079118*
X1009765Y1078961*
X1008743D02*
X1009765D01*
X1010106Y1078805*
X1010220Y1078649*
X1010334Y1078336*
Y1077868*
X1010220Y1077555*
X1010106Y1077399*
X1009765Y1077243*
X1008743*
X1014243Y1075743D02*
X1020243D01*
X1017243Y1072743D02*
Y1078743D01*
X1018743Y1080524D02*
Y1077243D01*
Y1080524D02*
X1019765D01*
X1020106Y1080368*
X1020220Y1080211*
X1020334Y1079899*
Y1079586*
X1020220Y1079274*
X1020106Y1079118*
X1019765Y1078961*
X1018743D02*
X1019765D01*
X1020106Y1078805*
X1020220Y1078649*
X1020334Y1078336*
Y1077868*
X1020220Y1077555*
X1020106Y1077399*
X1019765Y1077243*
X1018743*
X1004243Y1065743D02*
X1010243D01*
X1007243Y1062743D02*
Y1068743D01*
X1008743Y1070524D02*
Y1067243D01*
Y1070524D02*
X1009765D01*
X1010106Y1070368*
X1010220Y1070211*
X1010334Y1069899*
Y1069586*
X1010220Y1069274*
X1010106Y1069118*
X1009765Y1068961*
X1008743D02*
X1009765D01*
X1010106Y1068805*
X1010220Y1068649*
X1010334Y1068336*
Y1067868*
X1010220Y1067555*
X1010106Y1067399*
X1009765Y1067243*
X1008743*
X1014243Y1065743D02*
X1020243D01*
X1017243Y1062743D02*
Y1068743D01*
X1018743Y1070524D02*
Y1067243D01*
Y1070524D02*
X1019765D01*
X1020106Y1070368*
X1020220Y1070211*
X1020334Y1069899*
Y1069586*
X1020220Y1069274*
X1020106Y1069118*
X1019765Y1068961*
X1018743D02*
X1019765D01*
X1020106Y1068805*
X1020220Y1068649*
X1020334Y1068336*
Y1067868*
X1020220Y1067555*
X1020106Y1067399*
X1019765Y1067243*
X1018743*
X1004243Y1055743D02*
X1010243D01*
X1007243Y1052743D02*
Y1058743D01*
X1008743Y1060524D02*
Y1057243D01*
Y1060524D02*
X1009765D01*
X1010106Y1060368*
X1010220Y1060211*
X1010334Y1059899*
Y1059586*
X1010220Y1059274*
X1010106Y1059118*
X1009765Y1058961*
X1008743D02*
X1009765D01*
X1010106Y1058805*
X1010220Y1058649*
X1010334Y1058336*
Y1057868*
X1010220Y1057555*
X1010106Y1057399*
X1009765Y1057243*
X1008743*
X1014243Y1055743D02*
X1020243D01*
X1017243Y1052743D02*
Y1058743D01*
X1018743Y1060524D02*
Y1057243D01*
Y1060524D02*
X1019765D01*
X1020106Y1060368*
X1020220Y1060211*
X1020334Y1059899*
Y1059586*
X1020220Y1059274*
X1020106Y1059118*
X1019765Y1058961*
X1018743D02*
X1019765D01*
X1020106Y1058805*
X1020220Y1058649*
X1020334Y1058336*
Y1057868*
X1020220Y1057555*
X1020106Y1057399*
X1019765Y1057243*
X1018743*
X1004243Y1045743D02*
X1010243D01*
X1007243Y1042743D02*
Y1048743D01*
X1008743Y1050524D02*
Y1047243D01*
Y1050524D02*
X1009765D01*
X1010106Y1050368*
X1010220Y1050211*
X1010334Y1049899*
Y1049586*
X1010220Y1049274*
X1010106Y1049118*
X1009765Y1048961*
X1008743D02*
X1009765D01*
X1010106Y1048805*
X1010220Y1048649*
X1010334Y1048336*
Y1047868*
X1010220Y1047555*
X1010106Y1047399*
X1009765Y1047243*
X1008743*
X1014243Y1045743D02*
X1020243D01*
X1017243Y1042743D02*
Y1048743D01*
X1018743Y1050524D02*
Y1047243D01*
Y1050524D02*
X1019765D01*
X1020106Y1050368*
X1020220Y1050211*
X1020334Y1049899*
Y1049586*
X1020220Y1049274*
X1020106Y1049118*
X1019765Y1048961*
X1018743D02*
X1019765D01*
X1020106Y1048805*
X1020220Y1048649*
X1020334Y1048336*
Y1047868*
X1020220Y1047555*
X1020106Y1047399*
X1019765Y1047243*
X1018743*
X1004243Y1035743D02*
X1010243D01*
X1007243Y1032743D02*
Y1038743D01*
X1008743Y1040524D02*
Y1037243D01*
Y1040524D02*
X1009765D01*
X1010106Y1040368*
X1010220Y1040211*
X1010334Y1039899*
Y1039586*
X1010220Y1039274*
X1010106Y1039118*
X1009765Y1038961*
X1008743D02*
X1009765D01*
X1010106Y1038805*
X1010220Y1038649*
X1010334Y1038336*
Y1037868*
X1010220Y1037555*
X1010106Y1037399*
X1009765Y1037243*
X1008743*
X1014243Y1035743D02*
X1020243D01*
X1017243Y1032743D02*
Y1038743D01*
X1018743Y1040524D02*
Y1037243D01*
Y1040524D02*
X1019765D01*
X1020106Y1040368*
X1020220Y1040211*
X1020334Y1039899*
Y1039586*
X1020220Y1039274*
X1020106Y1039118*
X1019765Y1038961*
X1018743D02*
X1019765D01*
X1020106Y1038805*
X1020220Y1038649*
X1020334Y1038336*
Y1037868*
X1020220Y1037555*
X1020106Y1037399*
X1019765Y1037243*
X1018743*
X1004243Y1025743D02*
X1010243D01*
X1007243Y1022743D02*
Y1028743D01*
X1008743Y1030524D02*
Y1027243D01*
Y1030524D02*
X1009765D01*
X1010106Y1030368*
X1010220Y1030211*
X1010334Y1029899*
Y1029586*
X1010220Y1029274*
X1010106Y1029118*
X1009765Y1028961*
X1008743D02*
X1009765D01*
X1010106Y1028805*
X1010220Y1028649*
X1010334Y1028336*
Y1027868*
X1010220Y1027555*
X1010106Y1027399*
X1009765Y1027243*
X1008743*
X1014243Y1025743D02*
X1020243D01*
X1017243Y1022743D02*
Y1028743D01*
X1018743Y1030524D02*
Y1027243D01*
Y1030524D02*
X1019765D01*
X1020106Y1030368*
X1020220Y1030211*
X1020334Y1029899*
Y1029586*
X1020220Y1029274*
X1020106Y1029118*
X1019765Y1028961*
X1018743D02*
X1019765D01*
X1020106Y1028805*
X1020220Y1028649*
X1020334Y1028336*
Y1027868*
X1020220Y1027555*
X1020106Y1027399*
X1019765Y1027243*
X1018743*
X1004243Y1015743D02*
X1010243D01*
X1007243Y1012743D02*
Y1018743D01*
X1008743Y1020524D02*
Y1017243D01*
Y1020524D02*
X1009765D01*
X1010106Y1020368*
X1010220Y1020211*
X1010334Y1019899*
Y1019586*
X1010220Y1019274*
X1010106Y1019118*
X1009765Y1018961*
X1008743D02*
X1009765D01*
X1010106Y1018805*
X1010220Y1018649*
X1010334Y1018336*
Y1017868*
X1010220Y1017555*
X1010106Y1017399*
X1009765Y1017243*
X1008743*
X1014243Y1015743D02*
X1020243D01*
X1017243Y1012743D02*
Y1018743D01*
X1018743Y1020524D02*
Y1017243D01*
Y1020524D02*
X1019765D01*
X1020106Y1020368*
X1020220Y1020211*
X1020334Y1019899*
Y1019586*
X1020220Y1019274*
X1020106Y1019118*
X1019765Y1018961*
X1018743D02*
X1019765D01*
X1020106Y1018805*
X1020220Y1018649*
X1020334Y1018336*
Y1017868*
X1020220Y1017555*
X1020106Y1017399*
X1019765Y1017243*
X1018743*
X1004243Y1005743D02*
X1010243D01*
X1007243Y1002743D02*
Y1008743D01*
X1008743Y1010524D02*
Y1007243D01*
Y1010524D02*
X1009765D01*
X1010106Y1010368*
X1010220Y1010211*
X1010334Y1009899*
Y1009586*
X1010220Y1009274*
X1010106Y1009118*
X1009765Y1008961*
X1008743D02*
X1009765D01*
X1010106Y1008805*
X1010220Y1008649*
X1010334Y1008336*
Y1007868*
X1010220Y1007555*
X1010106Y1007399*
X1009765Y1007243*
X1008743*
X1014243Y1005743D02*
X1020243D01*
X1017243Y1002743D02*
Y1008743D01*
X1018743Y1010524D02*
Y1007243D01*
Y1010524D02*
X1019765D01*
X1020106Y1010368*
X1020220Y1010211*
X1020334Y1009899*
Y1009586*
X1020220Y1009274*
X1020106Y1009118*
X1019765Y1008961*
X1018743D02*
X1019765D01*
X1020106Y1008805*
X1020220Y1008649*
X1020334Y1008336*
Y1007868*
X1020220Y1007555*
X1020106Y1007399*
X1019765Y1007243*
X1018743*
X1096644Y1241420D02*
X1102644D01*
X1099644Y1238420D02*
Y1244420D01*
X1102849Y1245420D02*
X1102735Y1245732D01*
X1102508Y1246045*
X1102281Y1246201*
X1101826*
X1101599Y1246045*
X1101371Y1245732*
X1101258Y1245420*
X1101144Y1244951*
Y1244170*
X1101258Y1243701*
X1101371Y1243389*
X1101599Y1243076*
X1101826Y1242920*
X1102281*
X1102508Y1243076*
X1102735Y1243389*
X1102849Y1243701*
X1096644Y1176065D02*
X1102644D01*
X1099644Y1173065D02*
Y1179065D01*
X1102849Y1180065D02*
X1102735Y1180378D01*
X1102508Y1180690*
X1102281Y1180847*
X1101826*
X1101599Y1180690*
X1101371Y1180378*
X1101258Y1180065*
X1101144Y1179597*
Y1178815*
X1101258Y1178347*
X1101371Y1178034*
X1101599Y1177722*
X1101826Y1177565*
X1102281*
X1102508Y1177722*
X1102735Y1178034*
X1102849Y1178347*
X1070660Y1232247D02*
X1076660D01*
X1073660Y1229247D02*
Y1235247D01*
X1075160Y1237028D02*
Y1233747D01*
Y1237028D02*
X1075955D01*
X1076296Y1236872*
X1076524Y1236559*
X1076637Y1236247*
X1076751Y1235778*
Y1234997*
X1076637Y1234528*
X1076524Y1234215*
X1076296Y1233903*
X1075955Y1233747*
X1075160*
X1070660Y1185239D02*
X1076660D01*
X1073660Y1182239D02*
Y1188239D01*
X1075160Y1190020D02*
Y1186739D01*
Y1190020D02*
X1075955D01*
X1076296Y1189864*
X1076524Y1189551*
X1076637Y1189239*
X1076751Y1188770*
Y1187989*
X1076637Y1187520*
X1076524Y1187207*
X1076296Y1186895*
X1075955Y1186739*
X1075160*
X1020623Y1061913D02*
X1026623D01*
X1023623Y1058913D02*
Y1064913D01*
X1025123Y1066694D02*
Y1063413D01*
Y1066694D02*
X1026600D01*
X1025123Y1065131D02*
X1026032D01*
X1025123Y1063413D02*
X1026600D01*
X1023623Y1058913D02*
X1029623D01*
X1026623Y1055913D02*
Y1061913D01*
X1028123Y1063694D02*
Y1060413D01*
Y1063694D02*
X1029600D01*
X1028123Y1062131D02*
X1029032D01*
X1028123Y1060413D02*
X1029600D01*
X1020623Y1058913D02*
X1026623D01*
X1023623Y1055913D02*
Y1061913D01*
X1025123Y1063694D02*
Y1060413D01*
Y1063694D02*
X1026600D01*
X1025123Y1062131D02*
X1026032D01*
X1025123Y1060413D02*
X1026600D01*
X1035623Y1046913D02*
X1041623D01*
X1038623Y1043913D02*
Y1049913D01*
X1040123Y1051694D02*
Y1048413D01*
Y1051694D02*
X1041600D01*
X1040123Y1050131D02*
X1041032D01*
X1040123Y1048413D02*
X1041600D01*
X1038623Y1046913D02*
X1044623D01*
X1041623Y1043913D02*
Y1049913D01*
X1043123Y1051694D02*
Y1048413D01*
Y1051694D02*
X1044600D01*
X1043123Y1050131D02*
X1044032D01*
X1043123Y1048413D02*
X1044600D01*
X1038623Y1049913D02*
X1044623D01*
X1041623Y1046913D02*
Y1052913D01*
X1043123Y1054694D02*
Y1051413D01*
Y1054694D02*
X1044600D01*
X1043123Y1053131D02*
X1044032D01*
X1043123Y1051413D02*
X1044600D01*
X1023623Y1061913D02*
X1029623D01*
X1026623Y1058913D02*
Y1064913D01*
X1028123Y1066694D02*
Y1063413D01*
Y1066694D02*
X1029600D01*
X1028123Y1065131D02*
X1029032D01*
X1028123Y1063413D02*
X1029600D01*
X1038623Y1076913D02*
X1044623D01*
X1041623Y1073913D02*
Y1079913D01*
X1043123Y1081694D02*
Y1078413D01*
Y1081694D02*
X1044600D01*
X1043123Y1080131D02*
X1044032D01*
X1043123Y1078413D02*
X1044600D01*
X1041623Y1019913D02*
X1047623D01*
X1044623Y1016913D02*
Y1022913D01*
X1046123Y1024694D02*
Y1021413D01*
Y1024694D02*
X1047600D01*
X1046123Y1023131D02*
X1047032D01*
X1046123Y1021413D02*
X1047600D01*
X1035623Y1049913D02*
X1041623D01*
X1038623Y1046913D02*
Y1052913D01*
X1040123Y1054694D02*
Y1051413D01*
Y1054694D02*
X1041600D01*
X1040123Y1053131D02*
X1041032D01*
X1040123Y1051413D02*
X1041600D01*
X1035623Y1076913D02*
X1041623D01*
X1038623Y1073913D02*
Y1079913D01*
X1040123Y1081694D02*
Y1078413D01*
Y1081694D02*
X1041600D01*
X1040123Y1080131D02*
X1041032D01*
X1040123Y1078413D02*
X1041600D01*
X1023623Y1064913D02*
X1029623D01*
X1026623Y1061913D02*
Y1067913D01*
X1028123Y1069694D02*
Y1066413D01*
Y1069694D02*
X1029600D01*
X1028123Y1068131D02*
X1029032D01*
X1028123Y1066413D02*
X1029600D01*
X1020623Y1064913D02*
X1026623D01*
X1023623Y1061913D02*
Y1067913D01*
X1025123Y1069694D02*
Y1066413D01*
Y1069694D02*
X1026600D01*
X1025123Y1068131D02*
X1026032D01*
X1025123Y1066413D02*
X1026600D01*
X1035623Y1073913D02*
X1041623D01*
X1038623Y1070913D02*
Y1076913D01*
X1040123Y1078694D02*
Y1075413D01*
Y1078694D02*
X1041600D01*
X1040123Y1077131D02*
X1041032D01*
X1040123Y1075413D02*
X1041600D01*
X1038623Y1073913D02*
X1044623D01*
X1041623Y1070913D02*
Y1076913D01*
X1043123Y1078694D02*
Y1075413D01*
Y1078694D02*
X1044600D01*
X1043123Y1077131D02*
X1044032D01*
X1043123Y1075413D02*
X1044600D01*
X1041623Y1016913D02*
X1047623D01*
X1044623Y1013913D02*
Y1019913D01*
X1046123Y1021694D02*
Y1018413D01*
Y1021694D02*
X1047600D01*
X1046123Y1020131D02*
X1047032D01*
X1046123Y1018413D02*
X1047600D01*
X1083623Y1040913D02*
X1089623D01*
X1086623Y1037913D02*
Y1043913D01*
X1088123Y1045694D02*
Y1042413D01*
Y1045694D02*
X1089600D01*
X1088123Y1044131D02*
X1089032D01*
X1088123Y1042413D02*
X1089600D01*
X1083623Y1037913D02*
X1089623D01*
X1086623Y1034913D02*
Y1040913D01*
X1088123Y1042694D02*
Y1039413D01*
Y1042694D02*
X1089600D01*
X1088123Y1041131D02*
X1089032D01*
X1088123Y1039413D02*
X1089600D01*
X1086623Y1040913D02*
X1092623D01*
X1089623Y1037913D02*
Y1043913D01*
X1091123Y1045694D02*
Y1042413D01*
Y1045694D02*
X1092600D01*
X1091123Y1044131D02*
X1092032D01*
X1091123Y1042413D02*
X1092600D01*
X1086623Y1037913D02*
X1092623D01*
X1089623Y1034913D02*
Y1040913D01*
X1091123Y1042694D02*
Y1039413D01*
Y1042694D02*
X1092600D01*
X1091123Y1041131D02*
X1092032D01*
X1091123Y1039413D02*
X1092600D01*
X1074623Y1067913D02*
X1080623D01*
X1077623Y1064913D02*
Y1070913D01*
X1079123Y1072694D02*
Y1069413D01*
Y1072694D02*
X1080600D01*
X1079123Y1071131D02*
X1080032D01*
X1079123Y1069413D02*
X1080600D01*
X1089623Y1064913D02*
X1095623D01*
X1092623Y1061913D02*
Y1067913D01*
X1094123Y1069694D02*
Y1066413D01*
Y1069694D02*
X1095600D01*
X1094123Y1068131D02*
X1095032D01*
X1094123Y1066413D02*
X1095600D01*
X1092623Y1064913D02*
X1098623D01*
X1095623Y1061913D02*
Y1067913D01*
X1097123Y1069694D02*
Y1066413D01*
Y1069694D02*
X1098600D01*
X1097123Y1068131D02*
X1098032D01*
X1097123Y1066413D02*
X1098600D01*
X1092623Y1067913D02*
X1098623D01*
X1095623Y1064913D02*
Y1070913D01*
X1097123Y1072694D02*
Y1069413D01*
Y1072694D02*
X1098600D01*
X1097123Y1071131D02*
X1098032D01*
X1097123Y1069413D02*
X1098600D01*
X1074623Y1064913D02*
X1080623D01*
X1077623Y1061913D02*
Y1067913D01*
X1079123Y1069694D02*
Y1066413D01*
Y1069694D02*
X1080600D01*
X1079123Y1068131D02*
X1080032D01*
X1079123Y1066413D02*
X1080600D01*
X1084243Y1024243D02*
X1090243D01*
X1087243Y1021243D02*
Y1027243D01*
X1088743Y1029024D02*
Y1025743D01*
Y1029024D02*
X1090220D01*
X1088743Y1027461D02*
X1089652D01*
X1088743Y1025743D02*
X1090220D01*
X1084243Y1028243D02*
X1090243D01*
X1087243Y1025243D02*
Y1031243D01*
X1088743Y1033024D02*
Y1029743D01*
Y1033024D02*
X1090220D01*
X1088743Y1031461D02*
X1089652D01*
X1088743Y1029743D02*
X1090220D01*
X1081243Y1028243D02*
X1087243D01*
X1084243Y1025243D02*
Y1031243D01*
X1085743Y1033024D02*
Y1029743D01*
Y1033024D02*
X1087220D01*
X1085743Y1031461D02*
X1086652D01*
X1085743Y1029743D02*
X1087220D01*
X1089623Y1067913D02*
X1095623D01*
X1092623Y1064913D02*
Y1070913D01*
X1094123Y1072694D02*
Y1069413D01*
Y1072694D02*
X1095600D01*
X1094123Y1071131D02*
X1095032D01*
X1094123Y1069413D02*
X1095600D01*
X1044623Y1016913D02*
X1050623D01*
X1047623Y1013913D02*
Y1019913D01*
X1049123Y1021694D02*
Y1018413D01*
Y1021694D02*
X1050600D01*
X1049123Y1020131D02*
X1050032D01*
X1049123Y1018413D02*
X1050600D01*
X1077623Y1067913D02*
X1083623D01*
X1080623Y1064913D02*
Y1070913D01*
X1082123Y1072694D02*
Y1069413D01*
Y1072694D02*
X1083600D01*
X1082123Y1071131D02*
X1083032D01*
X1082123Y1069413D02*
X1083600D01*
X1081343Y1024243D02*
X1087343D01*
X1084343Y1021243D02*
Y1027243D01*
X1085843Y1029024D02*
Y1025743D01*
Y1029024D02*
X1087320D01*
X1085843Y1027461D02*
X1086752D01*
X1085843Y1025743D02*
X1087320D01*
X1044623Y1019913D02*
X1050623D01*
X1047623Y1016913D02*
Y1022913D01*
X1049123Y1024694D02*
Y1021413D01*
Y1024694D02*
X1050600D01*
X1049123Y1023131D02*
X1050032D01*
X1049123Y1021413D02*
X1050600D01*
X1052691Y1037298D02*
X1058691D01*
X1055691Y1034298D02*
Y1040298D01*
X1057191Y1042079D02*
Y1038798D01*
Y1042079D02*
X1058669D01*
X1057191Y1040517D02*
X1058101D01*
X1077623Y1064913D02*
X1083623D01*
X1080623Y1061913D02*
Y1067913D01*
X1082123Y1069694D02*
Y1066413D01*
Y1069694D02*
X1083600D01*
X1082123Y1068131D02*
X1083032D01*
X1082123Y1066413D02*
X1083600D01*
X1088262Y1033097D02*
X1094262D01*
X1091262Y1030097D02*
Y1036097D01*
X1092762Y1037878D02*
Y1034597D01*
Y1037878D02*
X1094240D01*
X1092762Y1036316D02*
X1093671D01*
X1092762Y1034597D02*
X1094240D01*
X1048243Y1074573D02*
X1054243D01*
X1051243Y1071573D02*
Y1077573D01*
X1052743Y1079354D02*
Y1076073D01*
Y1079354D02*
X1054220D01*
X1052743Y1077791D02*
X1053652D01*
X1052743Y1076073D02*
X1054220D01*
X1052983Y1066743D02*
X1058983D01*
X1055983Y1063743D02*
Y1069743D01*
X1057483Y1071524D02*
Y1068243D01*
Y1071524D02*
X1058960D01*
X1057483Y1069961D02*
X1058392D01*
X1057483Y1068243D02*
X1058960D01*
X1055383Y1056073D02*
X1061383D01*
X1058383Y1053073D02*
Y1059073D01*
X1059883Y1060854D02*
Y1057573D01*
Y1060854D02*
X1061360D01*
X1059883Y1059291D02*
X1060792D01*
X1059883Y1057573D02*
X1061360D01*
X1035623Y1163913D02*
X1041623D01*
X1038623Y1160913D02*
Y1166913D01*
X1040123Y1168694D02*
Y1165413D01*
Y1168694D02*
X1041600D01*
X1040123Y1167131D02*
X1041032D01*
X1040123Y1165413D02*
X1041600D01*
X1023623Y1127913D02*
X1029623D01*
X1026623Y1124913D02*
Y1130913D01*
X1028123Y1132694D02*
Y1129413D01*
Y1132694D02*
X1029600D01*
X1028123Y1131131D02*
X1029032D01*
X1028123Y1129413D02*
X1029600D01*
X1026623Y1127913D02*
X1032623D01*
X1029623Y1124913D02*
Y1130913D01*
X1031123Y1132694D02*
Y1129413D01*
Y1132694D02*
X1032600D01*
X1031123Y1131131D02*
X1032032D01*
X1031123Y1129413D02*
X1032600D01*
X1026623Y1130913D02*
X1032623D01*
X1029623Y1127913D02*
Y1133913D01*
X1031123Y1135694D02*
Y1132413D01*
Y1135694D02*
X1032600D01*
X1031123Y1134131D02*
X1032032D01*
X1031123Y1132413D02*
X1032600D01*
X1023623Y1130913D02*
X1029623D01*
X1026623Y1127913D02*
Y1133913D01*
X1028123Y1135694D02*
Y1132413D01*
Y1135694D02*
X1029600D01*
X1028123Y1134131D02*
X1029032D01*
X1028123Y1132413D02*
X1029600D01*
X1023623Y1091913D02*
X1029623D01*
X1026623Y1088913D02*
Y1094913D01*
X1028123Y1096694D02*
Y1093413D01*
Y1096694D02*
X1029600D01*
X1028123Y1095131D02*
X1029032D01*
X1028123Y1093413D02*
X1029600D01*
X1023623Y1112913D02*
X1029623D01*
X1026623Y1109913D02*
Y1115913D01*
X1028123Y1117694D02*
Y1114413D01*
Y1117694D02*
X1029600D01*
X1028123Y1116131D02*
X1029032D01*
X1028123Y1114413D02*
X1029600D01*
X1026623Y1091913D02*
X1032623D01*
X1029623Y1088913D02*
Y1094913D01*
X1031123Y1096694D02*
Y1093413D01*
Y1096694D02*
X1032600D01*
X1031123Y1095131D02*
X1032032D01*
X1031123Y1093413D02*
X1032600D01*
X1026623Y1094913D02*
X1032623D01*
X1029623Y1091913D02*
Y1097913D01*
X1031123Y1099694D02*
Y1096413D01*
Y1099694D02*
X1032600D01*
X1031123Y1098131D02*
X1032032D01*
X1031123Y1096413D02*
X1032600D01*
X1023623Y1094913D02*
X1029623D01*
X1026623Y1091913D02*
Y1097913D01*
X1028123Y1099694D02*
Y1096413D01*
Y1099694D02*
X1029600D01*
X1028123Y1098131D02*
X1029032D01*
X1028123Y1096413D02*
X1029600D01*
X1023623Y1109913D02*
X1029623D01*
X1026623Y1106913D02*
Y1112913D01*
X1028123Y1114694D02*
Y1111413D01*
Y1114694D02*
X1029600D01*
X1028123Y1113131D02*
X1029032D01*
X1028123Y1111413D02*
X1029600D01*
X1026623Y1109913D02*
X1032623D01*
X1029623Y1106913D02*
Y1112913D01*
X1031123Y1114694D02*
Y1111413D01*
Y1114694D02*
X1032600D01*
X1031123Y1113131D02*
X1032032D01*
X1031123Y1111413D02*
X1032600D01*
X1026623Y1112913D02*
X1032623D01*
X1029623Y1109913D02*
Y1115913D01*
X1031123Y1117694D02*
Y1114413D01*
Y1117694D02*
X1032600D01*
X1031123Y1116131D02*
X1032032D01*
X1031123Y1114413D02*
X1032600D01*
X1035623Y1160913D02*
X1041623D01*
X1038623Y1157913D02*
Y1163913D01*
X1040123Y1165694D02*
Y1162413D01*
Y1165694D02*
X1041600D01*
X1040123Y1164131D02*
X1041032D01*
X1040123Y1162413D02*
X1041600D01*
X1035623Y1148913D02*
X1041623D01*
X1038623Y1145913D02*
Y1151913D01*
X1040123Y1153694D02*
Y1150413D01*
Y1153694D02*
X1041600D01*
X1040123Y1152131D02*
X1041032D01*
X1040123Y1150413D02*
X1041600D01*
X1038623Y1148913D02*
X1044623D01*
X1041623Y1145913D02*
Y1151913D01*
X1043123Y1153694D02*
Y1150413D01*
Y1153694D02*
X1044600D01*
X1043123Y1152131D02*
X1044032D01*
X1043123Y1150413D02*
X1044600D01*
X1038623Y1145913D02*
X1044623D01*
X1041623Y1142913D02*
Y1148913D01*
X1043123Y1150694D02*
Y1147413D01*
Y1150694D02*
X1044600D01*
X1043123Y1149131D02*
X1044032D01*
X1043123Y1147413D02*
X1044600D01*
X1035623Y1145913D02*
X1041623D01*
X1038623Y1142913D02*
Y1148913D01*
X1040123Y1150694D02*
Y1147413D01*
Y1150694D02*
X1041600D01*
X1040123Y1149131D02*
X1041032D01*
X1040123Y1147413D02*
X1041600D01*
X1038623Y1163913D02*
X1044623D01*
X1041623Y1160913D02*
Y1166913D01*
X1043123Y1168694D02*
Y1165413D01*
Y1168694D02*
X1044600D01*
X1043123Y1167131D02*
X1044032D01*
X1043123Y1165413D02*
X1044600D01*
X1038623Y1160913D02*
X1044623D01*
X1041623Y1157913D02*
Y1163913D01*
X1043123Y1165694D02*
Y1162413D01*
Y1165694D02*
X1044600D01*
X1043123Y1164131D02*
X1044032D01*
X1043123Y1162413D02*
X1044600D01*
X1042691Y1088735D02*
X1048691D01*
X1045691Y1085735D02*
Y1091735D01*
X1047191Y1093516D02*
Y1090235D01*
Y1093516D02*
X1048669D01*
X1047191Y1091954D02*
X1048101D01*
X1047191Y1090235D02*
X1048669D01*
X1088183Y1122243D02*
X1094183D01*
X1091183Y1119243D02*
Y1125243D01*
X1092683Y1127024D02*
Y1123743D01*
Y1127024D02*
X1094160D01*
X1092683Y1125461D02*
X1093592D01*
X1092683Y1123743D02*
X1094160D01*
X1091183Y1122243D02*
X1097183D01*
X1094183Y1119243D02*
Y1125243D01*
X1095683Y1127024D02*
Y1123743D01*
Y1127024D02*
X1097160D01*
X1095683Y1125461D02*
X1096592D01*
X1095683Y1123743D02*
X1097160D01*
X1091183Y1119243D02*
X1097183D01*
X1094183Y1116243D02*
Y1122243D01*
X1095683Y1124024D02*
Y1120743D01*
Y1124024D02*
X1097160D01*
X1095683Y1122461D02*
X1096592D01*
X1095683Y1120743D02*
X1097160D01*
X1088183Y1119243D02*
X1094183D01*
X1091183Y1116243D02*
Y1122243D01*
X1092683Y1124024D02*
Y1120743D01*
Y1124024D02*
X1094160D01*
X1092683Y1122461D02*
X1093592D01*
X1092683Y1120743D02*
X1094160D01*
X1056183Y1134243D02*
X1062183D01*
X1059183Y1131243D02*
Y1137243D01*
X1060683Y1139024D02*
Y1135743D01*
Y1139024D02*
X1062160D01*
X1060683Y1137461D02*
X1061592D01*
X1060683Y1135743D02*
X1062160D01*
X1067183Y1132243D02*
X1073183D01*
X1070183Y1129243D02*
Y1135243D01*
X1071683Y1137024D02*
Y1133743D01*
Y1137024D02*
X1073160D01*
X1071683Y1135461D02*
X1072592D01*
X1071683Y1133743D02*
X1073160D01*
X1077183Y1130243D02*
X1083183D01*
X1080183Y1127243D02*
Y1133243D01*
X1081683Y1135024D02*
Y1131743D01*
Y1135024D02*
X1083160D01*
X1081683Y1133461D02*
X1082592D01*
X1081683Y1131743D02*
X1083160D01*
X1068623Y1097913D02*
X1074623D01*
X1071623Y1094913D02*
Y1100913D01*
X1073123Y1102694D02*
Y1099413D01*
Y1102694D02*
X1074600D01*
X1073123Y1101131D02*
X1074032D01*
X1073123Y1099413D02*
X1074600D01*
X1071623Y1100913D02*
X1077623D01*
X1074623Y1097913D02*
Y1103913D01*
X1076123Y1105694D02*
Y1102413D01*
Y1105694D02*
X1077600D01*
X1076123Y1104131D02*
X1077032D01*
X1076123Y1102413D02*
X1077600D01*
X1050623Y1103913D02*
X1056623D01*
X1053623Y1100913D02*
Y1106913D01*
X1055123Y1108694D02*
Y1105413D01*
Y1108694D02*
X1056600D01*
X1055123Y1107131D02*
X1056032D01*
X1055123Y1105413D02*
X1056600D01*
X1053623Y1103913D02*
X1059623D01*
X1056623Y1100913D02*
Y1106913D01*
X1058123Y1108694D02*
Y1105413D01*
Y1108694D02*
X1059600D01*
X1058123Y1107131D02*
X1059032D01*
X1058123Y1105413D02*
X1059600D01*
X1071623Y1097913D02*
X1077623D01*
X1074623Y1094913D02*
Y1100913D01*
X1076123Y1102694D02*
Y1099413D01*
Y1102694D02*
X1077600D01*
X1076123Y1101131D02*
X1077032D01*
X1076123Y1099413D02*
X1077600D01*
X1068223Y1094098D02*
X1074223D01*
X1071223Y1091098D02*
Y1097098D01*
X1072723Y1098879D02*
Y1095598D01*
Y1098879D02*
X1074200D01*
X1072723Y1097317D02*
X1073632D01*
X1068623Y1100913D02*
X1074623D01*
X1071623Y1097913D02*
Y1103913D01*
X1073123Y1105694D02*
Y1102413D01*
Y1105694D02*
X1074600D01*
X1073123Y1104131D02*
X1074032D01*
X1073123Y1102413D02*
X1074600D01*
X1053623Y1100913D02*
X1059623D01*
X1056623Y1097913D02*
Y1103913D01*
X1058123Y1105694D02*
Y1102413D01*
Y1105694D02*
X1059600D01*
X1058123Y1104131D02*
X1059032D01*
X1058123Y1102413D02*
X1059600D01*
X1055383Y1122743D02*
X1061383D01*
X1058383Y1119743D02*
Y1125743D01*
X1059883Y1127524D02*
Y1124243D01*
Y1127524D02*
X1061360D01*
X1059883Y1125961D02*
X1060792D01*
X1059883Y1124243D02*
X1061360D01*
X1045183Y1125243D02*
X1051183D01*
X1048183Y1122243D02*
Y1128243D01*
X1049683Y1130024D02*
Y1126743D01*
Y1130024D02*
X1051160D01*
X1049683Y1128461D02*
X1050592D01*
X1049683Y1126743D02*
X1051160D01*
X1083691Y1125243D02*
X1089691D01*
X1086691Y1122243D02*
Y1128243D01*
X1088191Y1130024D02*
Y1126743D01*
Y1130024D02*
X1089669D01*
X1088191Y1128461D02*
X1089101D01*
X1088191Y1126743D02*
X1089669D01*
X1071763Y1122743D02*
X1077763D01*
X1074763Y1119743D02*
Y1125743D01*
X1076263Y1127524D02*
Y1124243D01*
Y1127524D02*
X1077740D01*
X1076263Y1125961D02*
X1077172D01*
X1076263Y1124243D02*
X1077740D01*
X1050623Y1100913D02*
X1056623D01*
X1053623Y1097913D02*
Y1103913D01*
X1055123Y1105694D02*
Y1102413D01*
Y1105694D02*
X1056600D01*
X1055123Y1104131D02*
X1056032D01*
X1055123Y1102413D02*
X1056600D01*
X1047691Y1088735D02*
X1053691D01*
X1050691Y1085735D02*
Y1091735D01*
X1052191Y1093516D02*
Y1090235D01*
Y1093516D02*
X1053669D01*
X1052191Y1091954D02*
X1053101D01*
X1052191Y1090235D02*
X1053669D01*
X1065691Y1145298D02*
X1071691D01*
X1068691Y1142298D02*
Y1148298D01*
X1070191Y1150079D02*
Y1146798D01*
Y1150079D02*
X1071669D01*
X1070191Y1148517D02*
X1071101D01*
X1070191Y1146798D02*
X1071669D01*
X1071691Y1145298D02*
X1077691D01*
X1074691Y1142298D02*
Y1148298D01*
X1076191Y1150079D02*
Y1146798D01*
Y1150079D02*
X1077669D01*
X1076191Y1148517D02*
X1077101D01*
X1076191Y1146798D02*
X1077669D01*
X1059691Y1145298D02*
X1065691D01*
X1062691Y1142298D02*
Y1148298D01*
X1064191Y1150079D02*
Y1146798D01*
Y1150079D02*
X1065669D01*
X1064191Y1148517D02*
X1065101D01*
X1064191Y1146798D02*
X1065669D01*
X1077691Y1145298D02*
X1083691D01*
X1080691Y1142298D02*
Y1148298D01*
X1082191Y1150079D02*
Y1146798D01*
Y1150079D02*
X1083669D01*
X1082191Y1148517D02*
X1083101D01*
X1082191Y1146798D02*
X1083669D01*
X1089691Y1145298D02*
X1095691D01*
X1092691Y1142298D02*
Y1148298D01*
X1094191Y1150079D02*
Y1146798D01*
Y1150079D02*
X1095669D01*
X1094191Y1148517D02*
X1095101D01*
X1094191Y1146798D02*
X1095669D01*
X1050263Y1094413D02*
X1056263D01*
X1053263Y1091413D02*
Y1097413D01*
X1054763Y1099194D02*
Y1095913D01*
Y1099194D02*
X1056240D01*
X1054763Y1097631D02*
X1055672D01*
X1054763Y1095913D02*
X1056240D01*
X1053691Y1145298D02*
X1059691D01*
X1056691Y1142298D02*
Y1148298D01*
X1058191Y1150079D02*
Y1146798D01*
Y1150079D02*
X1059669D01*
X1058191Y1148517D02*
X1059101D01*
X1058191Y1146798D02*
X1059669D01*
X1083691Y1145298D02*
X1089691D01*
X1086691Y1142298D02*
Y1148298D01*
X1088191Y1150079D02*
Y1146798D01*
Y1150079D02*
X1089669D01*
X1088191Y1148517D02*
X1089101D01*
X1088191Y1146798D02*
X1089669D01*
X1058103Y1104913D02*
X1064103D01*
X1061103Y1101913D02*
Y1107913D01*
X1062603Y1109694D02*
Y1106413D01*
Y1109694D02*
X1064080D01*
X1062603Y1108131D02*
X1063512D01*
X1062603Y1106413D02*
X1064080D01*
X1065623Y1102913D02*
X1071623D01*
X1068623Y1099913D02*
Y1105913D01*
X1070123Y1107694D02*
Y1104413D01*
Y1107694D02*
X1071600D01*
X1070123Y1106131D02*
X1071032D01*
X1070123Y1104413D02*
X1071600D01*
X1063103Y1104913D02*
X1069103D01*
X1066103Y1101913D02*
Y1107913D01*
X1067603Y1109694D02*
Y1106413D01*
Y1109694D02*
X1069080D01*
X1067603Y1108131D02*
X1068512D01*
X1067603Y1106413D02*
X1069080D01*
X1035623Y1220913D02*
X1041623D01*
X1038623Y1217913D02*
Y1223913D01*
X1040123Y1225694D02*
Y1222413D01*
Y1225694D02*
X1041600D01*
X1040123Y1224131D02*
X1041032D01*
X1040123Y1222413D02*
X1041600D01*
X1038623Y1220913D02*
X1044623D01*
X1041623Y1217913D02*
Y1223913D01*
X1043123Y1225694D02*
Y1222413D01*
Y1225694D02*
X1044600D01*
X1043123Y1224131D02*
X1044032D01*
X1043123Y1222413D02*
X1044600D01*
X1038623Y1217913D02*
X1044623D01*
X1041623Y1214913D02*
Y1220913D01*
X1043123Y1222694D02*
Y1219413D01*
Y1222694D02*
X1044600D01*
X1043123Y1221131D02*
X1044032D01*
X1043123Y1219413D02*
X1044600D01*
X1035623Y1217913D02*
X1041623D01*
X1038623Y1214913D02*
Y1220913D01*
X1040123Y1222694D02*
Y1219413D01*
Y1222694D02*
X1041600D01*
X1040123Y1221131D02*
X1041032D01*
X1040123Y1219413D02*
X1041600D01*
X1035623Y1205913D02*
X1041623D01*
X1038623Y1202913D02*
Y1208913D01*
X1040123Y1210694D02*
Y1207413D01*
Y1210694D02*
X1041600D01*
X1040123Y1209131D02*
X1041032D01*
X1040123Y1207413D02*
X1041600D01*
X1038623Y1205913D02*
X1044623D01*
X1041623Y1202913D02*
Y1208913D01*
X1043123Y1210694D02*
Y1207413D01*
Y1210694D02*
X1044600D01*
X1043123Y1209131D02*
X1044032D01*
X1043123Y1207413D02*
X1044600D01*
X1038623Y1202913D02*
X1044623D01*
X1041623Y1199913D02*
Y1205913D01*
X1043123Y1207694D02*
Y1204413D01*
Y1207694D02*
X1044600D01*
X1043123Y1206131D02*
X1044032D01*
X1043123Y1204413D02*
X1044600D01*
X1035623Y1202913D02*
X1041623D01*
X1038623Y1199913D02*
Y1205913D01*
X1040123Y1207694D02*
Y1204413D01*
Y1207694D02*
X1041600D01*
X1040123Y1206131D02*
X1041032D01*
X1040123Y1204413D02*
X1041600D01*
X1035623Y1190913D02*
X1041623D01*
X1038623Y1187913D02*
Y1193913D01*
X1040123Y1195694D02*
Y1192413D01*
Y1195694D02*
X1041600D01*
X1040123Y1194131D02*
X1041032D01*
X1040123Y1192413D02*
X1041600D01*
X1038623Y1190913D02*
X1044623D01*
X1041623Y1187913D02*
Y1193913D01*
X1043123Y1195694D02*
Y1192413D01*
Y1195694D02*
X1044600D01*
X1043123Y1194131D02*
X1044032D01*
X1043123Y1192413D02*
X1044600D01*
X1038623Y1187913D02*
X1044623D01*
X1041623Y1184913D02*
Y1190913D01*
X1043123Y1192694D02*
Y1189413D01*
Y1192694D02*
X1044600D01*
X1043123Y1191131D02*
X1044032D01*
X1043123Y1189413D02*
X1044600D01*
X1035623Y1187913D02*
X1041623D01*
X1038623Y1184913D02*
Y1190913D01*
X1040123Y1192694D02*
Y1189413D01*
Y1192694D02*
X1041600D01*
X1040123Y1191131D02*
X1041032D01*
X1040123Y1189413D02*
X1041600D01*
X1035623Y1178913D02*
X1041623D01*
X1038623Y1175913D02*
Y1181913D01*
X1040123Y1183694D02*
Y1180413D01*
Y1183694D02*
X1041600D01*
X1040123Y1182131D02*
X1041032D01*
X1040123Y1180413D02*
X1041600D01*
X1038623Y1178913D02*
X1044623D01*
X1041623Y1175913D02*
Y1181913D01*
X1043123Y1183694D02*
Y1180413D01*
Y1183694D02*
X1044600D01*
X1043123Y1182131D02*
X1044032D01*
X1043123Y1180413D02*
X1044600D01*
X1038623Y1175913D02*
X1044623D01*
X1041623Y1172913D02*
Y1178913D01*
X1043123Y1180694D02*
Y1177413D01*
Y1180694D02*
X1044600D01*
X1043123Y1179131D02*
X1044032D01*
X1043123Y1177413D02*
X1044600D01*
X1035623Y1175913D02*
X1041623D01*
X1038623Y1172913D02*
Y1178913D01*
X1040123Y1180694D02*
Y1177413D01*
Y1180694D02*
X1041600D01*
X1040123Y1179131D02*
X1041032D01*
X1040123Y1177413D02*
X1041600D01*
X1023623Y1238913D02*
X1029623D01*
X1026623Y1235913D02*
Y1241913D01*
X1028123Y1243694D02*
Y1240413D01*
Y1243694D02*
X1029600D01*
X1028123Y1242131D02*
X1029032D01*
X1028123Y1240413D02*
X1029600D01*
X1026623Y1238913D02*
X1032623D01*
X1029623Y1235913D02*
Y1241913D01*
X1031123Y1243694D02*
Y1240413D01*
Y1243694D02*
X1032600D01*
X1031123Y1242131D02*
X1032032D01*
X1031123Y1240413D02*
X1032600D01*
X1026623Y1241913D02*
X1032623D01*
X1029623Y1238913D02*
Y1244913D01*
X1031123Y1246694D02*
Y1243413D01*
Y1246694D02*
X1032600D01*
X1031123Y1245131D02*
X1032032D01*
X1031123Y1243413D02*
X1032600D01*
X1023623Y1241913D02*
X1029623D01*
X1026623Y1238913D02*
Y1244913D01*
X1028123Y1246694D02*
Y1243413D01*
Y1246694D02*
X1029600D01*
X1028123Y1245131D02*
X1029032D01*
X1028123Y1243413D02*
X1029600D01*
X1063183Y1189243D02*
X1069183D01*
X1066183Y1186243D02*
Y1192243D01*
X1067683Y1194024D02*
Y1190743D01*
Y1194024D02*
X1069160D01*
X1067683Y1192461D02*
X1068592D01*
X1067683Y1190743D02*
X1069160D01*
X1056623Y1229913D02*
X1062623D01*
X1059623Y1226913D02*
Y1232913D01*
X1061123Y1234694D02*
Y1231413D01*
Y1234694D02*
X1062600D01*
X1061123Y1233131D02*
X1062032D01*
X1061123Y1231413D02*
X1062600D01*
X1059623Y1229913D02*
X1065623D01*
X1062623Y1226913D02*
Y1232913D01*
X1064123Y1234694D02*
Y1231413D01*
Y1234694D02*
X1065600D01*
X1064123Y1233131D02*
X1065032D01*
X1064123Y1231413D02*
X1065600D01*
X1059623Y1232913D02*
X1065623D01*
X1062623Y1229913D02*
Y1235913D01*
X1064123Y1237694D02*
Y1234413D01*
Y1237694D02*
X1065600D01*
X1064123Y1236131D02*
X1065032D01*
X1064123Y1234413D02*
X1065600D01*
X1056623Y1232913D02*
X1062623D01*
X1059623Y1229913D02*
Y1235913D01*
X1061123Y1237694D02*
Y1234413D01*
Y1237694D02*
X1062600D01*
X1061123Y1236131D02*
X1062032D01*
X1061123Y1234413D02*
X1062600D01*
X1074743Y1226743D02*
X1080743D01*
X1077743Y1223743D02*
Y1229743D01*
X1079243Y1231524D02*
Y1228243D01*
Y1231524D02*
X1080720D01*
X1079243Y1229961D02*
X1080152D01*
X1079243Y1228243D02*
X1080720D01*
X1074743Y1190743D02*
X1080743D01*
X1077743Y1187743D02*
Y1193743D01*
X1079243Y1195524D02*
Y1192243D01*
Y1195524D02*
X1080720D01*
X1079243Y1193961D02*
X1080152D01*
X1079243Y1192243D02*
X1080720D01*
X1060743Y1206743D02*
X1066743D01*
X1063743Y1203743D02*
Y1209743D01*
X1065243Y1211524D02*
Y1208243D01*
Y1211524D02*
X1066720D01*
X1065243Y1209961D02*
X1066152D01*
X1065243Y1208243D02*
X1066720D01*
X1061243Y1218743D02*
X1067243D01*
X1064243Y1215743D02*
Y1221743D01*
X1065743Y1223524D02*
Y1220243D01*
Y1223524D02*
X1067220D01*
X1065743Y1221961D02*
X1066652D01*
X1065743Y1220243D02*
X1067220D01*
X1061243Y1222743D02*
X1067243D01*
X1064243Y1219743D02*
Y1225743D01*
X1065743Y1227524D02*
Y1224243D01*
Y1227524D02*
X1067220D01*
X1065743Y1225961D02*
X1066652D01*
X1065743Y1224243D02*
X1067220D01*
X1061243Y1214743D02*
X1067243D01*
X1064243Y1211743D02*
Y1217743D01*
X1065743Y1219524D02*
Y1216243D01*
Y1219524D02*
X1067220D01*
X1065743Y1217961D02*
X1066652D01*
X1065743Y1216243D02*
X1067220D01*
X1061243Y1194743D02*
X1067243D01*
X1064243Y1191743D02*
Y1197743D01*
X1065743Y1199524D02*
Y1196243D01*
Y1199524D02*
X1067220D01*
X1065743Y1197961D02*
X1066652D01*
X1065743Y1196243D02*
X1067220D01*
X1061243Y1210743D02*
X1067243D01*
X1064243Y1207743D02*
Y1213743D01*
X1065743Y1215524D02*
Y1212243D01*
Y1215524D02*
X1067220D01*
X1065743Y1213961D02*
X1066652D01*
X1065743Y1212243D02*
X1067220D01*
X1061243Y1198743D02*
X1067243D01*
X1064243Y1195743D02*
Y1201743D01*
X1065743Y1203524D02*
Y1200243D01*
Y1203524D02*
X1067220D01*
X1065743Y1201961D02*
X1066652D01*
X1065743Y1200243D02*
X1067220D01*
X1061243Y1202743D02*
X1067243D01*
X1064243Y1199743D02*
Y1205743D01*
X1065743Y1207524D02*
Y1204243D01*
Y1207524D02*
X1067220D01*
X1065743Y1205961D02*
X1066652D01*
X1065743Y1204243D02*
X1067220D01*
X1004243Y1253243D02*
G75*
G03X998243Y1247243I-0J-6000D01*
G01X1004243Y1253243D02*
X1106242D01*
X1112242Y1247243D02*
G03X1106242Y1253243I-6000J-0D01*
G01X1112242Y1247243D02*
X1112243Y1235514D01*
X1086353*
G03X1080353Y1229514I-0J-6000*
G01Y1187971*
G03X1086353Y1181971I6000J-0*
G01X1112243*
Y1004243*
X1106243Y998243D02*
G03X1112243Y1004243I-0J6000D01*
G01X1106243Y998243D02*
X1004243D01*
X998243Y1004243D02*
G03X1004243Y998243I6000J-0D01*
G01X998243Y1004243D02*
Y1247243D01*
X836000Y724000D02*
X1118000D01*
X836000Y700000D02*
X1118000D01*
X836000Y676000D02*
X1118000D01*
X836000Y652000D02*
X1118000D01*
X836000Y628000D02*
X1118000D01*
X836000Y604000D02*
X1118000D01*
X836000Y580000D02*
X1118000D01*
X836000Y724000D02*
Y580000D01*
X920000Y724000D02*
Y580000D01*
X956000Y724000D02*
Y580000D01*
X992000Y724000D02*
Y580000D01*
X1046000Y724000D02*
Y580000D01*
X1118000Y724000D02*
Y580000D01*
X1074682Y713875D02*
Y706000D01*
X1072773Y713875D02*
X1076591D01*
X1080682D02*
X1080136Y713500D01*
X1079591Y712750*
X1079318Y712000*
X1079045Y710875*
Y709000*
X1079318Y707875*
X1079591Y707125*
X1080136Y706375*
X1080682Y706000*
X1081773*
X1082318Y706375*
X1082864Y707125*
X1083136Y707875*
X1083409Y709000*
Y710875*
X1083136Y712000*
X1082864Y712750*
X1082318Y713500*
X1081773Y713875*
X1080682*
X1085864D02*
Y706000D01*
X1089136*
X842545Y689875D02*
X845545D01*
X843909Y686875*
X844727*
X845273Y686500*
X845545Y686125*
X845818Y685000*
Y684250*
X845545Y683125*
X845000Y682375*
X844182Y682000*
X843364*
X842545Y682375*
X842273Y682750*
X842000Y683500*
X851818Y689875D02*
X849091D01*
X848818Y686500*
X849091Y686875*
X849909Y687250*
X850727*
X851545Y686875*
X852091Y686125*
X852364Y685000*
X852091Y684250*
X851818Y683125*
X851273Y682375*
X850455Y682000*
X849636*
X848818Y682375*
X848545Y682750*
X848273Y683500*
X935318Y689875D02*
X932591D01*
X932318Y686500*
X932591Y686875*
X933409Y687250*
X934227*
X935045Y686875*
X935591Y686125*
X935864Y685000*
X935591Y684250*
X935318Y683125*
X934773Y682375*
X933955Y682000*
X933136*
X932318Y682375*
X932045Y682750*
X931773Y683500*
X939955Y689875D02*
X939136Y689500D01*
X938591Y688375*
X938318Y686500*
Y685375*
X938591Y683500*
X939136Y682375*
X939955Y682000*
X940500*
X941318Y682375*
X941864Y683500*
X942136Y685375*
Y686500*
X941864Y688375*
X941318Y689500*
X940500Y689875*
X939955*
X968000Y688000D02*
X980000D01*
X974000Y682000D02*
Y694000D01*
X977000Y697300D02*
Y691000D01*
Y697300D02*
X978964D01*
X979618Y697000*
X979836Y696700*
X980055Y696100*
Y695500*
X979836Y694900*
X979618Y694600*
X978964Y694300*
X977000D02*
X978964D01*
X979618Y694000*
X979836Y693700*
X980055Y693100*
Y692200*
X979836Y691600*
X979618Y691300*
X978964Y691000*
X977000*
X1000636Y689875D02*
X1002818Y686125D01*
Y682000*
X1005000Y689875D02*
X1002818Y686125D01*
X1007455Y689875D02*
Y682000D01*
Y689875D02*
X1011000D01*
X1007455Y686125D02*
X1009636D01*
X1007455Y682000D02*
X1011000D01*
X1017273Y688750D02*
X1016727Y689500D01*
X1015909Y689875*
X1014818*
X1014000Y689500*
X1013455Y688750*
Y688000*
X1013727Y687250*
X1014000Y686875*
X1014545Y686500*
X1016182Y685750*
X1016727Y685375*
X1017000Y685000*
X1017273Y684250*
Y683125*
X1016727Y682375*
X1015909Y682000*
X1014818*
X1014000Y682375*
X1013455Y683125*
X1059545Y688750D02*
Y682000D01*
X1057091Y685375D02*
X1062000D01*
X1069364Y691375D02*
X1064455Y679375D01*
X1071818Y685375D02*
X1076727D01*
X1080818Y689875D02*
X1080000Y689500D01*
X1079455Y688375*
X1079182Y686500*
Y685375*
X1079455Y683500*
X1080000Y682375*
X1080818Y682000*
X1081364*
X1082182Y682375*
X1082727Y683500*
X1083000Y685375*
Y686500*
X1082727Y688375*
X1082182Y689500*
X1081364Y689875*
X1080818*
X1085727Y682750D02*
X1085455Y682375D01*
X1085727Y682000*
X1086000Y682375*
X1085727Y682750*
X1090091Y689875D02*
X1089273Y689500D01*
X1088727Y688375*
X1088455Y686500*
Y685375*
X1088727Y683500*
X1089273Y682375*
X1090091Y682000*
X1090636*
X1091455Y682375*
X1092000Y683500*
X1092273Y685375*
Y686500*
X1092000Y688375*
X1091455Y689500*
X1090636Y689875*
X1090091*
X1096364D02*
X1095545Y689500D01*
X1095000Y688375*
X1094727Y686500*
Y685375*
X1095000Y683500*
X1095545Y682375*
X1096364Y682000*
X1096909*
X1097727Y682375*
X1098273Y683500*
X1098545Y685375*
Y686500*
X1098273Y688375*
X1097727Y689500*
X1096909Y689875*
X1096364*
X1101545D02*
X1104545D01*
X1102909Y686875*
X1103727*
X1104273Y686500*
X1104545Y686125*
X1104818Y685000*
Y684250*
X1104545Y683125*
X1104000Y682375*
X1103182Y682000*
X1102364*
X1101545Y682375*
X1101273Y682750*
X1101000Y683500*
X842545Y665875D02*
X845545D01*
X843909Y662875*
X844727*
X845273Y662500*
X845545Y662125*
X845818Y661000*
Y660250*
X845545Y659125*
X845000Y658375*
X844182Y658000*
X843364*
X842545Y658375*
X842273Y658750*
X842000Y659500*
X851818Y663250D02*
X851545Y662125D01*
X851000Y661375*
X850182Y661000*
X849909*
X849091Y661375*
X848545Y662125*
X848273Y663250*
Y663625*
X848545Y664750*
X849091Y665500*
X849909Y665875*
X850182*
X851000Y665500*
X851545Y664750*
X851818Y663250*
Y661375*
X851545Y659500*
X851000Y658375*
X850182Y658000*
X849636*
X848818Y658375*
X848545Y659125*
X854545Y658750D02*
X854273Y658375D01*
X854545Y658000*
X854818Y658375*
X854545Y658750*
X857818Y665875D02*
X860818D01*
X859182Y662875*
X860000*
X860545Y662500*
X860818Y662125*
X861091Y661000*
Y660250*
X860818Y659125*
X860273Y658375*
X859455Y658000*
X858636*
X857818Y658375*
X857545Y658750*
X857273Y659500*
X867364Y665875D02*
X864636Y658000D01*
X863545Y665875D02*
X867364D01*
X935318Y664000D02*
Y664375D01*
X935591Y665125*
X935864Y665500*
X936409Y665875*
X937500*
X938045Y665500*
X938318Y665125*
X938591Y664375*
Y663625*
X938318Y662875*
X937773Y661750*
X935045Y658000*
X938864*
X968000Y664000D02*
X980000D01*
X974000Y658000D02*
Y670000D01*
X980273Y671800D02*
X980055Y672400D01*
X979618Y673000*
X979182Y673300*
X978309*
X977873Y673000*
X977436Y672400*
X977218Y671800*
X977000Y670900*
Y669400*
X977218Y668500*
X977436Y667900*
X977873Y667300*
X978309Y667000*
X979182*
X979618Y667300*
X980055Y667900*
X980273Y668500*
X1000636Y665875D02*
X1002818Y662125D01*
Y658000*
X1005000Y665875D02*
X1002818Y662125D01*
X1007455Y665875D02*
Y658000D01*
Y665875D02*
X1011000D01*
X1007455Y662125D02*
X1009636D01*
X1007455Y658000D02*
X1011000D01*
X1017273Y664750D02*
X1016727Y665500D01*
X1015909Y665875*
X1014818*
X1014000Y665500*
X1013455Y664750*
Y664000*
X1013727Y663250*
X1014000Y662875*
X1014545Y662500*
X1016182Y661750*
X1016727Y661375*
X1017000Y661000*
X1017273Y660250*
Y659125*
X1016727Y658375*
X1015909Y658000*
X1014818*
X1014000Y658375*
X1013455Y659125*
X1059545Y664750D02*
Y658000D01*
X1057091Y661375D02*
X1062000D01*
X1069364Y667375D02*
X1064455Y655375D01*
X1071818Y661375D02*
X1076727D01*
X1080818Y665875D02*
X1080000Y665500D01*
X1079455Y664375*
X1079182Y662500*
Y661375*
X1079455Y659500*
X1080000Y658375*
X1080818Y658000*
X1081364*
X1082182Y658375*
X1082727Y659500*
X1083000Y661375*
Y662500*
X1082727Y664375*
X1082182Y665500*
X1081364Y665875*
X1080818*
X1085727Y658750D02*
X1085455Y658375D01*
X1085727Y658000*
X1086000Y658375*
X1085727Y658750*
X1090091Y665875D02*
X1089273Y665500D01*
X1088727Y664375*
X1088455Y662500*
Y661375*
X1088727Y659500*
X1089273Y658375*
X1090091Y658000*
X1090636*
X1091455Y658375*
X1092000Y659500*
X1092273Y661375*
Y662500*
X1092000Y664375*
X1091455Y665500*
X1090636Y665875*
X1090091*
X1096364D02*
X1095545Y665500D01*
X1095000Y664375*
X1094727Y662500*
Y661375*
X1095000Y659500*
X1095545Y658375*
X1096364Y658000*
X1096909*
X1097727Y658375*
X1098273Y659500*
X1098545Y661375*
Y662500*
X1098273Y664375*
X1097727Y665500*
X1096909Y665875*
X1096364*
X1101545D02*
X1104545D01*
X1102909Y662875*
X1103727*
X1104273Y662500*
X1104545Y662125*
X1104818Y661000*
Y660250*
X1104545Y659125*
X1104000Y658375*
X1103182Y658000*
X1102364*
X1101545Y658375*
X1101273Y658750*
X1101000Y659500*
X845818Y641875D02*
X843091Y634000D01*
X842000Y641875D02*
X845818D01*
X849636D02*
X848818Y641500D01*
X848545Y640750*
Y640000*
X848818Y639250*
X849364Y638875*
X850455Y638500*
X851273Y638125*
X851818Y637375*
X852091Y636625*
Y635500*
X851818Y634750*
X851545Y634375*
X850727Y634000*
X849636*
X848818Y634375*
X848545Y634750*
X848273Y635500*
Y636625*
X848545Y637375*
X849091Y638125*
X849909Y638500*
X851000Y638875*
X851545Y639250*
X851818Y640000*
Y640750*
X851545Y641500*
X850727Y641875*
X849636*
X854818Y634750D02*
X854545Y634375D01*
X854818Y634000*
X855091Y634375*
X854818Y634750*
X861364Y641875D02*
X858636Y634000D01*
X857545Y641875D02*
X861364D01*
X866545D02*
X863818Y636625D01*
X867909*
X866545Y641875D02*
Y634000D01*
X935318Y640000D02*
Y640375D01*
X935591Y641125*
X935864Y641500*
X936409Y641875*
X937500*
X938045Y641500*
X938318Y641125*
X938591Y640375*
Y639625*
X938318Y638875*
X937773Y637750*
X935045Y634000*
X938864*
X968000Y640000D02*
X980000D01*
X974000Y634000D02*
Y646000D01*
X977000Y649300D02*
Y643000D01*
Y649300D02*
X978527D01*
X979182Y649000*
X979618Y648400*
X979836Y647800*
X980055Y646900*
Y645400*
X979836Y644500*
X979618Y643900*
X979182Y643300*
X978527Y643000*
X977000*
X1000636Y641875D02*
X1002818Y638125D01*
Y634000*
X1005000Y641875D02*
X1002818Y638125D01*
X1007455Y641875D02*
Y634000D01*
Y641875D02*
X1011000D01*
X1007455Y638125D02*
X1009636D01*
X1007455Y634000D02*
X1011000D01*
X1017273Y640750D02*
X1016727Y641500D01*
X1015909Y641875*
X1014818*
X1014000Y641500*
X1013455Y640750*
Y640000*
X1013727Y639250*
X1014000Y638875*
X1014545Y638500*
X1016182Y637750*
X1016727Y637375*
X1017000Y637000*
X1017273Y636250*
Y635125*
X1016727Y634375*
X1015909Y634000*
X1014818*
X1014000Y634375*
X1013455Y635125*
X1059545Y640750D02*
Y634000D01*
X1057091Y637375D02*
X1062000D01*
X1069364Y643375D02*
X1064455Y631375D01*
X1071818Y637375D02*
X1076727D01*
X1080818Y641875D02*
X1080000Y641500D01*
X1079455Y640375*
X1079182Y638500*
Y637375*
X1079455Y635500*
X1080000Y634375*
X1080818Y634000*
X1081364*
X1082182Y634375*
X1082727Y635500*
X1083000Y637375*
Y638500*
X1082727Y640375*
X1082182Y641500*
X1081364Y641875*
X1080818*
X1085727Y634750D02*
X1085455Y634375D01*
X1085727Y634000*
X1086000Y634375*
X1085727Y634750*
X1090091Y641875D02*
X1089273Y641500D01*
X1088727Y640375*
X1088455Y638500*
Y637375*
X1088727Y635500*
X1089273Y634375*
X1090091Y634000*
X1090636*
X1091455Y634375*
X1092000Y635500*
X1092273Y637375*
Y638500*
X1092000Y640375*
X1091455Y641500*
X1090636Y641875*
X1090091*
X1096364D02*
X1095545Y641500D01*
X1095000Y640375*
X1094727Y638500*
Y637375*
X1095000Y635500*
X1095545Y634375*
X1096364Y634000*
X1096909*
X1097727Y634375*
X1098273Y635500*
X1098545Y637375*
Y638500*
X1098273Y640375*
X1097727Y641500*
X1096909Y641875*
X1096364*
X1101545D02*
X1104545D01*
X1102909Y638875*
X1103727*
X1104273Y638500*
X1104545Y638125*
X1104818Y637000*
Y636250*
X1104545Y635125*
X1104000Y634375*
X1103182Y634000*
X1102364*
X1101545Y634375*
X1101273Y634750*
X1101000Y635500*
X842000Y616375D02*
X842545Y616750D01*
X843364Y617875*
Y610000*
X847455Y617875D02*
X846636Y617500D01*
X846091Y616375*
X845818Y614500*
Y613375*
X846091Y611500*
X846636Y610375*
X847455Y610000*
X848000*
X848818Y610375*
X849364Y611500*
X849636Y613375*
Y614500*
X849364Y616375*
X848818Y617500*
X848000Y617875*
X847455*
X929864Y616375D02*
X930409Y616750D01*
X931227Y617875*
Y610000*
X933955Y616000D02*
Y616375D01*
X934227Y617125*
X934500Y617500*
X935045Y617875*
X936136*
X936682Y617500*
X936955Y617125*
X937227Y616375*
Y615625*
X936955Y614875*
X936409Y613750*
X933682Y610000*
X937500*
X943500Y617875D02*
X940773D01*
X940500Y614500*
X940773Y614875*
X941591Y615250*
X942409*
X943227Y614875*
X943773Y614125*
X944045Y613000*
X943773Y612250*
X943500Y611125*
X942955Y610375*
X942136Y610000*
X941318*
X940500Y610375*
X940227Y610750*
X939955Y611500*
X968000Y616000D02*
X980000D01*
X974000Y610000D02*
Y622000D01*
X977000Y625300D02*
Y619000D01*
Y625300D02*
X979836D01*
X977000Y622300D02*
X978745D01*
X977000Y619000D02*
X979836D01*
X1000636Y617875D02*
X1002818Y614125D01*
Y610000*
X1005000Y617875D02*
X1002818Y614125D01*
X1007455Y617875D02*
Y610000D01*
Y617875D02*
X1011000D01*
X1007455Y614125D02*
X1009636D01*
X1007455Y610000D02*
X1011000D01*
X1017273Y616750D02*
X1016727Y617500D01*
X1015909Y617875*
X1014818*
X1014000Y617500*
X1013455Y616750*
Y616000*
X1013727Y615250*
X1014000Y614875*
X1014545Y614500*
X1016182Y613750*
X1016727Y613375*
X1017000Y613000*
X1017273Y612250*
Y611125*
X1016727Y610375*
X1015909Y610000*
X1014818*
X1014000Y610375*
X1013455Y611125*
X1059545Y616750D02*
Y610000D01*
X1057091Y613375D02*
X1062000D01*
X1069364Y619375D02*
X1064455Y607375D01*
X1071818Y613375D02*
X1076727D01*
X1080818Y617875D02*
X1080000Y617500D01*
X1079455Y616375*
X1079182Y614500*
Y613375*
X1079455Y611500*
X1080000Y610375*
X1080818Y610000*
X1081364*
X1082182Y610375*
X1082727Y611500*
X1083000Y613375*
Y614500*
X1082727Y616375*
X1082182Y617500*
X1081364Y617875*
X1080818*
X1085727Y610750D02*
X1085455Y610375D01*
X1085727Y610000*
X1086000Y610375*
X1085727Y610750*
X1090091Y617875D02*
X1089273Y617500D01*
X1088727Y616375*
X1088455Y614500*
Y613375*
X1088727Y611500*
X1089273Y610375*
X1090091Y610000*
X1090636*
X1091455Y610375*
X1092000Y611500*
X1092273Y613375*
Y614500*
X1092000Y616375*
X1091455Y617500*
X1090636Y617875*
X1090091*
X1096364D02*
X1095545Y617500D01*
X1095000Y616375*
X1094727Y614500*
Y613375*
X1095000Y611500*
X1095545Y610375*
X1096364Y610000*
X1096909*
X1097727Y610375*
X1098273Y611500*
X1098545Y613375*
Y614500*
X1098273Y616375*
X1097727Y617500*
X1096909Y617875*
X1096364*
X1101545D02*
X1104545D01*
X1102909Y614875*
X1103727*
X1104273Y614500*
X1104545Y614125*
X1104818Y613000*
Y612250*
X1104545Y611125*
X1104000Y610375*
X1103182Y610000*
X1102364*
X1101545Y610375*
X1101273Y610750*
X1101000Y611500*
X842000Y592375D02*
X842545Y592750D01*
X843364Y593875*
Y586000*
X849364Y593875D02*
X846636D01*
X846364Y590500*
X846636Y590875*
X847455Y591250*
X848273*
X849091Y590875*
X849636Y590125*
X849909Y589000*
X849636Y588250*
X849364Y587125*
X848818Y586375*
X848000Y586000*
X847182*
X846364Y586375*
X846091Y586750*
X845818Y587500*
X935318Y592000D02*
Y592375D01*
X935591Y593125*
X935864Y593500*
X936409Y593875*
X937500*
X938045Y593500*
X938318Y593125*
X938591Y592375*
Y591625*
X938318Y590875*
X937773Y589750*
X935045Y586000*
X938864*
X968000Y592000D02*
X980000D01*
X974000Y586000D02*
Y598000D01*
X977000Y601300D02*
Y595000D01*
Y601300D02*
X979836D01*
X977000Y598300D02*
X978745D01*
X1000636Y593875D02*
X1002818Y590125D01*
Y586000*
X1005000Y593875D02*
X1002818Y590125D01*
X1007455Y593875D02*
Y586000D01*
Y593875D02*
X1011000D01*
X1007455Y590125D02*
X1009636D01*
X1007455Y586000D02*
X1011000D01*
X1017273Y592750D02*
X1016727Y593500D01*
X1015909Y593875*
X1014818*
X1014000Y593500*
X1013455Y592750*
Y592000*
X1013727Y591250*
X1014000Y590875*
X1014545Y590500*
X1016182Y589750*
X1016727Y589375*
X1017000Y589000*
X1017273Y588250*
Y587125*
X1016727Y586375*
X1015909Y586000*
X1014818*
X1014000Y586375*
X1013455Y587125*
X1059545Y592750D02*
Y586000D01*
X1057091Y589375D02*
X1062000D01*
X1069364Y595375D02*
X1064455Y583375D01*
X1071818Y589375D02*
X1076727D01*
X1080818Y593875D02*
X1080000Y593500D01*
X1079455Y592375*
X1079182Y590500*
Y589375*
X1079455Y587500*
X1080000Y586375*
X1080818Y586000*
X1081364*
X1082182Y586375*
X1082727Y587500*
X1083000Y589375*
Y590500*
X1082727Y592375*
X1082182Y593500*
X1081364Y593875*
X1080818*
X1085727Y586750D02*
X1085455Y586375D01*
X1085727Y586000*
X1086000Y586375*
X1085727Y586750*
X1090091Y593875D02*
X1089273Y593500D01*
X1088727Y592375*
X1088455Y590500*
Y589375*
X1088727Y587500*
X1089273Y586375*
X1090091Y586000*
X1090636*
X1091455Y586375*
X1092000Y587500*
X1092273Y589375*
Y590500*
X1092000Y592375*
X1091455Y593500*
X1090636Y593875*
X1090091*
X1096364D02*
X1095545Y593500D01*
X1095000Y592375*
X1094727Y590500*
Y589375*
X1095000Y587500*
X1095545Y586375*
X1096364Y586000*
X1096909*
X1097727Y586375*
X1098273Y587500*
X1098545Y589375*
Y590500*
X1098273Y592375*
X1097727Y593500*
X1096909Y593875*
X1096364*
X1101545D02*
X1104545D01*
X1102909Y590875*
X1103727*
X1104273Y590500*
X1104545Y590125*
X1104818Y589000*
Y588250*
X1104545Y587125*
X1104000Y586375*
X1103182Y586000*
X1102364*
X1101545Y586375*
X1101273Y586750*
X1101000Y587500*
G54D43*
G74*
X0Y0D02*
M02*
